<svg xmlns="http://www.w3.org/2000/svg" viewBox="0 0 16 16"><defs><style>.cls-1{fill:#67cc64;}.cls-2{fill:#d7847c;}.cls-3{fill:#fff;}.cls-4{fill:#242b33;}.cls-5{fill:#999;}</style></defs><g id="Assetlist_-_Artboard" data-name="Assetlist - Artboard"><ellipse class="cls-1" cx="8.05" cy="8.59" rx="6.92" ry="7.41"/><g id="bange_mund" data-name="bange mund"><path d="M11.52,12.71a4,4,0,0,0-1.33-.9,1.83,1.83,0,0,0-1.83,0,4.73,4.73,0,0,0-1.29.91.21.21,0,0,0,.14.36l1.2.06h.1a1.17,1.17,0,0,1,1.75,0l1.12-.08A.21.21,0,0,0,11.52,12.71Z"/><path class="cls-2" d="M8.51,13.18a13.32,13.32,0,0,0,1.67,0h.08A1.17,1.17,0,0,0,8.51,13.18Z"/></g><g id="øje2"><ellipse class="cls-3" cx="7.14" cy="8.18" rx="1.91" ry="1.92"/><path d="M7.23,9.3c-1,0-1.76-.44-1.8-1.41A1.61,1.61,0,0,1,5.81,6.8,1.92,1.92,0,1,0,9.05,8.22C8.9,9,8.07,9.3,7.23,9.3Z"/></g><g id="øje2-2" data-name="øje2"><ellipse class="cls-3" cx="11.78" cy="8.18" rx="1.91" ry="1.92"/><path d="M11.69,9.3c1,0,1.76-.44,1.8-1.41a1.61,1.61,0,0,0-.38-1.09A1.92,1.92,0,1,1,9.87,8.22C10,9,10.85,9.3,11.69,9.3Z"/></g><ellipse cx="7.28" cy="8.18" rx="0.59" ry="0.58"/><ellipse cx="11.83" cy="8.18" rx="0.59" ry="0.58"/><g id="cap-_blå" data-name="cap- blå"><path d="M4.38,4.1a1.81,1.81,0,0,1,.37-2.26H4.54C2.05,1.84,0,2.42,0,3.13s2,1.3,4.51,1.3h.1A2.91,2.91,0,0,1,4.38,4.1Z"/><path d="M8.08.27s.24-.6.49,0Z"/><path class="cls-4" d="M2.18,4.47H14C8.12-5.18,2.18,4.47,2.18,4.47ZM6.43,4.2s1.86-3,3.7,0Z"/><rect x="8.26" y="0.18" width="0.13" height="2.68"/><path d="M2.42,4.47S4.66.8,8.26.27V.39S5.48.54,2.52,4.47Z"/><path d="M13.76,4.47S11.69.8,8.38.27V.39s2.56.15,5.28,4.08Z"/><rect class="cls-5" x="6.91" y="4.11" width="0.95" height="0.45" rx="0.12"/><ellipse cx="10.28" cy="2.23" rx="0.14" ry="0.23" transform="translate(1.8 8.46) rotate(-48.55)"/><ellipse cx="6.28" cy="2.23" rx="0.23" ry="0.14" transform="translate(0.09 4.72) rotate(-41.45)"/></g><path d="M5.13,6C6.56,4.9,7.48,4.6,9,6c0,.06,0,.06,0,.09H9s0,.06-.09,0c-1.42-1.38-2.29-1-3.66,0,0,0-.07,0-.1,0s0,0,0,0S5.07,6,5.13,6Z"/><path d="M13.69,6C12.25,4.9,11.33,4.6,9.86,6c-.06.06,0,.06,0,.09h0s0,.06.1,0c1.41-1.38,2.28-1,3.65,0,.06,0,.07,0,.1,0h0S13.74,6,13.69,6Z"/></g></svg>
