<svg xmlns="http://www.w3.org/2000/svg" viewBox="0 0 128 128"><defs><style>.cls-1{fill:#67cc64;}.cls-2{fill:#d7847c;}.cls-3{fill:#fff;}.cls-4{fill:#242b33;}.cls-5{fill:#999;}</style></defs><g id="Assetlist_-_Artboard" data-name="Assetlist - Artboard"><ellipse class="cls-1" cx="63.01" cy="68.68" rx="54.31" ry="59.32"/><g id="bange_mund" data-name="bange mund"><path d="M90.25,101.69a30.49,30.49,0,0,0-10.41-7.21c-5.45-2.09-6.87-2.84-14.36.3a37.63,37.63,0,0,0-10.16,7.27A1.7,1.7,0,0,0,56.4,105l9.47.47.73,0c1.87-1.72,8-6.59,13.76-.26l8.79-.67A1.69,1.69,0,0,0,90.25,101.69Z"/><path class="cls-2" d="M66.6,105.48a110.45,110.45,0,0,0,13.12-.21l.64,0C74.64,98.89,68.47,103.76,66.6,105.48Z"/></g><g id="øje2"><ellipse class="cls-3" cx="55.86" cy="65.47" rx="15.01" ry="15.37"/><path d="M56.57,74.4c-8,0-13.78-3.53-14.13-11.28a12.88,12.88,0,0,1,3-8.68,15.47,15.47,0,0,0-4.58,11,15,15,0,1,0,30,.26C69.72,72.27,63.19,74.4,56.57,74.4Z"/></g><g id="øje2-2" data-name="øje2"><ellipse class="cls-3" cx="92.31" cy="65.47" rx="15.01" ry="15.37"/><path d="M91.59,74.4c8,0,13.79-3.53,14.14-11.28a12.93,12.93,0,0,0-3-8.68,15.47,15.47,0,0,1,4.57,11,15,15,0,1,1-30,.26C78.45,72.27,85,74.4,91.59,74.4Z"/></g><circle cx="56.93" cy="65.47" r="4.65"/><circle cx="92.66" cy="65.47" r="4.65"/><g id="cap-_blå" data-name="cap- blå"><path d="M34.18,32.82c-3.52-5.46-2-13.9,2.94-18.1l-1.68,0C15.91,14.7.07,19.34.07,25.07S15.91,35.43,35.44,35.43h.83A16.41,16.41,0,0,1,34.18,32.82Z"/><path d="M63.22,2.14s1.94-4.82,3.87,0Z"/><path class="cls-4" d="M17,35.73h92.91C63.6-41.42,17,35.73,17,35.73Zm33.34-2.14s14.58-24.12,29.05,0Z"/><rect x="64.63" y="1.45" width="1.01" height="21.42"/><path d="M18.77,35.73S36.4,6.43,64.63,2.14v1s-21.8,1.19-45,32.63Z"/><path d="M107.82,35.73S91.6,6.43,65.64,2.14v1s20,1.19,41.39,32.63Z"/><rect class="cls-5" x="54.07" y="32.87" width="7.48" height="3.57" rx="0.12"/><ellipse cx="80.56" cy="17.87" rx="1.15" ry="1.78" transform="translate(12.78 64.92) rotate(-47.28)"/><ellipse cx="49.11" cy="17.87" rx="1.78" ry="1.15" transform="translate(0.91 38.06) rotate(-42.72)"/></g><path d="M40.05,47.88C51.3,39.19,58.57,36.77,70.13,48c.45.43.3.45.06.71,0,.05,0,0,0,0-.24.26-.33.46-.76,0-11.13-11-18-8.35-28.72-.08-.41.32-.53.19-.75-.06h0C39.74,48.31,39.62,48.21,40.05,47.88Z"/><path d="M107.28,47.88C96,39.19,88.76,36.77,77.2,48c-.45.43-.3.45-.06.71h0c.24.26.33.46.76,0,11.13-11,18-8.35,28.72-.08.41.32.53.19.75-.06,0,0,0,0,0,0C107.59,48.31,107.71,48.21,107.28,47.88Z"/></g></svg>
