<svg xmlns="http://www.w3.org/2000/svg" viewBox="0 0 16 16"><defs><style>.cls-1{fill:#8a824d;}.cls-2{fill:#b0a663;}.cls-3{fill:#635e38;}</style></defs><g id="Assetlist_-_Artboard" data-name="Assetlist - Artboard"><g id="skjold"><path id="bund_skjold" data-name="bund skjold" class="cls-1" d="M15.43,14.06A20.36,20.36,0,0,1,8.64,16a24.64,24.64,0,0,1-6.3-.8,5,5,0,0,1-2-1A.65.65,0,0,1,.62,13H.75a27.28,27.28,0,0,0,14.48-.41h0a.85.85,0,0,1,.25.09.76.76,0,0,1,0,1.34A.22.22,0,0,1,15.43,14.06Z"/><path class="cls-2" d="M15,12.29l0,0a4.45,4.45,0,0,0-1.42-1.74,8.45,8.45,0,0,0-3.28-2.15h0A6.42,6.42,0,0,0,7.6,8H7.47a6.79,6.79,0,0,0-2.42.74,7.55,7.55,0,0,0-1.22.77A10.64,10.64,0,0,0,2.37,11h0a13.35,13.35,0,0,0-1.21,1.68l0,0a1.58,1.58,0,0,0-.06.42c0,.61.55,1,1.43,1.21a8,8,0,0,0,1.13.2q.43.06.9.09h0l1.27.13c.34,0,.69.06,1,.07h0a7,7,0,0,0,.7,0c.54,0,1.09,0,1.63-.05l.26,0,.52,0h0l1.48-.11h0l.93-.08.65-.1h0a5.24,5.24,0,0,0,1.05-.31h0a1.38,1.38,0,0,0,1-1.29A1.71,1.71,0,0,0,15,12.29Z"/><path class="cls-3" d="M3.33,11l1.33,1.9,1.71-1.19L6.09,9l-.2,0-.83-.2a9,9,0,0,0-1.22.78L3.69,10Z"/><path class="cls-1" d="M3.88,10.9l.85,1.21,1.09-.76L5.64,9.67l-.12,0L5,9.51a5.94,5.94,0,0,0-.77.5l-.1.27Z"/><path class="cls-3" d="M6.11,14l.51-.19-.87-.71-1.9.21-.16,1Z"/><path class="cls-1" d="M5.63,13.81l.27-.11-.46-.37-1,.11L4.36,14Z"/><polygon class="cls-3" points="9.67 11.03 10.48 13.44 12.37 13.11 12.73 10.5 11.06 9.21 9.67 11.03"/><polygon class="cls-1" points="10.22 11.39 10.69 12.79 11.78 12.6 11.99 11.08 11.03 10.33 10.22 11.39"/><path class="cls-3" d="M10.92,14.19v.06h0l.55.36h0A13.12,13.12,0,0,0,13,14.44l-.24-.65Z"/><path class="cls-1" d="M11.81,14.3v0h0l.21.13h0l.59-.07-.09-.25Z"/><path class="cls-3" d="M8,10.09,9.89,10l.22-1.12.1-.5A6.58,6.58,0,0,0,7.56,8H7.44l.16.59Z"/><path class="cls-1" d="M8.38,9.79l1.37-.08.16-.8L10,8.55a4.7,4.7,0,0,0-1.9-.24H8l.11.42Z"/><path class="cls-3" d="M7.51,13.81a7.13,7.13,0,0,1,1.6,0h.07L9.67,12,8.18,10.33,6.6,11.81l.41,2h.12Z"/><path class="cls-1" d="M7.87,13.31a4,4,0,0,1,.92,0h0l.29-1.08-.86-.95-.91.85.24,1.18h.07Z"/><path class="cls-3" d="M15,12.28l-.05-.06,0,0-1-.77L13.43,13l.68,1.13a1.37,1.37,0,0,0,1-1.29A1.55,1.55,0,0,0,15,12.28Z"/><path class="cls-1" d="M14.87,12.52l0,0,0,0L14.24,12l-.33.93.43.7a.84.84,0,0,0,.53-1.14Z"/><path class="cls-3" d="M3.23,11.61,2.37,11h0a12.58,12.58,0,0,0-1.22,1.69,1.41,1.41,0,0,0-.08.44c0,.61.56,1,1.43,1.21l.39-.08Z"/><path class="cls-1" d="M2.88,12.1l-.58-.44h0a9.15,9.15,0,0,0-.83,1.15,1.17,1.17,0,0,0-.05.3c0,.41.38.67,1,.82l.27,0Z"/><path class="cls-3" d="M5.92,14.52v.05h0l1,.23a6.59,6.59,0,0,0,.73,0c.6,0,1.2,0,1.79-.05l.52,0-.45-.62Z"/><path class="cls-1" d="M7.51,14.57v0h0l.39.09h.28l.69,0h.2l-.17-.24Z"/></g></g></svg>
