<svg xmlns="http://www.w3.org/2000/svg" viewBox="0 0 128 128"><defs><style>.cls-1{fill:#8a824d;}.cls-2{fill:#b0a663;}.cls-3{fill:#635e38;}</style></defs><g id="Assetlist_-_Artboard" data-name="Assetlist - Artboard"><g id="skjold"><path id="bund_skjold" data-name="bund skjold" class="cls-1" d="M124.17,112.36s-25.55,13.08-55,15.41c-16.55,1.31-38.4-3.85-51-6.49-6.54-1.37-12.3-5.09-16.14-8.16a5.28,5.28,0,0,1,2.22-9.33,3.75,3.75,0,0,1,.67-.08l.41.1a220.54,220.54,0,0,0,117.15-3.35h0a5.6,5.6,0,0,1,2.08.76,6.17,6.17,0,0,1,.36,10.87C124.55,112.3,124.28,112.41,124.17,112.36Z"/><path class="cls-2" d="M120.38,98a2.43,2.43,0,0,0-.14-.2c-1.72-4.58-5.8-9.54-11.46-14.07-8-8.17-17-14.16-26.6-17.43v0a52.22,52.22,0,0,0-21.42-2.67l-1,.1h-.06a55,55,0,0,0-19.6,6A65.74,65.74,0,0,0,30.28,76,80.8,80.8,0,0,0,18.43,87.26l0,0a103.12,103.12,0,0,0-9.87,13.58.72.72,0,0,0-.09.2,12,12,0,0,0-.56,3.44c0,4.9,4.5,7.92,11.58,9.77A69,69,0,0,0,28.64,116c2.31.28,4.74.5,7.27.67h0l10.29,1q4.17.42,8.37.62l.07,0h.16c.88.06,4.13.26,5.65.17q6.6.08,13.18-.38c.71,0,1.41-.09,2.12-.15l4.16-.32h0l12-.92.1,0q4-.24,7.56-.67c1.84-.22,3.59-.48,5.23-.79h0a39.62,39.62,0,0,0,8.5-2.48h0l0,0v0c5-2.22,7.89-5.53,7.89-10.45A12.89,12.89,0,0,0,120.38,98Z"/><path class="cls-3" d="M26.2,87.18,37,102.55l13.79-9.61L48.5,71.62,47,71.26l-6.74-1.58A65.74,65.74,0,0,0,30.37,76L29.1,79.39Z"/><path class="cls-1" d="M30.62,86.77l6.91,9.83,8.81-6.15L44.89,76.82l-1-.23-4.31-1a42.09,42.09,0,0,0-6.3,4l-.81,2.19Z"/><path class="cls-3" d="M48.74,111.51a41,41,0,0,1,4.1-1.59l-7-5.74-15.35,1.73-1.32,7.76Z"/><path class="cls-1" d="M44.84,110.33a20.86,20.86,0,0,1,2.16-.84l-3.71-3-8.06.91-.7,4.07Z"/><polygon class="cls-3" points="77.52 87.82 84.05 107.34 99.33 104.69 102.25 83.53 88.77 73.1 77.52 87.82"/><polygon class="cls-1" points="81.94 90.76 85.73 102.1 94.61 100.56 96.31 88.27 88.48 82.21 81.94 90.76"/><path class="cls-3" d="M87.66,113.46l0,.45h0L92,116.85H92l.1,0a104.48,104.48,0,0,0,12.74-1.45l-1.92-5.3Z"/><path class="cls-1" d="M94.84,114.35l0,.17h0l1.66,1.11h0l0,0a39.26,39.26,0,0,0,4.83-.56l-.73-2Z"/><path class="cls-3" d="M63.92,80.26l15.38-.94,1.79-9,.8-4a52.24,52.24,0,0,0-21.42-2.67l-1,.1,1.27,4.76Z"/><path class="cls-1" d="M67.1,77.81l11.05-.68,1.28-6.46.57-2.9a37.55,37.55,0,0,0-15.38-1.92l-.7.08.91,3.42Z"/><path class="cls-3" d="M60,110.38a57.67,57.67,0,0,1,13,.35h.57l4-15.26L65.45,82.16l-12.79,12L56,110.73h1C58,110.59,59,110.47,60,110.38Z"/><path class="cls-1" d="M63,106.28a33.08,33.08,0,0,1,7.45.2h.33l2.3-8.79-7-7.66-7.36,6.91,1.93,9.54h.56C61.8,106.4,62.38,106.33,63,106.28Z"/><path class="cls-3" d="M120.49,98c-.13-.19-.26-.37-.4-.55l.14.3-8.08-6.28-4.21,12.16,5.5,9.16c5-2.22,7.87-5.53,7.87-10.45A12.87,12.87,0,0,0,120.49,98Z"/><path class="cls-1" d="M119.64,100c-.08-.12-.16-.23-.25-.34l.09.18-5-3.88-2.61,7.52,3.41,5.67c3.09-1.37,4.87-3.42,4.87-6.46A8,8,0,0,0,119.64,100Z"/><path class="cls-3" d="M25.37,92.51l-6.94-5.25h0l0,0A102.11,102.11,0,0,0,8.46,101a12.1,12.1,0,0,0-.59,3.55c0,4.9,4.5,7.91,11.57,9.77l3.16-.59Z"/><path class="cls-1" d="M22.58,96.49l-4.72-3.57h0l0,0a70.07,70.07,0,0,0-6.77,9.32,8.22,8.22,0,0,0-.4,2.42c0,3.34,3.06,5.39,7.89,6.66l2.15-.4Z"/><path class="cls-3" d="M47.15,116.07l-.1.46h.1l8.18,1.84c.09,0,4.13.28,5.88.18q7.29.09,14.57-.47l4.16-.33-3.61-5Z"/><path class="cls-1" d="M60,116.49l0,.18h0l3.15.71s1.58.11,2.26.07c1.87,0,3.74,0,5.6-.18l1.6-.13-1.39-1.92Z"/></g></g></svg>
