<?xml version="1.0" standalone="no"?>
<!DOCTYPE svg PUBLIC "-//W3C//DTD SVG 20010904//EN"
 "http://www.w3.org/TR/2001/REC-SVG-20010904/DTD/svg10.dtd">
<svg version="1.0" xmlns="http://www.w3.org/2000/svg"
 width="700.000000pt" height="700.000000pt" viewBox="0 0 700.000000 700.000000"
 preserveAspectRatio="xMidYMid meet">
<metadata>
Created by potrace 1.14, written by Peter Selinger 2001-2017
</metadata>
<g transform="translate(0.000000,700.000000) scale(0.100000,-0.100000)"
fill="#000000" stroke="none">
<path d="M3538 6993 c-10 -2 -18 -8 -18 -11 -1 -4 -11 -20 -24 -35 -18 -22
-33 -29 -67 -32 -395 -32 -789 -185 -1187 -462 -106 -73 -291 -218 -309 -241
-10 -11 -37 -16 -110 -18 -115 -3 -327 -13 -398 -19 -71 -6 -175 -16 -210 -20
-16 -2 -50 -7 -74 -10 -23 -3 -55 -7 -70 -10 -30 -5 -152 -25 -196 -32 -16 -2
-48 -9 -70 -15 -22 -5 -48 -12 -59 -14 -193 -37 -482 -146 -583 -220 -57 -42
-123 -107 -123 -121 0 -7 -4 -13 -9 -13 -8 0 -22 -46 -25 -85 -6 -65 47 -150
131 -211 56 -41 197 -117 248 -134 17 -5 64 -21 105 -35 41 -14 127 -39 190
-55 120 -30 136 -34 235 -52 33 -6 62 -12 64 -14 2 -2 -6 -19 -18 -39 -25 -43
-27 -57 -6 -49 20 8 19 5 -15 -57 -113 -200 -227 -457 -290 -649 -68 -209
-131 -492 -146 -650 -3 -41 -8 -78 -10 -81 -6 -11 -17 -254 -17 -369 0 -114 9
-297 17 -355 2 -16 7 -57 11 -90 3 -33 12 -96 20 -140 8 -44 17 -93 20 -110 3
-16 8 -41 11 -55 3 -14 8 -35 10 -48 3 -12 24 -92 49 -176 174 -609 525 -1165
985 -1562 25 -22 47 -42 50 -45 15 -17 198 -151 283 -206 277 -181 691 -352
967 -398 19 -3 42 -8 50 -10 8 -2 33 -7 55 -9 22 -3 56 -8 75 -11 19 -2 53 -7
75 -11 65 -9 444 -12 530 -4 225 22 425 64 637 134 282 94 588 258 838 450 36
28 67 53 70 56 3 3 36 32 74 65 337 291 636 702 823 1135 122 279 227 657 258
925 3 28 8 64 10 81 23 169 24 629 1 764 -2 14 -8 52 -11 85 -15 123 -18 141
-44 265 -26 123 -55 230 -93 349 -30 94 -110 306 -128 339 -5 9 -38 76 -73
147 -35 72 -78 154 -96 183 -17 29 -31 54 -31 56 0 2 17 3 38 2 20 -2 40 -1
44 1 10 5 -156 268 -287 453 -188 267 -331 438 -544 651 -402 401 -759 616
-1206 726 -36 9 -119 23 -165 28 -25 3 -67 8 -95 11 -33 4 -54 12 -63 25 -36
52 -60 64 -104 52z"/>
</g>
</svg>
