<svg xmlns="http://www.w3.org/2000/svg" xmlns:xlink="http://www.w3.org/1999/xlink" viewBox="0 0 150 360"><defs><style>.cls-1{fill:#cca956;}.cls-2{fill:#a68946;}.cls-3{fill:#735f30;}.cls-4{filter:url(#AI_GaussianBlur_7);}.cls-5{fill:#ed1c24;}.cls-6{fill:#41803e;}</style><filter id="AI_GaussianBlur_7" name="AI_GaussianBlur_7"><feGaussianBlur stdDeviation="7"/></filter></defs><g id="Assetlist_-_Artboard" data-name="Assetlist - Artboard"><g id="_2liv_baad" data-name="2liv_baad"><path class="cls-1" d="M74.89,359.84c159.39-251.79,4.5-343.87,0-346.48v0l0,0,0,0v0c-4.51,2.61-159.39,94.69,0,346.48V360l0-.08,0,.08Z"/><path class="cls-2" d="M74.88,347.15c136.2-233.34,3.85-318.67,0-321.09v0l0,0,0,0v0c-3.84,2.42-136.2,87.75,0,321.09v.15l0-.08,0,.08Z"/><polygon class="cls-3" points="25.82 90.2 123.86 90.2 128.13 102.31 21.54 102.31 25.82 90.2"/><polygon class="cls-3" points="32.9 259.38 116.77 259.38 120.12 249.72 29.55 249.72 32.9 259.38"/><polygon class="cls-3" points="13.39 158.83 136.28 158.83 136.07 168.43 13.65 169.47 13.39 158.83"/><g class="cls-4"><path d="M98.69,90.26c-.8-25.31-23.49,3.6-23.49,3.6S52.52,65,51.71,90.26,75.2,131.68,75.2,131.68,99.5,115.58,98.69,90.26Z"/></g><path d="M98.16,88c-.81-25.31-23.49,3.6-23.49,3.6S52,62.71,51.18,88s23.49,41.42,23.49,41.42S99,113.34,98.16,88Z"/><g class="cls-4"><path d="M98.38,150c-.81-25.31-23.49,3.6-23.49,3.6S52.2,124.68,51.4,150s23.49,41.42,23.49,41.42S99.18,175.31,98.38,150Z"/></g><path d="M97.84,147.76c-.81-25.32-23.49,3.59-23.49,3.59s-22.68-28.91-23.49-3.59,23.49,41.41,23.49,41.41S98.64,173.07,97.84,147.76Z"/><g class="cls-4"><path d="M98.06,209.73c-.81-25.32-23.49,3.59-23.49,3.59s-22.69-28.91-23.49-3.59,23.49,41.41,23.49,41.41S98.86,235,98.06,209.73Z"/></g><path d="M97.52,207.49c-.8-25.31-23.49,3.59-23.49,3.59s-22.68-28.9-23.49-3.59S74,248.91,74,248.91,98.33,232.8,97.52,207.49Z"/><path class="cls-5" d="M97.52,207.49c-.8-25.31-23.49,3.59-23.49,3.59s-22.68-28.9-23.49-3.59S74,248.91,74,248.91,98.33,232.8,97.52,207.49Z"/><g class="cls-4"><path d="M99,269.46c-.81-25.31-23.49,3.59-23.49,3.59S52.83,244.15,52,269.46s23.49,41.42,23.49,41.42S99.81,294.77,99,269.46Z"/></g><path d="M98.47,267.22c-.8-25.31-23.49,3.6-23.49,3.6s-22.68-28.91-23.49-3.6S75,308.64,75,308.64,99.28,292.54,98.47,267.22Z"/><path class="cls-5" d="M98.47,267.22c-.8-25.31-23.49,3.6-23.49,3.6s-22.68-28.91-23.49-3.6S75,308.64,75,308.64,99.28,292.54,98.47,267.22Z"/><g class="cls-4"><path d="M28,14.92c.53.17.8.67.8,1.51v.25c0,1.46-1.83,3.46-5.47,6l-2.09,2.25V38.47c0,1.32-.09,3.08-.27,5.26,0,1.84.86,2.76,2.6,2.76h8.86q2.13,0,5.73-4L40.22,41a1.67,1.67,0,0,1,1.3,1.76v.49q-4.86,9.2-6,14.27c-.42,2-.93,3-1.53,3h-.8q-.63,0-6-3.27a39.82,39.82,0,0,0-15.62-3.5h-1A26.63,26.63,0,0,0,7,54.25a8,8,0,0,1-1.84-2.76q0-.32,4.17-4.52V26.18q0-1.72-3.4-5.49v-.51c0-1.5,1.91-2.24,5.73-2.24h4.16q2.54,0,11.46-3Z"/><path d="M44.62,15.14l1.7-.32H59a2.45,2.45,0,0,1,2,1q-2.7,8-2.7,27.78l2.37,13.57c0,.6-.57,1.14-1.7,1.64a21.54,21.54,0,0,0-5-1L45,60.06c-1.33-.54-2-1.18-2-1.93l4.36-7.76V30.67q0-12.6-2.69-14.24Z"/><path d="M105.93,15c.74.1,1.1,1,1.1,2.76q-1.62,16.1-3.23,16.1h-.7q-2.92-7.55-7.49-7.54H88.15v7.89c0,.47.28.71.7.71h1.43a36,36,0,0,1,5,.32,21.39,21.39,0,0,1,3.56-.32q4.64,0,4.63,2.37c-1.67,4.37-2.74,6.55-3.23,6.55h-.7a23.63,23.63,0,0,0-9.26-2.41H88.15q.33,6.36.33,9.27v1.7L92.78,60v.68h-10q-14.43,0-15.33-2.05c0-.18,1.67-1.78,5-4.82q.71-17.92.7-23.67,0-.87-5.7-12.35v-.36l1.77-.35H82.79a19.58,19.58,0,0,1,3.56.35,12.87,12.87,0,0,1,3.2-.35h1.8a19.58,19.58,0,0,1,3.56.35A63.57,63.57,0,0,0,105.24,15Z"/><path d="M144.64,14.73l1.36,1q-.36,6.23-.36,8.5l1,9.11a2.08,2.08,0,0,1-1.37,2q-10.38-10.11-12.85-10.11h-2.7c-1.36.11-2,.44-2,1V32c0,.32.44.75,1.33,1.28h8.13c1.13,0,2.59,1,4.39,3v1q-4.4,4.91-5.73,4.91l-.69-.33h-7.1v7.48c0,1.3.9,2,2.7,2h1.7q2.87,0,9.12-.32c2.16-2.19,3.74-3.28,4.77-3.28.88.35,1.33.68,1.33,1V49q-3.79,11.42-6.76,11.42a2.63,2.63,0,0,0-1,.32q-7.56-.31-12.19-.32H116.19c-1.57,0-2.36-1-2.36-3V50.59a1.82,1.82,0,0,1,1.7-2,2.64,2.64,0,0,0,.33-1.32v-.64a.29.29,0,0,0-.33-.32l.33-.64V31.35a25,25,0,0,0-.33-3.57,2.58,2.58,0,0,0,.33-1q0-4-4.06-7.83c0-.21-.11-.32-.34-.32q.17-1.86,5.07-2.28l1.69.32h20.66q1,0,5.42-1.95Z"/></g><path class="cls-6" d="M24.81,10.1c.54.17.8.68.8,1.51v.26q0,2.18-5.46,6l-2.1,2.24V33.65c0,1.33-.09,3.08-.26,5.26,0,1.84.86,2.76,2.59,2.76h8.86q2.13,0,5.73-4L37,36.15a1.69,1.69,0,0,1,1.3,1.77v.48q-4.87,9.21-6,14.27c-.42,2-.93,3-1.53,3H30q-.63,0-6-3.27a39.86,39.86,0,0,0-15.62-3.5h-1a27.05,27.05,0,0,0-3.63.51,8.05,8.05,0,0,1-1.83-2.76q0-.31,4.16-4.52V21.36q0-1.72-3.39-5.48v-.52q0-2.23,5.73-2.24h4.16q2.54,0,11.46-3Z"/><path class="cls-6" d="M41.43,10.33l1.7-.32H55.86a2.47,2.47,0,0,1,2,1q-2.7,8-2.7,27.78l2.36,13.57c0,.6-.56,1.15-1.69,1.64a22,22,0,0,0-5-1l-9.06,2.24c-1.34-.53-2-1.18-2-1.92l4.36-7.77V25.85q0-12.6-2.7-14.24Z"/><path class="cls-6" d="M102.75,10.2c.74.1,1.1,1,1.1,2.76q-1.63,16.1-3.23,16.1h-.7Q97,21.53,92.43,21.52H85v7.89c0,.48.27.71.7.71H87.1a35.78,35.78,0,0,1,5,.32,21.6,21.6,0,0,1,3.57-.32c3.08,0,4.63.79,4.63,2.37Q97.79,39,97.06,39h-.7a23.81,23.81,0,0,0-9.26-2.41H85q.33,6.36.33,9.28v1.7l4.3,7.57v.67h-10q-14.41,0-15.32-2.05a51,51,0,0,1,5-4.82q.7-17.92.7-23.67,0-.87-5.7-12.35V12.6l1.77-.35H79.6a19.69,19.69,0,0,1,3.57.35,12.87,12.87,0,0,1,3.2-.35h1.79a19.69,19.69,0,0,1,3.57.35,63.16,63.16,0,0,0,10.32-2.4Z"/><path class="cls-6" d="M141.46,9.91l1.36,1c-.24,4.15-.37,7-.37,8.5l1,9.11a2.08,2.08,0,0,1-1.37,2q-10.4-10.11-12.86-10.1h-2.69c-1.36.1-2,.43-2,1V27.2c0,.32.44.75,1.33,1.28H134c1.14,0,2.6,1,4.4,3v1q-4.39,4.91-5.73,4.91L132,37h-7.09v7.47c0,1.31.9,2,2.7,2h1.69c1.91,0,5-.11,9.13-.32q3.23-3.27,4.76-3.27c.89.34,1.34.67,1.34,1v.32q-3.81,11.42-6.77,11.42a2.65,2.65,0,0,0-1,.32q-7.57-.32-12.19-.32H113c-1.58,0-2.36-1-2.36-3V45.78a1.83,1.83,0,0,1,1.69-2,2.52,2.52,0,0,0,.34-1.32v-.64c0-.21-.11-.32-.34-.32l.34-.64V26.53a23.59,23.59,0,0,0-.34-3.56,2.51,2.51,0,0,0,.34-1q0-4-4.07-7.83a.29.29,0,0,0-.33-.32q.16-1.86,5.06-2.27l1.7.32h20.65c.69,0,2.5-.66,5.43-2Z"/></g></g></svg>
