<svg xmlns="http://www.w3.org/2000/svg" xmlns:xlink="http://www.w3.org/1999/xlink" viewBox="0 0 55 240"><defs><style>.cls-1{filter:url(#AI_GaussianBlur_7);}.cls-2{fill:#ed1c24;}</style><filter id="AI_GaussianBlur_7" name="AI_GaussianBlur_7"><feGaussianBlur stdDeviation="7"/></filter></defs><g id="Assetlist_-_Artboard" data-name="Assetlist - Artboard"><g id="_3liv" data-name="3liv"><g class="cls-1"><path d="M49.61,16.5C48.87-8.46,27.82,20,27.82,20S6.77-8.46,6,16.5,27.82,57.34,27.82,57.34,50.36,41.46,49.61,16.5Z"/></g><path d="M49.12,14.29c-.75-25-21.8,3.55-21.8,3.55s-21-28.51-21.79-3.55S27.32,55.13,27.32,55.13,49.86,39.25,49.12,14.29Z"/><g class="cls-1"><path d="M49.32,75.4C48.57,50.44,27.53,79,27.53,79s-21-28.51-21.8-3.55,21.8,40.84,21.8,40.84S50.07,100.36,49.32,75.4Z"/></g><path d="M48.82,73.2C48.07,48.23,27,76.74,27,76.74S6,48.23,5.24,73.2,27,114,27,114,49.57,98.16,48.82,73.2Z"/><path class="cls-2" d="M48.82,73.2C48.07,48.23,27,76.74,27,76.74S6,48.23,5.24,73.2,27,114,27,114,49.57,98.16,48.82,73.2Z"/><g class="cls-1"><path d="M49,134.3c-.75-25-21.8,3.55-21.8,3.55s-21-28.51-21.79-3.55,21.79,40.85,21.79,40.85S49.77,159.27,49,134.3Z"/></g><path d="M48.53,132.1c-.75-25-21.79,3.54-21.79,3.54s-21-28.5-21.8-3.54,21.8,40.84,21.8,40.84S49.28,157.06,48.53,132.1Z"/><path class="cls-2" d="M48.53,132.1c-.75-25-21.79,3.54-21.79,3.54s-21-28.5-21.8-3.54,21.8,40.84,21.8,40.84S49.28,157.06,48.53,132.1Z"/><g class="cls-1"><path d="M49.91,193.21c-.75-25-21.8,3.54-21.8,3.54s-21-28.51-21.79-3.54,21.79,40.84,21.79,40.84S50.65,218.17,49.91,193.21Z"/></g><path d="M49.41,191c-.75-25-21.79,3.54-21.79,3.54S6.57,166,5.82,191s21.8,40.84,21.8,40.84S50.16,216,49.41,191Z"/><path class="cls-2" d="M49.41,191c-.75-25-21.79,3.54-21.79,3.54S6.57,166,5.82,191s21.8,40.84,21.8,40.84S50.16,216,49.41,191Z"/></g></g></svg>
