<svg xmlns="http://www.w3.org/2000/svg" xmlns:xlink="http://www.w3.org/1999/xlink" viewBox="0 0 220 360"><defs><style>.cls-1{fill:#cca956;}.cls-2{fill:#a68946;}.cls-3{fill:#735f30;}.cls-4{filter:url(#AI_GaussianBlur_7);}.cls-5{fill:#41803e;}.cls-6{fill:#b5a582;}.cls-7{fill:#f2deae;}</style><filter id="AI_GaussianBlur_7" name="AI_GaussianBlur_7"><feGaussianBlur stdDeviation="7"/></filter></defs><g id="Assetlist_-_Artboard" data-name="Assetlist - Artboard"><g id="_7points_baad" data-name="7points_baad"><path class="cls-1" d="M113,359.84c150.73-251,4.26-342.83,0-345.42v-.06l-.05,0,0,0v.06c-4.25,2.59-150.73,94.4,0,345.42V360l0-.08.05.08Z"/><path class="cls-2" d="M113,347.19c128.81-232.63,3.64-317.71,0-320.11V27l0,0,0,0v.06c-3.64,2.4-128.8,87.48,0,320.11v.15l0-.08,0,.08Z"/><polygon class="cls-3" points="66.6 91.02 159.32 91.02 163.36 103.09 62.56 103.09 66.6 91.02"/><polygon class="cls-3" points="73.31 259.68 152.62 259.68 155.79 250.05 70.14 250.05 73.31 259.68"/><polygon class="cls-3" points="54.86 159.44 171.07 159.44 170.87 169.01 55.1 170.05 54.86 159.44"/><g class="cls-4"><path d="M23.53,12.62q4.63,0,8.25,6.3a17.11,17.11,0,0,1,.51,3.13q0,8.13-13.67,17.05V50.61c0,.19.08.29.25.29l-.25.51v.26l1.79,4.73q0,1.83-5.67,1.83-8,0-8-2.12v-.25a6.23,6.23,0,0,1,2.08-4.19V15c0-1.23,1.2-1.85,3.59-1.85q1.77,0,9-.51ZM20.16,21l-1.29.25v8.41q3.81,0,5.41-6.81C24.28,21.89,22.91,21.27,20.16,21Z"/><path d="M55.25,12.71q7.08,0,10.36,9.72,2.11,11.2,2.11,14,0,7.85-8.22,20.79l-1.36.55q-3.7-.28-6.36-.29a6.6,6.6,0,0,0-2.93.54Q39,58,35.56,40.51a15.29,15.29,0,0,1-.25-2.44q0-9.64,8-20.5Q50.93,12.71,55.25,12.71Zm-8,17q0,3.81-.54,11.87c0,.68,1.33,2,4,4.06,3.36-2.38,5-5,5-7.83V33.21c0-3.15-1.32-5.14-4-5.95h-.25A5,5,0,0,0,47.28,29.69Z"/><path d="M73.08,13l1.6-.32h12a2.28,2.28,0,0,1,1.92,1q-2.55,8-2.55,27.7L88.32,54.9c0,.6-.54,1.14-1.61,1.63a19.7,19.7,0,0,0-4.75-1l-8.57,2.24Q71.5,57,71.5,55.89l4.13-7.74V28.51q0-12.57-2.55-14.2Z"/><path d="M103.35,12.62c1.86,0,3.06,1.72,3.58,5.18a122.63,122.63,0,0,0,13.3,16.12h.5q-.26-.93-.5-12.22-7.16-5.62-7.15-6.24a3.39,3.39,0,0,1,1.76-2.59,55.2,55.2,0,0,0,5.89,1.06h.51a25.41,25.41,0,0,0,5.38-1.06q1.72,0,2.3,4.41-.25,13.92-.25,22.33V49q0,4.68-5.89,8.32H122q-1.6-5.85-4.88-8.57-2.49-3.39-10.46-10.66c-.35,0-.53.22-.53.52a56.66,56.66,0,0,1,.53,6.75v6.23q0,3-10.74,6.75l-1-.26v-.25q0-1.64,3.85-7.81.5-20.18.5-23.63l-4.6-9.6q1.23-3.25,3.06-3.9a2.13,2.13,0,0,1,1-.25Z"/><path d="M138.78,12.62a2.36,2.36,0,0,1,1.26.32l2.2-.32q10,.32,14.81.32a16.23,16.23,0,0,0,2.52-.32,11.2,11.2,0,0,0,2.83.32,20.43,20.43,0,0,0,3.78-.32,42.22,42.22,0,0,0,5.36.32h3.78q3.7,0,4.41,9.59v.32l-.95,3.84h-.31q-3.89-5.11-12-5.12h-2.84l-1.57.32q0,3.33-.32,20.79,0,6.33,3.47,9.92c-.53,1.28-1.16,1.91-1.89,1.91a32.28,32.28,0,0,0-4.41-.63q-2.83,0-9.77,4.15c-.94-.25-1.47-.68-1.57-1.28q.32-1.17,5-8A16.26,16.26,0,0,0,153,46.2c0-4.91.11-8.74.32-11.52-.21-2.87-.32-6.93-.32-12.15l-.94-.64h-8.82q-1.74,0-6.93,5.12h-.32c-1.05-.32-1.57-1.71-1.57-4.16V20.93q.85-7.26,4.09-8.31Z"/><path d="M206.59,12.71q2,0,10,4.77,0,2.63-3.12,6.33-4.38,0-4.38-3.49-1.8-2.52-7.18-2.52-8.13,0-8.13,6v1.28q0,5.37,5.64,7.29A16.54,16.54,0,0,0,205,33h2.83q5.84,0,9.67,8.22a7.43,7.43,0,0,0,.63,2.24,16.38,16.38,0,0,0-.31,2.85v1l.31,1.88q-1.72,8.58-13.76,8.58h-7.18Q185,54.26,185.05,47.93v-.64q0-1.92,5.29-4.45H191q6.24,3.87,6.24,5.09a3.49,3.49,0,0,0,1.89,3.16h2.17q3.69,0,5-5.08V43.48q0-2.85-3.75-4.77-15.21,0-17.8-10.13c0-.18-.31-1.66-.94-4.45q0-4.61,6.55-8.89,5.16-2.53,13.76-2.53Z"/></g><path class="cls-5" d="M19.23,9.88q4.62,0,8.25,6.3a18,18,0,0,1,.5,3.14q0,8.12-13.67,17V47.88c0,.19.09.29.25.29l-.25.51v.26l1.8,4.73c0,1.22-1.89,1.82-5.67,1.82-5.34,0-8-.7-8-2.11v-.25a6.23,6.23,0,0,1,2.08-4.19V12.25c0-1.24,1.19-1.85,3.59-1.85,1.17,0,4.19-.18,9-.52Zm-3.37,8.38-1.3.26v8.41q3.81,0,5.42-6.81C20,19.16,18.61,18.54,15.86,18.26Z"/><path class="cls-5" d="M50.94,10Q58,10,61.31,19.7q2.1,11.21,2.11,14,0,7.84-8.22,20.79l-1.36.55c-2.48-.2-4.6-.29-6.36-.29a6.57,6.57,0,0,0-2.93.54q-9.82,0-13.29-17.53A15.08,15.08,0,0,1,31,35.34q0-9.66,8-20.5Q46.64,10,50.94,10ZM43,27q0,3.81-.54,11.87c0,.68,1.32,2,4,4.06q5-3.59,5-7.83V30.48c0-3.15-1.32-5.14-4-5.95h-.25A5,5,0,0,0,43,27Z"/><path class="cls-5" d="M68.77,10.3,70.38,10h12a2.28,2.28,0,0,1,1.92,1q-2.55,8-2.55,27.7L84,52.17c0,.59-.54,1.14-1.61,1.63a19.67,19.67,0,0,0-4.76-1l-8.56,2.24q-1.89-.81-1.89-1.92l4.12-7.74V25.78q0-12.57-2.55-14.2Z"/><path class="cls-5" d="M99,9.88q2.8,0,3.59,5.18a122.62,122.62,0,0,0,13.3,16.13h.5q-.25-.93-.5-12.22c-4.77-3.76-7.16-5.83-7.16-6.24a3.37,3.37,0,0,1,1.77-2.59,53.8,53.8,0,0,0,5.89,1h.5a25.24,25.24,0,0,0,5.39-1q1.73,0,2.3,4.41-.25,13.92-.25,22.33v9.37q0,4.66-5.89,8.32h-.76c-1.07-3.91-2.7-6.76-4.88-8.58q-2.49-3.39-10.46-10.65c-.36,0-.53.22-.53.51a59.2,59.2,0,0,1,.53,6.75v6.24q0,3-10.74,6.75l-1-.26v-.25q0-1.63,3.84-7.81Q95,27.1,95,23.64L90.35,14q1.23-3.25,3.05-3.9a2.17,2.17,0,0,1,1-.26Z"/><path class="cls-5" d="M134.48,9.88a2.46,2.46,0,0,1,1.26.32l2.2-.32q10,.33,14.8.32a14.82,14.82,0,0,0,2.52-.32,10.84,10.84,0,0,0,2.84.32,19.6,19.6,0,0,0,3.78-.32,40.4,40.4,0,0,0,5.35.32H171q3.72,0,4.41,9.6v.32L174.48,24h-.32q-3.87-5.13-12-5.12h-2.83l-1.58.32q0,3.33-.31,20.79,0,6.33,3.46,9.91-.78,1.92-1.89,1.92a32.49,32.49,0,0,0-4.41-.64q-2.83,0-9.76,4.16c-.94-.25-1.47-.68-1.58-1.28.21-.79,1.9-3.45,5-8a16.73,16.73,0,0,0,.32-2.56q0-7.36.31-11.52-.32-4.32-.31-12.15l-1-.64h-8.81q-1.74,0-6.93,5.12h-.32c-1-.32-1.57-1.71-1.57-4.16V18.2q.84-7.26,4.09-8.32Z"/><path class="cls-5" d="M202.29,10q2,0,10,4.76,0,2.62-3.12,6.34-4.38,0-4.38-3.49c-1.2-1.68-3.59-2.53-7.18-2.53q-8.13,0-8.13,6v1.28q0,5.37,5.64,7.29a16.54,16.54,0,0,0,5.61.64h2.83q5.82,0,9.67,8.22a7.43,7.43,0,0,0,.63,2.24,16.38,16.38,0,0,0-.31,2.84v1l.31,1.89Q212.13,55,200.09,55H192.9q-12.15-3.48-12.15-9.82v-.64q0-1.92,5.29-4.44h.63c4.16,2.58,6.23,4.27,6.23,5.08a3.5,3.5,0,0,0,1.89,3.17H197c2.45,0,4.12-1.69,5-5.09V40.75q0-2.85-3.75-4.77Q183,36,180.43,25.84c0-.17-.31-1.65-.94-4.44q0-4.61,6.55-8.89Q191.2,10,199.8,10Z"/><rect class="cls-6" x="66.05" y="106.25" width="94.33" height="116.54"/><rect class="cls-7" x="70.21" y="111.21" width="86.08" height="106.53"/><path d="M84.08,131.88c0-2.19,1.13-6.67,5.55-6.67h45.62c5.66,0,6.91,2.19,6.91,5.52,0,1.38-.91,3.79-2.15,6.32l-33.18,64.72a6.2,6.2,0,0,1-5.77,3.57c-4.08,0-8.15-3.45-5.66-8.39l31.13-60.13H96.31v5c0,3.9-3.06,5.86-6.12,5.86s-6.11-2-6.11-5.86Z"/></g></g></svg>
