<svg xmlns="http://www.w3.org/2000/svg" xmlns:xlink="http://www.w3.org/1999/xlink" viewBox="0 0 175 365"><defs><style>.cls-1{fill:#cca956;}.cls-2{fill:#a68946;}.cls-3{fill:#735f30;}.cls-4{filter:url(#AI_GaussianBlur_7);}.cls-5{fill:#41803e;}</style><filter id="AI_GaussianBlur_7" name="AI_GaussianBlur_7"><feGaussianBlur stdDeviation="7"/></filter></defs><g id="Assetlist_-_Artboard" data-name="Assetlist - Artboard"><g id="timer_baad"><path class="cls-1" d="M85.66,362.34C236.58,112.08,89.93,20.56,85.66,18v-.06l0,0-.05,0V18c-4.26,2.59-150.92,94.11,0,344.37v.16l.05-.08,0,.08Z"/><path class="cls-2" d="M85.66,349.73c129-231.92,3.64-316.74,0-319.14v-.05l0,0,0,0v.05c-3.65,2.4-129,87.22,0,319.14v.14l0-.07,0,.07Z"/><polygon class="cls-3" points="39.2 94.34 132.03 94.34 136.08 106.37 35.16 106.37 39.2 94.34"/><polygon class="cls-3" points="45.91 262.49 125.32 262.49 128.5 252.89 42.74 252.89 45.91 262.49"/><polygon class="cls-3" points="27.44 162.55 143.79 162.55 143.59 172.09 27.68 173.13 27.44 162.55"/><g class="cls-4"><path d="M11.14,16.71a2.47,2.47,0,0,1,1.27.32l2.2-.32q10,.32,14.82.32A16.18,16.18,0,0,0,32,16.71,11.23,11.23,0,0,0,34.8,17a20.51,20.51,0,0,0,3.78-.32,42.33,42.33,0,0,0,5.36.32h3.79q3.72,0,4.41,9.56v.32l-.94,3.83h-.32q-3.89-5.1-12-5.1H36.06L34.48,26q0,3.32-.31,20.72,0,6.32,3.46,9.89c-.52,1.27-1.15,1.91-1.89,1.91a32.93,32.93,0,0,0-4.41-.64q-2.85,0-9.78,4.15c-.95-.26-1.47-.68-1.58-1.28q.32-1.17,5.05-8a16.16,16.16,0,0,0,.31-2.55c0-4.89.11-8.71.32-11.48q-.31-4.3-.32-12.12L24.39,26H15.56q-1.74,0-6.94,5.1H8.3c-1.05-.32-1.57-1.7-1.57-4.15V25q.85-7.24,4.1-8.29Z"/><path d="M57.44,17.12l1.61-.32h12a2.31,2.31,0,0,1,1.93,1q-2.55,8-2.56,27.62L72.7,58.86c0,.6-.53,1.14-1.61,1.63a19.67,19.67,0,0,0-4.76-1l-8.58,2.24c-1.26-.54-1.89-1.17-1.89-1.92L60,52.14V32.56Q60,20,57.44,18.4Z"/><path d="M122.78,16.8c1.94,0,4.91.1,8.93.29l.28.58v.25c0,1-.93,2.09-2.8,3.41-2,2.92-3.06,5.07-3.06,6.48v5.64q0,23.65,3.06,24.84a5.93,5.93,0,0,1,1.38,2.84.47.47,0,0,1-.53.54q-11.2.28-12.84.29l-1.13-.83a25.76,25.76,0,0,0,2-7.91V41.93a39.1,39.1,0,0,0-.57-7h-.82q-4.41,9.95-10.34,26.53a5.27,5.27,0,0,1-2,1.11q-1,0-5.87-11.29Q92.2,38,90.93,36h-.25v1.4a4.86,4.86,0,0,1-.28,2.27,23.43,23.43,0,0,1,.28,3.09v5.39c0,.17.08.26.25.26,0,.19-.08.28-.25.28a100.45,100.45,0,0,0,1.39,12.15C92,61.59,91.22,62,89.83,62H82l-2.78.28-.57-.82q4.77-9.12,4.77-21.75v-11q0-4.19-3.91-10.75v-.25l.82-.58H82a9.59,9.59,0,0,1,2.52.29,14.44,14.44,0,0,1,2.78-.29,14.13,14.13,0,0,1,2.23.29,10.62,10.62,0,0,1,2.81-.29q1.61,0,9.21,18.62a38.06,38.06,0,0,1,2.52,5.65h.54q1.32-2,7.54-17.22,3.44-7.34,4.19-7.34Z"/><path d="M167.38,16.71l1.29,1q-.34,6.18-.35,8.45l1,9.05A2.08,2.08,0,0,1,168,37.12q-9.84-10-12.18-10h-2.55q-1.92.16-1.92,1V33.9c0,.32.42.74,1.26,1.27h7.69c1.08,0,2.46,1,4.17,2.94v1q-4.17,4.88-5.43,4.88l-.66-.32h-6.72v7.43c0,1.3.85,2,2.56,2h1.6q2.71,0,8.65-.32,3.06-3.26,4.51-3.25c.84.34,1.26.67,1.26,1v.32q-3.6,11.35-6.4,11.35a2.46,2.46,0,0,0-.95.32q-7.16-.32-11.54-.32H140.45c-1.5,0-2.24-1-2.24-2.93V52.36a1.8,1.8,0,0,1,1.6-2,2.64,2.64,0,0,0,.32-1.3v-.64a.29.29,0,0,0-.32-.32l.32-.64V33.23a25.64,25.64,0,0,0-.32-3.54,2.76,2.76,0,0,0,.32-1q0-4-3.85-7.78a.28.28,0,0,0-.31-.32c.1-1.23,1.7-2,4.79-2.26l1.61.31h19.55c.65,0,2.37-.64,5.14-1.94Z"/></g><path class="cls-5" d="M7.91,12.35a2.41,2.41,0,0,1,1.26.32l2.21-.32q10,.32,14.82.32a16.18,16.18,0,0,0,2.53-.32,11.23,11.23,0,0,0,2.84.32,20.51,20.51,0,0,0,3.78-.32,42.33,42.33,0,0,0,5.36.32H44.5q3.72,0,4.41,9.57v.32L48,26.38h-.31q-3.88-5.1-12-5.1H32.83l-1.58.32q0,3.31-.32,20.73,0,6.3,3.47,9.88c-.52,1.28-1.15,1.91-1.89,1.91a32.28,32.28,0,0,0-4.41-.63q-2.85,0-9.78,4.14c-.95-.25-1.47-.68-1.58-1.27q.32-1.19,5.05-8a15.91,15.91,0,0,0,.31-2.55c0-4.89.11-8.71.32-11.48q-.32-4.3-.32-12.11l-.94-.64H12.33q-1.74,0-6.94,5.1H5.07C4,26.38,3.5,25,3.5,22.56V20.64q.86-7.23,4.1-8.29Z"/><path class="cls-5" d="M54.21,12.77l1.61-.32h12a2.33,2.33,0,0,1,1.93,1q-2.57,8-2.56,27.62l2.24,13.49c0,.59-.53,1.13-1.61,1.62a20,20,0,0,0-4.76-1l-8.58,2.23c-1.26-.53-1.89-1.17-1.89-1.91l4.13-7.72V28.2q0-12.52-2.55-14.16Z"/><path class="cls-5" d="M119.55,12.45c1.94,0,4.91.09,8.93.28l.28.58v.25q0,1.44-2.8,3.42-3.06,4.36-3.06,6.47v5.64q0,23.67,3.06,24.84a5.93,5.93,0,0,1,1.38,2.84.47.47,0,0,1-.53.54q-11.2.28-12.84.29l-1.13-.83a25.69,25.69,0,0,0,2-7.91V37.57a39.1,39.1,0,0,0-.57-7h-.82Q109,40.47,103.06,57.06a5.27,5.27,0,0,1-2,1.11q-1,0-5.87-11.28Q89,33.69,87.7,31.64h-.25v1.41a4.81,4.81,0,0,1-.28,2.26,23.58,23.58,0,0,1,.28,3.09v5.39c0,.17.08.26.25.26,0,.19-.08.28-.25.28a100,100,0,0,0,1.39,12.15c-.11.75-.85,1.12-2.24,1.12H78.78L76,57.89l-.57-.83q4.77-9.12,4.77-21.75v-11q0-4.18-3.91-10.75v-.25l.82-.58h1.67A9.65,9.65,0,0,1,81.3,13a14.44,14.44,0,0,1,2.78-.29,14.13,14.13,0,0,1,2.23.29,10.62,10.62,0,0,1,2.81-.29q1.6,0,9.21,18.63A37.63,37.63,0,0,1,100.85,37h.54q1.32-2,7.54-17.22,3.43-7.34,4.19-7.33Z"/><path class="cls-5" d="M164.15,12.35l1.29,1q-.34,6.18-.35,8.45l1,9a2.07,2.07,0,0,1-1.29,1.95q-9.84-10-12.18-10h-2.55c-1.28.1-1.92.43-1.92,1v5.84c0,.32.42.74,1.26,1.27h7.69c1.08,0,2.46,1,4.17,2.94v1c-2.78,3.26-4.59,4.88-5.43,4.88l-.66-.32h-6.72v7.43c0,1.3.85,2,2.56,2h1.6q2.72,0,8.65-.32,3.06-3.26,4.51-3.25,1.26.51,1.26,1v.32q-3.6,11.34-6.4,11.35a2.3,2.3,0,0,0-1,.32c-4.77-.22-8.62-.32-11.54-.32H137.21c-1.49,0-2.23-1-2.23-2.94V48a1.79,1.79,0,0,1,1.6-1.94,2.7,2.7,0,0,0,.32-1.31v-.64a.29.29,0,0,0-.32-.32l.32-.64V28.87a25.9,25.9,0,0,0-.32-3.54,2.76,2.76,0,0,0,.32-1c0-2.63-1.28-5.23-3.85-7.78a.28.28,0,0,0-.31-.32c.1-1.23,1.7-2,4.79-2.26l1.61.32h19.55c.65,0,2.37-.65,5.14-2Z"/></g></g></svg>
