<svg xmlns="http://www.w3.org/2000/svg" viewBox="0 0 310 265"><defs><style>.cls-1{fill:#54a651;}.cls-2{fill:#b0a663;}.cls-3{fill:#61bf5e;}.cls-4{fill:#8a824d;}.cls-5{fill:#41803e;}.cls-6{fill:#20401f;}.cls-7{fill:#67cc64;}.cls-8{fill:#d7847c;}.cls-9{fill:#fff;}.cls-10{fill:#242b33;}.cls-11{fill:#999;}.cls-12{fill:#635e38;}</style></defs><g id="Assetlist_-_Artboard" data-name="Assetlist - Artboard"><g id="bange_skildpadde"><g id="skildpaddeb1"><ellipse class="cls-1" cx="291.99" cy="186.84" rx="6.97" ry="17.58" transform="translate(-36.17 298.55) rotate(-51.41)"/><path class="cls-1" d="M66.05,169.56,27.52,156.65a2.32,2.32,0,0,1-1-3.73h0c20.74-23.71,58.89-30.82,57.11-62.2L60.8,84.54c-.16,29-32.68,34.62-53.29,55.36a15.39,15.39,0,0,0-3.72,7.62h0c0,.3-.07.59-.1.89a21.6,21.6,0,0,0,14.54,22.25l42.4,14.89Z"/><path d="M80.2,99.57c-7.59,2.09-11.63,2.71-16.28-4.43-.18-.28-.09-.35.13-.47,0,0,0,0,0,0,.22-.13.33-.16.5.11,4.52,6.84,8.13,6.07,15.42,4.12.28-.08.38,0,.45.25h0C80.5,99.38,80.49,99.49,80.2,99.57Z"/><path d="M69.66,117c-8.28,0-12-1.53-13.55-10.18-.06-.34,0-.38.34-.38h0c.28,0,.34,0,.4.34,1.5,8.33,4.92,9.43,12.79,9.52.31,0,.37.1.37.36h0C70,116.93,70,117,69.66,117Z"/><path d="M24.57,151.45c-6.93,3.73-10.73,5.23-16.86-.69-.24-.23-.17-.32,0-.49h0c.18-.17.28-.22.51,0,5.94,5.67,9.29,4.11,16,.58.25-.13.37-.05.49.15h0C24.82,151.2,24.84,151.31,24.57,151.45Z"/><path d="M25.26,157.75c-3.91,6.85-6.71,8.62-14.32,5.64-.3-.11-.29-.25-.14-.48h0c.15-.23.22-.25.5-.15,7.32,2.77,9.56,1.16,13.33-5.32.14-.25.26-.27.48-.16h0C25.34,157.4,25.41,157.49,25.26,157.75Z"/><path d="M52.61,166.93c3.17,6.3,1.37,9.8-5.2,12.1-.25.09-.34,0-.4-.26-.06,0,0,0,0,0-.06-.24,0-.35.23-.43,6.09-2.19,7.69-5.24,4.74-11.06a.32.32,0,0,1,.17-.49s0,0,0,0C52.36,166.68,52.48,166.69,52.61,166.93Z"/><g id="førsteben"><g id="bagben"><path id="tager" class="cls-2" d="M259.31,243.81l19.89-2.71s8.95,3.7,4.27,7.71c-2.43,2.08-4.13.81-5.22-.93a1.83,1.83,0,0,0-1.18.49c.64,2.22.56,4.64-2.69,5-3,.3-3.77-1.5-3.74-3.43a1.66,1.66,0,0,0-1.14.16c.63,2.21.53,4.61-2.7,4.92-3.93.39-4-2.76-3.54-5.14a3,3,0,0,0-1.48-.32c-.9,2-2.48,3.74-5.14,2C251.38,248.14,259.31,243.81,259.31,243.81Z"/><path id="arm2" class="cls-3" d="M275.35,249.5l-8,2.11a7.76,7.76,0,0,1-9.5-5.49l-.24-3.11a143.69,143.69,0,0,0-14.76-53.19h0a11.85,11.85,0,0,1,8.48-14.49h0a11.91,11.91,0,0,1,14.57,8.42h0a103.59,103.59,0,0,1,15,52.45l0,3.85A7.72,7.72,0,0,1,275.35,249.5Z"/><path d="M252.69,209.22c9,4.81,13.94,6.76,21.89-.95.31-.29.22-.41,0-.63h0c-.24-.22-.37-.29-.67,0-7.7,7.37-12.05,5.36-20.71.79a.42.42,0,0,0-.65.19h0C252.37,208.88,252.35,209,252.69,209.22Z"/><path d="M255,218.9c8.81,6.12,13.94,7.28,22-.8.31-.31.23-.43-.07-.65h0c-.29-.22-.38-.23-.68.07-7.85,7.74-12.3,6.39-20.74.65-.33-.22-.46-.17-.66.1h0C254.7,218.54,254.67,218.66,255,218.9Z"/></g><g id="foreben"><path id="tager-2" data-name="tager" class="cls-2" d="M78.35,252.87l-17.86-9.11s-9.68.54-6.6,5.86c1.6,2.77,3.63,2.13,5.23.84a1.85,1.85,0,0,1,1,.86c-1.34,1.88-2.07,4.19.89,5.56,2.75,1.28,4.05-.17,4.67-2a1.64,1.64,0,0,1,1,.53c-1.33,1.87-2,4.17.91,5.53,3.58,1.66,4.71-1.28,5-3.69a3,3,0,0,1,1.5.2c.18,2.23,1.1,4.34,4.18,3.59C84.39,259.56,78.35,252.87,78.35,252.87Z"/><path id="arm2-2" data-name="arm2" class="cls-3" d="M61.32,253l6.86,4.64a7.8,7.8,0,0,0,10.8-2l1.26-2.86a144,144,0,0,1,31.66-45.31h0a11.82,11.82,0,0,0-3.16-16.47h0A12,12,0,0,0,92.18,194h0a104.07,104.07,0,0,0-31.6,44.56l-1.32,3.61A7.7,7.7,0,0,0,61.32,253Z"/><path d="M96.12,222.41C86,224,80.72,224.2,75.79,214.31c-.2-.38-.07-.47.23-.59h0c.3-.13.45-.15.63.21,4.81,9.49,9.59,9,19.28,7.57.37-.05.48.09.55.4h0C96.54,222.2,96.51,222.35,96.12,222.41Z"/><path d="M90.71,230.78c-10.35,2.87-15.57,2.28-20.53-8-.19-.4-.07-.49.28-.59h0c.35-.11.44-.1.63.28,4.81,9.9,9.47,10.08,19.35,7.45.38-.1.49,0,.58.31h0C91.12,230.55,91.11,230.67,90.71,230.78Z"/></g></g><g id="bagben-2" data-name="bagben"><path id="tager-3" data-name="tager" class="cls-4" d="M230.21,230.94l15.95-2.17s7.18,3,3.43,6.18c-2,1.67-3.31.65-4.18-.75a1.48,1.48,0,0,0-.95.4c.51,1.78.44,3.72-2.16,4-2.43.24-3-1.2-3-2.74a1.27,1.27,0,0,0-.91.12c.5,1.77.42,3.7-2.17,4-3.16.31-3.22-2.21-2.84-4.13a2.51,2.51,0,0,0-1.19-.25c-.73,1.65-2,3-4.12,1.62C223.85,234.41,230.21,230.94,230.21,230.94Z"/><path id="arm2-3" data-name="arm2" class="cls-5" d="M243.08,235.5l-6.43,1.7a6.25,6.25,0,0,1-7.63-4.41l-.19-2.5A115.24,115.24,0,0,0,217,187.63h0A9.5,9.5,0,0,1,223.78,176h0a9.58,9.58,0,0,1,11.7,6.76h0a83.14,83.14,0,0,1,12,42.08l0,3.08A6.19,6.19,0,0,1,243.08,235.5Z"/><path class="cls-6" d="M226.92,187.31s.67-2.56,2.38-2.32,1.45-1.41,2.73.84,6.22,1,2.57,2.3-1,3.55-3.72,2.45-3.23,1.92-3.15,0-2.56,1-1.93-1.58S225.16,184.51,226.92,187.31Z"/><path d="M224.9,203.19c7.22,3.86,11.18,5.42,17.56-.76.25-.24.17-.33,0-.51h0c-.19-.17-.3-.23-.53,0-6.18,5.91-9.67,4.29-16.62.63-.27-.14-.39-.06-.52.15h0C224.65,202.92,224.62,203,224.9,203.19Z"/><path d="M226.76,211c7.07,4.9,11.18,5.83,17.68-.65.25-.24.18-.34-.05-.52h0c-.24-.17-.31-.18-.55.06-6.3,6.21-9.87,5.12-16.64.52-.26-.18-.37-.14-.53.08h0C226.51,210.67,226.49,210.77,226.76,211Z"/></g><g id="foreben-2" data-name="foreben"><path id="tager-4" data-name="tager" class="cls-4" d="M60.84,224.83l-13.76-7s-7.46.42-5.08,4.52c1.23,2.12,2.79,1.63,4,.64a1.42,1.42,0,0,1,.74.67c-1,1.44-1.6,3.22.68,4.28,2.12,1,3.12-.13,3.6-1.54a1.18,1.18,0,0,1,.78.4c-1,1.45-1.56,3.21.7,4.26,2.76,1.28,3.63-1,3.9-2.84a2.34,2.34,0,0,1,1.15.15c.14,1.72.85,3.35,3.22,2.77C65.49,230,60.84,224.83,60.84,224.83Z"/><path id="arm2-4" data-name="arm2" class="cls-5" d="M47.72,224.89,53,228.46a6,6,0,0,0,8.32-1.58l1-2.2a110.92,110.92,0,0,1,24.38-34.9h0a9.1,9.1,0,0,0-2.44-12.69h0a9.21,9.21,0,0,0-12.75,2.42h0a80.19,80.19,0,0,0-24.34,34.32l-1,2.79A5.93,5.93,0,0,0,47.72,224.89Z"/><path class="cls-6" d="M77.79,186.34s.2-2.53-1.42-2.85-.86-1.74-2.75-.11-6-1-3.06,1.27-.21,3.55,2.59,3.4,2.3,2.77,2.84,1,2,1.74,2.25-.81S80.28,184.36,77.79,186.34Z"/><path d="M74.53,201.36c-7.78,1.22-11.87,1.38-15.67-6.24-.15-.29,0-.35.18-.45,0,0,0,0,0,0,.23-.1.35-.12.49.16,3.7,7.31,7.38,6.95,14.85,5.84.29,0,.37.06.42.3h0C74.85,201.2,74.83,201.32,74.53,201.36Z"/><path d="M70.36,207.81c-8,2.21-12,1.76-15.82-6.17-.14-.31,0-.37.22-.46h0c.27-.08.34-.07.48.23,3.71,7.62,7.3,7.76,14.91,5.73.29-.07.38,0,.45.24h0C70.67,207.63,70.66,207.73,70.36,207.81Z"/></g><ellipse class="cls-7" cx="84.65" cy="53.1" rx="39.39" ry="42.78"/><g id="bange_mund" data-name="bange mund"><path d="M104.41,76.9a22.2,22.2,0,0,0-7.55-5.19c-4-1.51-5-2-10.41.21a27.16,27.16,0,0,0-7.38,5.25,1.23,1.23,0,0,0,.79,2.11l6.87.34.53,0c1.35-1.24,5.83-4.76,10-.19l6.37-.48A1.22,1.22,0,0,0,104.41,76.9Z"/><path class="cls-8" d="M87.26,79.64a81.54,81.54,0,0,0,9.51-.15l.47,0C93.09,74.88,88.61,78.4,87.26,79.64Z"/></g><g id="øje2"><ellipse class="cls-9" cx="79.47" cy="50.78" rx="10.89" ry="11.08"/><path d="M80,57.22c-5.81,0-10-2.54-10.25-8.13a9.3,9.3,0,0,1,2.17-6.26,11.1,11.1,0,0,0-3.32,8A10.88,10.88,0,1,0,90.34,51C89.52,55.69,84.78,57.22,80,57.22Z"/></g><g id="øje2-2" data-name="øje2"><ellipse class="cls-9" cx="105.9" cy="50.78" rx="10.89" ry="11.08"/><path d="M105.38,57.22c5.82,0,10-2.54,10.26-8.13a9.3,9.3,0,0,0-2.17-6.26,11.14,11.14,0,0,1,3.32,8A10.88,10.88,0,1,1,95,51C95.85,55.69,100.58,57.22,105.38,57.22Z"/></g><ellipse cx="80.24" cy="50.78" rx="3.37" ry="3.35"/><ellipse cx="106.16" cy="50.78" rx="3.37" ry="3.35"/><g id="cap-_blå" data-name="cap- blå"><path d="M63.74,27.24c-2.55-3.94-1.49-10,2.14-13.06H64.66C50.49,14.17,39,17.52,39,21.65s11.49,7.47,25.66,7.47h.59A12.33,12.33,0,0,1,63.74,27.24Z"/><path d="M84.8,5.12s1.41-3.48,2.81,0Z"/><path class="cls-10" d="M51.25,29.34h67.38C85.08-26.3,51.25,29.34,51.25,29.34Zm24.18-1.55S86,10.4,96.49,27.79Z"/><rect x="85.83" y="4.61" width="0.73" height="15.45"/><path d="M52.56,29.34S65.36,8.21,85.83,5.12V5.8S70,6.66,53.19,29.34Z"/><path d="M117.15,29.34S105.39,8.21,86.56,5.12V5.8s14.54.86,30,23.54Z"/><rect class="cls-11" x="78.17" y="27.28" width="5.43" height="2.58" rx="1.22"/><ellipse cx="97.38" cy="16.45" rx="0.83" ry="1.29" transform="translate(19.64 77.37) rotate(-47.67)"/><ellipse cx="74.57" cy="16.45" rx="1.29" ry="0.83" transform="translate(8.36 54.51) rotate(-42.33)"/></g><path d="M68,38.1c8.16-6.27,13.43-8,21.82,0,.32.31.21.33,0,.51s0,0,0,0c-.17.19-.24.33-.55,0-8.07-7.93-13-6-20.83-.06-.3.23-.39.14-.55,0h0C67.78,38.41,67.69,38.34,68,38.1Z"/><path d="M116.76,38.1c-8.16-6.27-13.43-8-21.82,0-.32.31-.21.33,0,.51s0,0,0,0c.18.19.24.33.55,0,8.07-7.93,13-6,20.83-.06.3.23.39.14.55,0s0,0,0,0C117,38.41,117.08,38.34,116.76,38.1Z"/><g id="skjold"><path id="bund_skjold" data-name="bund skjold" class="cls-4" d="M287.77,179.37s-49,24.93-105.41,29.38c-31.73,2.5-73.63-7.34-97.84-12.37-12.55-2.61-23.58-9.71-31-15.55a10,10,0,0,1,4.27-17.78,6.19,6.19,0,0,1,1.29-.17l.78.19a425.12,425.12,0,0,0,224.62-6.38h0a10.67,10.67,0,0,1,4,1.46,11.71,11.71,0,0,1,.69,20.71C288.48,179.27,288,179.47,287.77,179.37Z"/><path class="cls-2" d="M280.49,152c-.08-.13-.17-.26-.26-.38-3.3-8.73-11.12-18.19-22-26.82-15.36-15.58-32.61-27-51-33.24v0a100.72,100.72,0,0,0-41.07-5.09l-1.86.2h-.11A105.72,105.72,0,0,0,126.62,98a126.84,126.84,0,0,0-18.89,12A155.11,155.11,0,0,0,85,131.53l-.07.09A195.56,195.56,0,0,0,66,157.51a1.66,1.66,0,0,0-.18.38,22.8,22.8,0,0,0-1.07,6.57c0,9.33,8.62,15.08,22.19,18.62a135,135,0,0,0,17.64,3.18c4.42.54,9.08,1,13.92,1.28h0l19.73,2q8,.81,16.06,1.19l.14,0h.29c1.7.11,7.92.49,10.84.32q12.64.15,25.28-.72c1.35-.08,2.7-.18,4-.28l8-.61v0l23-1.77.18.09q7.65-.47,14.5-1.28,5.3-.63,10-1.51h0a75.5,75.5,0,0,0,16.28-4.72h0l.1,0,0,0c9.62-4.22,15.13-10.53,15.13-19.91A24.33,24.33,0,0,0,280.49,152ZM176.21,259.15l-.12,0h0l.12,0Z"/><path class="cls-12" d="M99.91,131.37l20.7,29.31L147,142.35l-4.36-40.64-2.95-.68-12.93-3a128,128,0,0,0-18.88,12l-2.44,6.52Z"/><path class="cls-4" d="M108.4,130.59l13.23,18.74,16.9-11.72-2.79-26-1.89-.44-8.26-1.92a80.16,80.16,0,0,0-12.08,7.67L112,121.09Z"/><path class="cls-12" d="M143.14,177.76a76.16,76.16,0,0,1,7.86-3l-13.51-10.94-29.44,3.29-2.53,14.8Z"/><path class="cls-4" d="M135.65,175.5a41.14,41.14,0,0,1,4.14-1.59l-7.11-5.75-15.46,1.73-1.33,7.78Z"/><polygon class="cls-12" points="198.31 132.59 210.82 169.81 240.13 164.76 245.73 124.41 219.89 104.53 198.31 132.59"/><polygon class="cls-4" points="206.8 138.19 214.06 159.81 231.09 156.88 234.34 133.44 219.33 121.89 206.8 138.19"/><path class="cls-12" d="M217.76,181.47l-.1.87.1,0,8.4,5.58H226l.19.09a203.45,203.45,0,0,0,24.42-2.77l-3.68-10.11Z"/><path class="cls-4" d="M231.52,183.17l0,.33h0l3.18,2.11h-.06l.07,0a76.94,76.94,0,0,0,9.25-1l-1.39-3.83Z"/><path class="cls-12" d="M172.23,118.18l29.5-1.79,3.42-17.16,1.53-7.7a100.7,100.7,0,0,0-41.07-5.08c-.62,0-1.24.13-1.86.19l2.44,9.08Z"/><path class="cls-4" d="M178.32,113.51l21.19-1.29L202,99.9l1.1-5.53a72.27,72.27,0,0,0-29.5-3.65l-1.33.14L174,97.37Z"/><path class="cls-12" d="M164.78,175.6a111.06,111.06,0,0,1,24.82.68h1.11l7.67-29.1L175.16,121.8l-24.52,22.88,6.44,31.6H159Q161.86,175.86,164.78,175.6Z"/><path class="cls-4" d="M170.41,167.78a64.27,64.27,0,0,1,14.29.39h.63l4.42-16.75L176.38,136.8,162.26,150,166,168.17h1.08C168.16,168,169.28,167.87,170.41,167.78Z"/><path class="cls-12" d="M280.69,152c-.24-.35-.49-.7-.76-1l.28.57-15.5-12-8.07,23.17,10.54,17.46c9.6-4.23,15.1-10.53,15.1-19.91A24.39,24.39,0,0,0,280.69,152Z"/><path class="cls-4" d="M279.07,155.71c-.15-.22-.31-.44-.47-.65l.17.35-9.6-7.4-5,14.34,6.52,10.82c5.95-2.62,9.35-6.52,9.35-12.33A15.14,15.14,0,0,0,279.07,155.71Z"/><path class="cls-12" d="M98.32,141.53l-13.3-10h0l-.08.08a196.85,196.85,0,0,0-19,26.07,22.63,22.63,0,0,0-1.13,6.77c0,9.33,8.62,15.09,22.19,18.63L93,182Z"/><path class="cls-4" d="M93,149.13l-9.07-6.81h0l-.05.06a135.12,135.12,0,0,0-13,17.77,15.62,15.62,0,0,0-.77,4.62c0,6.36,5.88,10.28,15.13,12.69l4.12-.77Z"/><path class="cls-12" d="M140.08,186.46l-.19.86.19,0,15.68,3.51c.18,0,7.92.55,11.28.34q14,.18,27.93-.9l8-.61L196,180.14Z"/><path class="cls-4" d="M164.78,187.26l-.08.33h.08l6,1.35c.07,0,3,.21,4.34.13,3.58,0,7.16-.07,10.74-.35l3.07-.23-2.67-3.67Z"/></g></g></g></g></svg>
