<svg xmlns="http://www.w3.org/2000/svg" xmlns:xlink="http://www.w3.org/1999/xlink" viewBox="0 0 310 265"><defs><style>.cls-1{filter:url(#AI_GaussianBlur_7);}.cls-2{fill:#54a651;}.cls-3{fill:#b0a663;}.cls-4{fill:#61bf5e;}.cls-5{fill:#8a824d;}.cls-6{fill:#41803e;}.cls-7{fill:#20401f;}.cls-8{fill:#67cc64;}.cls-9{fill:#d7847c;}.cls-10{fill:#fff;}.cls-11{fill:#242b33;}.cls-12{fill:#999;}.cls-13{fill:#635e38;}</style><filter id="AI_GaussianBlur_7" name="AI_GaussianBlur_7"><feGaussianBlur stdDeviation="7"/></filter></defs><g id="Assetlist_-_Artboard" data-name="Assetlist - Artboard"><g id="bange_skildpadde_blur"><g id="skildpadde_glad" data-name="skildpadde glad" class="cls-1"><g id="skildpaddeb1"><ellipse cx="295.6" cy="190.24" rx="6.98" ry="17.59" transform="translate(-37.76 301.78) rotate(-51.26)"/><path d="M70,172.91,31.52,160a2.33,2.33,0,0,1-1-3.73h0c20.71-23.77,58.8-30.9,57-62.35l-22.77-6.2c-.17,29-32.64,34.7-53.22,55.5a15.59,15.59,0,0,0-3.72,7.63h0c0,.3-.07.59-.09.89A21.63,21.63,0,0,0,22.24,174l42.34,14.93Z"/><path d="M84.12,102.76c-7.58,2.09-11.61,2.71-16.25-4.44-.18-.28-.09-.36.13-.48h0c.21-.12.33-.15.5.11,4.51,6.86,8.11,6.09,15.39,4.13.29-.07.38,0,.46.26h0C84.42,102.56,84.41,102.68,84.12,102.76Z"/><path d="M73.6,120.25c-8.26,0-12-1.53-13.53-10.21-.06-.33,0-.37.33-.38,0,0,0,0,0,0,.29,0,.35,0,.41.34,1.5,8.36,4.91,9.46,12.77,9.55.3,0,.37.09.37.35h0C74,120.16,73.92,120.25,73.6,120.25Z"/><path d="M28.58,154.76c-6.92,3.74-10.71,5.24-16.84-.69-.24-.23-.17-.33,0-.49h0c.18-.17.28-.23.51,0,5.93,5.68,9.28,4.12,15.93.58.26-.13.38-.06.5.15h0C28.82,154.51,28.84,154.62,28.58,154.76Z"/><path d="M29.26,161.08c-3.9,6.87-6.69,8.63-14.3,5.65-.29-.11-.28-.25-.13-.48h0c.14-.23.21-.25.5-.15,7.3,2.77,9.54,1.16,13.3-5.34.15-.25.26-.27.49-.15h0C29.34,160.72,29.41,160.82,29.26,161.08Z"/><path d="M56.57,170.28c3.17,6.31,1.37,9.82-5.18,12.12-.26.09-.35,0-.41-.26-.06,0,0,0,0,0-.06-.24,0-.34.23-.43,6.08-2.19,7.68-5.25,4.73-11.08a.33.33,0,0,1,.17-.49h0C56.32,170,56.45,170,56.57,170.28Z"/><g id="førsteben"><g id="bagben"><path id="tager" d="M263,247.34l19.86-2.71s8.93,3.7,4.26,7.72c-2.43,2.08-4.12.81-5.21-.93a1.8,1.8,0,0,0-1.18.5c.64,2.21.56,4.64-2.68,5-3,.3-3.77-1.5-3.74-3.43a1.56,1.56,0,0,0-1.14.16c.64,2.21.53,4.61-2.69,4.93-3.93.39-4-2.77-3.53-5.16a3.06,3.06,0,0,0-1.49-.31c-.9,2.05-2.47,3.74-5.12,2C255.05,251.68,263,247.34,263,247.34Z"/><path id="arm2" d="M279,253.05l-8,2.11a7.75,7.75,0,0,1-9.49-5.5l-.24-3.12a144.35,144.35,0,0,0-14.74-53.31h0A11.87,11.87,0,0,1,255,178.7h0a11.9,11.9,0,0,1,14.55,8.44h0a104.21,104.21,0,0,1,14.94,52.58l0,3.85A7.75,7.75,0,0,1,279,253.05Z"/><path d="M256.36,212.66c9,4.83,13.92,6.78,21.86-.94.31-.3.21-.42,0-.64h0c-.23-.21-.37-.29-.66,0-7.69,7.38-12,5.37-20.68.79-.34-.18-.49-.08-.65.19h0C256,212.33,256,212.48,256.36,212.66Z"/><path d="M258.68,222.37c8.8,6.13,13.91,7.3,22-.8.31-.31.23-.43-.07-.65h0c-.29-.22-.38-.23-.68.06-7.83,7.77-12.28,6.41-20.71.66-.32-.22-.46-.17-.66.1h0C258.37,222,258.34,222.13,258.68,222.37Z"/></g><g id="foreben"><path id="tager-2" data-name="tager" d="M82.28,256.42l-17.84-9.13s-9.66.54-6.59,5.88c1.6,2.77,3.62,2.13,5.22.84a1.74,1.74,0,0,1,.95.86c-1.34,1.88-2.06,4.2.89,5.57,2.75,1.28,4-.17,4.66-2a1.59,1.59,0,0,1,1,.53c-1.33,1.87-2,4.18.91,5.54,3.57,1.67,4.7-1.28,5-3.69a2.91,2.91,0,0,1,1.51.19c.17,2.24,1.09,4.35,4.16,3.6C88.31,263.13,82.28,256.42,82.28,256.42Z"/><path id="arm2-2" data-name="arm2" d="M65.27,256.51l6.85,4.64a7.76,7.76,0,0,0,10.78-2l1.27-2.87a144.35,144.35,0,0,1,31.61-45.42h0a11.88,11.88,0,0,0-3.16-16.51h0a11.94,11.94,0,0,0-16.54,3.15h0a104.32,104.32,0,0,0-31.55,44.67l-1.32,3.62A7.74,7.74,0,0,0,65.27,256.51Z"/><path d="M100,225.89c-10.08,1.58-15.38,1.79-20.31-8.12-.19-.38-.06-.47.24-.59h0c.29-.13.45-.15.63.21,4.8,9.51,9.57,9.05,19.25,7.59.37-.06.48.09.54.39h0C100.44,225.68,100.41,225.83,100,225.89Z"/><path d="M94.61,234.28c-10.33,2.87-15.54,2.28-20.49-8-.19-.4-.07-.49.28-.59h0c.35-.11.44-.1.62.28,4.81,9.92,9.46,10.11,19.33,7.47.38-.1.49,0,.58.31h0C95,234,95,234.17,94.61,234.28Z"/></g></g><g id="bagben-2" data-name="bagben"><path id="tager-3" data-name="tager" d="M233.91,234.44l15.93-2.18s7.17,3,3.42,6.2c-1.95,1.67-3.31.65-4.18-.75a1.38,1.38,0,0,0-.94.4c.51,1.78.44,3.72-2.16,4-2.42.24-3-1.2-3-2.75a1.31,1.31,0,0,0-.92.13c.51,1.77.43,3.7-2.16,3.95-3.15.31-3.22-2.22-2.83-4.14a2.51,2.51,0,0,0-1.19-.25c-.73,1.65-2,3-4.12,1.62C227.56,237.92,233.91,234.44,233.91,234.44Z"/><path id="arm2-3" data-name="arm2" d="M246.76,239l-6.42,1.7a6.23,6.23,0,0,1-7.62-4.41l-.19-2.51A115.85,115.85,0,0,0,220.71,191h0a9.53,9.53,0,0,1,6.78-11.66h0a9.56,9.56,0,0,1,11.68,6.78h0a83.53,83.53,0,0,1,12,42.17l0,3.09A6.22,6.22,0,0,1,246.76,239Z"/><path d="M230.62,190.7s.67-2.56,2.38-2.32,1.45-1.41,2.73.84,6.21,1.06,2.57,2.3-1,3.57-3.72,2.46-3.22,1.93-3.14,0-2.56,1-1.93-1.58S228.86,187.9,230.62,190.7Z"/><path d="M228.61,206.62c7.21,3.88,11.16,5.44,17.53-.76.25-.24.18-.33,0-.51h0c-.2-.17-.3-.23-.54,0-6.17,5.92-9.65,4.3-16.59.63-.27-.14-.39-.06-.52.16,0,0,0,0,0,0C228.36,206.35,228.33,206.47,228.61,206.62Z"/><path d="M230.47,214.41c7.06,4.91,11.16,5.85,17.65-.64.25-.25.18-.35-.05-.53h0c-.24-.17-.31-.18-.55.06-6.29,6.22-9.85,5.13-16.62.52-.26-.18-.36-.14-.52.08h0C230.22,214.12,230.2,214.22,230.47,214.41Z"/></g><g id="foreben-2" data-name="foreben"><path id="tager-4" data-name="tager" d="M64.79,228.31l-13.74-7s-7.44.42-5.07,4.53c1.23,2.13,2.79,1.64,4,.64a1.44,1.44,0,0,1,.73.67c-1,1.45-1.59,3.23.68,4.29s3.12-.13,3.59-1.54a1.18,1.18,0,0,1,.79.4c-1,1.45-1.57,3.22.7,4.27,2.75,1.29,3.62-1,3.88-2.84a2.27,2.27,0,0,1,1.16.15c.13,1.72.84,3.35,3.21,2.77C69.43,233.48,64.79,228.31,64.79,228.31Z"/><path id="arm2-4" data-name="arm2" d="M51.69,228.38,57,232a6,6,0,0,0,8.3-1.58l1-2.21a111.25,111.25,0,0,1,24.34-35h0a9.14,9.14,0,0,0-2.43-12.72h0a9.19,9.19,0,0,0-12.74,2.43h0a80.31,80.31,0,0,0-24.3,34.4l-1,2.79A6,6,0,0,0,51.69,228.38Z"/><path d="M81.71,189.73s.21-2.53-1.41-2.86-.87-1.74-2.74-.1-6-1-3.06,1.27-.21,3.55,2.58,3.4,2.3,2.78,2.84,1,2,1.75,2.25-.82S84.2,187.75,81.71,189.73Z"/><path d="M78.46,204.79c-7.77,1.22-11.85,1.38-15.64-6.25-.15-.3,0-.36.18-.46,0,0,0,0,0,0,.22-.1.34-.11.48.17,3.7,7.32,7.37,7,14.83,5.84.29,0,.37.07.42.31h0C78.78,204.63,78.76,204.75,78.46,204.79Z"/><path d="M74.29,211.26c-8,2.21-12,1.75-15.78-6.19-.15-.31-.06-.37.21-.46h0c.27-.08.34-.07.48.22,3.71,7.64,7.29,7.79,14.89,5.76.29-.08.37,0,.45.24h0C74.61,211.07,74.6,211.17,74.29,211.26Z"/></g><ellipse cx="88.57" cy="56.18" rx="39.34" ry="42.88"/><g id="bange_mund" data-name="bange mund"><path d="M108.3,80a22,22,0,0,0-7.54-5.21c-4-1.52-5-2.06-10.4.21A27,27,0,0,0,83,80.3a1.23,1.23,0,0,0,.78,2.12l6.86.34.53,0c1.35-1.25,5.82-4.77,10-.19l6.37-.48A1.23,1.23,0,0,0,108.3,80Z"/><path d="M91.17,82.78a81.37,81.37,0,0,0,9.5-.15l.46,0C97,78,92.52,81.53,91.17,82.78Z"/></g><g id="øje2"><ellipse cx="83.39" cy="53.85" rx="10.87" ry="11.11"/><path d="M83.91,60.31c-5.81,0-10-2.55-10.24-8.15a9.4,9.4,0,0,1,2.16-6.28,11.18,11.18,0,0,0-3.31,8A10.87,10.87,0,1,0,94.25,54C93.43,58.77,88.7,60.31,83.91,60.31Z"/></g><g id="øje2-2" data-name="øje2"><ellipse cx="109.79" cy="53.85" rx="10.87" ry="11.11"/><path d="M109.27,60.31c5.8,0,10-2.55,10.24-8.15a9.35,9.35,0,0,0-2.17-6.28,11.19,11.19,0,0,1,3.32,8A10.87,10.87,0,1,1,98.93,54C99.75,58.77,104.48,60.31,109.27,60.31Z"/></g><ellipse cx="84.17" cy="53.85" rx="3.36" ry="3.36"/><ellipse cx="110.05" cy="53.85" rx="3.36" ry="3.36"/><g id="cap-_blå" data-name="cap- blå"><path d="M67.69,30.25c-2.55-3.94-1.49-10,2.13-13.08H68.6C54.45,17.16,43,20.51,43,24.65s11.47,7.49,25.62,7.49h.6A10.91,10.91,0,0,1,67.69,30.25Z"/><path d="M88.72,8.08s1.41-3.49,2.8,0Z"/><path d="M55.21,32.36H122.5C89-23.41,55.21,32.36,55.21,32.36Zm24.15-1.55s10.56-17.44,21,0Z"/><rect x="89.74" y="7.58" width="0.73" height="15.48"/><path d="M56.53,32.36S69.3,11.18,89.74,8.08v.69S74,9.63,57.15,32.36Z"/><path d="M121,32.36S109.27,11.18,90.47,8.08v.69s14.52.86,30,23.59Z"/><rect x="82.1" y="30.29" width="5.42" height="2.58" rx="1.06"/><ellipse cx="101.28" cy="19.44" rx="0.83" ry="1.29" transform="translate(18.42 80.84) rotate(-47.4)"/><ellipse cx="78.5" cy="19.44" rx="1.29" ry="0.83" transform="translate(7.55 58.26) rotate(-42.6)"/></g><path d="M71.94,41.14c8.15-6.28,13.41-8,21.79,0,.32.31.21.33,0,.51s0,0,0,0c-.17.19-.24.33-.55,0-8.06-7.95-13-6-20.8,0-.3.23-.39.13-.54,0s0,0,0,0C71.72,41.45,71.63,41.38,71.94,41.14Z"/><path d="M120.63,41.14c-8.15-6.28-13.41-8-21.78,0-.33.31-.22.33,0,.51h0c.18.19.24.33.55,0,8.06-7.95,13-6,20.8,0,.3.23.39.13.55,0s0,0,0,0C120.85,41.45,120.94,41.38,120.63,41.14Z"/><g id="skjold"><path id="bund_skjold" data-name="bund skjold" d="M291.38,182.75s-48.92,25-105.25,29.44c-31.68,2.51-73.52-7.35-97.69-12.39-12.53-2.62-23.55-9.73-30.92-15.59a10.08,10.08,0,0,1,4.26-17.83,6.93,6.93,0,0,1,1.29-.16l.78.19A423,423,0,0,0,288.14,160h0a10.79,10.79,0,0,1,4,1.45,11.77,11.77,0,0,1,.69,20.76C292.1,182.65,291.59,182.85,291.38,182.75Z"/><path d="M284.12,155.35l-.27-.38c-3.28-8.75-11.1-18.24-21.94-26.89C246.57,112.47,229.35,101,211,94.77v0a100.1,100.1,0,0,0-41-5.1c-.62,0-1.24.13-1.86.19H168a105.18,105.18,0,0,0-37.53,11.4,126.42,126.42,0,0,0-18.86,12,156.37,156.37,0,0,0-22.69,21.54l-.07.09a196.08,196.08,0,0,0-18.89,26,1.84,1.84,0,0,0-.17.38,22.59,22.59,0,0,0-1.07,6.59c0,9.35,8.61,15.12,22.16,18.67a133.86,133.86,0,0,0,17.61,3.18c4.41.54,9.06,1,13.9,1.29h0l19.7,2q8,.81,16,1.19c.08,0,.14,0,.14,0h.29c1.7.11,7.92.5,10.83.32q12.62.15,25.24-.71c1.35-.09,2.69-.18,4-.29l8-.61v0l22.91-1.77.19.09c5.09-.32,9.93-.73,14.47-1.28,3.53-.42,6.88-.92,10-1.52h0a75.28,75.28,0,0,0,16.26-4.73h0l.1,0v0c9.61-4.24,15.12-10.55,15.12-20A24.64,24.64,0,0,0,284.12,155.35ZM180,262.71l-.12,0h0l.12,0Z"/><path d="M103.81,134.63,124.47,164l26.39-18.37-4.36-40.73-2.94-.69-12.91-3a126.79,126.79,0,0,0-18.86,12l-2.43,6.53Z"/><path d="M112.28,133.85l13.21,18.79,16.88-11.75-2.79-26-1.88-.44-8.26-1.93a81.37,81.37,0,0,0-12.06,7.68l-1.56,4.18Z"/><path d="M147,181.14a72.12,72.12,0,0,1,7.85-3l-13.5-11-29.38,3.3-2.53,14.83Z"/><path d="M139.49,178.87a38.79,38.79,0,0,1,4.13-1.59l-7.09-5.77-15.44,1.74L119.76,181Z"/><polygon points="202.06 135.85 214.55 173.16 243.81 168.1 249.41 127.66 223.6 107.73 202.06 135.85"/><polygon points="210.53 141.47 217.79 163.14 234.78 160.2 238.03 136.71 223.04 125.13 210.53 141.47"/><path d="M221.48,184.85l-.1.87.1,0,8.39,5.6h-.16l.18.09a202.55,202.55,0,0,0,24.39-2.78l-3.67-10.13Z"/><path d="M235.21,186.56l0,.33h0l3.18,2.12h-.06l.07,0a76.53,76.53,0,0,0,9.24-1.05l-1.39-3.84Z"/><path d="M176,121.41l29.45-1.8,3.42-17.19,1.53-7.72a100.27,100.27,0,0,0-41-5.1l-1.86.2L170,98.89Z"/><path d="M182.1,116.73l21.16-1.29,2.45-12.35,1.1-5.55a72,72,0,0,0-29.45-3.66L176,94l1.75,6.54Z"/><path d="M168.58,179a110.22,110.22,0,0,1,24.79.68h1.1l7.66-29.17L178.94,125,154.46,148l6.43,31.67h1.87C164.69,179.37,166.63,179.13,168.58,179Z"/><path d="M174.2,171.13a63.39,63.39,0,0,1,14.26.39h.64l4.41-16.79-13.35-14.65-14.1,13.21,3.71,18.23h1.07C172,171.36,173.07,171.22,174.2,171.13Z"/><path d="M284.32,155.33c-.24-.36-.5-.71-.77-1.05l.29.57-15.48-12-8.06,23.22,10.52,17.51c9.59-4.24,15.08-10.56,15.08-20A24.62,24.62,0,0,0,284.32,155.33Z"/><path d="M282.7,159c-.15-.22-.31-.44-.47-.65l.17.35-9.58-7.42-5,14.38,6.51,10.84c5.94-2.62,9.34-6.54,9.34-12.36A15.24,15.24,0,0,0,282.7,159Z"/><path d="M102.22,144.81l-13.29-10h0l-.07.08a196.59,196.59,0,0,0-19,26.14,22.7,22.7,0,0,0-1.13,6.78c0,9.36,8.6,15.12,22.15,18.67l6-1.13Z"/><path d="M96.88,152.44l-9-6.83h0l0,.06a134.57,134.57,0,0,0-13,17.81,15.68,15.68,0,0,0-.77,4.63c0,6.38,5.87,10.31,15.1,12.73l4.12-.78Z"/><path d="M143.92,189.85l-.2.87.2,0,15.65,3.51c.18,0,7.91.55,11.26.35q13.95.17,27.89-.9l8-.62-6.91-9.56Z"/><path d="M168.58,190.65l-.08.34h.08l6,1.36c.07,0,3,.21,4.33.13,3.57,0,7.15-.07,10.72-.35l3.07-.24-2.66-3.67Z"/></g></g></g><g id="skildpadde_glad-2" data-name="skildpadde glad"><g id="skildpaddeb1-2" data-name="skildpaddeb1"><ellipse class="cls-2" cx="287.97" cy="183.71" rx="6.98" ry="17.59" transform="translate(-35.52 293.39) rotate(-51.26)"/><path class="cls-2" d="M62.36,166.39,23.89,153.45a2.33,2.33,0,0,1-1-3.74h0c20.71-23.77,58.8-30.9,57-62.35l-22.77-6.2c-.17,29-32.64,34.7-53.22,55.5a15.59,15.59,0,0,0-3.72,7.63h0c0,.3-.07.6-.09.89a21.62,21.62,0,0,0,14.51,22.3L57,182.42Z"/><path d="M76.49,96.23c-7.58,2.09-11.61,2.71-16.25-4.44-.18-.28-.09-.35.13-.48h0c.21-.12.33-.15.5.11,4.51,6.86,8.11,6.09,15.39,4.13.29-.07.38,0,.46.26h0C76.79,96,76.78,96.15,76.49,96.23Z"/><path d="M66,113.72c-8.26,0-12-1.53-13.53-10.21-.06-.33.05-.37.33-.38,0,0,0,0,0,0,.29,0,.35,0,.41.34,1.5,8.36,4.91,9.46,12.77,9.55.3,0,.37.1.37.35h0C66.33,113.63,66.29,113.72,66,113.72Z"/><path d="M21,148.24c-6.92,3.73-10.71,5.24-16.84-.7-.24-.23-.17-.32,0-.49h0c.18-.17.28-.23.51,0,5.93,5.68,9.28,4.12,15.93.59.26-.14.38-.06.5.14h0C21.19,148,21.21,148.09,21,148.24Z"/><path d="M21.63,154.55c-3.9,6.87-6.69,8.63-14.3,5.66-.29-.12-.28-.26-.13-.49h0c.14-.23.21-.25.5-.15,7.3,2.77,9.54,1.17,13.3-5.33.15-.26.26-.28.49-.16h0C21.71,154.2,21.78,154.29,21.63,154.55Z"/><path d="M48.94,163.75c3.17,6.31,1.37,9.82-5.18,12.13-.26.09-.35,0-.41-.26-.06,0,0,0,0,0a.31.31,0,0,1,.23-.44c6.08-2.19,7.68-5.25,4.73-11.08a.33.33,0,0,1,.17-.49s0,0,0,0C48.69,163.5,48.82,163.51,48.94,163.75Z"/><g id="førsteben-2" data-name="førsteben"><g id="bagben-3" data-name="bagben"><path id="tager-5" data-name="tager" class="cls-3" d="M255.34,240.81l19.86-2.71s8.93,3.71,4.26,7.72c-2.43,2.09-4.12.82-5.21-.93a1.8,1.8,0,0,0-1.18.5c.64,2.22.56,4.64-2.68,5-3,.3-3.77-1.5-3.74-3.43a1.61,1.61,0,0,0-1.14.16c.64,2.21.54,4.62-2.69,4.93-3.93.39-4-2.76-3.53-5.16a3.06,3.06,0,0,0-1.49-.31c-.9,2.05-2.47,3.75-5.12,2C247.42,245.15,255.34,240.81,255.34,240.81Z"/><path id="arm2-5" data-name="arm2" class="cls-4" d="M271.35,246.52l-8,2.11a7.75,7.75,0,0,1-9.49-5.5l-.24-3.12a144.4,144.4,0,0,0-14.74-53.31h0a11.87,11.87,0,0,1,8.46-14.53h0a11.9,11.9,0,0,1,14.55,8.44h0a104.21,104.21,0,0,1,14.94,52.58l0,3.85A7.75,7.75,0,0,1,271.35,246.52Z"/><path d="M248.73,206.14c9,4.83,13.92,6.77,21.86-.95.31-.3.21-.42,0-.63h0c-.23-.22-.37-.29-.66,0-7.69,7.38-12,5.37-20.68.79-.34-.17-.49-.07-.65.19h0C248.41,205.8,248.38,206,248.73,206.14Z"/><path d="M251.05,215.84c8.8,6.13,13.91,7.3,22-.8.31-.31.23-.43-.07-.65h0c-.29-.22-.38-.23-.68.07-7.83,7.76-12.28,6.4-20.71.65-.32-.22-.46-.17-.66.1h0C250.74,215.48,250.71,215.61,251.05,215.84Z"/></g><g id="foreben-3" data-name="foreben"><path id="tager-6" data-name="tager" class="cls-3" d="M74.65,249.89l-17.84-9.13s-9.66.55-6.59,5.88c1.6,2.77,3.62,2.13,5.22.84a1.82,1.82,0,0,1,1,.86c-1.34,1.88-2.06,4.2.89,5.58,2.75,1.28,4-.17,4.66-2a1.64,1.64,0,0,1,1,.53c-1.33,1.88-2,4.18.91,5.55,3.57,1.66,4.7-1.29,5-3.7a3,3,0,0,1,1.51.19c.17,2.24,1.09,4.35,4.16,3.61C80.68,256.6,74.65,249.89,74.65,249.89Z"/><path id="arm2-6" data-name="arm2" class="cls-4" d="M57.64,250l6.85,4.64a7.76,7.76,0,0,0,10.78-2.05l1.27-2.87a144.35,144.35,0,0,1,31.61-45.42h0a11.86,11.86,0,0,0-3.16-16.5h0a11.92,11.92,0,0,0-16.54,3.15h0A104.23,104.23,0,0,0,56.9,235.59l-1.32,3.62A7.74,7.74,0,0,0,57.64,250Z"/><path d="M92.39,219.36C82.31,221,77,221.15,72.08,211.24c-.19-.38-.06-.47.24-.59h0c.29-.13.45-.15.63.21,4.8,9.51,9.57,9,19.25,7.59.37,0,.48.09.54.4h0C92.81,219.15,92.78,219.3,92.39,219.36Z"/><path d="M87,227.75c-10.33,2.88-15.54,2.28-20.49-8-.19-.4-.07-.48.28-.59h0c.35-.11.44-.1.62.29,4.81,9.91,9.46,10.1,19.33,7.46.38-.1.49,0,.58.31h0C87.4,227.52,87.38,227.64,87,227.75Z"/></g></g><g id="bagben-4" data-name="bagben"><path id="tager-7" data-name="tager" class="cls-5" d="M226.28,227.91l15.93-2.18s7.17,3,3.42,6.2c-1.95,1.67-3.31.65-4.18-.75a1.48,1.48,0,0,0-.94.4c.51,1.78.44,3.73-2.16,4-2.42.24-3-1.2-3-2.75a1.31,1.31,0,0,0-.92.13c.51,1.77.43,3.7-2.16,3.95-3.15.32-3.22-2.22-2.83-4.13a2.39,2.39,0,0,0-1.19-.26c-.73,1.65-2,3-4.12,1.63C219.93,231.39,226.28,227.91,226.28,227.91Z"/><path id="arm2-7" data-name="arm2" class="cls-6" d="M239.13,232.49l-6.42,1.69a6.23,6.23,0,0,1-7.62-4.41l-.19-2.51a115.85,115.85,0,0,0-11.82-42.76h0a9.52,9.52,0,0,1,6.78-11.65h0a9.55,9.55,0,0,1,11.68,6.77h0a83.53,83.53,0,0,1,12,42.17l0,3.1A6.22,6.22,0,0,1,239.13,232.49Z"/><path class="cls-7" d="M223,184.17s.67-2.56,2.38-2.32,1.45-1.41,2.73.84,6.21,1.06,2.57,2.31-1,3.56-3.72,2.45-3.22,1.93-3.14,0-2.56,1-1.93-1.57S221.23,181.37,223,184.17Z"/><path d="M221,200.09c7.21,3.88,11.16,5.44,17.53-.75.25-.24.18-.34,0-.51h0c-.2-.18-.3-.24-.54,0-6.17,5.92-9.65,4.31-16.59.64-.27-.15-.39-.07-.52.15,0,0,0,0,0,0C220.73,199.82,220.7,199.94,221,200.09Z"/><path d="M222.84,207.88c7.06,4.92,11.16,5.85,17.65-.64.25-.25.18-.35-.05-.53,0,0,0,0,0,0-.24-.17-.31-.18-.55.06-6.29,6.23-9.85,5.14-16.62.52-.26-.18-.36-.14-.52.08h0C222.59,207.59,222.57,207.69,222.84,207.88Z"/></g><g id="foreben-4" data-name="foreben"><path id="tager-8" data-name="tager" class="cls-5" d="M57.16,221.78l-13.74-7s-7.44.42-5.07,4.53c1.23,2.13,2.79,1.64,4,.65a1.38,1.38,0,0,1,.73.66c-1,1.45-1.59,3.23.68,4.29,2.12,1,3.12-.13,3.59-1.54a1.23,1.23,0,0,1,.79.4c-1,1.45-1.57,3.22.7,4.28,2.75,1.28,3.62-1,3.88-2.85a2.27,2.27,0,0,1,1.16.15c.13,1.72.84,3.35,3.21,2.77C61.8,227,57.16,221.78,57.16,221.78Z"/><path id="arm2-8" data-name="arm2" class="cls-6" d="M44.06,221.85l5.28,3.58a6,6,0,0,0,8.3-1.59l1-2.2a111.18,111.18,0,0,1,24.34-35h0a9.13,9.13,0,0,0-2.43-12.71h0a9.17,9.17,0,0,0-12.74,2.42h0a80.34,80.34,0,0,0-24.3,34.41l-1,2.79A6,6,0,0,0,44.06,221.85Z"/><path class="cls-7" d="M74.08,183.2s.21-2.53-1.41-2.86-.87-1.74-2.74-.1-6-1-3.06,1.27-.21,3.55,2.58,3.41,2.3,2.77,2.84,1,2,1.75,2.25-.81S76.57,181.22,74.08,183.2Z"/><path d="M70.83,198.27C63.06,199.49,59,199.65,55.19,192c-.15-.29,0-.36.18-.46,0,0,0,0,0,0,.22-.09.34-.11.48.17,3.7,7.32,7.37,7,14.83,5.85.29,0,.37.06.42.3h0C71.15,198.1,71.13,198.22,70.83,198.27Z"/><path d="M66.66,204.73c-8,2.21-12,1.76-15.78-6.19-.15-.31-.06-.37.21-.46h0c.27-.08.34-.07.48.23,3.71,7.64,7.29,7.78,14.89,5.75.29-.08.37,0,.45.24h0C67,204.55,67,204.64,66.66,204.73Z"/></g><ellipse class="cls-8" cx="80.94" cy="49.65" rx="39.34" ry="42.88"/><g id="bange_mund-2" data-name="bange mund"><path d="M100.67,73.51a22,22,0,0,0-7.54-5.21c-3.95-1.51-5-2-10.4.22a27,27,0,0,0-7.36,5.25,1.23,1.23,0,0,0,.78,2.12l6.86.34.53,0c1.35-1.24,5.82-4.77,10-.19l6.37-.48A1.23,1.23,0,0,0,100.67,73.51Z"/><path class="cls-9" d="M83.54,76.25A81.37,81.37,0,0,0,93,76.1l.46,0C89.36,71.48,84.89,75,83.54,76.25Z"/></g><g id="øje2-3" data-name="øje2"><ellipse class="cls-10" cx="75.76" cy="47.32" rx="10.87" ry="11.11"/><path d="M76.28,53.78c-5.81,0-10-2.55-10.24-8.15a9.41,9.41,0,0,1,2.16-6.28,11.18,11.18,0,0,0-3.31,8,10.87,10.87,0,1,0,21.73.2C85.8,52.24,81.07,53.78,76.28,53.78Z"/></g><g id="øje2-4" data-name="øje2"><ellipse class="cls-10" cx="102.16" cy="47.32" rx="10.87" ry="11.11"/><path d="M101.64,53.78c5.8,0,10-2.55,10.24-8.15a9.37,9.37,0,0,0-2.17-6.28,11.19,11.19,0,0,1,3.32,8,10.87,10.87,0,1,1-21.73.2C92.12,52.24,96.85,53.78,101.64,53.78Z"/></g><ellipse cx="76.54" cy="47.32" rx="3.36" ry="3.36"/><ellipse cx="102.42" cy="47.32" rx="3.36" ry="3.36"/><g id="cap-_blå-2" data-name="cap- blå"><path d="M60.06,23.73c-2.55-3.95-1.49-10,2.13-13.09H61c-14.15,0-25.62,3.35-25.62,7.49S46.82,25.61,61,25.61h.6A11.73,11.73,0,0,1,60.06,23.73Z"/><path d="M81.09,1.55s1.41-3.49,2.8,0Z"/><path class="cls-11" d="M47.58,25.83h67.29C81.36-29.94,47.58,25.83,47.58,25.83Zm24.15-1.55s10.56-17.43,21,0Z"/><rect x="82.11" y="1.05" width="0.73" height="15.48"/><path d="M48.9,25.83S61.67,4.65,82.11,1.55v.69S66.33,3.1,49.52,25.83Z"/><path d="M113.39,25.83S101.64,4.65,82.84,1.55v.69s14.52.86,30,23.59Z"/><rect class="cls-12" x="74.47" y="23.76" width="5.42" height="2.58" rx="1.06"/><ellipse cx="93.65" cy="12.92" rx="0.83" ry="1.29" transform="translate(20.76 73.11) rotate(-47.4)"/><ellipse cx="70.87" cy="12.92" rx="1.29" ry="0.83" transform="translate(9.96 51.38) rotate(-42.6)"/></g><path d="M64.31,34.61c8.15-6.28,13.41-8,21.79,0,.32.31.21.33,0,.52,0,0,0,0,0,0-.17.18-.24.33-.55,0-8.06-8-13-6-20.8-.05-.3.23-.39.13-.54,0s0,0,0,0C64.09,34.92,64,34.85,64.31,34.61Z"/><path d="M113,34.61c-8.15-6.28-13.41-8-21.78,0-.33.31-.22.33,0,.52,0,0,0,0,0,0,.18.18.24.33.55,0,8.06-8,13-6,20.8-.05.3.23.39.13.55,0h0C113.22,34.92,113.31,34.85,113,34.61Z"/><g id="skjold-2" data-name="skjold"><path id="bund_skjold-2" data-name="bund skjold" class="cls-5" d="M283.75,176.22s-48.92,25-105.25,29.45c-31.68,2.5-73.52-7.36-97.69-12.4-12.53-2.62-23.55-9.73-30.92-15.59a10.08,10.08,0,0,1,4.26-17.82,6.27,6.27,0,0,1,1.29-.17l.78.19a423,423,0,0,0,224.29-6.39h0a10.67,10.67,0,0,1,4,1.46,11.76,11.76,0,0,1,.69,20.75C284.47,176.12,284,176.32,283.75,176.22Z"/><path class="cls-3" d="M276.49,148.82l-.27-.38c-3.28-8.75-11.1-18.23-21.94-26.89-15.34-15.61-32.56-27-50.93-33.31v0a100.27,100.27,0,0,0-41-5.1l-1.86.2h-.12a105.38,105.38,0,0,0-37.53,11.4,126.42,126.42,0,0,0-18.86,12,155.91,155.91,0,0,0-22.69,21.55l-.07.08a195.54,195.54,0,0,0-18.89,26,1.56,1.56,0,0,0-.17.37,22.65,22.65,0,0,0-1.07,6.59c0,9.36,8.61,15.12,22.16,18.67a135.45,135.45,0,0,0,17.61,3.19c4.41.53,9.06,1,13.9,1.28h0l19.7,2c5.33.54,10.68.93,16,1.2l.14,0h.29c1.7.11,7.92.5,10.83.32q12.62.16,25.24-.71l4-.28,8-.62v0l22.91-1.77.19.09c5.09-.32,9.93-.73,14.47-1.28,3.53-.42,6.88-.92,10-1.51h0a75.87,75.87,0,0,0,16.26-4.72h0l.1,0v0c9.61-4.23,15.12-10.55,15.12-20A24.69,24.69,0,0,0,276.49,148.82ZM172.36,256.19l-.12,0h0l.12,0Z"/><path class="cls-13" d="M96.18,128.1l20.66,29.39,26.39-18.38-4.36-40.73-2.94-.69-12.91-3a125.91,125.91,0,0,0-18.86,12l-2.43,6.53Z"/><path class="cls-5" d="M104.65,127.32l13.21,18.79,16.88-11.75L132,108.31l-1.88-.44-8.26-1.93a80.63,80.63,0,0,0-12.06,7.69l-1.56,4.17Z"/><path class="cls-13" d="M139.34,174.61a74.26,74.26,0,0,1,7.85-3l-13.5-11-29.38,3.3-2.53,14.83Z"/><path class="cls-5" d="M131.86,172.34a38.79,38.79,0,0,1,4.13-1.59L128.9,165l-15.44,1.74-1.33,7.79Z"/><polygon class="cls-13" points="194.43 129.32 206.92 166.63 236.18 161.57 241.78 121.13 215.97 101.2 194.43 129.32"/><polygon class="cls-5" points="202.9 134.94 210.16 156.62 227.15 153.68 230.4 130.18 215.41 118.61 202.9 134.94"/><path class="cls-13" d="M213.85,178.32l-.1.87.1,0,8.39,5.6h-.16l.18.09a202.55,202.55,0,0,0,24.39-2.78L243,172Z"/><path class="cls-5" d="M227.58,180l0,.33h0l3.18,2.12h-.06l.07,0a76.53,76.53,0,0,0,9.24-1.05l-1.39-3.84Z"/><path class="cls-13" d="M168.39,114.89l29.45-1.8,3.42-17.2,1.53-7.72a100.27,100.27,0,0,0-41-5.1l-1.86.2,2.44,9.1Z"/><path class="cls-5" d="M174.47,110.2l21.16-1.29,2.45-12.35,1.1-5.54a71.7,71.7,0,0,0-29.45-3.66c-.45,0-.89.09-1.34.13L170.14,94Z"/><path class="cls-13" d="M161,172.44a110.22,110.22,0,0,1,24.79.68h1.1L194.5,144l-23.19-25.44-24.48,22.94,6.43,31.67h1.87Q158,172.7,161,172.44Z"/><path class="cls-5" d="M166.57,164.6a64,64,0,0,1,14.26.39h.64l4.41-16.79-13.35-14.65-14.1,13.21L162.14,165h1.07Q164.88,164.75,166.57,164.6Z"/><path class="cls-13" d="M276.69,148.8c-.24-.36-.5-.71-.77-1.05l.29.57-15.48-12-8.06,23.22,10.52,17.51c9.59-4.24,15.08-10.55,15.08-20A24.66,24.66,0,0,0,276.69,148.8Z"/><path class="cls-5" d="M275.07,152.5c-.15-.22-.31-.44-.47-.65l.17.36-9.58-7.43-5,14.38L266.71,170c5.94-2.62,9.34-6.53,9.34-12.36A15.24,15.24,0,0,0,275.07,152.5Z"/><path class="cls-13" d="M94.59,138.29l-13.29-10h0l-.07.09a196.48,196.48,0,0,0-19,26.13,22.76,22.76,0,0,0-1.13,6.79c0,9.35,8.6,15.11,22.15,18.66l6-1.13Z"/><path class="cls-5" d="M89.25,145.91l-9-6.83h0l0,.06a134,134,0,0,0-13,17.82,15.57,15.57,0,0,0-.77,4.62c0,6.38,5.87,10.31,15.1,12.73l4.12-.77Z"/><path class="cls-13" d="M136.29,183.32l-.2.87.2,0,15.65,3.51c.18,0,7.91.55,11.26.35q14,.18,27.89-.9l8-.62L192.15,177Z"/><path class="cls-5" d="M161,184.12l-.08.34H161l6,1.35c.07,0,3,.21,4.33.13,3.57.05,7.15-.07,10.72-.35l3.07-.23-2.66-3.68Z"/></g></g></g></g></g></svg>
