<svg xmlns="http://www.w3.org/2000/svg" viewBox="0 0 510 60"><defs><style>.cls-1{fill:none;}</style></defs><g id="Assetlist_-_Artboard" data-name="Assetlist - Artboard"><g id="beogle"><path d="M231.32,26.74c37.14,0,55.69-5.8,59.09-7,61.88-14.63,102.08-13.3,124.92-9.59,24.46,4,34.74,11.44,34.84,11.52l9.05-3.12c-.48-.36-12-8.93-39.67-13.56-36.13-6-81.28-2.75-134.18,9.8l-.51.12-.44.17c-.09,0-11.42,4.13-35.76,5.55C226,22,187.21,21.19,131,9.92,62.55-3.81,46.82-1,30.65,4.8,23.85,7.24,18,9.35,1.15,8.44L0,14c20.91,1.13,29.42-1.93,36.94-4.63,10.8-3.89,22-7.91,90.09,5.75C171.35,24,205.75,26.74,231.32,26.74Z"/><path class="cls-1" d="M456.87,20.12s-42.57-32.31-167-2.78c0,0-46.57,17.64-158.64-4.83S54.07,14,2.76,11.21"/><path d="M282.1,60c37.15,0,55.69-5.79,59.09-7,61.88-14.63,102.08-13.29,124.92-9.59C490.58,47.4,500.86,54.87,501,55l9-3.12c-.48-.36-12-8.93-39.67-13.56-36.13-6.05-81.27-2.75-134.18,9.8l-.5.12-.45.17c-.08,0-11.42,4.13-35.75,5.55C276.8,55.23,238,54.45,181.8,43.18,113.33,29.45,97.61,32.24,81.43,38.06c-6.8,2.44-12.67,4.55-29.49,3.64l-1.16,5.54c20.91,1.14,29.43-1.93,36.94-4.63,10.8-3.89,22-7.9,90.09,5.75C222.14,57.25,256.53,60,282.1,60Z"/><path class="cls-1" d="M507.65,53.38s-42.57-32.31-167-2.78c0,0-46.58,17.64-158.65-4.83s-77.14,1.49-128.44-1.3"/></g></g></svg>
