<svg xmlns="http://www.w3.org/2000/svg" viewBox="0 0 150 240"><defs><style>.cls-1{fill:#e6e6e6;}.cls-2{fill:#54a651;}</style></defs><g id="Assetlist_-_Artboard" data-name="Assetlist - Artboard"><g id="egg"><g id="æg1"><ellipse class="cls-1" cx="75" cy="119.82" rx="66.8" ry="111.67"/><ellipse class="cls-2" cx="69.31" cy="169.26" rx="12.95" ry="15.61" transform="matrix(0.99, -0.14, 0.14, 0.99, -23.21, 11.49)"/><ellipse class="cls-2" cx="60.19" cy="116.52" rx="15.57" ry="11.86" transform="matrix(0.86, -0.5, 0.5, 0.86, -50.59, 46.33)"/><ellipse class="cls-2" cx="92.93" cy="35.82" rx="12.97" ry="12.38" transform="matrix(0.69, -0.72, 0.72, 0.69, 2.67, 77.9)"/><ellipse class="cls-2" cx="64.87" cy="68.04" rx="10.9" ry="13.16" transform="translate(-11.38 123.03) rotate(-82.16)"/><ellipse class="cls-2" cx="103.31" cy="125.72" rx="12.81" ry="14.58" transform="translate(-58.42 107.8) rotate(-44.27)"/><path class="cls-2" d="M37.46,71.33c1-6.67-4.8-13-12.85-14.13a17.55,17.55,0,0,0-4.91,0A148.29,148.29,0,0,0,13,77.89a16.76,16.76,0,0,0,8.14,3.45C29.21,82.48,36.51,78,37.46,71.33Z"/><path class="cls-2" d="M82.25,206.49A15,15,0,0,0,68.7,231.37a40.85,40.85,0,0,0,6.17.48,42.29,42.29,0,0,0,18-4.09,15.34,15.34,0,0,0,1.3-4A14.83,14.83,0,0,0,82.25,206.49Z"/><path class="cls-2" d="M124.85,165.59A13.9,13.9,0,0,0,120,193a13.37,13.37,0,0,0,5.68-.23A132.61,132.61,0,0,0,134.07,172,13.52,13.52,0,0,0,124.85,165.59Z"/><path class="cls-2" d="M116.37,63.68c-5.55,5.15-5.26,14.42.63,20.7s15.18,7.2,20.73,2.05c.25-.23.47-.48.69-.72a154.31,154.31,0,0,0-6.56-23.81C126.57,59.39,120.46,59.88,116.37,63.68Z"/><path class="cls-2" d="M25.56,157.79c4.64-4.3,4.4-12-.53-17.3-4.53-4.83-11.44-5.85-16.13-2.65a174,174,0,0,0,3.33,21.25C16.74,161.4,22.05,161.05,25.56,157.79Z"/></g></g></g></svg>
