<svg xmlns="http://www.w3.org/2000/svg" xmlns:xlink="http://www.w3.org/1999/xlink" viewBox="0 0 130 225"><defs><style>.cls-1{filter:url(#AI_GaussianBlur_7);}.cls-2{fill:#e6e6e6;}.cls-3{fill:#54a651;}</style><filter id="AI_GaussianBlur_7" name="AI_GaussianBlur_7"><feGaussianBlur stdDeviation="7"/></filter></defs><g id="Assetlist_-_Artboard" data-name="Assetlist - Artboard"><g id="egg_time1"><g class="cls-1"><path d="M117.21,91.59q-.45-3.36-1-6.61c-.26-1.45-.54-2.88-.84-4.3-.15-.71-.3-1.41-.46-2.11-.32-1.4-.66-2.78-1-4.15s-.73-2.71-1.12-4-.81-2.64-1.24-3.93c-.64-1.93-1.32-3.83-2-5.67-.48-1.23-1-2.44-1.49-3.62a94.91,94.91,0,0,0-6-11.61c-.62-1-1.25-2-1.89-3a71.65,71.65,0,0,0-6.17-8C85.62,25.37,75.74,20,65.13,20c-.57,0-1.13,0-1.7.05l-.48,0c-.43,0-.87.07-1.3.12l-.43.05c-.55.07-1.1.15-1.65.25l-.31.06c-.45.08-.91.18-1.36.29l-.48.11-1.36.37-.29.09c-.54.16-1.08.34-1.61.53l-.4.16c-.42.15-.83.31-1.24.49l-.45.19c-.53.22-1,.46-1.57.72h0c-.52.25-1,.53-1.55.81-.15.08-.3.16-.44.25-.4.22-.8.45-1.19.7l-.38.23c-.5.31-1,.64-1.5,1l-.27.19c-.41.29-.82.58-1.23.89l-.42.32c-.41.31-.82.63-1.22,1l-.25.21c-.48.39-1,.8-1.43,1.23l-.35.32c-.37.33-.73.67-1.09,1l-.39.38c-.46.45-.92.91-1.38,1.39h0c-.45.48-.9,1-1.34,1.47l-.37.42c-.35.39-.69.79-1,1.2l-.32.39c-.43.52-.86,1.06-1.28,1.6l-.22.3c-.35.46-.7.93-1,1.41-.12.16-.24.32-.35.49-.35.48-.69,1-1,1.48a3,3,0,0,0-.2.29c-.4.59-.79,1.2-1.18,1.82l-.29.46c-.3.48-.6,1-.89,1.47l-.32.53q-1.12,1.93-2.18,4l-.29.56c-.28.54-.55,1.09-.82,1.64l-.24.5c-.34.7-.67,1.41-1,2.13l-.17.38c-.27.6-.53,1.21-.79,1.83l-.27.63L21,60.29l-.14.36c-.3.75-.59,1.52-.87,2.3l-.21.56c-.22.62-.44,1.23-.65,1.85-.07.22-.15.43-.22.65-.27.8-.53,1.6-.79,2.41L17.65,70h0l-.39,1.35c-.28,1-.56,1.93-.82,2.92-.31,1.15-.61,2.32-.89,3.5l0,0c-.31,1.33-.6,2.68-.88,4v.05c-.27,1.34-.53,2.7-.76,4.07l0,.12c-.23,1.35-.44,2.71-.64,4.08l0,.2c-.19,1.36-.37,2.72-.52,4.1l0,.26c-.15,1.36-.29,2.74-.41,4.12,0,.1,0,.2,0,.3q-.18,2.07-.3,4.17c0,.09,0,.19,0,.28-.08,1.41-.14,2.84-.18,4.27a1.34,1.34,0,0,0,0,.2c0,1.47-.06,2.94-.06,4.43h0c0,1.14,0,2.28,0,3.41,0,.21,0,.43,0,.64q0,1.71.12,3.42s0,.07,0,.11q.09,1.82.21,3.6v0c.08,1.22.18,2.43.3,3.64h0l-.11.07h0c.14,1.52.3,3,.48,4.52.37,3,.81,5.93,1.34,8.8.26,1.44.55,2.86.85,4.27l.19.09h0a132.35,132.35,0,0,0,4,14.41v0c.63,1.82,1.29,3.59,2,5.33v0q1.56,3.9,3.34,7.52v0q1.17,2.37,2.43,4.61l.07.12q1.24,2.21,2.58,4.27l.08.12q1.34,2.07,2.76,4l0,0c.46.61.92,1.21,1.39,1.8l.09.11c1,1.2,1.94,2.33,2.94,3.42l.16.17c1,1.07,2,2.08,3,3l.18.16c.5.46,1,.91,1.52,1.34l0,0c.54.46,1.09.9,1.64,1.32l.12.09c.5.39,1,.76,1.52,1.11l.18.13c1.08.76,2.19,1.45,3.31,2.09l.25.13c1.11.62,2.25,1.18,3.4,1.68l.24.1c.55.23,1.09.45,1.64.65l.1,0c.59.22,1.19.41,1.78.59l.19.06c.54.15,1.08.3,1.62.43l.24.05c.6.14,1.21.27,1.83.37h0l0,0c.09.1.16.22.25.32a31.23,31.23,0,0,0,4.93.4,31.93,31.93,0,0,0,9.13-1.35c.6-.18,1.19-.37,1.77-.58a36.13,36.13,0,0,0,3.48-1.46l.13-.31h0q.94-.45,1.86-1l.13-.08a40.24,40.24,0,0,0,3.59-2.24l.15-.11c1.16-.82,2.31-1.71,3.43-2.67l.17-.14q1.67-1.42,3.27-3.06l.19-.19q1.58-1.62,3.09-3.41l.2-.25q1.5-1.8,2.91-3.76l.21-.29q1.39-2,2.73-4.09c.06-.11.13-.22.2-.33.88-1.42,1.72-2.89,2.54-4.4l.2-.37c.41-.77.81-1.54,1.21-2.34h0c.37-.76.74-1.52,1.1-2.3.11-.23.21-.47.32-.71.25-.56.5-1.11.74-1.67l.35-.81.72-1.75.29-.71,1-2.5c.3-.83.6-1.66.89-2.5l.18-.55c.26-.74.5-1.48.74-2.23,0-.12.08-.23.11-.34.27-.85.53-1.72.79-2.59,0-.17.09-.34.14-.5.22-.74.42-1.49.63-2.24,0-.17.09-.35.14-.53.23-.88.46-1.77.68-2.67l.09-.39q.28-1.18.54-2.37l.15-.64c.19-.92.39-1.85.57-2.78V142c.18-.9.34-1.81.5-2.72l.12-.69c.15-.86.29-1.73.42-2.6,0-.09,0-.17,0-.26.14-.95.28-1.91.4-2.87l.09-.71c.1-.81.19-1.61.28-2.42,0-.19,0-.39.07-.58.1-1,.19-1.94.28-2.91,0-.22,0-.44.05-.66l.18-2.42c0-.25,0-.49,0-.74.06-1,.11-2,.15-3,0-.16,0-.32,0-.48,0-.86.06-1.72.08-2.58,0-.28,0-.55,0-.82q0-1.53,0-3.06h0A159,159,0,0,0,117.21,91.59Z"/></g><path d="M106.21,154.32c5.35-14.4,8.45-31.52,8.45-49.91,0-51-23.93-92.45-53.44-92.45-20.3,0-37.95,19.58-47,48.41-.17.52-.32,1-.48,1.57l-.39,1.34c-.61,2.1-1.19,4.24-1.71,6.42l0,0a152.58,152.58,0,0,0-3.9,34.68c0,5.06.24,10,.69,14.84l-.12.08A148.53,148.53,0,0,0,11,136.93l.19.09c7,32.23,24.15,55.88,44.7,59.39l.28.36a32.35,32.35,0,0,0,4.93.39,32.79,32.79,0,0,0,14.37-3.39c0-.1.09-.2.14-.31,10.27-5,19.3-15.09,26.07-28.68h0A105.88,105.88,0,0,0,106.21,154.32Z"/><g id="æg"><g id="æg1"><ellipse class="cls-2" cx="61.22" cy="104.41" rx="53.44" ry="92.45"/><ellipse class="cls-3" cx="56.67" cy="145.34" rx="10.37" ry="12.91" transform="translate(-16.94 7.8) rotate(-6.85)"/><ellipse class="cls-3" cx="49.37" cy="101.68" rx="12.58" ry="9.73" transform="translate(-48.16 44.54) rotate(-33.74)"/><ellipse class="cls-3" cx="75.56" cy="34.87" rx="10.62" ry="10.01" transform="translate(10.86 87.21) rotate(-63.74)"/><ellipse class="cls-3" cx="53.12" cy="61.55" rx="9.02" ry="10.54" transform="translate(-16.4 103.7) rotate(-80.44)"/><ellipse class="cls-3" cx="83.87" cy="109.3" rx="10.4" ry="11.9" transform="translate(-48.81 72.19) rotate(-36.87)"/><path class="cls-3" d="M31.19,64.27c.76-5.52-3.84-10.76-10.29-11.7a13.26,13.26,0,0,0-3.93,0A124.25,124.25,0,0,0,11.64,69.7a13.17,13.17,0,0,0,6.51,2.86C24.59,73.5,30.43,69.79,31.19,64.27Z"/><path class="cls-3" d="M67,176.16c-6.41-1.17-12.55,3.35-13.72,10.1a12.74,12.74,0,0,0,2.88,10.51,32.35,32.35,0,0,0,4.93.39,32.79,32.79,0,0,0,14.37-3.39,12.62,12.62,0,0,0,1-3.27C77.68,183.75,73.43,177.33,67,176.16Z"/><path class="cls-3" d="M101.1,142.3a11.1,11.1,0,0,0-12.72,9.37c-1.07,6.25,2.87,12.2,8.81,13.29a10.53,10.53,0,0,0,4.55-.19,111.75,111.75,0,0,0,6.73-17.2A10.85,10.85,0,0,0,101.1,142.3Z"/><path class="cls-3" d="M94.32,57.93c-4.44,4.27-4.22,11.94.5,17.14s12.14,6,16.58,1.7a6.2,6.2,0,0,0,.55-.6,131.54,131.54,0,0,0-5.24-19.7C102.47,54.39,97.59,54.79,94.32,57.93Z"/><path class="cls-3" d="M21.67,135.85c3.71-3.56,3.52-10-.43-14.32-3.62-4-9.15-4.85-12.9-2.2A148.53,148.53,0,0,0,11,136.93C14.61,138.84,18.85,138.55,21.67,135.85Z"/></g></g></g></g></svg>
