<svg xmlns="http://www.w3.org/2000/svg" xmlns:xlink="http://www.w3.org/1999/xlink" viewBox="0 0 130 225"><defs><style>.cls-1{filter:url(#AI_GaussianBlur_7);}.cls-2{fill:#e6e6e6;}.cls-3{fill:#54a651;}</style><filter id="AI_GaussianBlur_7" name="AI_GaussianBlur_7"><feGaussianBlur stdDeviation="7"/></filter></defs><g id="Assetlist_-_Artboard" data-name="Assetlist - Artboard"><g id="egg_time9"><g class="cls-1"><path d="M65.13,19.14c-20.3,0-37.95,19.7-47,48.72l-.48,1.58-.39,1.36c-.61,2.11-1.19,4.26-1.71,6.46l0,0a154.67,154.67,0,0,0-3.89,34.92c0,5.08.24,10.07.69,14.94l-.13.08a150.74,150.74,0,0,0,2.67,17.71l.19.09c3.19,14.73,8.47,27.67,15.2,37.75l.06.09c.35.52.7,1,1.06,1.54l0,0c1.05,1.48,2.13,2.9,3.24,4.24l.23.29,1,1.13.36.4c.32.36.64.72,1,1.06l.24.25c.61.64,1.23,1.27,1.85,1.87l.51.48.83.77.65.57.8.68.78.64.7.56c.47.36.94.71,1.42,1l.62.43,1,.65.64.4c.35.22.7.43,1.06.63l.54.32c.53.29,1.07.58,1.61.85l.19.09c.49.24,1,.47,1.48.68l.48.21,1.27.5.47.17c.53.19,1,.37,1.59.53l.12,0c.59.18,1.19.33,1.79.48l.29.06c.5.12,1,.22,1.5.31l.21,0,0,0,.25.33a31.23,31.23,0,0,0,4.93.4,31.59,31.59,0,0,0,9.13-1.36c.6-.18,1.19-.37,1.77-.58,1.18-.43,2.33-.92,3.48-1.47l.13-.31.22-.12c.53-.26,1.06-.54,1.59-.83l.28-.16c.48-.27.94-.54,1.41-.83l.61-.39,1.12-.74.84-.6c.34-.25.69-.5,1-.77s.52-.4.78-.61l.72-.58c.51-.43,1-.87,1.51-1.32l.46-.41c.33-.3.65-.61,1-.92l.35-.34q1.62-1.59,3.16-3.38l0,0a79.75,79.75,0,0,0,11-16.86h0a108.67,108.67,0,0,0,4.48-10.52c5.34-14.49,8.44-31.73,8.44-50.23C118.57,60.8,94.65,19.14,65.13,19.14Z"/></g><path d="M106.21,162.43c5.35-14.49,8.45-31.73,8.45-50.23,0-51.4-23.93-93.06-53.44-93.06-20.3,0-37.95,19.7-47,48.72-.17.52-.32,1-.48,1.58l-.39,1.36c-.61,2.11-1.19,4.26-1.71,6.46l0,0a154.66,154.66,0,0,0-3.9,34.92c0,5.08.24,10.07.69,14.94l-.12.08A148.67,148.67,0,0,0,11,144.93l.19.09c7,32.44,24.15,56.25,44.7,59.78l.28.36a31.13,31.13,0,0,0,4.93.4,32.67,32.67,0,0,0,14.37-3.41c0-.1.09-.21.14-.31,10.27-5,19.3-15.2,26.07-28.88h0A106.21,106.21,0,0,0,106.21,162.43Z"/><g id="æg"><g id="æg1"><path class="cls-2" d="M95.28,174.92a25.71,25.71,0,0,1-3.2-2.65c-.45.27-.9.54-1.37.78-6.47,3.29-13.07.68-16.2-5.45a21.18,21.18,0,0,1-6.85,5.4c-6.06,2.83-11.29.38-13.8-5.82l0-.09-.72.25c-4,1.17-8.51,1.32-12.24-.81a13.39,13.39,0,0,1-2.27-1.62,25.24,25.24,0,0,1-9.94,6.58,14.32,14.32,0,0,1-8.23.41c9.8,20.15,24.43,33,40.79,33,15.15,0,28.82-11,38.54-28.64A7.89,7.89,0,0,1,95.28,174.92Z"/><path class="cls-3" d="M67,184c-6.41-1.17-12.55,3.38-13.72,10.17a12.86,12.86,0,0,0,2.88,10.57,31.13,31.13,0,0,0,4.93.4,32.67,32.67,0,0,0,14.37-3.41,12.72,12.72,0,0,0,1-3.3C77.68,191.66,73.43,185.2,67,184Z"/></g></g></g></g></svg>
