<svg xmlns="http://www.w3.org/2000/svg" xmlns:xlink="http://www.w3.org/1999/xlink" viewBox="0 0 130 225"><defs><style>.cls-1{filter:url(#AI_GaussianBlur_7);}.cls-2{fill:#e6e6e6;}.cls-3{fill:#54a651;}</style><filter id="AI_GaussianBlur_7" name="AI_GaussianBlur_7"><feGaussianBlur stdDeviation="7"/></filter></defs><g id="Assetlist_-_Artboard" data-name="Assetlist - Artboard"><g id="egg_time2"><g class="cls-1"><path d="M107.81,168.15l.35-.81.72-1.75.29-.71c.32-.83.64-1.66,1-2.51s.6-1.65.89-2.49l.18-.55c.26-.74.5-1.48.74-2.23,0-.11.07-.23.11-.34.27-.85.53-1.72.79-2.58,0-.17.09-.35.14-.52.22-.73.42-1.48.62-2.23l.15-.53c.23-.88.46-1.77.68-2.67l.09-.4c.19-.78.37-1.57.54-2.36l.15-.64c.19-.92.39-1.85.57-2.78V142c.18-.9.34-1.81.5-2.72l.12-.69c.15-.86.29-1.73.42-2.59,0-.1,0-.18,0-.27.14-.95.28-1.91.4-2.87l.09-.72c.1-.8.19-1.6.28-2.41,0-.19,0-.39.07-.58.1-1,.19-1.94.28-2.91,0-.22,0-.44.05-.66l.18-2.42c0-.25,0-.49,0-.74.06-1,.11-2,.15-3,0-.16,0-.32,0-.48,0-.86.06-1.72.08-2.58,0-.28,0-.55,0-.82q0-1.53,0-3.06c0-.92,0-1.84,0-2.76,0-.28,0-.56,0-.84,0-.64,0-1.29,0-1.93,0-.31,0-.62,0-.92,0-.67-.06-1.33-.09-2,0-.24,0-.49,0-.74,0-.9-.11-1.8-.17-2.69l0-.36c-.06-.77-.13-1.54-.2-2.31,0-.27,0-.55-.07-.82-.07-.63-.13-1.26-.2-1.88l-.09-.83c-.08-.71-.17-1.41-.26-2.11l-.06-.5c-.12-.88-.24-1.75-.37-2.62,0-.15,0-.3-.07-.45-.11-.71-.22-1.42-.34-2.12l-.12-.73c-.12-.64-.23-1.28-.35-1.92l-.12-.65c-.16-.81-.32-1.62-.49-2.42v-.06c-.18-.86-.37-1.71-.57-2.56l-.09-.39c-.16-.7-.33-1.39-.5-2.08,0-.18-.09-.37-.14-.56-.17-.67-.35-1.35-.53-2,0-.14-.08-.28-.11-.41Q112.75,70.35,112,68c0-.1-.07-.19-.1-.29-.22-.69-.44-1.38-.68-2.06,0-.12-.08-.25-.13-.37-.25-.73-.5-1.45-.76-2.17l0-.09c-.57-1.56-1.16-3.08-1.79-4.57l-.07-.18c-.29-.69-.58-1.36-.88-2a1.42,1.42,0,0,1-.08-.18q-1.47-3.28-3.1-6.33l0-.08c-.36-.67-.72-1.33-1.09-2h0c-1.14-2-2.32-3.91-3.56-5.72v0a72.13,72.13,0,0,0-5.2-6.73h0C86,25.59,76,20,65.13,20,52.94,20,41.71,27.08,32.72,39h0l-.22.3q-1.56,2.09-3,4.36L29.2,44l-.81,1.3L28,46c-.26.42-.51.85-.76,1.29l-.39.68-.72,1.31c-.13.23-.25.46-.37.7-.24.45-.48.9-.72,1.37-.09.18-.18.37-.28.55q-1.2,2.4-2.31,4.94c-.12.28-.25.55-.36.83L21.54,59l-.39,1c-.17.44-.35.88-.52,1.33l-.39,1c-.17.44-.33.88-.49,1.32l-.3.83c-.06.19-.13.38-.19.57l-.36,1c-.14.41-.27.83-.4,1.24s-.25.74-.37,1.12L17.65,70h0c0,.15-.08.31-.13.46l-.21.73c-.3,1-.59,2-.87,3.08s-.61,2.32-.89,3.5l0,0c-.3,1.27-.58,2.56-.84,3.86,0,.13-.05.26-.08.39-.26,1.3-.51,2.61-.74,3.93,0,0,0,.09,0,.13-.23,1.32-.44,2.64-.63,4l0,.23c-.19,1.31-.36,2.63-.51,4,0,.19-.05.39-.07.59-.15,1.33-.28,2.67-.4,4,0,.06,0,.12,0,.18-.11,1.3-.2,2.6-.28,3.91,0,.22,0,.43,0,.65-.07,1.31-.12,2.62-.16,3.95,0,.26,0,.52,0,.79q-.06,2-.06,4.11c0,1.14,0,2.28,0,3.41,0,.21,0,.43,0,.64q0,1.71.12,3.42v.11q.09,1.82.21,3.6v0c.08,1.22.18,2.43.3,3.64h0l-.11.07h0c.14,1.52.3,3,.48,4.52.37,3,.81,5.93,1.34,8.8.26,1.44.55,2.86.85,4.27l.19.09h0a132.35,132.35,0,0,0,4,14.41l0,0c.62,1.82,1.27,3.59,2,5.33v0c1,2.61,2.15,5.11,3.33,7.52l0,0q1.17,2.37,2.43,4.61l.07.12q1.24,2.21,2.58,4.27l.08.12q1.34,2.07,2.76,4l0,0q.67.92,1.38,1.8l.1.12c1,1.19,1.93,2.32,2.93,3.41l.16.17c1,1.07,2,2.08,3,3l.18.16c.5.46,1,.91,1.52,1.34l0,0c.53.46,1.08.9,1.63,1.32l.12.09c.5.39,1,.76,1.52,1.11l.18.13c1.08.76,2.19,1.45,3.31,2.09l.25.13c1.11.62,2.25,1.18,3.4,1.68l.24.1c.55.23,1.09.45,1.64.65l.1,0c.59.22,1.19.41,1.78.59l.19.06c.54.15,1.08.3,1.62.43l.24.05c.6.14,1.21.27,1.83.37h0l0,0c.09.1.16.22.25.32a31.23,31.23,0,0,0,4.93.4,31.93,31.93,0,0,0,9.13-1.35c.6-.18,1.19-.37,1.77-.58a36.13,36.13,0,0,0,3.48-1.46l.13-.31h0q.94-.45,1.86-1l.13-.08a40.24,40.24,0,0,0,3.59-2.24l.15-.11c1.16-.82,2.31-1.71,3.43-2.66l.17-.15q1.67-1.42,3.27-3.06l.19-.19q1.58-1.62,3.09-3.41a2.43,2.43,0,0,1,.2-.25q1.5-1.8,2.91-3.76l.21-.29q1.39-2,2.72-4.08l.21-.34c.88-1.42,1.72-2.89,2.54-4.4l.2-.37c.41-.77.81-1.54,1.21-2.34h0c.37-.76.74-1.52,1.1-2.3.11-.23.21-.47.32-.71C107.32,169.26,107.57,168.71,107.81,168.15Z"/></g><path d="M106.21,154.32c5.35-14.4,8.45-31.52,8.45-49.91,0-51-23.93-92.45-53.44-92.45-20.3,0-37.95,19.58-47,48.41-.17.52-.32,1-.48,1.57l-.39,1.34c-.61,2.1-1.19,4.24-1.71,6.42l0,0a152.58,152.58,0,0,0-3.9,34.68c0,5.06.24,10,.69,14.84l-.12.08A148.53,148.53,0,0,0,11,136.93l.19.09c7,32.23,24.15,55.88,44.7,59.39l.28.36a32.35,32.35,0,0,0,4.93.39,32.79,32.79,0,0,0,14.37-3.39c0-.1.09-.2.14-.31,10.27-5,19.3-15.09,26.07-28.68h0A105.88,105.88,0,0,0,106.21,154.32Z"/><g id="æg"><g id="æg1"><path class="cls-2" d="M90.53,27.11a25.06,25.06,0,0,1-13.8,1.39c-1.82-.31-3.58-.83-5.39-1.16a8.36,8.36,0,0,0-1.13-.07,13.85,13.85,0,0,1-13.87,1.57,23.9,23.9,0,0,1-4.46-2.48c-.47.5-1,1-1.4,1.52a22.89,22.89,0,0,1-5.11,4.86c-5.69,3.66-11.6,1.66-16.56-1.83-12.79,16.89-21,43.53-21,73.5,0,51.06,23.93,92.45,53.45,92.45s53.44-41.39,53.44-92.45C114.66,72.08,105.06,43.63,90.53,27.11Z"/><ellipse class="cls-3" cx="56.67" cy="145.34" rx="10.37" ry="12.91" transform="translate(-16.94 7.8) rotate(-6.85)"/><ellipse class="cls-3" cx="49.37" cy="101.68" rx="12.58" ry="9.73" transform="translate(-48.16 44.54) rotate(-33.74)"/><path class="cls-3" d="M76.73,28.5c-1.82-.31-3.58-.83-5.39-1.16a8.36,8.36,0,0,0-1.13-.07,12.89,12.89,0,0,1-2.65,1.56A10.65,10.65,0,0,0,68.79,43c4.17,3.67,10.57,3,14.31-1.5a10.89,10.89,0,0,0,1-12.78A26.3,26.3,0,0,1,76.73,28.5Z"/><ellipse class="cls-3" cx="53.12" cy="61.55" rx="9.02" ry="10.54" transform="translate(-16.4 103.7) rotate(-80.44)"/><ellipse class="cls-3" cx="83.87" cy="109.3" rx="10.4" ry="11.9" transform="translate(-48.81 72.19) rotate(-36.87)"/><path class="cls-3" d="M31.19,64.27c.76-5.52-3.84-10.76-10.29-11.7a13.26,13.26,0,0,0-3.93,0A124.25,124.25,0,0,0,11.64,69.7a13.17,13.17,0,0,0,6.51,2.86C24.59,73.5,30.43,69.79,31.19,64.27Z"/><path class="cls-3" d="M67,176.16c-6.41-1.17-12.55,3.35-13.72,10.1a12.74,12.74,0,0,0,2.88,10.51,32.35,32.35,0,0,0,4.93.39,32.79,32.79,0,0,0,14.37-3.39,12.62,12.62,0,0,0,1-3.27C77.68,183.75,73.43,177.33,67,176.16Z"/><path class="cls-3" d="M101.1,142.3a11.1,11.1,0,0,0-12.72,9.37c-1.07,6.25,2.87,12.2,8.81,13.29a10.53,10.53,0,0,0,4.55-.19,111.75,111.75,0,0,0,6.73-17.2A10.85,10.85,0,0,0,101.1,142.3Z"/><path class="cls-3" d="M94.32,57.93c-4.44,4.27-4.22,11.94.5,17.14s12.14,6,16.58,1.7a6.2,6.2,0,0,0,.55-.6,131.54,131.54,0,0,0-5.24-19.7C102.47,54.39,97.59,54.79,94.32,57.93Z"/><path class="cls-3" d="M21.67,135.85c3.71-3.56,3.52-10-.43-14.32-3.62-4-9.15-4.85-12.9-2.2A148.53,148.53,0,0,0,11,136.93C14.61,138.84,18.85,138.55,21.67,135.85Z"/></g></g></g></g></svg>
