<svg xmlns="http://www.w3.org/2000/svg" viewBox="0 0 150 240"><defs><style>.cls-1{fill:#e6e6e6;}.cls-2{fill:#54a651;}</style></defs><g id="Assetlist_-_Artboard" data-name="Assetlist - Artboard"><g id="egg_broke"><path class="cls-1" d="M123.15,191.5a13.53,13.53,0,0,1-11-15.77A13.81,13.81,0,0,1,128,164.62a13.57,13.57,0,0,1,9.22,6.25q-1.32,4.11-2.83,8c6.69-17.08,10.57-37.4,10.57-59.21C145,59.1,115.07,10,78.15,10c0,0-26.91,11.41-18,28.47C68.41,54.21,87.09,59,80.69,72.2a9.65,9.65,0,0,1-2.17,3.51c-11.78,16-17.82,3.89-12,18,1.48,3.63,2.88,7.13,4,10.5a10.15,10.15,0,0,1,6.25,4.4c3.13,5.12.55,12.34-5.74,16.8a19.28,19.28,0,0,1-3,4.3C60,138.51,62,148.26,70,153.11c.12,0,.24-.05.36-.06a12.54,12.54,0,0,1,11.21,4.77c6.46,2.69,10.88,6.2,3.73,14.1-1,6-5.13,10.74-10.64,11.49h0c-4.85,8.15,1.67,12.11,8.17,17.14a18.23,18.23,0,0,1,4.63,4.73,14.55,14.55,0,0,1,8.76,20c12.85-5.88,24.14-17.9,32.62-34A13.8,13.8,0,0,1,123.15,191.5Zm-3.6-127c4.09-3.72,10.2-4.2,15.5-1.74a150.85,150.85,0,0,1,6.57,23.38c-.23.24-.45.48-.7.71-5.55,5.06-14.83,4.16-20.74-2S114,69.59,119.55,64.53ZM87.62,46.83c-5.21-4.35-5.64-12.2-1-17.54s12.69-6.13,17.9-1.78a12.23,12.23,0,0,1,1,17.54C100.85,50.38,92.84,51.18,87.62,46.83ZM97.09,134c-5.52-5.77-5.78-14.28-.59-19s13.86-3.89,19.38,1.88,5.78,14.27.59,19S102.6,139.8,97.09,134Z"/><path class="cls-2" d="M81.52,157.82a12.54,12.54,0,0,0-11.21-4.77c-.12,0-.24,0-.36.06a19,19,0,0,0,2.51,1.27C75.32,155.58,78.62,156.62,81.52,157.82Z"/><path class="cls-2" d="M82,175.1a37.26,37.26,0,0,0-7.4,8.31h0c5.51-.75,9.63-5.48,10.64-11.49A43.3,43.3,0,0,1,82,175.1Z"/><path class="cls-2" d="M71,125.42c6.29-4.46,8.87-11.68,5.74-16.8a10.15,10.15,0,0,0-6.25-4.4C73.08,112.08,74.12,119.2,71,125.42Z"/><ellipse class="cls-2" cx="96.09" cy="37.17" rx="12.88" ry="12.25" transform="translate(-3.91 61.99) rotate(-35.09)"/><path class="cls-2" d="M78.52,75.71a9.65,9.65,0,0,0,2.17-3.51,23.51,23.51,0,0,1-2.17,3.51Z"/><ellipse class="cls-2" cx="106.48" cy="125.47" rx="12.69" ry="14.46" transform="translate(-58.04 121.82) rotate(-48.41)"/><path class="cls-2" d="M75,229.22a.89.89,0,0,0,.57.4c.82,0,1.65.08,2.48.08a42.91,42.91,0,0,0,18-4c.06-.12.11-.24.16-.37a42.91,42.91,0,0,1-18,4C77.09,229.35,76,229.3,75,229.22Z"/><path class="cls-2" d="M87.4,205.28c2.52,4.21,0,8.16-6.57,14.91-6,6.13-6.31,8.28-5.86,9,1.06.08,2.12.13,3.18.13a42.91,42.91,0,0,0,18-4,14.55,14.55,0,0,0-8.76-20Z"/><path class="cls-2" d="M134.43,178.88a121.61,121.61,0,0,1-5.65,12.41l.06,0A124.49,124.49,0,0,0,134.43,178.88Z"/><path class="cls-2" d="M137.26,170.87a13.57,13.57,0,0,0-9.22-6.25,13.81,13.81,0,0,0-15.91,11.11,13.53,13.53,0,0,0,11,15.77,13.8,13.8,0,0,0,5.63-.21,121.61,121.61,0,0,0,5.65-12.41Q135.95,175,137.26,170.87Z"/><path class="cls-2" d="M140.92,86.88c.25-.23.47-.47.7-.71a150.85,150.85,0,0,0-6.57-23.38c-5.3-2.46-11.41-2-15.5,1.74-5.55,5.06-5.27,14.16.63,20.33S135.37,91.94,140.92,86.88Z"/><path class="cls-1" d="M62,217.15a14.89,14.89,0,0,1,17.15-12,14.13,14.13,0,0,1,2,.5,18.33,18.33,0,0,0-4.62-4.74c-6.5-5-13-9-8.17-17.14-7.09,1-13.8-5.06-15-13.44s3.44-15.7,10.34-16.86c-8-4.85-9.92-14.6-1.93-23.39a19.07,19.07,0,0,0,3-4.29c-.49.35-1,.68-1.54,1-7.4,4.31-16.13,3.33-19.51-2.18s-.11-13.48,7.29-17.8a18,18,0,0,1,13.26-2.23c-1.12-3.37-2.52-6.87-4-10.5-5.78-14.12.27-2,12-18a14.08,14.08,0,0,1-12,3.72c-7.2-1-12.35-6.56-11.5-12.41s7.38-9.79,14.59-8.8S75.61,65.16,74.76,71a9.22,9.22,0,0,1-.38,1.57c6.4-13.19-12.27-18-20.51-33.72-8.93-17.07,18-28.48,18-28.48-24.4,0-45.74,21.45-57.41,53.47q1-2.7,2.07-5.29a17.93,17.93,0,0,1,4.91,0c8.06,1.12,13.82,7.33,12.87,13.88S26,83.38,18,82.27a17,17,0,0,1-8.1-3.36A172.09,172.09,0,0,0,5,120.06c0,6,.3,11.87.86,17.6,4.69-3,11.5-2,16,2.7,4.93,5.15,5.17,12.76.53,17-3.46,3.15-8.64,3.52-13.1,1.39C18.06,197,39.48,225,65.18,229.19A14.55,14.55,0,0,1,62,217.15Z"/><path class="cls-1" d="M78.94,172.3c7.15-7.9,2.74-11.4-3.73-14.09A17.21,17.21,0,0,1,79,166.88,17.85,17.85,0,0,1,78.94,172.3Z"/><path class="cls-2" d="M53.31,170.35c1.19,8.38,7.9,14.39,15,13.44a37.65,37.65,0,0,1,7.39-8.31,39.79,39.79,0,0,0,3.25-3.18,17.85,17.85,0,0,0,.06-5.42,17.21,17.21,0,0,0-3.79-8.67c-2.89-1.21-6.19-2.25-9-3.44a20.35,20.35,0,0,1-2.51-1.28C56.75,154.65,52.15,162.11,53.31,170.35Z"/><path class="cls-2" d="M50.92,106.83c-7.4,4.32-10.66,12.28-7.29,17.8s12.11,6.49,19.51,2.18c.54-.32,1-.65,1.54-1,3.13-6.23,2.1-13.34-.5-21.21A18,18,0,0,0,50.92,106.83Z"/><path class="cls-2" d="M63.26,58.6c-7.21-1-13.74,2.94-14.59,8.8S53,78.81,60.17,79.81a14.08,14.08,0,0,0,12-3.72h0a22.43,22.43,0,0,0,2.16-3.51A9.22,9.22,0,0,0,74.76,71C75.61,65.16,70.46,59.6,63.26,58.6Z"/><path class="cls-2" d="M9.83,78.88l0,0a145.45,145.45,0,0,1,4.57-15.06A147.39,147.39,0,0,0,9.83,78.88Z"/><path class="cls-2" d="M34.29,72.43c1-6.55-4.81-12.76-12.87-13.88a17.93,17.93,0,0,0-4.91,0q-1.08,2.59-2.07,5.29A145.45,145.45,0,0,0,9.87,78.91,17,17,0,0,0,18,82.27C26,83.38,33.33,79,34.29,72.43Z"/><path class="cls-2" d="M68.67,229.6c-1.17-.09-2.34-.22-3.49-.41.12.14.24.29.37.42,1.22.19,2.45.31,3.68.39A.83.83,0,0,1,68.67,229.6Z"/><path class="cls-2" d="M74.53,220.57c6.62-6.74,9.09-10.69,6.56-14.9a14.13,14.13,0,0,0-2-.5,14.89,14.89,0,0,0-17.15,12,14.55,14.55,0,0,0,3.23,12c1.15.19,2.32.32,3.49.41C68.21,228.85,68.52,226.7,74.53,220.57Z"/><path class="cls-2" d="M5.7,137.76A168.66,168.66,0,0,0,9,158.63l.24.11a167.68,167.68,0,0,1-3.42-21.08Z"/><path class="cls-2" d="M22.38,157.35c4.64-4.23,4.4-11.84-.53-17-4.49-4.69-11.3-5.73-16-2.7a167.68,167.68,0,0,0,3.42,21.08C13.74,160.87,18.92,160.5,22.38,157.35Z"/></g></g></svg>
