<svg xmlns="http://www.w3.org/2000/svg" xmlns:xlink="http://www.w3.org/1999/xlink" viewBox="0 0 130 225"><defs><style>.cls-1{filter:url(#AI_GaussianBlur_7);}.cls-2{fill:#e6e6e6;}.cls-3{fill:#54a651;}</style><filter id="AI_GaussianBlur_7" name="AI_GaussianBlur_7"><feGaussianBlur stdDeviation="7"/></filter></defs><g id="Assetlist_-_Artboard" data-name="Assetlist - Artboard"><g id="egg_time4"><g class="cls-1"><path d="M107.81,168.15l.35-.81.72-1.75.29-.71c.32-.83.64-1.66,1-2.51s.6-1.65.89-2.49c.06-.18.12-.37.19-.55.25-.74.49-1.48.73-2.22l.11-.35c.27-.85.53-1.71.79-2.58l.15-.52c.21-.74.41-1.48.61-2.22l.15-.54c.23-.88.46-1.77.68-2.67l.09-.4c.19-.78.37-1.57.54-2.35l.15-.66c.19-.92.39-1.84.57-2.77a.29.29,0,0,1,0-.09c.17-.9.33-1.8.49-2.7l.12-.71c.15-.85.29-1.71.42-2.57,0-.1,0-.19,0-.29.14-.94.28-1.9.4-2.86l.09-.72c.1-.8.19-1.6.28-2.4,0-.2,0-.4.07-.59.1-1,.19-1.94.28-2.91,0-.22,0-.44.05-.66l.18-2.42c0-.25,0-.49,0-.74q.09-1.48.15-3c0-.17,0-.33,0-.5,0-.85.06-1.71.08-2.57,0-.28,0-.55,0-.83,0-1,0-2,0-3h0c0-1.71,0-3.41-.08-5.1,0-.1,0-.2,0-.29,0-1.62-.13-3.23-.23-4.83,0-.09,0-.18,0-.27-.11-1.64-.24-3.26-.39-4.87v-.06c-4.24-43.72-26.22-77-52.7-77-20.3,0-37.95,19.57-47,48.4L17.65,70l-.39,1.35c-.61,2.1-1.19,4.23-1.71,6.42l0,0a147.73,147.73,0,0,0-3.05,18.4l-.12,1.26c-.07.74-.14,1.48-.2,2.22q-.14,1.66-.24,3.36c0,.45-.05.9-.07,1.34-.05.94-.09,1.87-.12,2.81l0,1.28c0,1.33-.06,2.67-.06,4h0c0,1.14,0,2.27,0,3.4,0,.21,0,.43,0,.64,0,1.15.07,2.28.12,3.41,0,0,0,.09,0,.13.06,1.2.13,2.4.21,3.59v0q.12,1.83.3,3.63h0l-.11.07h0c.14,1.52.3,3,.48,4.52.37,3,.81,5.93,1.34,8.8.26,1.44.55,2.86.85,4.27l.19.09h0a131.72,131.72,0,0,0,4,14.41l0,0q.93,2.73,2,5.32l0,0q1.56,3.92,3.33,7.51l0,0c.78,1.59,1.59,3.12,2.43,4.61l.07.12q1.24,2.21,2.58,4.26l.08.13q1.34,2.07,2.76,4l0,0q.67.92,1.38,1.8l.1.12c1,1.19,1.93,2.32,2.93,3.41l.16.17c1,1.07,2,2.08,3,3l.18.16c.5.46,1,.91,1.52,1.34l0,0c.53.46,1.08.9,1.63,1.32l.12.09c.5.39,1,.76,1.52,1.11l.18.13c1.08.76,2.19,1.45,3.31,2.09l.25.13c1.11.62,2.25,1.18,3.4,1.68l.24.1c.55.23,1.09.45,1.64.65l.1,0c.59.22,1.19.41,1.78.59l.19.06c.54.15,1.08.3,1.62.43l.24.05c.6.14,1.21.27,1.83.37h0l0,0c.09.1.16.22.25.32a31.23,31.23,0,0,0,4.93.4,31.93,31.93,0,0,0,9.13-1.35c.6-.18,1.19-.37,1.77-.58a36.13,36.13,0,0,0,3.48-1.46l.13-.31h0q.94-.45,1.86-1l.13-.08a40.24,40.24,0,0,0,3.59-2.24l.15-.11c1.16-.82,2.31-1.71,3.43-2.66l.17-.15q1.67-1.42,3.27-3.06l.19-.19q1.58-1.62,3.09-3.41a2.43,2.43,0,0,1,.2-.25q1.5-1.8,2.91-3.76l.21-.29q1.39-2,2.72-4.08l.21-.34c.88-1.42,1.72-2.89,2.54-4.4l.2-.37c.41-.77.81-1.54,1.21-2.33h0c.37-.76.74-1.52,1.1-2.3.11-.23.21-.47.32-.71C107.32,169.26,107.57,168.71,107.81,168.15Z"/></g><path d="M106.21,154.32c5.35-14.4,8.45-31.52,8.45-49.91,0-51-23.93-92.45-53.44-92.45-20.3,0-37.95,19.58-47,48.41-.17.52-.32,1-.48,1.57l-.39,1.34c-.61,2.1-1.19,4.24-1.71,6.42l0,0a152.58,152.58,0,0,0-3.9,34.68c0,5.06.24,10,.69,14.84l-.12.08A146.5,146.5,0,0,0,11,136.93l.19.09c7,32.23,24.15,55.88,44.7,59.39l.28.36a32.35,32.35,0,0,0,4.93.39,32.79,32.79,0,0,0,14.37-3.39c0-.1.09-.2.14-.31,10.27-5,19.3-15.09,26.07-28.68h0A105.88,105.88,0,0,0,106.21,154.32Z"/><g id="æg"><g id="æg1"><path class="cls-2" d="M109.64,65.29A9.37,9.37,0,0,1,108,64.14C102.21,70.5,95.78,75.8,87.45,79.07c-3.83,1.5-8.68-1-10.61-4.45a35.91,35.91,0,0,1-2.45-5.48,18.36,18.36,0,0,1-6.33,4.18c-4.24,1.65-9.47,1.58-13.33-1A12.72,12.72,0,0,1,52,69.76l-.32.18a30.38,30.38,0,0,1-3.86,1.43C48.43,71.18,44,73,44.17,73A14.84,14.84,0,0,1,30.7,70.61a10.57,10.57,0,0,1-4.32,6,33,33,0,0,1-9.9,3.84,9.25,9.25,0,0,1-6.76-.8,156.48,156.48,0,0,0-2,24.71c0,51.06,23.93,92.45,53.45,92.45s53.44-41.39,53.44-92.45A150.8,150.8,0,0,0,109.64,65.29Z"/><ellipse class="cls-3" cx="56.67" cy="145.34" rx="10.37" ry="12.91" transform="translate(-16.94 7.8) rotate(-6.85)"/><ellipse class="cls-3" cx="49.37" cy="101.68" rx="12.58" ry="9.73" transform="translate(-48.16 44.54) rotate(-33.74)"/><ellipse class="cls-3" cx="83.87" cy="109.3" rx="10.4" ry="11.9" transform="translate(-48.81 72.19) rotate(-36.87)"/><path class="cls-3" d="M67,176.16c-6.41-1.17-12.55,3.35-13.72,10.1a12.74,12.74,0,0,0,2.88,10.51,32.35,32.35,0,0,0,4.93.39,32.79,32.79,0,0,0,14.37-3.39,12.62,12.62,0,0,0,1-3.27C77.68,183.75,73.43,177.33,67,176.16Z"/><path class="cls-3" d="M101.1,142.3a11.1,11.1,0,0,0-12.72,9.37c-1.07,6.25,2.87,12.2,8.81,13.29a10.53,10.53,0,0,0,4.55-.19,111.75,111.75,0,0,0,6.73-17.2A10.85,10.85,0,0,0,101.1,142.3Z"/><path class="cls-3" d="M108,64.14A62.13,62.13,0,0,1,95,75.27c4.73,5,12,5.71,16.39,1.5a6.2,6.2,0,0,0,.55-.6c-.7-3.78-1.56-7.45-2.54-11A10.75,10.75,0,0,1,108,64.14Z"/><path class="cls-3" d="M21.67,135.85c3.71-3.56,3.52-10-.43-14.32-3.62-4-9.15-4.85-12.9-2.2A146.5,146.5,0,0,0,11,136.93C14.61,138.84,18.85,138.55,21.67,135.85Z"/></g></g></g></g></svg>
