<svg xmlns="http://www.w3.org/2000/svg" xmlns:xlink="http://www.w3.org/1999/xlink" viewBox="0 0 130 225"><defs><style>.cls-1{filter:url(#AI_GaussianBlur_7);}.cls-2{fill:#e6e6e6;}.cls-3{fill:#54a651;}</style><filter id="AI_GaussianBlur_7" name="AI_GaussianBlur_7"><feGaussianBlur stdDeviation="7"/></filter></defs><g id="Assetlist_-_Artboard" data-name="Assetlist - Artboard"><g id="egg_time7"><g id="æg"><g class="cls-1"><path d="M65,16.67c-22,0-41.11,20.25-50.9,50.09-.18.54-.35,1.08-.52,1.62s-.29.93-.43,1.4c-.66,2.17-1.29,4.38-1.85,6.64l0,0a151.62,151.62,0,0,0-4.21,35.89c0,5.23.25,10.36.74,15.36l-.14.08c.13,1.3.28,2.58.43,3.86h0c.12.94.25,1.86.38,2.79.06.47.13.94.2,1.41.12.79.24,1.57.37,2.35s.24,1.41.37,2.1.21,1.18.33,1.77c.25,1.32.52,2.62.81,3.91v0l.21.1c.05.18.09.36.13.55.16.68.33,1.36.49,2l.18.71c.21.81.42,1.62.64,2.43.08.28.16.56.23.83.23.81.46,1.61.7,2.4.07.21.13.42.2.64.21.68.42,1.36.64,2,.07.22.14.44.22.66.26.79.53,1.56.8,2.34.09.23.17.47.26.7q.42,1.18.87,2.34c0,.12.09.24.14.36.27.7.56,1.4.84,2.1.08.2.17.4.25.59.31.75.63,1.5,1,2.23.08.19.17.37.25.56.32.7.64,1.39,1,2.08a2.56,2.56,0,0,1,.11.24c.36.74.73,1.47,1.1,2.19.08.17.17.34.26.51.37.72.74,1.42,1.12,2.11l.22.39c.36.65.73,1.29,1.1,1.92.06.09.11.19.16.28.41.69.82,1.36,1.24,2,.09.14.17.28.26.41.42.67.85,1.33,1.29,2,0,.07.09.13.13.19.42.62.85,1.23,1.28,1.82l.2.28c.45.62.91,1.23,1.37,1.83l.24.3c1,1.23,1.95,2.41,3,3.54l.22.24c.5.55,1,1.09,1.51,1.62l.19.2c1.06,1.07,2.13,2.1,3.23,3.07L38,197c.55.47,1.1.94,1.65,1.39l.11.08c.57.45,1.13.89,1.71,1.31l.06,0c.57.42,1.15.83,1.74,1.22l.2.13c1.19.79,2.39,1.52,3.62,2.17l.12.07c.61.32,1.22.63,1.83.92l.18.08A38.39,38.39,0,0,0,53,206l.16.06c.64.22,1.27.42,1.92.6l.12,0a35.72,35.72,0,0,0,4,.88l.1,0,0,0c.09.11.17.22.27.33a35.17,35.17,0,0,0,5.34.41,36.18,36.18,0,0,0,9.89-1.39c.64-.19,1.28-.39,1.91-.6,1.27-.44,2.53-.94,3.77-1.51l.14-.33.06,0c1.36-.64,2.71-1.35,4-2.14h0c.64-.39,1.27-.79,1.9-1.21l.17-.12c.62-.41,1.23-.84,1.84-1.29l.14-.1q1.83-1.37,3.59-2.93l.21-.19c.55-.49,1.09-1,1.63-1.52l.29-.29c.53-.52,1.06-1,1.57-1.59l.25-.27c.49-.51,1-1,1.44-1.58l.21-.23,1.44-1.71.37-.46c.45-.56.9-1.13,1.34-1.71l.41-.55c.43-.58.86-1.17,1.28-1.77l.36-.53c.35-.5.69-1,1-1.52.14-.2.27-.41.41-.62.38-.59.75-1.19,1.13-1.8l.48-.8c.35-.59.71-1.19,1-1.8l.48-.87c.27-.49.54-1,.8-1.47l.31-.58h0c.41-.78.8-1.57,1.19-2.37l.35-.75c.27-.57.54-1.14.8-1.72l.38-.84.78-1.81.31-.73q.54-1.31,1-2.64c.23-.58.44-1.17.66-1.75,0-.13.1-.26.14-.39.19-.51.37-1,.55-1.52l.23-.66c.3-.9.6-1.8.89-2.7.07-.2.13-.4.19-.6.53-1.68,1-3.38,1.49-5.12.05-.16.09-.32.13-.47.28-1.07.55-2.14.81-3.23a3.38,3.38,0,0,0,.08-.34c.44-1.82.83-3.67,1.2-5.54,0-.13.05-.25.07-.38.24-1.24.46-2.48.67-3.74h0q.48-2.91.85-5.9a1,1,0,0,1,0-.17h0a158.24,158.24,0,0,0,1.16-19.09C122.84,59.5,96.92,16.67,65,16.67Z"/></g><path d="M109.45,155.66c5.79-14.9,9.15-32.63,9.15-51.65,0-52.84-25.92-95.68-57.88-95.68-22,0-41.1,20.26-50.9,50.09-.18.54-.35,1.08-.52,1.63S9,61,8.87,61.44C8.21,63.62,7.58,65.82,7,68.09l0,0A151.7,151.7,0,0,0,2.84,104q0,7.84.74,15.35l-.13.09a146.65,146.65,0,0,0,2.89,18.21l.2.09C14.15,171.1,32.7,195.58,55,199.22c.1.12.19.25.3.36a35.17,35.17,0,0,0,5.34.41,37,37,0,0,0,15.57-3.5c0-.11.09-.22.14-.32,11.13-5.14,20.91-15.63,28.25-29.69h0A105.81,105.81,0,0,0,109.45,155.66Z"/><g id="æg1"><path class="cls-2" d="M115.15,123.4a9.89,9.89,0,0,1-9.32-6.49,33.84,33.84,0,0,1-7.47,3.31c-7,1.94-11.91-1-17.77-3.94-.86-.44-.75-.49-1.36-.44a11.8,11.8,0,0,0-3.2.61c-3.46,1-7,2-10.61,1.51-4.15-.52-7.47-2.44-9.1-5.71a41.14,41.14,0,0,1-6.46,5.23c-6,4-12.62,5.56-18.46.11l-1.15-1.11c-.56.75-1.13,1.5-1.66,2.14a21.88,21.88,0,0,1-14.79,7.54A14.68,14.68,0,0,1,4,123.42C9.46,167,32.78,199.69,60.72,199.69s51.37-32.9,56.72-76.6A9.49,9.49,0,0,1,115.15,123.4Z"/><ellipse class="cls-3" cx="55.79" cy="146.37" rx="11.22" ry="13.37" transform="translate(-21.34 10.04) rotate(-8.64)"/><path class="cls-3" d="M80.59,116.28c-.86-.44-.75-.49-1.36-.44a10.76,10.76,0,0,0-2.38.38l.26.31a13,13,0,0,0,13,3.83C86.85,119.57,83.86,117.94,80.59,116.28Z"/><path class="cls-3" d="M67,178.26a12.9,12.9,0,0,0-14.85,10.45,12.74,12.74,0,0,0,3.11,10.87,35.17,35.17,0,0,0,5.34.41,37,37,0,0,0,15.57-3.5,13.24,13.24,0,0,0,1.12-3.39A12.72,12.72,0,0,0,67,178.26Z"/><path class="cls-3" d="M103.91,143.22a12,12,0,0,0-13.77,9.69,11.78,11.78,0,0,0,9.54,13.75,11.6,11.6,0,0,0,4.92-.19,112.8,112.8,0,0,0,7.3-17.8A11.72,11.72,0,0,0,103.91,143.22Z"/><path class="cls-3" d="M13.8,126.16a14.66,14.66,0,0,1-9.92-2.86c.6,4.93,1.42,9.73,2.46,14.36,3.9,2,8.5,1.68,11.54-1.12s3.7-7.59,1.73-11.66A19.5,19.5,0,0,1,13.8,126.16Z"/></g></g></g></g></svg>
