<svg xmlns="http://www.w3.org/2000/svg" xmlns:xlink="http://www.w3.org/1999/xlink" viewBox="0 0 130 225"><defs><style>.cls-1{filter:url(#AI_GaussianBlur_7);}</style><filter id="AI_GaussianBlur_7" name="AI_GaussianBlur_7"><feGaussianBlur stdDeviation="7"/></filter></defs><g id="Assetlist_-_Artboard" data-name="Assetlist - Artboard"><g id="egg_time10"><g class="cls-1"><path d="M65,12.5c-22,0-41.11,21.14-50.9,52.27-.18.56-.35,1.13-.52,1.7s-.29,1-.43,1.45c-.66,2.27-1.29,4.57-1.85,6.93l0,0a164.85,164.85,0,0,0-4.21,37.46c0,5.46.25,10.81.74,16l-.14.09a163,163,0,0,0,2.89,19l.21.1c7.61,34.8,26.16,60.35,48.42,64.14.1.12.19.26.3.38a33.94,33.94,0,0,0,5.34.43,35.76,35.76,0,0,0,15.57-3.66l.14-.33c11.13-5.36,20.9-16.31,28.24-31h0a117.36,117.36,0,0,0,4.85-11.28c5.79-15.55,9.15-34.05,9.15-53.9C122.84,57.2,96.92,12.5,65,12.5Z"/></g><path d="M109.45,166.24c5.79-15.55,9.15-34.05,9.15-53.9,0-55.14-25.92-99.84-57.88-99.84-22,0-41.1,21.14-50.9,52.27-.18.56-.35,1.13-.52,1.7s-.29,1-.43,1.45C8.21,70.19,7.58,72.49,7,74.85l0,0a164.85,164.85,0,0,0-4.21,37.46c0,5.46.25,10.81.74,16l-.13.09a158.85,158.85,0,0,0,2.89,19,1.86,1.86,0,0,0,.2.1C14.15,182.35,32.7,207.9,55,211.69c.1.12.19.26.3.38a33.94,33.94,0,0,0,5.34.43,35.69,35.69,0,0,0,15.57-3.66l.14-.33c11.13-5.36,20.91-16.31,28.25-31h0A112.55,112.55,0,0,0,109.45,166.24Z"/></g></g></svg>
