<svg xmlns="http://www.w3.org/2000/svg" viewBox="0 0 1069.9 185.2"><defs><style>.cls-1{fill:#e6e6e6;}.cls-2{fill:#54a651;}</style></defs><g id="Assetlist_-_Artboard" data-name="Assetlist - Artboard"><g id="egg_time1"><g id="æg"><g id="æg1"><ellipse class="cls-1" cx="53.46" cy="92.45" rx="53.44" ry="92.45"/><ellipse class="cls-2" cx="48.91" cy="133.38" rx="10.37" ry="12.91" transform="translate(-15.56 6.79) rotate(-6.85)"/><ellipse class="cls-2" cx="41.61" cy="89.72" rx="12.58" ry="9.73" transform="translate(-42.82 38.22) rotate(-33.74)"/><ellipse class="cls-2" cx="67.8" cy="22.9" rx="10.62" ry="10.01" transform="translate(17.26 73.57) rotate(-63.74)"/><ellipse class="cls-2" cx="45.36" cy="49.58" rx="9.02" ry="10.54" transform="translate(-11.07 86.07) rotate(-80.44)"/><ellipse class="cls-2" cx="76.11" cy="97.34" rx="10.4" ry="11.9" transform="translate(-43.18 65.14) rotate(-36.87)"/><path class="cls-2" d="M23.43,52.3c.76-5.52-3.85-10.76-10.29-11.7a14,14,0,0,0-3.93,0A124.39,124.39,0,0,0,3.88,57.74a13.12,13.12,0,0,0,6.51,2.85C16.83,61.53,22.67,57.82,23.43,52.3Z"/><path class="cls-2" d="M59.26,164.2c-6.42-1.17-12.55,3.35-13.72,10.1a12.7,12.7,0,0,0,2.88,10.5,31.13,31.13,0,0,0,4.93.4,32.92,32.92,0,0,0,14.37-3.39,12.7,12.7,0,0,0,1-3.28C69.92,171.79,65.67,165.37,59.26,164.2Z"/><path class="cls-2" d="M93.34,130.34a11.1,11.1,0,0,0-12.72,9.36C79.54,146,83.49,151.91,89.43,153a10.38,10.38,0,0,0,4.55-.18,113.19,113.19,0,0,0,6.73-17.2A10.79,10.79,0,0,0,93.34,130.34Z"/><path class="cls-2" d="M86.55,46c-4.44,4.26-4.21,11.94.51,17.14s12.14,6,16.58,1.7c.2-.19.37-.4.55-.6A130.17,130.17,0,0,0,98.94,44.5C94.71,42.42,89.82,42.83,86.55,46Z"/><path class="cls-2" d="M13.9,123.89c3.71-3.57,3.53-10-.42-14.33-3.62-4-9.15-4.85-12.91-2.19A148.36,148.36,0,0,0,3.24,125C6.85,126.87,11.09,126.59,13.9,123.89Z"/></g></g></g><g id="egg_time2"><g id="æg-2" data-name="æg"><g id="æg1-2" data-name="æg1"><path class="cls-1" d="M189.77,15.14A24.89,24.89,0,0,1,176,16.53c-1.82-.3-3.58-.82-5.39-1.15a10.79,10.79,0,0,0-1.13-.08,13.82,13.82,0,0,1-13.87,1.57,23,23,0,0,1-4.46-2.48c-.47.5-1,1-1.4,1.53a23.16,23.16,0,0,1-5.12,4.86c-5.68,3.66-11.59,1.65-16.55-1.84-12.79,16.89-21,43.53-21,73.51,0,51.06,23.93,92.45,53.45,92.45s53.44-41.39,53.44-92.45C213.9,60.12,204.3,31.67,189.77,15.14Z"/><ellipse class="cls-2" cx="155.91" cy="133.38" rx="10.37" ry="12.91" transform="translate(-14.8 19.55) rotate(-6.85)"/><ellipse class="cls-2" cx="148.61" cy="89.72" rx="12.58" ry="9.73" transform="translate(-24.8 97.64) rotate(-33.74)"/><path class="cls-2" d="M176,16.53c-1.82-.3-3.58-.82-5.39-1.15a10.79,10.79,0,0,0-1.13-.08,12.5,12.5,0,0,1-2.65,1.57A10.63,10.63,0,0,0,168,31c4.16,3.67,10.57,3,14.31-1.49a10.88,10.88,0,0,0,.94-12.78A26.25,26.25,0,0,1,176,16.53Z"/><ellipse class="cls-2" cx="152.36" cy="49.58" rx="9.02" ry="10.54" transform="translate(78.15 191.58) rotate(-80.44)"/><ellipse class="cls-2" cx="183.11" cy="97.34" rx="10.4" ry="11.9" transform="translate(-21.78 129.34) rotate(-36.87)"/><path class="cls-2" d="M130.43,52.3c.76-5.52-3.85-10.76-10.29-11.7a14,14,0,0,0-3.93,0,124.39,124.39,0,0,0-5.33,17.13,13.12,13.12,0,0,0,6.51,2.85C123.83,61.53,129.67,57.82,130.43,52.3Z"/><path class="cls-2" d="M166.26,164.2c-6.42-1.17-12.55,3.35-13.72,10.1a12.7,12.7,0,0,0,2.88,10.5,31.13,31.13,0,0,0,4.93.4,32.92,32.92,0,0,0,14.37-3.39,12.7,12.7,0,0,0,1-3.28C176.92,171.79,172.67,165.37,166.26,164.2Z"/><path class="cls-2" d="M200.34,130.34a11.1,11.1,0,0,0-12.72,9.36c-1.08,6.26,2.87,12.21,8.81,13.29a10.38,10.38,0,0,0,4.55-.18,113.19,113.19,0,0,0,6.73-17.2A10.79,10.79,0,0,0,200.34,130.34Z"/><path class="cls-2" d="M193.55,46c-4.44,4.26-4.21,11.94.51,17.14s12.14,6,16.58,1.7c.2-.19.37-.4.55-.6a130.17,130.17,0,0,0-5.25-19.71C201.71,42.42,196.82,42.83,193.55,46Z"/><path class="cls-2" d="M120.9,123.89c3.71-3.57,3.53-10-.42-14.33-3.62-4-9.15-4.85-12.91-2.19A148.36,148.36,0,0,0,110.24,125C113.85,126.87,118.09,126.59,120.9,123.89Z"/></g></g></g><g id="egg_time3"><g id="æg-3" data-name="æg"><g id="æg1-3" data-name="æg1"><path class="cls-1" d="M309.92,36.33a11.77,11.77,0,0,1-1.38,1.16c-6.33,4.52-14.49,6.09-20.39-.07a14.54,14.54,0,0,1-2.16-3l-.13.12a12.85,12.85,0,0,1-13,2.75,43.21,43.21,0,0,1-5,5.7c-5.06,4.54-12.25,7.35-18.21,2.79-3.45-2.64-6.1-6.19-8.71-9.76-4,2.5-8.61,3.43-13.24.67a13.47,13.47,0,0,1-2.13-1.57C218.32,50.86,214,70.78,214,92.45c0,51.06,23.93,92.45,53.45,92.45s53.44-41.39,53.44-92.45C320.9,71.34,316.81,51.89,309.92,36.33Z"/><ellipse class="cls-2" cx="262.91" cy="133.38" rx="10.37" ry="12.91" transform="translate(-14.03 32.32) rotate(-6.85)"/><ellipse class="cls-2" cx="255.61" cy="89.72" rx="12.58" ry="9.73" transform="translate(-6.78 157.07) rotate(-33.74)"/><path class="cls-2" d="M249.63,45.76a7.78,7.78,0,0,0-.7,2.3c-.68,4.94,3.43,9.62,9.19,10.46s11-2.48,11.66-7.41A8.64,8.64,0,0,0,267,43.7C262,47.8,255.26,50.07,249.63,45.76Z"/><ellipse class="cls-2" cx="290.11" cy="97.34" rx="10.4" ry="11.9" transform="translate(-0.38 193.54) rotate(-36.87)"/><path class="cls-2" d="M237.43,52.3c.76-5.52-3.85-10.76-10.29-11.7a14,14,0,0,0-3.93,0,124.39,124.39,0,0,0-5.33,17.13,13.12,13.12,0,0,0,6.51,2.85C230.83,61.53,236.67,57.82,237.43,52.3Z"/><path class="cls-2" d="M273.26,164.2c-6.42-1.17-12.55,3.35-13.72,10.1a12.7,12.7,0,0,0,2.88,10.5,31.13,31.13,0,0,0,4.93.4,32.92,32.92,0,0,0,14.37-3.39,12.7,12.7,0,0,0,1-3.28C283.92,171.79,279.67,165.37,273.26,164.2Z"/><path class="cls-2" d="M307.34,130.34a11.1,11.1,0,0,0-12.72,9.36c-1.08,6.26,2.87,12.21,8.81,13.29a10.38,10.38,0,0,0,4.55-.18,113.19,113.19,0,0,0,6.73-17.2A10.79,10.79,0,0,0,307.34,130.34Z"/><path class="cls-2" d="M300.55,46c-4.44,4.26-4.21,11.94.51,17.14s12.14,6,16.58,1.7c.2-.19.37-.4.55-.6a130.17,130.17,0,0,0-5.25-19.71C308.71,42.42,303.82,42.83,300.55,46Z"/><path class="cls-2" d="M227.9,123.89c3.71-3.57,3.53-10-.42-14.33-3.62-4-9.15-4.85-12.91-2.19A148.36,148.36,0,0,0,217.24,125C220.85,126.87,225.09,126.59,227.9,123.89Z"/></g></g></g><g id="egg_time4"><g id="æg-4" data-name="æg"><g id="æg1-4" data-name="æg1"><path class="cls-1" d="M422.88,53.33a9.45,9.45,0,0,1-1.61-1.16C415.45,58.53,409,63.84,400.69,67.1c-3.83,1.5-8.68-1-10.61-4.44a35.91,35.91,0,0,1-2.45-5.48,18.5,18.5,0,0,1-6.33,4.18c-4.24,1.64-9.48,1.57-13.33-1a12.72,12.72,0,0,1-2.77-2.55l-.32.17A28.92,28.92,0,0,1,361,59.4c.64-.19-3.82,1.66-3.61,1.63a14.9,14.9,0,0,1-13.47-2.38,10.58,10.58,0,0,1-4.33,6.05,32.83,32.83,0,0,1-9.89,3.83,9.2,9.2,0,0,1-6.76-.79A156.39,156.39,0,0,0,321,92.45c0,51.06,23.93,92.45,53.45,92.45s53.44-41.39,53.44-92.45A150.68,150.68,0,0,0,422.88,53.33Z"/><ellipse class="cls-2" cx="369.91" cy="133.38" rx="10.37" ry="12.91" transform="translate(-13.27 45.08) rotate(-6.85)"/><ellipse class="cls-2" cx="362.61" cy="89.72" rx="12.58" ry="9.73" transform="translate(11.24 216.5) rotate(-33.74)"/><ellipse class="cls-2" cx="397.11" cy="97.34" rx="10.4" ry="11.9" transform="translate(21.03 257.75) rotate(-36.87)"/><path class="cls-2" d="M380.26,164.2c-6.42-1.17-12.55,3.35-13.72,10.1a12.7,12.7,0,0,0,2.88,10.5,31.13,31.13,0,0,0,4.93.4,32.92,32.92,0,0,0,14.37-3.39,12.7,12.7,0,0,0,1-3.28C390.92,171.79,386.67,165.37,380.26,164.2Z"/><path class="cls-2" d="M414.34,130.34a11.1,11.1,0,0,0-12.72,9.36c-1.08,6.26,2.87,12.21,8.81,13.29a10.38,10.38,0,0,0,4.55-.18,113.19,113.19,0,0,0,6.73-17.2A10.79,10.79,0,0,0,414.34,130.34Z"/><path class="cls-2" d="M421.27,52.17a62.09,62.09,0,0,1-13,11.13c4.73,5,12,5.71,16.39,1.51.2-.19.37-.4.55-.6-.71-3.79-1.56-7.45-2.54-11A9.89,9.89,0,0,1,421.27,52.17Z"/><path class="cls-2" d="M334.9,123.89c3.71-3.57,3.53-10-.42-14.33-3.62-4-9.15-4.85-12.91-2.19A148.36,148.36,0,0,0,324.24,125C327.85,126.87,332.09,126.59,334.9,123.89Z"/></g></g></g><g id="egg_time5"><g id="æg-5" data-name="æg"><g id="æg1-5" data-name="æg1"><path class="cls-1" d="M528.33,67.15c-.29.57-.58,1.14-.89,1.71-2.81,5.16-6.66,10-12.51,11.3-6.68,1.54-12.51-1.63-16.61-6.71-2.95,3.3-6.63,5.26-11.58,4.69-5.11-.58-8.46-3.82-11.07-8-1.09,1.1-2.12,2.24-3.19,3.36a31.41,31.41,0,0,1-8,6.56,13.09,13.09,0,0,1-14.57-1.12,23.14,23.14,0,0,1-9.87,6,13.45,13.45,0,0,1-11.71-2.06q-.29,4.73-.29,9.57c0,51.06,23.93,92.45,53.45,92.45s53.44-41.39,53.44-92.45a157.5,157.5,0,0,0-1.52-21.83A36.44,36.44,0,0,1,528.33,67.15Z"/><ellipse class="cls-2" cx="476.91" cy="133.38" rx="10.37" ry="12.91" transform="translate(-12.51 57.85) rotate(-6.85)"/><ellipse class="cls-2" cx="469.61" cy="89.72" rx="12.58" ry="9.73" transform="matrix(0.83, -0.56, 0.56, 0.83, 29.26, 275.92)"/><ellipse class="cls-2" cx="504.11" cy="97.34" rx="10.4" ry="11.9" transform="translate(42.43 321.95) rotate(-36.87)"/><path class="cls-2" d="M487.26,164.2c-6.42-1.17-12.55,3.35-13.72,10.1a12.7,12.7,0,0,0,2.88,10.5,31.13,31.13,0,0,0,4.93.4,32.92,32.92,0,0,0,14.37-3.39,12.7,12.7,0,0,0,1-3.28C497.92,171.79,493.67,165.37,487.26,164.2Z"/><path class="cls-2" d="M521.34,130.34a11.1,11.1,0,0,0-12.72,9.36c-1.08,6.26,2.87,12.21,8.81,13.29a10.38,10.38,0,0,0,4.55-.18,113.19,113.19,0,0,0,6.73-17.2A10.79,10.79,0,0,0,521.34,130.34Z"/><path class="cls-2" d="M441.9,123.89c3.71-3.57,3.53-10-.42-14.33-3.62-4-9.15-4.85-12.91-2.19A148.36,148.36,0,0,0,431.24,125C434.85,126.87,439.09,126.59,441.9,123.89Z"/></g></g></g><g id="egg_time6"><g id="æg-6" data-name="æg"><g id="æg1-6" data-name="æg1"><path class="cls-1" d="M639.51,91.62a39.27,39.27,0,0,1-1.3-5.53l-.55.36c-1.38.94-2.67,2-4,3A23,23,0,0,1,624,94c-9.81,1.75-17.22-4.88-25.19-9.49a13.77,13.77,0,0,0-4.2-1.83,16.79,16.79,0,0,0-2.17-.08c1.43,0-1.21.66,0,0-3.37,1.84-6.42,4.17-9.68,6.2a9.25,9.25,0,0,1-7.69.76,15.2,15.2,0,0,1-10.83,3.25,14.27,14.27,0,0,1-6.87-2.6A19.59,19.59,0,0,1,548.09,96,15.52,15.52,0,0,1,535,93.1c.2,50.76,24.05,91.8,53.44,91.8,28.86,0,52.38-39.59,53.4-89.1A12.79,12.79,0,0,1,639.51,91.62Z"/><ellipse class="cls-2" cx="583.91" cy="133.38" rx="10.37" ry="12.91" transform="translate(-11.74 70.61) rotate(-6.85)"/><path class="cls-2" d="M582.81,88.8a9.25,9.25,0,0,1-7.69.76,15.32,15.32,0,0,1-10.25,3.28,7.82,7.82,0,0,0,1,3.46c2.7,4.65,9.68,5.47,15.6,1.84,5.06-3.11,7.68-8.48,6.65-12.87C586.37,86.45,584.62,87.67,582.81,88.8Z"/><path class="cls-2" d="M604.07,87.75a8.74,8.74,0,0,0-1,.78c-4.15,4-3.93,11.16.47,16s11.35,5.57,15.5,1.59c3.07-3,3.75-7.65,2.1-11.86C614.82,94.41,609.43,91.14,604.07,87.75Z"/><path class="cls-2" d="M594.26,164.2c-6.42-1.17-12.55,3.35-13.72,10.1a12.7,12.7,0,0,0,2.88,10.5,31.13,31.13,0,0,0,4.93.4,32.92,32.92,0,0,0,14.37-3.39,12.7,12.7,0,0,0,1-3.28C604.92,171.79,600.67,165.37,594.26,164.2Z"/><path class="cls-2" d="M628.34,130.34a11.1,11.1,0,0,0-12.72,9.36c-1.08,6.26,2.87,12.21,8.81,13.29a10.38,10.38,0,0,0,4.55-.18,113.19,113.19,0,0,0,6.73-17.2A10.79,10.79,0,0,0,628.34,130.34Z"/><path class="cls-2" d="M548.9,123.89c3.71-3.57,3.53-10-.42-14.33-3.62-4-9.15-4.85-12.91-2.19A148.36,148.36,0,0,0,538.24,125C541.85,126.87,546.09,126.59,548.9,123.89Z"/></g></g></g><g id="egg_time7"><g id="æg-7" data-name="æg"><g id="æg1-7" data-name="æg1"><path class="cls-1" d="M745.65,108.35c-4.18,0-7.24-2.75-8.64-6.48a30,30,0,0,1-6.92,3.31c-6.44,1.94-11.05-1-16.47-3.94-.8-.44-.7-.5-1.27-.44a9.89,9.89,0,0,0-3,.61c-3.21,1-6.48,2-9.84,1.51-3.84-.52-6.92-2.44-8.43-5.71a39.34,39.34,0,0,1-6,5.23c-5.59,4-11.71,5.56-17.12.1-.35-.35-.71-.72-1.06-1.11-.52.76-1.05,1.51-1.54,2.14a19.82,19.82,0,0,1-13.71,7.54,12.94,12.94,0,0,1-9.06-2.73c5,43.51,26.65,76.23,52.55,76.23s47.62-32.88,52.59-76.56A8.23,8.23,0,0,1,745.65,108.35Z"/><ellipse class="cls-2" cx="690.62" cy="131.31" rx="10.42" ry="13.35" transform="translate(-9.97 73.19) rotate(-6.02)"/><path class="cls-2" d="M713.62,101.24c-.8-.44-.7-.5-1.27-.44a9,9,0,0,0-2.21.38c.09.1.16.21.25.31,3.33,3.78,8.08,5.13,12,3.83C719.42,104.53,716.65,102.9,713.62,101.24Z"/><path class="cls-2" d="M701,163.19c-6.43-1.21-12.6,3.47-13.76,10.45a13.43,13.43,0,0,0,2.88,10.87,31.39,31.39,0,0,0,5,.41,32.3,32.3,0,0,0,14.44-3.51,13.78,13.78,0,0,0,1-3.39C711.72,171,707.45,164.4,701,163.19Z"/><path class="cls-2" d="M735.23,128.17c-6-1.12-11.68,3.21-12.76,9.68s2.88,12.63,8.84,13.75a10,10,0,0,0,4.57-.19,118.5,118.5,0,0,0,6.76-17.79A10.87,10.87,0,0,0,735.23,128.17Z"/><path class="cls-2" d="M651.7,111.11a12.94,12.94,0,0,1-9.21-2.85c.56,4.93,1.32,9.72,2.29,14.34,3.62,2,7.88,1.69,10.7-1.11s3.42-7.59,1.6-11.65A16.94,16.94,0,0,1,651.7,111.11Z"/></g></g></g><g id="egg_time8"><g id="æg-8" data-name="æg"><g id="æg1-8" data-name="æg1"><path class="cls-1" d="M850.78,126.41c-.8-.33-1.61-.65-2.43-1a14.56,14.56,0,0,1-17.44-2.68c-1.7.9-4.72,2.29-6.85,3.23-3.83,1.68-7.61,2.63-11.78,1.83a14,14,0,0,1-6.92-3.44c-.6.62-1.2,1.23-1.83,1.82-4.64,4.33-9.38,7-15.65,7.7-3.74.42-8.47-3.32-9.06-7.1-.18-1.15-.35-2.3-.53-3.45L774,127.92c-4.82,5.08-11.6,8.87-17.94,7.15,8.9,29.61,26.8,49.83,47.43,49.83,22.48,0,41.72-24,49.6-58.05A6.13,6.13,0,0,1,850.78,126.41Z"/><path class="cls-2" d="M806.83,125.58a14.89,14.89,0,0,1-1.47-1.18c-.6.62-1.2,1.23-1.83,1.82-4.48,4.17-9,6.8-15,7.61,0,.34.05.67.1,1,1,7.07,6.32,12.14,12,11.34s9.49-7.2,8.54-14.26A15.08,15.08,0,0,0,806.83,125.58Z"/><path class="cls-2" d="M809.26,164.2c-6.42-1.17-12.55,3.35-13.72,10.1a12.7,12.7,0,0,0,2.88,10.5,31.13,31.13,0,0,0,4.93.4,32.92,32.92,0,0,0,14.37-3.39,12.7,12.7,0,0,0,1-3.28C819.92,171.79,815.67,165.37,809.26,164.2Z"/><path class="cls-2" d="M843.34,130.34a11.1,11.1,0,0,0-12.72,9.36c-1.08,6.26,2.87,12.21,8.81,13.29a10.38,10.38,0,0,0,4.55-.18,113.19,113.19,0,0,0,6.73-17.2A10.79,10.79,0,0,0,843.34,130.34Z"/></g></g></g><g id="egg_time9"><g id="æg-9" data-name="æg"><g id="æg1-9" data-name="æg1"><path class="cls-1" d="M943.52,155a25.71,25.71,0,0,1-3.2-2.65c-.45.28-.9.54-1.37.78-6.48,3.29-13.07.69-16.2-5.45a21.18,21.18,0,0,1-6.85,5.4c-6.06,2.83-11.29.38-13.8-5.82l0-.09c-.24.08-.48.18-.72.25-4,1.17-8.51,1.32-12.25-.81a13.71,13.71,0,0,1-2.26-1.62,25.28,25.28,0,0,1-10,6.58,14.31,14.31,0,0,1-8.23.41c9.81,20.15,24.44,33,40.8,33,15.15,0,28.82-11,38.54-28.64A7.82,7.82,0,0,1,943.52,155Z"/><path class="cls-2" d="M915.26,164.08c-6.42-1.17-12.55,3.38-13.72,10.17a12.83,12.83,0,0,0,2.88,10.57,31.13,31.13,0,0,0,4.93.4,32.67,32.67,0,0,0,14.37-3.41,12.72,12.72,0,0,0,1-3.3C925.92,171.72,921.67,165.26,915.26,164.08Z"/></g></g></g></g></svg>
