<svg xmlns="http://www.w3.org/2000/svg" xmlns:xlink="http://www.w3.org/1999/xlink" viewBox="0 0 150 240"><defs><style>.cls-1{filter:url(#AI_GaussianBlur_7);}.cls-2{fill:#e6e6e6;}.cls-3{fill:#54a651;}</style><filter id="AI_GaussianBlur_7" name="AI_GaussianBlur_7"><feGaussianBlur stdDeviation="7"/></filter></defs><g id="Assetlist_-_Artboard" data-name="Assetlist - Artboard"><g id="egg_blur"><g id="æg" class="cls-1"><g id="æg1"><ellipse cx="78.72" cy="124.5" rx="63.49" ry="107.32"/><ellipse cx="73.31" cy="172.02" rx="12.31" ry="14.99" transform="translate(-22.28 11.31) rotate(-7.66)"/><ellipse cx="64.65" cy="121.33" rx="14.84" ry="11.37" transform="matrix(0.85, -0.52, 0.52, 0.85, -53.74, 51.43)"/><ellipse cx="95.76" cy="43.77" rx="12.41" ry="11.82" transform="translate(2.89 93.37) rotate(-52.67)"/><ellipse cx="69.1" cy="74.74" rx="10.48" ry="12.51" transform="translate(-14.87 132.28) rotate(-81.67)"/><ellipse cx="105.63" cy="130.17" rx="12.24" ry="13.94" transform="translate(-59.88 103.55) rotate(-41.81)"/><path d="M43,77.9c.91-6.41-4.56-12.49-12.21-13.58a16.22,16.22,0,0,0-4.67,0,141.47,141.47,0,0,0-6.34,19.88,15.82,15.82,0,0,0,7.73,3.31C35.2,88.62,42.14,84.31,43,77.9Z"/><path d="M85.61,207.79a14.17,14.17,0,0,0-16.29,11.72,14.56,14.56,0,0,0,3.41,12.2,38.17,38.17,0,0,0,5.86.46,40,40,0,0,0,17.08-3.93,14.91,14.91,0,0,0,1.23-3.81A14.25,14.25,0,0,0,85.61,207.79Z"/><path d="M126.1,168.49a13.35,13.35,0,0,0-4.64,26.29,12.71,12.71,0,0,0,5.4-.21,129.11,129.11,0,0,0,8-20A12.82,12.82,0,0,0,126.1,168.49Z"/><path d="M118,70.55c-5.27,5-5,13.85.6,19.89s14.42,6.92,19.7,2c.23-.22.44-.45.66-.69a151.44,151.44,0,0,0-6.24-22.88C127.73,66.43,121.92,66.9,118,70.55Z"/><path d="M31.73,161c4.41-4.14,4.19-11.59-.5-16.63-4.31-4.64-10.88-5.63-15.33-2.55a167.18,167.18,0,0,0,3.17,20.42C23.35,164.46,28.39,164.13,31.73,161Z"/></g></g><g id="æg-2" data-name="æg"><g id="æg1-2" data-name="æg1"><ellipse class="cls-2" cx="71.28" cy="115.15" rx="63.49" ry="107.32"/><ellipse class="cls-3" cx="65.87" cy="162.66" rx="12.31" ry="14.99" transform="translate(-21.1 10.23) rotate(-7.66)"/><ellipse class="cls-3" cx="57.21" cy="111.98" rx="14.84" ry="11.37" transform="translate(-49.95 46.18) rotate(-31.39)"/><ellipse class="cls-3" cx="88.32" cy="34.42" rx="12.41" ry="11.82" transform="translate(7.39 83.78) rotate(-52.67)"/><ellipse class="cls-3" cx="61.66" cy="65.39" rx="10.48" ry="12.51" transform="translate(-11.98 116.92) rotate(-81.67)"/><ellipse class="cls-3" cx="98.19" cy="120.82" rx="12.24" ry="13.94" transform="translate(-55.54 96.21) rotate(-41.81)"/><path class="cls-3" d="M35.61,68.55C36.51,62.14,31,56.06,23.39,55a16.22,16.22,0,0,0-4.67,0,141.47,141.47,0,0,0-6.34,19.88,15.86,15.86,0,0,0,7.73,3.31C27.76,79.26,34.7,75,35.61,68.55Z"/><path class="cls-3" d="M78.17,198.44a14.17,14.17,0,0,0-16.29,11.72,14.56,14.56,0,0,0,3.41,12.2,38.17,38.17,0,0,0,5.86.46,39.81,39.81,0,0,0,17.08-3.94,14.72,14.72,0,0,0,1.23-3.8A14.24,14.24,0,0,0,78.17,198.44Z"/><path class="cls-3" d="M118.66,159.14A13.35,13.35,0,0,0,114,185.43a12.71,12.71,0,0,0,5.4-.21,129.11,129.11,0,0,0,8-20A12.82,12.82,0,0,0,118.66,159.14Z"/><path class="cls-3" d="M110.6,61.2c-5.27,5-5,13.85.6,19.89s14.43,6.92,19.7,2c.23-.22.44-.45.66-.69a151.44,151.44,0,0,0-6.24-22.88C120.29,57.08,114.49,57.55,110.6,61.2Z"/><path class="cls-3" d="M24.29,151.64c4.41-4.13,4.19-11.58-.5-16.62-4.31-4.64-10.87-5.63-15.33-2.55a167.18,167.18,0,0,0,3.17,20.42C15.91,155.11,21,154.78,24.29,151.64Z"/></g></g></g></g></svg>
