<svg xmlns="http://www.w3.org/2000/svg" xmlns:xlink="http://www.w3.org/1999/xlink" viewBox="0 0 130 225"><defs><style>.cls-1{filter:url(#AI_GaussianBlur_7);}.cls-2{fill:#e6e6e6;}.cls-3{fill:#54a651;}</style><filter id="AI_GaussianBlur_7" name="AI_GaussianBlur_7"><feGaussianBlur stdDeviation="7"/></filter></defs><g id="Assetlist_-_Artboard" data-name="Assetlist - Artboard"><g id="egg_time6"><g class="cls-1"><path d="M107.81,168.15l.35-.81.72-1.75.29-.71c.33-.84.65-1.69,1-2.55a1.18,1.18,0,0,0,.07-.2c.25-.68.5-1.37.74-2.06l.37-1.08.45-1.38c.12-.35.23-.7.34-1.06.23-.7.44-1.42.65-2.13.12-.39.23-.78.34-1.17s.25-.9.38-1.35.21-.79.32-1.19c.19-.72.37-1.45.55-2.18l.3-1.27c.1-.43.21-.87.3-1.31s.2-.87.3-1.32c.15-.73.31-1.47.45-2.21.09-.45.18-.9.26-1.36s.16-.85.24-1.29l.24-1.41c.09-.53.18-1.07.26-1.6.11-.69.21-1.39.31-2.08l.18-1.29c.07-.5.13-1,.2-1.49s.11-.94.16-1.41c.09-.78.17-1.58.25-2.37,0-.43.09-.86.13-1.29s.09-1,.13-1.56.07-.89.1-1.33c.06-.84.11-1.68.16-2.52,0-.45.05-.89.07-1.33s0-1.06.07-1.59,0-.9,0-1.35c0-1.55.07-3.11.07-4.68C118.57,61.41,94.65,20,65.13,20c-20.3,0-37.95,19.57-47,48.4L17.65,70l-.39,1.35c-.61,2.1-1.19,4.23-1.71,6.42l0,0a152.62,152.62,0,0,0-3.89,34.69c0,.22,0,.43,0,.65h0c0,.88,0,1.76,0,2.64l0,1.21c0,.8.05,1.61.08,2.41l0,.77c.05,1,.12,2.07.19,3.1,0,.27,0,.54,0,.81.08,1.06.16,2.13.26,3.19v.06h0l-.11.07h0c.14,1.52.3,3,.48,4.52.37,3,.81,5.93,1.34,8.8.26,1.44.55,2.86.85,4.27l.19.09.06.27c.18.81.36,1.61.55,2.41,0,.18.09.37.14.55.44,1.81.91,3.6,1.42,5.35l.15.52c.25.85.5,1.69.76,2.53l0,.05c.27.87.56,1.73.85,2.59l.15.43c.26.75.53,1.5.8,2.24l.11.3c.31.83.62,1.66.95,2.48l.11.27c.29.73.59,1.45.89,2.16.06.13.11.26.16.38q1,2.37,2.13,4.62l.18.38q1.11,2.25,2.3,4.36c.07.11.13.22.19.33.38.66.75,1.3,1.14,1.94l.08.14c.42.69.84,1.36,1.27,2a1.88,1.88,0,0,0,.16.23c.38.6.78,1.18,1.17,1.76l.17.25c.45.64.9,1.27,1.36,1.89l0,.05c.43.58.88,1.15,1.32,1.71l.22.27q1.4,1.74,2.85,3.31a2.73,2.73,0,0,0,.23.25c.47.51,1,1,1.43,1.49l0,0c.5.51,1,1,1.54,1.48l.19.17c.47.43.94.85,1.41,1.25l.17.14c.53.44,1.06.87,1.6,1.29l.1.07c.49.38,1,.75,1.5,1.11l.24.16c1.08.75,2.17,1.44,3.28,2.07l.26.14a36.84,36.84,0,0,0,3.4,1.67l.24.1c.53.23,1.06.44,1.6.64l.14.05c.59.21,1.19.41,1.79.59l.15,0c.55.16,1.09.31,1.64.44l.25.06c.6.14,1.21.26,1.82.37l0,0c.09.1.16.22.25.32a31.23,31.23,0,0,0,4.93.4,31.93,31.93,0,0,0,9.13-1.35c.6-.18,1.19-.37,1.77-.58a36.13,36.13,0,0,0,3.48-1.46c0-.1.08-.21.13-.31.61-.29,1.22-.61,1.82-.94l.16-.09c.61-.34,1.21-.69,1.81-1.07h0c.59-.37,1.18-.76,1.76-1.17l.13-.09c.58-.41,1.15-.83,1.72-1.27l.13-.1c.55-.43,1.1-.88,1.63-1.33l.09-.08c.55-.47,1.09-.95,1.63-1.45l.22-.21c.52-.49,1-1,1.56-1.53h0c.52-.53,1-1.07,1.53-1.63l.27-.3q1.49-1.65,2.9-3.47l.3-.39c.46-.59.91-1.2,1.36-1.82l.18-.25,1.17-1.69.31-.47c.42-.63.83-1.26,1.23-1.91.1-.16.19-.32.29-.47.34-.55.67-1.11,1-1.67l.3-.52c.38-.66.75-1.33,1.12-2l.33-.62c.31-.57.61-1.15.9-1.73l.2-.39h0c.37-.76.74-1.52,1.1-2.3.11-.23.21-.47.32-.71C107.32,169.26,107.57,168.71,107.81,168.15Z"/></g><path d="M106.21,154.32c5.35-14.4,8.45-31.52,8.45-49.91,0-51-23.93-92.45-53.44-92.45-20.3,0-37.95,19.58-47,48.41-.17.52-.32,1-.48,1.57l-.39,1.34c-.61,2.1-1.19,4.24-1.71,6.42l0,0a152.58,152.58,0,0,0-3.9,34.68c0,5.06.24,10,.69,14.84l-.12.08A146.5,146.5,0,0,0,11,136.93l.19.09c7,32.23,24.15,55.88,44.7,59.39l.28.36a32.35,32.35,0,0,0,4.93.39,32.79,32.79,0,0,0,14.37-3.39c0-.1.09-.2.14-.31,10.27-5,19.3-15.09,26.07-28.68h0A105.88,105.88,0,0,0,106.21,154.32Z"/><g id="æg"><g id="æg1"><path class="cls-2" d="M112.28,103.58A37.83,37.83,0,0,1,111,98.06l-.55.36c-1.38.94-2.67,2-4,3A23,23,0,0,1,96.8,106c-9.81,1.75-17.22-4.87-25.19-9.48a13.69,13.69,0,0,0-4.2-1.84,16.86,16.86,0,0,0-2.17-.07c1.43,0-1.21.66,0,0-3.36,1.84-6.42,4.18-9.68,6.21a9.24,9.24,0,0,1-7.69.75,15.18,15.18,0,0,1-10.82,3.26,14.31,14.31,0,0,1-6.88-2.6A19.63,19.63,0,0,1,20.86,108a15.5,15.5,0,0,1-13.08-2.89c.2,50.76,24,91.8,53.44,91.8,28.86,0,52.38-39.59,53.4-89.09A12.8,12.8,0,0,1,112.28,103.58Z"/><ellipse class="cls-3" cx="56.67" cy="145.34" rx="10.37" ry="12.91" transform="translate(-16.94 7.8) rotate(-6.85)"/><path class="cls-3" d="M55.57,100.77a9.24,9.24,0,0,1-7.69.75,15.26,15.26,0,0,1-10.25,3.29,8,8,0,0,0,1,3.46c2.7,4.65,9.68,5.47,15.6,1.83,5.06-3.11,7.68-8.47,6.65-12.87C59.14,98.41,57.38,99.64,55.57,100.77Z"/><path class="cls-3" d="M76.83,99.71a11.35,11.35,0,0,0-1,.79c-4.14,4-3.93,11.15.48,16s11.34,5.58,15.49,1.59c3.07-2.95,3.75-7.64,2.11-11.86C87.59,106.37,82.19,103.11,76.83,99.71Z"/><path class="cls-3" d="M67,176.16c-6.41-1.17-12.55,3.35-13.72,10.1a12.74,12.74,0,0,0,2.88,10.51,32.35,32.35,0,0,0,4.93.39,32.79,32.79,0,0,0,14.37-3.39,12.62,12.62,0,0,0,1-3.27C77.68,183.75,73.43,177.33,67,176.16Z"/><path class="cls-3" d="M101.1,142.3a11.1,11.1,0,0,0-12.72,9.37c-1.07,6.25,2.87,12.2,8.81,13.29a10.53,10.53,0,0,0,4.55-.19,111.75,111.75,0,0,0,6.73-17.2A10.85,10.85,0,0,0,101.1,142.3Z"/><path class="cls-3" d="M21.67,135.85c3.71-3.56,3.52-10-.43-14.32-3.62-4-9.15-4.85-12.9-2.2A146.5,146.5,0,0,0,11,136.93C14.61,138.84,18.85,138.55,21.67,135.85Z"/></g></g></g></g></svg>
