<svg xmlns="http://www.w3.org/2000/svg" xmlns:xlink="http://www.w3.org/1999/xlink" viewBox="0 0 130 225"><defs><style>.cls-1{filter:url(#AI_GaussianBlur_7);}.cls-2{fill:#e6e6e6;}.cls-3{fill:#54a651;}</style><filter id="AI_GaussianBlur_7" name="AI_GaussianBlur_7"><feGaussianBlur stdDeviation="7"/></filter></defs><g id="Assetlist_-_Artboard" data-name="Assetlist - Artboard"><g id="egg_time8"><g class="cls-1"><path d="M107.81,168.15l.35-.81.72-1.75.29-.71c.33-.84.65-1.69,1-2.55,5.34-14.39,8.43-31.5,8.43-49.86C118.57,61.41,94.65,20,65.13,20c-20.3,0-37.95,19.57-47,48.4L17.65,70l-.39,1.35c-.61,2.1-1.19,4.23-1.71,6.42l0,0a152.62,152.62,0,0,0-3.89,34.69c0,5,.24,10,.69,14.84l-.13.08A148.36,148.36,0,0,0,14.92,145l.19.09q1.13,5.18,2.6,10h0c.05.18.11.35.17.52.19.63.38,1.26.58,1.88l.3.89c.2.61.4,1.22.61,1.82l.32.89c.21.59.43,1.18.64,1.76l.35.89c.22.57.44,1.14.67,1.7l.36.89c.23.55.46,1.1.7,1.64l.39.88c.24.53.47,1.06.71,1.58l.42.88c.25.51.49,1,.74,1.52l.45.88.75,1.44.48.89.76,1.37c.17.3.35.59.52.88.25.44.51.88.77,1.3s.37.59.55.88.52.83.78,1.23l.59.88c.26.39.52.78.78,1.15l.64.89c.26.36.51.72.77,1.06s.47.61.7.91l.75,1c.25.31.51.61.76.91s.48.59.73.87.56.64.85.95l.67.76c.33.35.67.68,1,1s.37.4.56.59l1.3,1.24.3.28a46.85,46.85,0,0,0,5,4l.14.09c.53.37,1,.72,1.59,1.06l.3.18c.48.29,1,.59,1.45.86l.4.21c.46.25.92.5,1.39.73l.45.21c.45.22.9.43,1.35.62.17.08.34.14.51.21.44.18.88.36,1.32.52l.55.19c.44.15.87.3,1.31.43l.58.16c.43.12.86.24,1.29.34l.62.14,1.28.26.15,0,0,0c.09.1.16.22.25.32a31.23,31.23,0,0,0,4.93.4,31.93,31.93,0,0,0,9.13-1.35c.6-.18,1.19-.37,1.77-.58a36.13,36.13,0,0,0,3.48-1.46l.13-.31.45-.23c.47-.24,1-.48,1.41-.74.18-.09.36-.2.53-.3.46-.26.91-.52,1.35-.8.2-.12.4-.26.59-.39.42-.27.84-.54,1.26-.83l.68-.5c.38-.27.75-.54,1.13-.83l.79-.64c.33-.27.66-.52,1-.8s.63-.56.94-.84.54-.46.8-.71.75-.73,1.13-1.1c.19-.18.38-.36.56-.55.46-.46.91-.95,1.36-1.43l.3-.32a78.18,78.18,0,0,0,11.82-17.68h0c.37-.76.74-1.52,1.1-2.3.11-.23.21-.47.32-.71C107.32,169.26,107.57,168.71,107.81,168.15Z"/></g><path d="M106.21,154.32c5.35-14.4,8.45-31.52,8.45-49.91,0-51-23.93-92.45-53.44-92.45-20.3,0-37.95,19.58-47,48.41-.17.52-.32,1-.48,1.57l-.39,1.34c-.61,2.1-1.19,4.24-1.71,6.42l0,0a152.58,152.58,0,0,0-3.9,34.68c0,5.06.24,10,.69,14.84l-.12.08A146.5,146.5,0,0,0,11,136.93l.19.09c7,32.23,24.15,55.88,44.7,59.39l.28.36a32.35,32.35,0,0,0,4.93.39,32.79,32.79,0,0,0,14.37-3.39c0-.1.09-.2.14-.31,10.27-5,19.3-15.09,26.07-28.68h0A105.88,105.88,0,0,0,106.21,154.32Z"/><g id="æg"><g id="æg1"><path class="cls-2" d="M108.54,138.38c-.8-.34-1.61-.65-2.42-1a15.13,15.13,0,0,1-10.53,1.34,15,15,0,0,1-6.92-4C87,135.64,84,137,81.82,138c-3.83,1.68-7.61,2.63-11.77,1.84a14.05,14.05,0,0,1-6.92-3.44c-.6.61-1.21,1.22-1.84,1.81-4.64,4.33-9.38,7-15.65,7.7-3.74.42-8.47-3.32-9.06-7.09-.18-1.15-.35-2.3-.53-3.45-1.43,1.52-2.88,3-4.32,4.55-4.82,5.08-11.6,8.87-17.94,7.15,8.9,29.6,26.8,49.82,47.43,49.82,22.48,0,41.72-24,49.61-58A6.18,6.18,0,0,1,108.54,138.38Z"/><path class="cls-3" d="M64.6,137.54a12.79,12.79,0,0,1-1.47-1.17c-.6.61-1.21,1.22-1.84,1.81-4.47,4.17-9,6.8-15,7.61,0,.34,0,.68.09,1,1,7.06,6.32,12.14,12,11.33s9.49-7.19,8.54-14.26A15.31,15.31,0,0,0,64.6,137.54Z"/><path class="cls-3" d="M67,176.16c-6.41-1.17-12.55,3.35-13.72,10.1a12.74,12.74,0,0,0,2.88,10.51,32.35,32.35,0,0,0,4.93.39,32.79,32.79,0,0,0,14.37-3.39,12.62,12.62,0,0,0,1-3.27C77.68,183.75,73.43,177.33,67,176.16Z"/><path class="cls-3" d="M101.1,142.3a11.1,11.1,0,0,0-12.72,9.37c-1.07,6.25,2.87,12.2,8.81,13.29a10.53,10.53,0,0,0,4.55-.19,111.75,111.75,0,0,0,6.73-17.2A10.85,10.85,0,0,0,101.1,142.3Z"/></g></g></g></g></svg>
