<svg xmlns="http://www.w3.org/2000/svg" xmlns:xlink="http://www.w3.org/1999/xlink" viewBox="0 0 145 240"><defs><style>.cls-1{filter:url(#AI_GaussianBlur_7);}</style><filter id="AI_GaussianBlur_7" name="AI_GaussianBlur_7"><feGaussianBlur stdDeviation="7"/></filter></defs><g id="Assetlist_-_Artboard" data-name="Assetlist - Artboard"><g id="egg_time10"><g class="cls-1"><path d="M120.56,179.62c.41-.92.82-1.86,1.21-2.8l.44-1c6.49-16,10.29-35.2,10.29-55.93C132.5,64.7,105.64,20,72.5,20,49.71,20,29.89,41.14,19.74,72.27c-.19.56-.36,1.13-.54,1.7s-.3,1-.44,1.44c-.69,2.27-1.34,4.58-1.92,6.94l0,0a158.72,158.72,0,0,0-4.37,37.46c0,5.45.27,10.81.77,16l-.14.09a154.77,154.77,0,0,0,3,19,1.89,1.89,0,0,0,.21.09c7.88,34.81,27.12,60.36,50.19,64.15.11.12.2.26.31.38a36.52,36.52,0,0,0,5.54.43,38.17,38.17,0,0,0,16.14-3.66l.15-.33c11.53-5.36,21.66-16.31,29.27-31h0C118.89,183.28,119.73,181.47,120.56,179.62Z"/></g></g></g></svg>
