<svg xmlns="http://www.w3.org/2000/svg" xmlns:xlink="http://www.w3.org/1999/xlink" viewBox="0 0 465 230"><defs><style>.cls-1{filter:url(#AI_GaussianBlur_7);}.cls-2{fill:#a68946;}.cls-3{fill:#735f30;}.cls-4{fill:#a68549;}.cls-5{fill:#b5a582;}.cls-6{fill:#cca956;}.cls-7{fill:#7e6b44;}.cls-8{fill:#f2deae;}.cls-9{fill:#d7847c;}.cls-10{fill:#fff;}.cls-11{fill:#333;}.cls-12{fill:#242b33;}.cls-13{fill:#424242;}.cls-14{fill:#999;}.cls-15{fill:#e6e6e6;}.cls-16{fill:#54a651;}</style><filter id="AI_GaussianBlur_7" name="AI_GaussianBlur_7"><feGaussianBlur stdDeviation="7"/></filter></defs><g id="Assetlist_-_Artboard" data-name="Assetlist - Artboard"><g id="farlig_odder_blur"><g id="odder_farlig" data-name="odder farlig" class="cls-1"><g id="odder"><g id="krop"><g id="bsgben"><g id="fod_foreben" data-name="fod foreben"><path d="M369.91,192.42a13.86,13.86,0,0,0-7.16,8.94h0l0,0-.84,3.21,0,0-.84,3.2,0,0-.84,3.21s8.11-10,17-9.67c1.4.05,14.12-9.05,7.1-7.15,4.13-2.79,5.73-4.52.8-3.19,4.13-2.79,5.74-4.52.81-3.19,4.09-2.76,5.29-3.12,1.44-3.47C374.34,183,369.91,192.42,369.91,192.42Z"/><path d="M385.36,191c-2.44.25-4.14,0-5.85,1.89-.08.09-.17,0-.2-.05h0s0-.12.07-.21c1.78-1.81,3.4-1.65,5.89-1.92.13,0,.18,0,.2.1h0A.13.13,0,0,1,385.36,191Z"/><path d="M384.69,194.17c-2.45.25-4.15,0-5.85,1.89-.09.09-.17,0-.2-.05h0s0-.12.06-.21c1.78-1.81,3.41-1.65,5.9-1.92a.18.18,0,0,1,.2.1h0A.14.14,0,0,1,384.69,194.17Z"/><path d="M386.18,187.81c-2.45.25-4.15,0-5.85,1.89-.09.09-.17,0-.2,0h0c0-.05,0-.13.06-.22,1.78-1.8,3.4-1.65,5.9-1.91a.16.16,0,0,1,.2.1h0A.14.14,0,0,1,386.18,187.81Z"/></g><g id="fod_bagben" data-name="fod bagben"><path d="M275.35,203.06a13.63,13.63,0,0,0-8.76,7.25h0l-1.45,3h0l-1.45,3h0l-1.45,3s9.9-8.09,18.56-5.89c1.37.35,15.6-5.88,8.36-5.5,4.59-1.87,6.49-3.22,1.41-3,4.59-1.86,6.49-3.22,1.41-2.95,4.54-1.85,5.79-1.94,2.09-3.1C281.52,194.81,275.35,203.06,275.35,203.06Z"/><path d="M290.76,204.9c-2.44-.27-4.06-.84-6.09.62-.11.07-.17,0-.19-.09h0c0-.05,0-.13.1-.2,2.1-1.39,3.66-.89,6.15-.63.13,0,.17.07.18.14h0A.13.13,0,0,1,290.76,204.9Z"/><path d="M289.48,207.89c-2.45-.27-4.07-.84-6.1.62-.1.07-.17,0-.19-.09h0s0-.13.11-.2c2.09-1.39,3.65-.89,6.15-.63.12,0,.16.07.17.14h0C289.63,207.79,289.6,207.91,289.48,207.89Z"/><path d="M292.18,202c-2.45-.28-4.07-.85-6.1.61-.1.08-.17,0-.19-.09h0c0-.05,0-.12.11-.19,2.1-1.4,3.65-.9,6.15-.64a.17.17,0,0,1,.17.14h0A.13.13,0,0,1,292.18,202Z"/></g><path id="bagben" d="M211.7,152.29s25.23,71.27,35.56,70.19,36.13-1.07,33-7.5-14.8-16-17.21-12.28-13.19-15.5-3.67-18.76,18.7-21.8,15.14-23.25,8.15-2-6-29.08-56.89,18.11-56.89,18.11"/><path id="foreben" d="M338.64,138s-5.18,21.75-1.37,28.24,7.8,23,5.18,27.72,10.59,18.87,14.61,15c0,0,22.67,3.41,19.53-3s-8.78-14.8-13.17-13.24S361,173.66,365.67,174s11.24-24.11,7.71-24.46,22.1-16.54,16.3-19.74-19.73-42-32.5-33.93S338.64,138,338.64,138Z"/></g><g id="krop_u_ben" data-name="krop u ben"><path id="hele_krop" data-name="hele krop" d="M429.92,78.09c-.4-2.44-3.81-1.71-8.44,0-7.83,2.87-19.17,8.5-25.44,6.29a17.92,17.92,0,0,1-10.55-9.2c-3.22-6.29-2.83-12.33-8.67-8.76-3.93,2.41-14.38,12.33-23.11,23a40.42,40.42,0,0,1-33.6,15c-32.7-1.91-89.44-17.59-130.28,34.27,0,0-53.61,7.26-87.31,8-.18,0-129.93,10.88-79.44,21.39,28.57,5.94,34.16,7.72,53.77,8.79,7.44.4,36.13-4.29,75.36,4.29,27.58,6,38.6-5.57,56.14,6.28,2.59,1.75,11.16,4.51,17.66,1.5a61.06,61.06,0,0,0,10,1c10.06.31,25.82-1.26,38.18-11.91,15.95-13.74,35-9.79,47.88-7.33a1.2,1.2,0,0,0,.2,0c7.08,1.26,21.93-1.35,31.08,1s55.18-33.49,55.56-46.14C409.1,118.43,431.3,86.57,429.92,78.09Z"/><path id="lyser_krop" data-name="lyser krop" d="M421.65,79.28c0-.41,3.39-8.83,3.29-9.22-7.84,2.87-15.42,7.57-21.68,5.36-5.81-2-10.59-1.83-12.39-5.36-22.71,56.81-144.72,77.83-144.72,77.83,0-.22-15.42,32.65-10.17,42.06,10.06.31,25.82-1.26,38.18-11.91,15.95-13.74,35-9.79,47.88-7.33a1.2,1.2,0,0,0,.2,0c12.15-4,22.35-8.38,28.18-13.21,10.71-8.86,29.09-15,42.51-28.51C410.27,111.5,421.65,86.53,421.65,79.28Z"/></g><g id="foreben-2" data-name="foreben"><g id="fod_bagben-2" data-name="fod bagben"><path d="M258.47,213.17A14.38,14.38,0,0,0,247,217.52h.05l-2.48,2.54h0l-2.48,2.55h.05l-2.48,2.54s12.9-4.81,21.12.55c1.29.85,18-.51,10.45-2.7,5.35-.29,7.77-1,2.43-2.55,5.36-.28,7.77-1,2.43-2.54,5.31-.29,6.63.07,3.19-2.45C267.58,206.85,258.47,213.17,258.47,213.17Z"/><path d="M273.78,220.57c-2.43-1.15-3.92-2.32-6.5-1.54-.13,0-.16-.09-.16-.15h0c0-.07,0-.14.17-.17,2.63-.69,4.07.38,6.56,1.54.13.06.15.13.14.21h0A.14.14,0,0,1,273.78,220.57Z"/><path d="M271.46,223.2c-2.43-1.15-3.92-2.32-6.5-1.54-.13,0-.16-.09-.16-.16h0c0-.06,0-.13.17-.17,2.63-.69,4.08.38,6.56,1.55.13.05.15.13.14.2h0A.14.14,0,0,1,271.46,223.2Z"/><path d="M276.21,218.06c-2.43-1.16-3.92-2.33-6.5-1.55-.13,0-.16-.09-.16-.15h0c0-.07,0-.14.17-.17,2.63-.69,4.07.38,6.56,1.54.13.06.15.14.14.21h0A.15.15,0,0,1,276.21,218.06Z"/></g><g id="fod_foreben-2" data-name="fod foreben"><path d="M360.22,202.53a14.41,14.41,0,0,0-11.17,5.06h.05l-2.33,2.69h.05l-2.33,2.7h0l-2.32,2.69s12.6-5.62,21.11-.77c1.34.77,18-1.64,10.27-3.35,5.33-.62,7.7-1.49,2.28-2.7,5.33-.62,7.71-1.49,2.29-2.69,5.28-.61,6.61-.34,3-2.64C368.94,195.65,360.22,202.53,360.22,202.53Z"/><path d="M375.93,209c-2.5-1-4.05-2.08-6.58-1.13-.12,0-.16-.09-.17-.15h0c0-.06,0-.13.16-.18,2.59-.85,4.09.13,6.64,1.13a.2.2,0,0,1,.15.2h0A.14.14,0,0,1,375.93,209Z"/><path d="M373.77,211.73c-2.5-1-4-2.08-6.58-1.13-.13,0-.16-.09-.17-.15h0c0-.06,0-.14.16-.18,2.58-.85,4.09.12,6.64,1.13a.2.2,0,0,1,.15.2h0A.14.14,0,0,1,373.77,211.73Z"/><path d="M378.21,206.3c-2.5-1-4-2.08-6.58-1.14-.13.05-.16-.08-.17-.14h0c0-.07,0-.14.16-.18,2.59-.85,4.09.12,6.64,1.13a.19.19,0,0,1,.15.2h0A.14.14,0,0,1,378.21,206.3Z"/></g><path id="bagben-2" data-name="bagben" d="M196.21,159.79s25.24,71.27,35.56,70.2c5-.52,13.51-.78,20.7-1.64,7.76-.92,13.94-2.53,12.33-5.87-3.09-6.43-14.79-16-17.2-12.27s-13.19-15.5-3.67-18.76,18.7-21.81,15.14-23.26,8.14-2-6-29.08-56.89,18.11-56.89,18.11"/><path id="foreben-3" data-name="foreben" d="M324.18,144.45S319,166.2,322.81,172.7s7.81,23,5.18,27.71,10.6,18.87,14.62,15c0,0,22.67,3.41,19.53-3s-8.78-14.8-13.18-13.23-2.43-19.09,2.26-18.78,11.24-24.11,7.71-24.46,19.43-16,16.3-19.73c-4.31-5.14-20.08-33.65-30.94-29.5C330.27,112.07,324.18,144.45,324.18,144.45Z"/></g><g id="hår"><path d="M217.81,126.65s18.39-9.89,35-11.3S217.81,126.65,217.81,126.65Z"/><path d="M374.65,129.84s9.84-13.49,21.21-20.34S374.65,129.84,374.65,129.84Z"/><path d="M364.38,110.89s9.85-13.48,21.21-20.34S364.38,110.89,364.38,110.89Z"/><path d="M279.12,151.41s18.31-5.86,33.69-4.31S279.12,151.41,279.12,151.41Z"/><path d="M265.05,163.25s18.31-5.86,33.7-4.31S265.05,163.25,265.05,163.25Z"/><path d="M66.52,157.49s17-4.9,31.17-3.05S66.52,157.49,66.52,157.49Z"/><path d="M138.73,172.88s17-4.9,31.18-3S138.73,172.88,138.73,172.88Z"/><path d="M282.77,123s18.81-7.26,35-6.59S282.77,123,282.77,123Z"/></g></g><g id="farligt_ansigt" data-name="farligt ansigt"><path id="hovedform" d="M441.33,60.62c-4.13,15-14.11,28.94-34.06,28.94s-26.84-15-31-27.87c-5-15.44,11-31.08,31-31.08S445.64,45,441.33,60.62Z"/><g id="under_ansigt" data-name="under ansigt"><path d="M394.1,71.87c1.59,4.74-2.66,9-5.7,11.29,4.52,3.94,10.54,6.52,18.81,6.52A34.09,34.09,0,0,0,422,86.57a74.62,74.62,0,0,0,2.77-14C410.28,85,394.1,71.87,394.1,71.87Z"/></g><g id="ansigt"><g id="hår-2" data-name="hår"><path d="M377.17,47.91c-.11.23-.2.46-.3.69"/><path d="M431.94,69.56a31.33,31.33,0,0,0-4.21,9.16S434.69,65.93,431.94,69.56Z"/><path d="M387.94,49.72A24.81,24.81,0,0,0,384.52,57S390.15,46.86,387.94,49.72Z"/><path d="M434.25,52.32S436,64.56,436,60.67A26.74,26.74,0,0,0,434.25,52.32Z"/><path d="M405.8,46.21A19.69,19.69,0,0,0,404.24,40S405.9,49.12,405.8,46.21Z"/><path d="M413.17,45.88a19.72,19.72,0,0,0,1.44-6.22S411.94,48.49,413.17,45.88Z"/><path d="M400.51,79.91a22.67,22.67,0,0,0-1.94,7S402,77,400.51,79.91Z"/><path d="M412.68,81.49a22.51,22.51,0,0,0-1.95,7S414.21,78.59,412.68,81.49Z"/><path d="M381.9,67.91a23.17,23.17,0,0,0,3.2,6.88S381.13,64.53,381.9,67.91Z"/></g><g id="mule"><path d="M408.86,79.76c-12.4,1.86-21.21-12.71-22.24-15.92-.86-2.67,15.58-8.14,20.6-9.94a1.24,1.24,0,0,1,1.64,1.21Z"/><path d="M408.88,79.76C421.29,81.62,430,67.05,431,63.84c.86-2.67-15.46-8.14-20.49-9.94a1.24,1.24,0,0,0-1.64,1.21Z"/></g><g id="næse"><path id="farve" d="M413.26,57.3s-2-2.91-6.56-1.37c-3.73,1.27.27,6.69,2.06,9a1,1,0,0,0,1.6,0C411.73,63.28,414.18,59.75,413.26,57.3Z"/><ellipse id="næsebor2" cx="412.03" cy="58.83" rx="0.89" ry="1.62"/><ellipse id="næsebor1" cx="407.01" cy="58.83" rx="0.89" ry="1.62"/></g><g id="mund"><path d="M424.28,66.82h-1.19A1.42,1.42,0,0,1,423,67l-1.13,2.39a.89.89,0,0,1-1.61,0l-1.21-2.35a1,1,0,0,1-.09-.33l-2.39,0a.93.93,0,0,1-.06.63l-1.13,2.39a.89.89,0,0,1-1.61,0l-1.21-2.34a1,1,0,0,1-.07-.7c-2.06,0-4.11.16-6.16.33a1,1,0,0,1,0,.71l-1,2.46a.89.89,0,0,1-1.6.14l-1.36-2.25a.9.9,0,0,1-.13-.63l-2.37.29a1.35,1.35,0,0,1-.06.34l-1,2.46a.89.89,0,0,1-1.6.15l-1.37-2.25a1.89,1.89,0,0,1-.09-.21l-1.35.17c-5.61-9.17-1.84,1.81-.9,2.75a31.2,31.2,0,0,0,4.9,4l2.47-3a.89.89,0,0,1,1.58.69l-.41,4.3c.39.17.79.34,1.2.49.95-1.12,7.05-7.79,13.07-.83.44-.23.9-.5,1.35-.77l-.79-4a.91.91,0,0,1,1.51-.87L421,73.71a44.92,44.92,0,0,0,4.39-4.16C426.32,68.53,430.6,57,424.28,66.82Z"/><path d="M403.32,77.64a17.22,17.22,0,0,0,6.35,1.06,15.3,15.3,0,0,0,6.72-1.89C410.37,69.85,404.27,76.52,403.32,77.64Z"/><path d="M397.29,70.76a.89.89,0,0,0,1.6-.15l1-2.46a1.35,1.35,0,0,0,.06-.34l-4.09.49a1.89,1.89,0,0,0,.09.21Z"/><path d="M402.42,68.15l1.36,2.25a.89.89,0,0,0,1.6-.14l1-2.46a1,1,0,0,0,0-.71c-1.11.1-2.21.21-3.31.34l-.75.09A.9.9,0,0,0,402.42,68.15Z"/><path d="M420.28,69.45a.89.89,0,0,0,1.61,0L423,67a1.42,1.42,0,0,0,.07-.22l-4.11,0a1,1,0,0,0,.09.33Z"/><path d="M412.58,67.46l1.21,2.34a.89.89,0,0,0,1.61,0l1.13-2.39a.93.93,0,0,0,.06-.63h-.95c-1,0-2.09,0-3.13,0A1,1,0,0,0,412.58,67.46Z"/><path d="M401,72.16l-2.47,3a24.24,24.24,0,0,0,3.64,2l.41-4.3A.89.89,0,0,0,401,72.16Z"/><path d="M417,72.07l.79,4A30,30,0,0,0,421,73.71l-2.53-2.51A.91.91,0,0,0,417,72.07Z"/></g><g id="øjene_og_bryn" data-name="øjene og bryn"><ellipse id="øje1" cx="394.29" cy="55.34" rx="2.79" ry="2.89"/><ellipse id="øje2" cx="423.48" cy="54.48" rx="2.79" ry="2.89"/></g><g id="øre2"><path d="M389.51,34.07c2.5.48.13,6.07-3.31,9s-7.53,3.63-9.14,1.59-1.1-6.52,3.31-9A14.45,14.45,0,0,1,389.51,34.07Z"/><path d="M390.09,34.27c2.42.47.12,5.89-3.22,8.72s-7.3,3.53-8.87,1.54-1.06-6.32,3.21-8.72A14,14,0,0,1,390.09,34.27Z"/></g><g id="øre1"><path d="M427.36,36.21c-2.5.49-.13,6.07,3.31,9s7.53,3.63,9.14,1.58,1.1-6.51-3.31-9A14.52,14.52,0,0,0,427.36,36.21Z"/><path d="M426.79,36.42c-2.43.46-.13,5.88,3.21,8.72s7.3,3.52,8.87,1.54,1.06-6.32-3.21-8.73A14,14,0,0,0,426.79,36.42Z"/></g><polygon points="398.91 55.41 386.73 48.11 387.87 46.06 400.05 53.36 398.91 55.41"/><polygon points="418.28 55.41 430.46 48.11 429.32 46.06 417.14 53.36 418.28 55.41"/></g><g id="hår-3" data-name="hår"><path d="M402.33,60s-30.36-2.17-47.86.16"/><path d="M403.3,61.49s-30.43.06-47.72,3.67"/><path d="M405.12,62.51s-30.3,2.87-47.22,8.06"/><path d="M404.33,64.35s-29.59,7.4-45.6,15.09"/><path d="M417.14,60s30.36-2.17,47.86.16"/><path d="M416.17,61.49s30.43.06,47.72,3.67"/><path d="M414.35,62.51s30.3,2.87,47.22,8.06"/><path d="M415.14,64.35s29.59,7.4,45.6,15.09"/></g></g></g><path d="M372.94,38.59h0Z"/><path d="M445.47,38.23a6.52,6.52,0,0,0-.75-.79c-13.39,9.28-55.92,9.15-70.92.1.24-.23.52-.47.84-.73,14.27,8.55,56.43,8.85,69.23-.1-.62-.5-1.34-1.05-2.11-1.62-19.87,8.21-45.14,8.7-64.8-.07l.94-.69c19.05,8.4,43.57,7.81,62.87,0-.46-.35-.94-.7-1.4-1.06-16.78,6.16-43.71,7.18-59.07-.79l.94-.77c14.94,7.55,40.93,6.73,57.21.85A29.9,29.9,0,0,1,436,30.51c-15.37,5.45-37.64,5.35-53-.44a8.54,8.54,0,0,0,.72-.84c14.89,5.53,36.53,5.69,51.48.48a3.91,3.91,0,0,1-1-1.84c-.4-3.41-3.61-13.16-6.43-17.49C412.73,13.61,406.24,15,391.11,10a2.48,2.48,0,0,0-.28.36c-2.82,4.31-6,14.09-6.44,17.5-.35,2.89-9.29,7.93-11.17,10.27C381.46,48.29,437.56,48.3,445.47,38.23Z"/><path d="M427,9.54C422.92,6,409.43,5.39,409.31,5.39h0c-.11,0-12.88.56-17.37,3.86C406.33,13.87,412.72,12.61,427,9.54Z"/><path d="M373.06,38.36h0Z"/><path d="M445.65,39.11c-1.34,1.45-10.88,8.17-36.34,7-25.45,1.2-35-5.52-36.34-7l0,0s0,0,0,0c1.34,1.46,10.89,8.18,36.34,7,25.45,1.2,35-5.52,36.34-7l0,0Z"/><path d="M391.13,10l.05-.06Z"/><path d="M445.74,38.76v0Z"/><path d="M372.88,38.8a.06.06,0,0,1,0,0A.06.06,0,0,0,372.88,38.8Z"/><path d="M445.73,38.94a.43.43,0,0,1,0,.05A.43.43,0,0,0,445.73,38.94Z"/><path d="M445.67,38.56l0,0Z"/><path d="M372.91,39s0,0,0-.05S372.9,39,372.91,39Z"/><path d="M445.56,38.35Z"/><path d="M383.77,29.23a8.54,8.54,0,0,1-.72.84c15.32,5.79,37.59,5.89,53,.44h0c-.28-.28-.54-.54-.76-.8h0C420.3,34.92,398.66,34.76,383.77,29.23Z"/><path d="M381.24,31.74l-.94.77c15.36,8,42.29,7,59.07.79h0l-.92-.71h0C422.17,38.47,396.18,39.29,381.24,31.74Z"/><path d="M377.9,34.33,377,35c19.66,8.77,44.93,8.28,64.8.07h0l-1-.73h0C421.47,42.14,397,42.73,377.9,34.33Z"/><path d="M374.64,36.81c-.32.26-.6.5-.84.73,15,9.05,57.53,9.18,70.92-.1h0c-.25-.23-.54-.48-.85-.74l0,0C431.07,45.66,388.91,45.36,374.64,36.81Z"/><path d="M427.8,10.38h0v0a4.11,4.11,0,0,0-.75-.83h0c-14.32,3.07-20.71,4.33-35.1-.29h0a6.28,6.28,0,0,0-.75.68l-.05.06,0,0h0C406.24,15,412.73,13.61,427.8,10.38Z"/><path d="M409.31,46.08c25.46,1.2,35-5.52,36.34-7l0,0,.05-.09a.43.43,0,0,0,0-.05.29.29,0,0,0,0-.13v-.05a1.54,1.54,0,0,0-.05-.17l0,0a2.12,2.12,0,0,0-.11-.21h0l-.09-.12h0c-7.91,10.07-64,10.06-72.25-.09h0a1.37,1.37,0,0,0-.15.21h0a1.19,1.19,0,0,0-.12.22h0a.55.55,0,0,0-.05.17.06.06,0,0,0,0,0,.33.33,0,0,0,0,.14s0,0,0,.05a.16.16,0,0,0,0,.07l0,0C374.31,40.56,383.86,47.28,409.31,46.08Z"/><g id="æg"><path id="outline" d="M409.11,31.09a3.42,3.42,0,0,1-.44,0l-.17,0,0,0c-1.57-.38-2.88-2.09-3.46-4.55h0l-.05-.23a10,10,0,0,1-.21-1.37l0-.29h0c0-.29,0-.57,0-.86a12.5,12.5,0,0,1,.23-2.39h0L405,21c0-.16.08-.32.13-.51l0-.1v0l0-.1c.76-2.43,2.26-3.95,3.93-3.95a3.86,3.86,0,0,1,3.21,2.26,10.49,10.49,0,0,1,1.22,5.13,11.4,11.4,0,0,1-.66,3.9,6.89,6.89,0,0,1-.35.83l-.09.2h0a5,5,0,0,1-1.89,2.08l0,0-.15.08A2.89,2.89,0,0,1,409.11,31.09Z"/><g id="æg1"><ellipse cx="409.12" cy="23.67" rx="3.95" ry="6.89"/><ellipse cx="408.78" cy="26.72" rx="0.77" ry="0.96" transform="translate(-0.37 47.02) rotate(-6.58)"/><ellipse cx="408.24" cy="23.47" rx="0.93" ry="0.72" transform="translate(59.22 236.53) rotate(-34.69)"/><ellipse cx="410.18" cy="18.49" rx="0.79" ry="0.74" transform="translate(232.14 388.48) rotate(-66.88)"/><ellipse cx="408.52" cy="20.48" rx="0.67" ry="0.78" transform="translate(316.44 419.01) rotate(-79.86)"/><ellipse cx="410.79" cy="24.04" rx="0.77" ry="0.88" transform="translate(60.77 240.4) rotate(-35.07)"/><path d="M406.9,20.68a.82.82,0,0,0-.76-.87.71.71,0,0,0-.29,0,9.14,9.14,0,0,0-.39,1.28,1.05,1.05,0,0,0,.48.21A.81.81,0,0,0,406.9,20.68Z"/><path d="M409.55,29a.87.87,0,0,0-1,.75.9.9,0,0,0,.21.78,2.19,2.19,0,0,0,.36,0,2.3,2.3,0,0,0,1.06-.25,1,1,0,0,0,.08-.24A.91.91,0,0,0,409.55,29Z"/><path d="M412.06,26.5a.81.81,0,0,0-.93.69.84.84,0,0,0,.65,1,.73.73,0,0,0,.33,0,8.75,8.75,0,0,0,.5-1.28A.8.8,0,0,0,412.06,26.5Z"/><path d="M411.56,20.21a.94.94,0,0,0,0,1.28.86.86,0,0,0,1.23.12l0,0a10.52,10.52,0,0,0-.39-1.47A.78.78,0,0,0,411.56,20.21Z"/><path d="M406.2,26a.77.77,0,0,0,0-1.06.74.74,0,0,0-1-.17,12.43,12.43,0,0,0,.2,1.31A.65.65,0,0,0,406.2,26Z"/></g></g></g><g id="odder_farlig-2" data-name="odder farlig"><g id="odder-2" data-name="odder"><g id="krop-2" data-name="krop"><g id="bsgben-2" data-name="bsgben"><g id="fod_foreben-3" data-name="fod foreben"><path class="cls-2" d="M358.5,187a13.86,13.86,0,0,0-7.16,8.94h0l0,0-.84,3.21,0,0-.84,3.21,0,0-.84,3.21s8.11-10,17-9.67c1.41,0,14.12-9.05,7.11-7.16,4.13-2.79,5.73-4.52.8-3.19,4.13-2.79,5.73-4.52.81-3.19,4.09-2.76,5.29-3.11,1.44-3.47C362.93,177.65,358.5,187,358.5,187Z"/><path d="M374,185.59c-2.45.25-4.15,0-5.85,1.88-.08.1-.17,0-.2,0h0c0-.05,0-.13.06-.22,1.79-1.81,3.41-1.65,5.9-1.92.13,0,.18,0,.2.11h0A.13.13,0,0,1,374,185.59Z"/><path d="M373.28,188.78c-2.45.25-4.15,0-5.86,1.89-.08.1-.16,0-.19,0h0s0-.13.06-.22c1.78-1.81,3.4-1.65,5.9-1.92a.18.18,0,0,1,.2.1h0C373.41,188.66,373.4,188.77,373.28,188.78Z"/><path d="M374.76,182.42c-2.44.25-4.14,0-5.85,1.89-.08.09-.17,0-.2-.05h0s0-.12.07-.21c1.78-1.81,3.4-1.65,5.9-1.92a.18.18,0,0,1,.2.1h0A.14.14,0,0,1,374.76,182.42Z"/></g><g id="fod_bagben-3" data-name="fod bagben"><path class="cls-2" d="M263.94,197.68a13.56,13.56,0,0,0-8.76,7.24h0l-1.45,3h0l-1.45,3h0l-1.45,3s9.9-8.09,18.56-5.88c1.37.35,15.6-5.89,8.36-5.51,4.59-1.86,6.49-3.22,1.41-2.95,4.59-1.87,6.49-3.22,1.41-3,4.54-1.84,5.79-1.93,2.09-3.09C270.11,189.42,263.94,197.68,263.94,197.68Z"/><path d="M279.35,199.52c-2.44-.27-4.06-.85-6.1.61-.1.08-.16,0-.18-.08h0c0-.06,0-.13.1-.2,2.1-1.4,3.66-.9,6.15-.64.13,0,.17.08.18.14h0A.14.14,0,0,1,279.35,199.52Z"/><path d="M278.07,202.51c-2.45-.28-4.07-.85-6.1.61-.11.08-.17,0-.19-.09h0c0-.05,0-.12.1-.19,2.1-1.4,3.66-.9,6.15-.64.13,0,.17.08.18.14h0C278.22,202.41,278.19,202.52,278.07,202.51Z"/><path d="M280.77,196.59c-2.45-.27-4.07-.85-6.1.62-.1.07-.17,0-.19-.09h0c0-.06,0-.13.11-.2,2.09-1.39,3.65-.9,6.15-.64.12,0,.16.08.17.15h0A.13.13,0,0,1,280.77,196.59Z"/></g><path id="bagben-3" data-name="bagben" class="cls-3" d="M200.29,146.9s25.23,71.27,35.55,70.2,36.13-1.07,33-7.51-14.8-16-17.21-12.27-13.19-15.5-3.67-18.76,18.7-21.81,15.14-23.26,8.15-2-6-29.08-56.89,18.12-56.89,18.12"/><path id="foreben-4" data-name="foreben" class="cls-3" d="M327.22,132.63s-5.17,21.75-1.36,28.25,7.8,23,5.17,27.72,10.6,18.87,14.62,15c0,0,22.67,3.42,19.53-3S356.4,185.8,352,187.37s-2.44-19.09,2.25-18.78,11.24-24.11,7.71-24.46,22.1-16.54,16.3-19.73-19.74-42-32.5-33.93S327.22,132.63,327.22,132.63Z"/></g><g id="krop_u_ben-2" data-name="krop u ben"><path id="hele_krop-2" data-name="hele krop" class="cls-4" d="M418.51,72.7c-.4-2.44-3.81-1.7-8.44,0-7.83,2.87-19.17,8.51-25.44,6.3a18,18,0,0,1-10.55-9.2c-3.22-6.3-2.83-12.34-8.68-8.76-3.92,2.4-14.37,12.32-23.1,23a40.43,40.43,0,0,1-33.6,15c-32.7-1.92-89.44-17.6-130.28,34.27,0,0-53.62,7.25-87.31,8-.18,0-129.93,10.89-79.45,21.39,28.58,5.94,34.17,7.72,53.78,8.79,7.43.41,36.13-4.29,75.36,4.29,27.57,6,38.6-5.57,56.14,6.28,2.59,1.76,11.15,4.52,17.66,1.5a61.06,61.06,0,0,0,10,1.05c10.06.31,25.81-1.26,38.18-11.91,15.95-13.74,35-9.78,47.87-7.32l.2,0c7.09,1.25,21.93-1.36,31.09,1s55.18-33.5,55.56-46.15C397.68,113,419.89,81.18,418.51,72.7Z"/><path id="lyser_krop-2" data-name="lyser krop" class="cls-5" d="M410.24,73.9c0-.42,3.38-8.83,3.28-9.23-7.83,2.87-15.41,7.57-21.68,5.36-5.81-2-10.58-1.83-12.38-5.36-22.71,56.82-144.72,77.83-144.72,77.83,0-.22-15.42,32.65-10.17,42.06,10.06.31,25.82-1.26,38.18-11.91,15.95-13.74,35-9.78,47.87-7.32l.2,0c12.16-4,22.36-8.39,28.19-13.21,10.71-8.87,29.09-15,42.51-28.52C398.86,106.11,410.24,81.15,410.24,73.9Z"/></g><g id="foreben-5" data-name="foreben"><g id="fod_bagben-4" data-name="fod bagben"><path class="cls-6" d="M247.06,207.79a14.31,14.31,0,0,0-11.44,4.35h0l-2.47,2.54h0l-2.48,2.54h.05l-2.48,2.55s12.9-4.82,21.11.55c1.3.85,18.06-.51,10.46-2.71,5.35-.28,7.77-1,2.43-2.54,5.35-.29,7.77-1,2.43-2.55,5.31-.28,6.63.07,3.19-2.45C256.17,201.46,247.06,207.79,247.06,207.79Z"/><path d="M262.37,215.19c-2.43-1.16-3.92-2.33-6.5-1.54-.13,0-.16-.1-.16-.16h0c0-.06,0-.13.17-.17,2.63-.69,4.07.38,6.56,1.54a.18.18,0,0,1,.13.21h0A.14.14,0,0,1,262.37,215.19Z"/><path d="M260.05,217.81c-2.43-1.15-3.92-2.32-6.5-1.54-.13,0-.16-.09-.16-.15h0c0-.07,0-.14.17-.17,2.63-.69,4.07.38,6.56,1.54.13.06.15.13.14.21h0A.14.14,0,0,1,260.05,217.81Z"/><path d="M264.8,212.67c-2.43-1.15-3.92-2.33-6.5-1.54-.13,0-.16-.1-.16-.16h0c0-.06,0-.13.17-.17,2.63-.69,4.07.38,6.56,1.54a.18.18,0,0,1,.13.21h0A.14.14,0,0,1,264.8,212.67Z"/></g><g id="fod_foreben-4" data-name="fod foreben"><path class="cls-6" d="M348.81,197.14a14.44,14.44,0,0,0-11.17,5.06h.05l-2.33,2.7h0l-2.32,2.69h0l-2.32,2.69s12.59-5.61,21.11-.77c1.34.77,18-1.63,10.27-3.35,5.33-.62,7.7-1.49,2.28-2.69,5.33-.62,7.7-1.49,2.28-2.7,5.28-.61,6.62-.34,3-2.64C357.53,190.26,348.81,197.14,348.81,197.14Z"/><path d="M364.52,203.57c-2.5-1-4-2.07-6.58-1.13-.13.05-.16-.08-.17-.14h0c0-.07,0-.14.16-.18,2.58-.86,4.09.12,6.64,1.12.13.06.15.13.15.2h0A.14.14,0,0,1,364.52,203.57Z"/><path d="M362.36,206.34c-2.5-1-4.05-2.07-6.58-1.13-.13,0-.17-.08-.17-.15h0c0-.06,0-.13.16-.17,2.58-.86,4.09.12,6.64,1.12.13.05.15.13.14.2h0A.14.14,0,0,1,362.36,206.34Z"/><path d="M366.8,200.91c-2.5-1-4.05-2.08-6.58-1.13-.13.05-.16-.09-.17-.15h0c0-.06,0-.13.16-.18,2.58-.85,4.09.13,6.64,1.13a.2.2,0,0,1,.15.2h0A.14.14,0,0,1,366.8,200.91Z"/></g><path id="bagben-4" data-name="bagben" class="cls-7" d="M184.8,154.41S210,225.67,220.36,224.6c5-.51,13.51-.78,20.69-1.64,7.77-.92,13.95-2.52,12.34-5.86-3.09-6.43-14.79-16-17.2-12.28s-13.19-15.5-3.67-18.76,18.69-21.81,15.14-23.25,8.14-2-6-29.08-56.89,18.11-56.89,18.11"/><path id="foreben-6" data-name="foreben" class="cls-7" d="M312.77,139.07s-5.18,21.74-1.37,28.24,7.81,23,5.18,27.72,10.6,18.87,14.62,15c0,0,22.66,3.42,19.52-3s-8.77-14.8-13.17-13.24-2.43-19.09,2.26-18.78,11.24-24.11,7.71-24.46,19.43-16,16.3-19.73c-4.31-5.13-20.08-33.65-30.94-29.5C318.86,106.68,312.77,139.07,312.77,139.07Z"/></g><g id="hår-4" data-name="hår"><path d="M206.39,121.26s18.4-9.88,35.05-11.3S206.39,121.26,206.39,121.26Z"/><path d="M363.23,124.45s9.85-13.48,21.21-20.34S363.23,124.45,363.23,124.45Z"/><path d="M353,105.51S362.81,92,374.18,85.17,353,105.51,353,105.51Z"/><path d="M267.7,146s18.31-5.87,33.7-4.32S267.7,146,267.7,146Z"/><path d="M253.64,157.87S272,152,287.33,153.55,253.64,157.87,253.64,157.87Z"/><path d="M55.1,152.1s17-4.9,31.18-3S55.1,152.1,55.1,152.1Z"/><path d="M127.32,167.49s17-4.9,31.18-3.05S127.32,167.49,127.32,167.49Z"/><path d="M271.36,117.57s18.81-7.26,35-6.59S271.36,117.57,271.36,117.57Z"/></g></g><g id="farligt_ansigt-2" data-name="farligt ansigt"><path id="hovedform-2" data-name="hovedform" class="cls-4" d="M429.92,55.24c-4.13,15-14.11,28.94-34.07,28.94s-26.84-15-31-27.87c-4.95-15.45,11-31.09,31-31.09S434.23,39.58,429.92,55.24Z"/><g id="under_ansigt-2" data-name="under ansigt"><path class="cls-8" d="M382.68,66.49c1.59,4.73-2.65,9-5.69,11.28,4.51,3.94,10.54,6.53,18.81,6.53a34.09,34.09,0,0,0,14.75-3.11,74.81,74.81,0,0,0,2.77-14C398.87,79.65,382.68,66.49,382.68,66.49Z"/></g><g id="ansigt-2" data-name="ansigt"><g id="hår-5" data-name="hår"><path d="M365.75,42.52c-.1.23-.2.46-.29.69"/><path d="M420.53,64.18a31.21,31.21,0,0,0-4.21,9.15S423.28,60.54,420.53,64.18Z"/><path d="M376.53,44.34a24.69,24.69,0,0,0-3.42,7.24S378.74,41.47,376.53,44.34Z"/><path d="M422.83,46.93s1.76,12.24,1.77,8.35A26.61,26.61,0,0,0,422.83,46.93Z"/><path d="M394.39,40.83a19.79,19.79,0,0,0-1.56-6.19S394.49,43.73,394.39,40.83Z"/><path d="M401.76,40.49a20,20,0,0,0,1.44-6.21S400.53,43.11,401.76,40.49Z"/><path d="M389.1,74.52a22.67,22.67,0,0,0-1.94,7S390.63,71.63,389.1,74.52Z"/><path d="M401.27,76.1a22.51,22.51,0,0,0-1.95,7S402.79,73.21,401.27,76.1Z"/><path d="M370.48,62.53a23.47,23.47,0,0,0,3.2,6.87S369.72,59.14,370.48,62.53Z"/></g><g id="mule-2" data-name="mule"><path class="cls-6" d="M397.45,74.37c-12.41,1.87-21.21-12.7-22.24-15.92-.86-2.67,15.57-8.13,20.6-9.94a1.24,1.24,0,0,1,1.64,1.22Z"/><path class="cls-6" d="M397.47,74.37c12.41,1.87,21.1-12.7,22.13-15.92.86-2.67-15.46-8.13-20.49-9.94a1.24,1.24,0,0,0-1.64,1.22Z"/></g><g id="næse-2" data-name="næse"><path id="farve-2" data-name="farve" d="M401.85,51.92s-2-2.92-6.56-1.37c-3.73,1.26.27,6.68,2,9a1,1,0,0,0,1.61,0C400.32,57.9,402.77,54.37,401.85,51.92Z"/><ellipse id="næsebor2-2" data-name="næsebor2" class="cls-5" cx="400.62" cy="53.44" rx="0.89" ry="1.62"/><ellipse id="næsebor1-2" data-name="næsebor1" class="cls-5" cx="395.6" cy="53.44" rx="0.89" ry="1.62"/></g><g id="mund-2" data-name="mund"><path d="M412.87,61.44h-1.19a1.72,1.72,0,0,1-.07.21L410.48,64a.89.89,0,0,1-1.61,0l-1.21-2.34a1,1,0,0,1-.09-.34l-2.39,0a1,1,0,0,1-.06.64L404,64.38a.89.89,0,0,1-1.61,0l-1.21-2.34a1,1,0,0,1-.07-.7q-3.09.08-6.16.34a.94.94,0,0,1,0,.7l-1,2.46a.89.89,0,0,1-1.6.15L391,62.77a1,1,0,0,1-.12-.63l-2.38.28a.86.86,0,0,1-.06.35l-1,2.46a.88.88,0,0,1-1.59.14l-1.37-2.25a.88.88,0,0,1-.09-.2l-1.36.16c-5.6-9.16-1.83,1.82-.89,2.75a31.64,31.64,0,0,0,4.89,4l2.47-3a.9.9,0,0,1,1.59.7l-.41,4.29c.39.17.79.34,1.2.49.94-1.12,7-7.79,13.06-.83.45-.23.91-.49,1.36-.77l-.79-4a.9.9,0,0,1,1.51-.86l2.53,2.51A46.18,46.18,0,0,0,414,64.17C414.91,63.15,419.19,51.64,412.87,61.44Z"/><path class="cls-9" d="M391.91,72.25a17.44,17.44,0,0,0,6.35,1.07,15.41,15.41,0,0,0,6.71-1.9C399,64.46,392.85,71.13,391.91,72.25Z"/><path class="cls-10" d="M385.88,65.37a.88.88,0,0,0,1.59-.14l1-2.46a.86.86,0,0,0,.06-.35l-4.08.5a.88.88,0,0,0,.09.2Z"/><path class="cls-10" d="M391,62.77,392.37,65a.89.89,0,0,0,1.6-.15l1-2.46a.94.94,0,0,0,0-.7c-1.11.09-2.21.2-3.31.34l-.75.09A1,1,0,0,0,391,62.77Z"/><path class="cls-10" d="M408.87,64.06a.89.89,0,0,0,1.61,0l1.13-2.39a1.72,1.72,0,0,0,.07-.21l-4.11,0a1,1,0,0,0,.09.34Z"/><path class="cls-10" d="M401.17,62.07l1.21,2.34a.89.89,0,0,0,1.61,0L405.12,62a1,1,0,0,0,.06-.64h-.95c-1,0-2.09,0-3.13,0A1,1,0,0,0,401.17,62.07Z"/><path class="cls-10" d="M389.53,66.77l-2.47,3a24.32,24.32,0,0,0,3.65,2l.41-4.29A.9.9,0,0,0,389.53,66.77Z"/><path class="cls-10" d="M405.54,66.68l.79,4a29.49,29.49,0,0,0,3.25-2.32l-2.53-2.51A.9.9,0,0,0,405.54,66.68Z"/></g><g id="øjene_og_bryn-2" data-name="øjene og bryn"><ellipse id="øje1-2" data-name="øje1" cx="382.88" cy="49.95" rx="2.79" ry="2.89"/><ellipse id="øje2-2" data-name="øje2" cx="412.07" cy="49.09" rx="2.79" ry="2.89"/></g><g id="øre2-2" data-name="øre2"><path class="cls-3" d="M378.1,28.68c2.5.49.13,6.07-3.31,9s-7.53,3.63-9.14,1.58-1.1-6.51,3.31-9A14.52,14.52,0,0,1,378.1,28.68Z"/><path class="cls-8" d="M378.67,28.88c2.43.47.13,5.89-3.21,8.73s-7.3,3.52-8.87,1.54-1.06-6.32,3.21-8.73A14.07,14.07,0,0,1,378.67,28.88Z"/></g><g id="øre1-2" data-name="øre1"><path class="cls-3" d="M415.94,30.83c-2.5.48-.13,6.07,3.31,9s7.53,3.63,9.15,1.59,1.09-6.52-3.31-9A14.44,14.44,0,0,0,415.94,30.83Z"/><path class="cls-8" d="M415.37,31c-2.42.47-.12,5.89,3.21,8.72s7.31,3.52,8.87,1.54,1.07-6.32-3.21-8.72A14,14,0,0,0,415.37,31Z"/></g><polygon points="387.5 50.03 375.32 42.73 376.46 40.67 388.64 47.98 387.5 50.03"/><polygon points="406.87 50.03 419.05 42.73 417.9 40.67 405.73 47.98 406.87 50.03"/></g><g id="hår-6" data-name="hår"><path class="cls-5" d="M390.91,54.64s-30.36-2.17-47.85.17"/><path class="cls-5" d="M391.89,56.1s-30.43.07-47.73,3.67"/><path class="cls-5" d="M393.71,57.12s-30.3,2.87-47.22,8.06"/><path class="cls-5" d="M392.92,59s-29.59,7.41-45.6,15.09"/><path class="cls-5" d="M405.73,54.64s30.36-2.17,47.86.17"/><path class="cls-5" d="M404.76,56.1s30.43.07,47.72,3.67"/><path class="cls-5" d="M402.93,57.12s30.31,2.87,47.23,8.06"/><path class="cls-5" d="M403.73,59s29.58,7.41,45.6,15.09"/></g></g></g><path class="cls-11" d="M361.52,33.2h0Z"/><path class="cls-12" d="M434.06,32.85a5.86,5.86,0,0,0-.75-.8c-13.4,9.29-55.92,9.16-70.92.1.24-.23.52-.47.83-.73,14.27,8.55,56.43,8.85,69.24-.1-.62-.5-1.34-1-2.11-1.62-19.87,8.21-45.14,8.7-64.8-.07l.94-.69c19.05,8.4,43.57,7.81,62.87,0l-1.41-1c-16.77,6.15-43.7,7.17-59.07-.8.33-.26.65-.51.95-.77,14.94,7.55,40.93,6.73,57.2.86-.89-.7-1.73-1.41-2.43-2.08-15.38,5.44-37.64,5.34-53-.44a8.59,8.59,0,0,0,.72-.85c14.89,5.53,36.53,5.69,51.48.49a3.84,3.84,0,0,1-1-1.85c-.4-3.4-3.62-13.16-6.44-17.48-15.06,3.22-21.55,4.57-36.68-.38a4.39,4.39,0,0,0-.28.36c-2.82,4.31-6,14.09-6.45,17.5-.34,2.9-9.29,7.93-11.16,10.28C370.05,42.9,426.15,42.92,434.06,32.85Z"/><path class="cls-13" d="M415.62,4.15C411.51.59,398,0,397.9,0h0c-.12,0-12.88.56-17.37,3.86C394.91,8.49,401.31,7.22,415.62,4.15Z"/><path class="cls-11" d="M361.65,33h0Z"/><path class="cls-11" d="M434.24,33.72c-1.34,1.46-10.89,8.18-36.34,7-25.46,1.21-35-5.51-36.34-7l0,0,0,0c1.34,1.45,10.88,8.17,36.34,7,25.45,1.2,35-5.52,36.33-7,0,0,0,0,0,0Z"/><path class="cls-11" d="M379.72,4.59l0,0Z"/><path class="cls-11" d="M434.32,33.37a.09.09,0,0,1,0,.05A.09.09,0,0,0,434.32,33.37Z"/><path class="cls-11" d="M361.47,33.41v0Z"/><path class="cls-11" d="M434.32,33.56a.08.08,0,0,1,0,0A.08.08,0,0,0,434.32,33.56Z"/><path class="cls-11" d="M434.26,33.17v0Z"/><path class="cls-11" d="M361.49,33.61a.14.14,0,0,0,0-.06A.14.14,0,0,1,361.49,33.61Z"/><path class="cls-11" d="M434.14,33h0Z"/><path class="cls-14" d="M372.36,23.84a8.59,8.59,0,0,1-.72.85c15.32,5.78,37.58,5.88,53,.44h0c-.28-.27-.53-.54-.76-.8h0C408.89,29.53,387.25,29.37,372.36,23.84Z"/><path class="cls-14" d="M369.83,26.35c-.3.26-.62.51-.95.77,15.37,8,42.3,7,59.07.8h0l-.91-.71h0C410.76,33.08,384.77,33.9,369.83,26.35Z"/><path class="cls-14" d="M366.49,28.94l-.94.69c19.66,8.77,44.93,8.28,64.8.07h0l-1-.74h0C410.06,36.75,385.54,37.34,366.49,28.94Z"/><path class="cls-14" d="M363.22,31.42c-.31.26-.59.5-.83.73,15,9.06,57.52,9.19,70.92-.1h0c-.25-.23-.54-.47-.86-.73h0C419.65,40.27,377.49,40,363.22,31.42Z"/><path class="cls-14" d="M416.38,5h0l0,0a4,4,0,0,0-.74-.82h0c-14.31,3.07-20.71,4.34-35.09-.29h0a4.51,4.51,0,0,0-.75.68l0,0,0,0h0C394.83,9.57,401.32,8.22,416.38,5Z"/><path class="cls-14" d="M397.9,40.69c25.45,1.21,35-5.51,36.34-7l0,0a.36.36,0,0,0,0-.09.08.08,0,0,0,0,0,.66.66,0,0,0,0-.14.09.09,0,0,0,0-.05.37.37,0,0,0-.05-.16v0a1.51,1.51,0,0,0-.12-.2h0a.83.83,0,0,0-.08-.12h0c-7.91,10.07-64,10-72.25-.09h0l-.15.21h0a1.64,1.64,0,0,0-.12.22h0a1.54,1.54,0,0,0,0,.17v0a.33.33,0,0,0,0,.14.14.14,0,0,1,0,.06l0,.07,0,0C362.9,35.18,372.44,41.9,397.9,40.69Z"/><g id="æg-2" data-name="æg"><path id="outline-2" data-name="outline" d="M397.7,25.7a2.25,2.25,0,0,1-.44,0l-.17,0,0,0c-1.57-.37-2.88-2.09-3.47-4.54h0l-.05-.23a10.43,10.43,0,0,1-.21-1.38l0-.29h0c0-.28,0-.57,0-.85a11.67,11.67,0,0,1,.23-2.39h0l.08-.31a3.71,3.71,0,0,1,.13-.5l0-.11v0l0-.1c.75-2.44,2.26-4,3.93-4a3.84,3.84,0,0,1,3.2,2.27,10.46,10.46,0,0,1,1.23,5.13,11.34,11.34,0,0,1-.66,3.89,6.89,6.89,0,0,1-.35.83l-.1.2h0a4.94,4.94,0,0,1-1.88,2.08l0,0-.15.08A2.89,2.89,0,0,1,397.7,25.7Z"/><g id="æg1-2" data-name="æg1"><ellipse class="cls-15" cx="397.71" cy="18.29" rx="3.95" ry="6.89"/><ellipse class="cls-16" cx="397.37" cy="21.34" rx="0.77" ry="0.96" transform="translate(0.17 45.68) rotate(-6.58)"/><ellipse class="cls-16" cx="396.83" cy="18.08" rx="0.93" ry="0.72" transform="translate(60.26 229.08) rotate(-34.69)"/><ellipse class="cls-16" cx="398.77" cy="13.1" rx="0.79" ry="0.74" transform="translate(230.16 374.71) rotate(-66.88)"/><ellipse class="cls-16" cx="397.11" cy="15.09" rx="0.67" ry="0.78" transform="translate(312.34 403.34) rotate(-79.86)"/><ellipse class="cls-16" cx="399.38" cy="18.65" rx="0.77" ry="0.88" transform="translate(61.79 232.86) rotate(-35.07)"/><path class="cls-16" d="M395.49,15.29a.82.82,0,0,0-.76-.87h-.29a8.3,8.3,0,0,0-.39,1.28.92.92,0,0,0,.48.21A.81.81,0,0,0,395.49,15.29Z"/><path class="cls-16" d="M398.14,23.63a.89.89,0,0,0-1,.75,1,1,0,0,0,.22.79,2.19,2.19,0,0,0,.36,0,2.34,2.34,0,0,0,1.06-.26.85.85,0,0,0,.08-.24A.92.92,0,0,0,398.14,23.63Z"/><path class="cls-16" d="M400.65,21.11a.82.82,0,0,0-.94.7.86.86,0,0,0,.65,1,.77.77,0,0,0,.34,0,8.75,8.75,0,0,0,.5-1.28A.8.8,0,0,0,400.65,21.11Z"/><path class="cls-16" d="M400.15,14.82a.93.93,0,0,0,0,1.28.85.85,0,0,0,1.22.13l0-.05a9.29,9.29,0,0,0-.38-1.47A.81.81,0,0,0,400.15,14.82Z"/><path class="cls-16" d="M394.79,20.63a.79.79,0,0,0,0-1.07.73.73,0,0,0-1-.16,10.86,10.86,0,0,0,.2,1.31A.67.67,0,0,0,394.79,20.63Z"/></g></g></g></g></g></svg>
