<svg xmlns="http://www.w3.org/2000/svg" viewBox="0 0 465 230"><defs><style>.cls-1{fill:#a68946;}.cls-2{fill:#735f30;}.cls-3{fill:#a68549;}.cls-4{fill:#b5a582;}.cls-5{fill:#cca956;}.cls-6{fill:#7e6b44;}.cls-7{fill:#f2deae;}.cls-8{fill:#d7847c;}.cls-9{fill:#fff;}.cls-10{fill:#333;}.cls-11{fill:#242b33;}.cls-12{fill:#424242;}.cls-13{fill:#999;}.cls-14{fill:#e6e6e6;}.cls-15{fill:#54a651;}</style></defs><g id="Assetlist_-_Artboard" data-name="Assetlist - Artboard"><g id="farlig_odder"><g id="odder"><g id="krop"><g id="bsgben"><g id="fod_foreben" data-name="fod foreben"><path class="cls-1" d="M367.94,188.81a13.84,13.84,0,0,0-7.28,8.87h0l0,0-.85,3.18,0,0L359,204l0,0-.85,3.18s8.24-9.93,17.29-9.6c1.43.06,14.34-9,7.21-7.1,4.2-2.77,5.83-4.48.82-3.16,4.2-2.77,5.82-4.49.82-3.17,4.15-2.74,5.38-3.09,1.46-3.44C372.43,179.49,367.94,188.81,367.94,188.81Z"/><path d="M383.63,187.37c-2.48.25-4.21,0-5.94,1.87-.09.1-.17,0-.2,0h0s0-.13.06-.22c1.81-1.79,3.46-1.63,6-1.9.13,0,.18,0,.2.1h0A.13.13,0,0,1,383.63,187.37Z"/><path d="M382.94,190.55c-2.48.24-4.21,0-5.94,1.87-.08.09-.17,0-.2,0h0s0-.12.06-.21c1.81-1.8,3.46-1.64,6-1.9.13,0,.18,0,.21.1h0A.14.14,0,0,1,382.94,190.55Z"/><path d="M384.46,184.23c-2.49.25-4.21,0-5.94,1.87-.09.1-.18,0-.21,0h0c0-.05,0-.13.07-.22,1.81-1.79,3.46-1.63,6-1.9.13,0,.17,0,.2.1h0A.14.14,0,0,1,384.46,184.23Z"/></g><g id="fod_bagben" data-name="fod bagben"><path class="cls-1" d="M271.9,199.37a13.77,13.77,0,0,0-8.9,7.19h0l-1.47,2.94h0l-1.47,3,0,0-1.47,3s10.05-8,18.85-5.84c1.39.34,15.84-5.85,8.49-5.47,4.66-1.85,6.59-3.2,1.43-2.93,4.66-1.85,6.59-3.2,1.43-2.93,4.62-1.84,5.88-1.92,2.12-3.08C278.16,191.18,271.9,199.37,271.9,199.37Z"/><path d="M287.55,201.2c-2.48-.27-4.13-.84-6.19.61-.1.07-.17,0-.19-.09h0c0-.05,0-.12.11-.19,2.13-1.39,3.71-.9,6.24-.63.13,0,.17.07.18.14h0A.13.13,0,0,1,287.55,201.2Z"/><path d="M286.25,204.17c-2.49-.27-4.13-.84-6.2.61-.1.07-.17,0-.19-.09h0c0-.05,0-.13.11-.2,2.13-1.38,3.71-.89,6.25-.63.12,0,.16.08.17.14h0A.13.13,0,0,1,286.25,204.17Z"/><path d="M289,198.29c-2.48-.27-4.13-.84-6.19.61-.11.08-.17,0-.19-.08h0c0-.06,0-.13.1-.2,2.13-1.38,3.72-.89,6.25-.63.13,0,.17.07.18.14h0C289.15,198.2,289.12,198.31,289,198.29Z"/></g><path id="bagben" class="cls-2" d="M207.25,149s25.63,70.74,36.11,69.68,36.7-1.06,33.56-7.45-15-15.86-17.48-12.19-13.4-15.38-3.73-18.62,19-21.64,15.38-23.08,8.27-2-6.06-28.86-57.78,18-57.78,18"/><path id="foreben" class="cls-2" d="M336.17,134.81s-5.26,21.59-1.39,28,7.93,22.84,5.26,27.52,10.76,18.73,14.85,14.92c0,0,23,3.39,19.83-3s-8.92-14.69-13.38-13.14-2.47-18.95,2.29-18.64,11.42-23.93,7.83-24.28S393.9,129.8,388,126.63,368,85,355,93,336.17,134.81,336.17,134.81Z"/></g><g id="krop_u_ben" data-name="krop u ben"><path id="hele_krop" data-name="hele krop" class="cls-3" d="M428.88,75.32c-.4-2.42-3.86-1.7-8.57,0-7.95,2.85-19.47,8.44-25.83,6.25a18.11,18.11,0,0,1-10.72-9.13c-3.27-6.26-2.87-12.25-8.81-8.7-4,2.38-14.6,12.23-23.47,22.78a41.42,41.42,0,0,1-34.12,14.91c-33.21-1.9-90.84-17.47-132.32,34,0,0-54.45,7.2-88.67,7.93-.18,0-132,10.81-80.69,21.23,29,5.9,34.7,7.67,54.62,8.73,7.55.4,36.7-4.26,76.54,4.26,28,6,39.2-5.53,57,6.24,2.64,1.73,11.33,4.48,17.94,1.48a62.34,62.34,0,0,0,10.13,1c10.21.31,26.21-1.24,38.77-11.82,16.2-13.64,35.51-9.71,48.62-7.27l.21,0c7.2,1.25,22.27-1.35,31.57,1s56-33.24,56.43-45.8C407.73,115.36,430.29,83.74,428.88,75.32Z"/><path id="lyser_krop" data-name="lyser krop" class="cls-4" d="M420.49,76.5c0-.41,3.43-8.76,3.33-9.15-7.95,2.85-15.65,7.51-22,5.32-5.9-2-10.74-1.82-12.58-5.32-23.06,56.39-147,77.25-147,77.25,0-.21-15.67,32.41-10.33,41.75,10.21.31,26.21-1.24,38.77-11.82,16.2-13.64,35.51-9.71,48.62-7.27l.21,0c12.35-4,22.7-8.32,28.62-13.11,10.88-8.8,29.55-14.85,43.18-28.31C408.93,108.48,420.49,83.7,420.49,76.5Z"/></g><g id="foreben-2" data-name="foreben"><g id="fod_bagben-2" data-name="fod bagben"><path class="cls-5" d="M254.76,209.41a14.73,14.73,0,0,0-11.62,4.32h0l-2.51,2.52h0l-2.52,2.52h.05l-2.52,2.53s13.11-4.78,21.45.55c1.32.84,18.33-.51,10.61-2.69,5.44-.28,7.9-1,2.47-2.53,5.44-.28,7.9-1,2.48-2.52,5.38-.29,6.72.07,3.23-2.44C264,203.13,254.76,209.41,254.76,209.41Z"/><path d="M270.31,216.75c-2.48-1.14-4-2.3-6.61-1.53-.13,0-.16-.09-.16-.15h0c0-.06,0-.13.17-.17,2.67-.68,4.14.38,6.67,1.53.12.06.14.13.13.21h0A.13.13,0,0,1,270.31,216.75Z"/><path d="M268,219.36c-2.47-1.14-4-2.31-6.6-1.53-.13,0-.16-.09-.17-.15h0c0-.07,0-.14.18-.17,2.67-.69,4.14.37,6.66,1.53.13.06.15.13.14.2h0A.14.14,0,0,1,268,219.36Z"/><path d="M272.77,214.25c-2.47-1.14-4-2.3-6.6-1.53-.13,0-.16-.09-.16-.15h0c0-.06,0-.13.17-.17,2.67-.68,4.14.38,6.66,1.53.13.06.15.14.14.21h0A.14.14,0,0,1,272.77,214.25Z"/></g><g id="fod_foreben-2" data-name="fod foreben"><path class="cls-5" d="M358.1,198.84a14.85,14.85,0,0,0-11.35,5h.05l-2.36,2.68h0l-2.36,2.67h0l-2.36,2.68s12.8-5.58,21.44-.77c1.37.76,18.27-1.62,10.44-3.33,5.41-.61,7.82-1.47,2.31-2.67,5.42-.62,7.83-1.48,2.32-2.67,5.36-.61,6.72-.35,3.08-2.63C367,192,358.1,198.84,358.1,198.84Z"/><path d="M374.05,205.23c-2.53-1-4.11-2.06-6.68-1.13-.13.05-.17-.08-.17-.14h0c0-.07,0-.14.16-.18,2.62-.85,4.15.12,6.74,1.12.13,0,.16.12.15.2h0A.14.14,0,0,1,374.05,205.23Z"/><path d="M371.86,208c-2.54-1-4.11-2.06-6.69-1.12-.13.05-.16-.08-.17-.15h0c0-.06,0-.13.17-.17,2.62-.85,4.15.12,6.74,1.12.13,0,.15.12.15.19h0A.14.14,0,0,1,371.86,208Z"/><path d="M376.37,202.58c-2.54-1-4.11-2.06-6.68-1.12-.13,0-.17-.09-.18-.15h0c0-.06,0-.13.17-.18,2.62-.84,4.15.13,6.74,1.12a.2.2,0,0,1,.15.2h0A.14.14,0,0,1,376.37,202.58Z"/></g><path id="bagben-2" data-name="bagben" class="cls-6" d="M191.52,156.42s25.63,70.74,36.12,69.68c5-.51,13.72-.78,21-1.63,7.88-.91,14.16-2.51,12.53-5.82-3.15-6.38-15-15.86-17.48-12.19s-13.39-15.38-3.72-18.62,19-21.64,15.37-23.08,8.27-2-6.05-28.87-57.79,18-57.79,18"/><path id="foreben-3" data-name="foreben" class="cls-6" d="M321.5,141.19s-5.26,21.59-1.4,28,7.93,22.84,5.26,27.51,10.77,18.73,14.85,14.93c0,0,23,3.39,19.83-3s-8.92-14.69-13.38-13.14-2.47-19,2.29-18.63,11.42-23.94,7.83-24.29,19.74-15.88,16.56-19.58c-4.37-5.1-20.39-33.4-31.42-29.29C327.68,109.05,321.5,141.19,321.5,141.19Z"/></g><g id="hår"><path d="M213.46,123.52s18.67-9.81,35.58-11.22S213.46,123.52,213.46,123.52Z"/><path d="M372.75,126.69s10-13.39,21.54-20.19S372.75,126.69,372.75,126.69Z"/><path d="M362.32,107.88s10-13.38,21.54-20.19S362.32,107.88,362.32,107.88Z"/><path d="M275.72,148.1s18.6-5.82,34.22-4.28S275.72,148.1,275.72,148.1Z"/><path d="M261.44,159.85s18.6-5.82,34.22-4.28S261.44,159.85,261.44,159.85Z"/><path d="M59.8,154.13s17.3-4.86,31.67-3S59.8,154.13,59.8,154.13Z"/><path d="M133.15,169.41s17.29-4.86,31.66-3S133.15,169.41,133.15,169.41Z"/><path d="M279.43,119.86s19.11-7.21,35.54-6.55S279.43,119.86,279.43,119.86Z"/></g></g><g id="farligt_ansigt" data-name="farligt ansigt"><path id="hovedform" class="cls-3" d="M440.48,58c-4.2,14.9-14.34,28.73-34.6,28.73s-27.26-14.9-31.46-27.66c-5-15.34,11.19-30.86,31.46-30.86S444.85,42.44,440.48,58Z"/><g id="under_ansigt" data-name="under ansigt"><path class="cls-7" d="M392.5,69.15c1.61,4.7-2.69,8.9-5.79,11.2,4.59,3.91,10.71,6.48,19.11,6.48a35.21,35.21,0,0,0,15-3.09,73.1,73.1,0,0,0,2.82-13.93C408.94,82.22,392.5,69.15,392.5,69.15Z"/></g><g id="ansigt"><g id="hår-2" data-name="hår"><path d="M375.3,45.36c-.1.23-.2.46-.29.69"/><path d="M430.94,66.86a30.45,30.45,0,0,0-4.28,9.08S433.73,63.25,430.94,66.86Z"/><path d="M386.25,47.16a24.32,24.32,0,0,0-3.48,7.19S388.5,44.32,386.25,47.16Z"/><path d="M433.28,49.74s1.78,12.15,1.79,8.29A26,26,0,0,0,433.28,49.74Z"/><path d="M404.39,43.68a19.42,19.42,0,0,0-1.59-6.14S404.49,46.56,404.39,43.68Z"/><path d="M411.88,43.35a19.43,19.43,0,0,0,1.46-6.17S410.63,45.94,411.88,43.35Z"/><path d="M399,77.12a22,22,0,0,0-2,6.91S400.57,74.25,399,77.12Z"/><path d="M411.37,78.69a21.92,21.92,0,0,0-2,6.91S412.92,75.82,411.37,78.69Z"/><path d="M380.11,65.22A23,23,0,0,0,383.36,72S379.33,61.86,380.11,65.22Z"/></g><g id="mule"><path class="cls-5" d="M407.5,77C394.9,78.83,386,64.37,384.91,61.17c-.87-2.65,15.82-8.07,20.92-9.87a1.27,1.27,0,0,1,1.67,1.21Z"/><path class="cls-5" d="M407.52,77c12.6,1.85,21.42-12.61,22.47-15.81.87-2.65-15.7-8.07-20.81-9.87a1.26,1.26,0,0,0-1.66,1.21Z"/></g><g id="næse"><path id="farve" d="M412,54.69s-2-2.9-6.66-1.36c-3.78,1.25.28,6.63,2.09,9a1,1,0,0,0,1.63,0C410.41,60.62,412.9,57.12,412,54.69Z"/><ellipse id="næsebor2" class="cls-4" cx="410.71" cy="56.2" rx="0.9" ry="1.6"/><ellipse id="næsebor1" class="cls-4" cx="405.61" cy="56.2" rx="0.9" ry="1.6"/></g><g id="mund"><path d="M423.16,64.14H422a1.72,1.72,0,0,1-.07.21l-1.15,2.37a.91.91,0,0,1-1.63,0l-1.23-2.32a.83.83,0,0,1-.1-.34l-2.43,0a.93.93,0,0,1-.06.63l-1.15,2.37a.91.91,0,0,1-1.63,0l-1.23-2.32a1,1,0,0,1-.07-.7c-2.09,0-4.17.16-6.26.33a.89.89,0,0,1,0,.7l-1,2.45a.92.92,0,0,1-1.63.14L401,65.46a1,1,0,0,1-.13-.63l-2.41.29a1,1,0,0,1-.06.33l-1,2.45a.92.92,0,0,1-1.63.14l-1.38-2.23a1.13,1.13,0,0,1-.09-.2l-1.38.16c-5.7-9.1-1.87,1.8-.91,2.73a31.66,31.66,0,0,0,5,3.93l2.51-3a.91.91,0,0,1,1.61.69l-.42,4.27c.4.17.8.33,1.22.48,1-1.11,7.15-7.73,13.27-.82.45-.23.91-.49,1.38-.77l-.81-3.94a.92.92,0,0,1,1.53-.86l2.57,2.5a46,46,0,0,0,4.46-4.13C425.23,65.84,429.58,54.41,423.16,64.14Z"/><path class="cls-8" d="M401.87,74.87a17.94,17.94,0,0,0,6.45,1.06,16,16,0,0,0,6.82-1.88C409,67.14,402.83,73.76,401.87,74.87Z"/><path class="cls-9" d="M395.74,68a.92.92,0,0,0,1.63-.14l1-2.45a1,1,0,0,0,.06-.33l-4.14.49a1.13,1.13,0,0,0,.09.2Z"/><path class="cls-9" d="M401,65.46l1.38,2.23a.92.92,0,0,0,1.63-.14l1-2.45a.89.89,0,0,0,0-.7c-1.12.1-2.24.21-3.35.34l-.77.09A1,1,0,0,0,401,65.46Z"/><path class="cls-9" d="M419.1,66.74a.91.91,0,0,0,1.63,0l1.15-2.37a1.72,1.72,0,0,0,.07-.21l-4.18,0a.83.83,0,0,0,.1.34Z"/><path class="cls-9" d="M411.27,64.77l1.23,2.32a.91.91,0,0,0,1.63,0l1.15-2.37a.93.93,0,0,0,.06-.63h-1c-1.06,0-2.12,0-3.18,0A1,1,0,0,0,411.27,64.77Z"/><path class="cls-9" d="M399.46,69.43l-2.51,3a24.9,24.9,0,0,0,3.7,2l.42-4.27A.91.91,0,0,0,399.46,69.43Z"/><path class="cls-9" d="M415.71,69.34l.81,3.94a29.93,29.93,0,0,0,3.29-2.3l-2.57-2.5A.92.92,0,0,0,415.71,69.34Z"/></g><g id="øjene_og_bryn" data-name="øjene og bryn"><ellipse id="øje1" cx="392.7" cy="52.74" rx="2.83" ry="2.87"/><ellipse id="øje2" cx="422.34" cy="51.88" rx="2.83" ry="2.87"/></g><g id="øre2"><path class="cls-2" d="M387.85,31.63c2.54.48.13,6-3.36,8.92s-7.65,3.6-9.29,1.57-1.11-6.46,3.36-8.92A14.91,14.91,0,0,1,387.85,31.63Z"/><path class="cls-7" d="M388.43,31.82c2.46.47.12,5.85-3.26,8.66s-7.43,3.5-9,1.53-1.08-6.27,3.26-8.66A14.61,14.61,0,0,1,388.43,31.82Z"/></g><g id="øre1"><path class="cls-2" d="M426.28,33.75c-2.54.48-.13,6,3.36,8.93s7.65,3.6,9.29,1.57,1.11-6.46-3.36-8.92A15,15,0,0,0,426.28,33.75Z"/><path class="cls-7" d="M425.7,34c-2.46.47-.13,5.85,3.26,8.66s7.42,3.5,9,1.53,1.08-6.27-3.26-8.66A14.62,14.62,0,0,0,425.7,34Z"/></g><polygon points="397.39 52.81 385.02 45.56 386.18 43.53 398.55 50.77 397.39 52.81"/><polygon points="417.06 52.81 429.43 45.56 428.27 43.53 415.9 50.77 417.06 52.81"/></g><g id="hår-3" data-name="hår"><path class="cls-4" d="M400.86,57.39s-30.84-2.15-48.6.16"/><path class="cls-4" d="M401.85,58.84s-30.91.06-48.47,3.65"/><path class="cls-4" d="M403.7,59.85s-30.78,2.85-48,8"/><path class="cls-4" d="M402.89,61.68s-30,7.35-46.31,15"/><path class="cls-4" d="M415.91,57.39s30.83-2.15,48.6.16"/><path class="cls-4" d="M414.92,58.84s30.91.06,48.47,3.65"/><path class="cls-4" d="M413.07,59.85s30.78,2.85,48,8"/><path class="cls-4" d="M413.87,61.68s30.05,7.35,46.32,15"/></g></g></g><path class="cls-10" d="M371,36.11h0Z"/><path class="cls-11" d="M444.67,35.76a5.28,5.28,0,0,0-.75-.79c-13.61,9.22-56.8,9.08-72,.1.24-.23.53-.47.85-.73,14.49,8.49,57.31,8.79,70.31-.1-.62-.49-1.35-1-2.14-1.6-20.18,8.15-45.85,8.63-65.81-.07l.95-.69c19.35,8.34,44.25,7.75,63.86,0-.48-.35-1-.69-1.43-1.05-17,6.12-44.39,7.12-60-.79.33-.25.65-.51,1-.76,15.17,7.49,41.56,6.68,58.09.85-.91-.7-1.76-1.4-2.47-2.07-15.62,5.41-38.23,5.31-53.78-.43a10.16,10.16,0,0,0,.72-.84c15.13,5.49,37.11,5.65,52.29.48a3.79,3.79,0,0,1-1-1.83c-.41-3.38-3.68-13.07-6.54-17.36-15.3,3.2-21.89,4.54-37.27-.37a4.11,4.11,0,0,0-.27.35c-2.87,4.29-6.14,14-6.55,17.38-.35,2.87-9.44,7.87-11.34,10.2C379.67,45.74,436.64,45.75,444.67,35.76Z"/><path class="cls-12" d="M426,7.27c-4.19-3.53-17.89-4.11-18-4.12h0c-.11,0-13.08.56-17.64,3.83C404.92,11.57,411.42,10.32,426,7.27Z"/><path class="cls-10" d="M371.14,35.88h0Z"/><path class="cls-10" d="M444.86,36.62c-1.36,1.45-11.06,8.12-36.91,6.93-25.85,1.19-35.55-5.48-36.9-6.93l0,0s0,0,0,.05c1.35,1.45,11.05,8.12,36.9,6.92,25.85,1.2,35.55-5.47,36.91-6.92l0,0Z"/><path class="cls-10" d="M389.49,7.71s0,0,.05,0S389.5,7.69,389.49,7.71Z"/><path class="cls-10" d="M445,36.28v0Z"/><path class="cls-10" d="M371,36.32s0,0,0,0S371,36.3,371,36.32Z"/><path class="cls-10" d="M444.94,36.46s0,0,0,0S444.94,36.48,444.94,36.46Z"/><path class="cls-10" d="M444.88,36.08l0,0Z"/><path class="cls-10" d="M371,36.51a.14.14,0,0,1,0-.06A.14.14,0,0,0,371,36.51Z"/><path class="cls-10" d="M444.76,35.87h0Z"/><path class="cls-13" d="M382,26.82a10.16,10.16,0,0,1-.72.84c15.55,5.74,38.16,5.84,53.78.43h0c-.29-.27-.55-.54-.78-.8h0C419.12,32.47,397.14,32.31,382,26.82Z"/><path class="cls-13" d="M379.45,29.31c-.31.25-.63.51-1,.76,15.6,7.91,42.95,6.91,60,.79h0c-.32-.24-.63-.47-.93-.71h0C421,36,394.62,36.8,379.45,29.31Z"/><path class="cls-13" d="M376.05,31.88l-.95.69c20,8.7,45.63,8.22,65.81.07h0l-1-.73h0C420.3,39.63,395.4,40.22,376.05,31.88Z"/><path class="cls-13" d="M372.74,34.34c-.32.26-.61.5-.85.73,15.23,9,58.42,9.12,72-.1h0c-.26-.23-.55-.47-.87-.73h0C430.05,43.13,387.23,42.83,372.74,34.34Z"/><path class="cls-13" d="M426.73,8.11h0v0a4.14,4.14,0,0,0-.76-.82h0c-14.54,3.05-21,4.3-35.65-.29h0a5,5,0,0,0-.76.68s0,0-.05,0l0,0h0C404.84,12.65,411.43,11.31,426.73,8.11Z"/><path class="cls-13" d="M408,43.55c25.85,1.19,35.55-5.48,36.91-6.93l0,0a.22.22,0,0,0,.05-.08s0,0,0,0a.2.2,0,0,0,0-.13v0a1,1,0,0,0-.05-.16l0,0a2,2,0,0,0-.11-.2h0a.83.83,0,0,0-.08-.12h0c-8,10-65,10-73.37-.09h0a1.91,1.91,0,0,1-.15.21h0a1.79,1.79,0,0,0-.13.22h0a.55.55,0,0,0-.05.17s0,0,0,0a.53.53,0,0,0,0,.13.14.14,0,0,0,0,.06.16.16,0,0,0,0,.07l0,0C372.4,38.07,382.1,44.74,408,43.55Z"/><g id="æg"><path id="outline" d="M407.75,28.66a3.15,3.15,0,0,1-.44,0l-.18,0,0,0c-1.6-.37-2.92-2.07-3.52-4.51h0l-.05-.22c-.09-.44-.16-.9-.21-1.37l0-.29h0c0-.28,0-.56,0-.85a12.29,12.29,0,0,1,.23-2.37h0l.07-.31c0-.16.08-.32.14-.5l0-.11v0a.42.42,0,0,1,0-.1c.77-2.42,2.3-3.92,4-3.92A3.91,3.91,0,0,1,411,16.21a10.26,10.26,0,0,1,1.24,5.09,11,11,0,0,1-.67,3.87,6.74,6.74,0,0,1-.35.82l-.1.2h0a5,5,0,0,1-1.92,2.06v0l-.16.07A3,3,0,0,1,407.75,28.66Z"/><g id="æg1"><ellipse class="cls-14" cx="407.76" cy="21.3" rx="4.01" ry="6.84"/><ellipse class="cls-15" cx="407.42" cy="24.33" rx="0.78" ry="0.96" transform="translate(0.22 52.1) rotate(-7.32)"/><ellipse class="cls-15" cx="406.87" cy="21.1" rx="0.94" ry="0.72" transform="translate(51.69 220.69) rotate(-32.3)"/><ellipse class="cls-15" cx="408.83" cy="16.16" rx="0.79" ry="0.75" transform="translate(176.07 352.65) rotate(-57.59)"/><ellipse class="cls-15" cx="407.15" cy="18.13" rx="0.67" ry="0.79" transform="matrix(0.15, -0.99, 0.99, 0.15, 327.07, 417.74)"/><ellipse class="cls-15" cx="409.46" cy="21.66" rx="0.78" ry="0.88" transform="translate(81.03 267.14) rotate(-39.8)"/><path class="cls-15" d="M405.51,18.33a.83.83,0,0,0-.78-.86.71.71,0,0,0-.29,0,9,9,0,0,0-.4,1.27,1.09,1.09,0,0,0,.49.21A.83.83,0,0,0,405.51,18.33Z"/><path class="cls-15" d="M408.19,26.61a.9.9,0,0,0-1,.75.92.92,0,0,0,.22.77,2.31,2.31,0,0,0,.37,0,2.41,2.41,0,0,0,1.08-.25,1.35,1.35,0,0,0,.08-.24A.92.92,0,0,0,408.19,26.61Z"/><path class="cls-15" d="M410.75,24.11a.82.82,0,0,0-.95.69.84.84,0,0,0,.66,1,.78.78,0,0,0,.34,0,9.07,9.07,0,0,0,.5-1.27A.78.78,0,0,0,410.75,24.11Z"/><path class="cls-15" d="M410.24,17.86a.92.92,0,0,0,0,1.27.88.88,0,0,0,1.24.13l0-.05a9,9,0,0,0-.39-1.45A.81.81,0,0,0,410.24,17.86Z"/><path class="cls-15" d="M404.79,23.63a.76.76,0,0,0,0-1.06.74.74,0,0,0-1-.16,10.69,10.69,0,0,0,.2,1.3A.69.69,0,0,0,404.79,23.63Z"/></g></g></g></g></svg>
