<svg xmlns="http://www.w3.org/2000/svg" viewBox="0 0 1920 1080"><defs><style>.cls-1{fill:#54a651;}.cls-2{fill:#cc8450;}.cls-3{fill:#7d81b5;}.cls-4{fill:none;}.cls-5{fill:#41803e;}.cls-6{fill:#61bf5e;}.cls-7{fill:#20401f;}</style></defs><g id="Assetlist_-_Artboard" data-name="Assetlist - Artboard"><g id="spil_uden_grafik"><g id="Baggrund"><g id="bund"><g id="graesstaa"><path id="graes" class="cls-1" d="M-1.1,1080.47V993.54c32.29,1.23,93.15,2.91,168,1.83,112.38-1.62,248.76-6.94,415.94,0s63.87-6.21,264.8-.17,241.18-5.33,419.51-1,197.64-8,330.27,2.68,94.72.64,202.28-3c58.39-2,98-1.81,122.08-1.24v87.82Z"/><g id="staa"><path d="M1818.65,1074.21a58.26,58.26,0,0,1-6.35,6.26h-2.45a64.14,64.14,0,0,0,8.91-9h0a97,97,0,0,0,5.66,9h-1.88C1821.4,1078.8,1820.09,1076.75,1818.65,1074.21Z"/><path d="M1801.8,1080.47h-1.75c-1-2.72-.57-6.47-.09-9.11l1.84.08S1800.72,1077.08,1801.8,1080.47Z"/><path d="M1833.35,1080.47a67.09,67.09,0,0,0-.73-9l1.85-.06a67.69,67.69,0,0,1,.74,9.09Z"/><path d="M1546.86,1047.72s-5,25.89,17,0h0c.58,1.06,18.33,33.25,13.82,0l1.84-.07c2,14.39-.25,15.78-2.89,16-1.46.12-5.19.43-12.92-13.16-8,9-11.83,10-14.68,9.63-5.34-.67-4.81-8.11-4-12.49Z"/><path d="M1620,1009.1s-5,25.89,17,0h0c.58,1.06,18.34,33.25,13.82,0l1.85-.07c2,14.39-.26,15.78-2.9,16-1.46.12-5.19.43-12.92-13.16-8.05,9-11.82,10-14.67,9.63-5.35-.67-4.81-8.11-4-12.49Z"/><path d="M1310,1035.43s-5,25.89,17,0h0c.58,1.06,18.33,33.25,13.82,0l1.84-.06c2,14.39-.25,15.77-2.89,16-1.46.13-5.19.43-12.92-13.16-8,9-11.82,10-14.68,9.63-5.34-.67-4.81-8.11-4-12.48Z"/><path d="M992.4,1035.43s-4.95,25.89,17,0h0c.58,1.06,18.33,33.25,13.82,0l1.85-.06c2,14.39-.26,15.77-2.9,16-1.46.13-5.19.43-12.92-13.16-8,9-11.82,10-14.67,9.63-5.35-.67-4.82-8.11-4-12.48Z"/><path d="M567.92,1056.93s-5,25.89,17,0h0c.58,1.06,18.33,33.25,13.82,0l1.84-.06c2,14.38-.25,15.77-2.89,16-1.46.12-5.19.43-12.92-13.16-8,9-11.82,10-14.68,9.63-5.34-.67-4.81-8.11-4-12.49Z"/><path d="M360.49,1002.11s-4.95,25.89,17,0h0c.58,1.06,18.33,33.25,13.82,0l1.85-.06c1.95,14.38-.26,15.77-2.9,16-1.46.13-5.19.43-12.92-13.16-8,9-11.82,10-14.67,9.63-5.35-.67-4.82-8.11-4-12.48Z"/><path d="M284.58,1048.87s-5,25.89,16.95,0h0c.58,1.06,18.34,33.25,13.83,0l1.84-.07c1.95,14.39-.25,15.78-2.89,16-1.46.12-5.19.43-12.93-13.16-8,9-11.82,10-14.67,9.63-5.34-.67-4.81-8.11-4-12.49Z"/><path d="M99.6,1029s-4.95,25.9,17,0h0c.58,1.06,18.33,33.25,13.82,0l1.85-.06c1.95,14.39-.26,15.77-2.9,16-1.46.12-5.19.43-12.92-13.17-8,9-11.82,10-14.67,9.63-5.35-.67-4.82-8.11-4-12.48Z"/><path d="M949.63,1044s-5,25.89,17,0h0c.58,1.07,18.33,33.25,13.82,0l1.85-.06c2,14.38-.26,15.77-2.9,16-1.46.12-5.19.43-12.92-13.16-8.05,9-11.82,10-14.67,9.63-5.35-.67-4.82-8.11-4-12.48Z"/></g></g><g id="jord_med_buler"><path class="cls-2" d="M1921.8,930.38c-33.21,1.13-92,2.54-163.73,1.63-112.4-1.42-248.82-6.21-415.94.29s-63.92-5.66-264.8,0-241.23-4.74-419.51-.67-197.71-7.27-330.25,2.65-94.72.64-202.31-2.65c-62-1.9-102.87-1.58-126.36-1v68.94c32.29,1.14,93.15,2.67,168,1.68,112.38-1.48,248.76-6.37,415.94.05s63.87-5.7,264.8-.16,241.18-4.89,419.51-.93,197.64-7.38,330.27,2.46,94.72.58,202.28-2.77c58.39-1.83,98-1.67,122.08-1.14Z"/><g id="buler"><path d="M705.7,989.39a20.11,20.11,0,0,0,13-5.17l1.19.34c-14.34,12.42-31.94,0-31.94,0s17.6,12.42,31.94,0l1.18.34a23.52,23.52,0,0,1-15.21,5.86c-10.37.24-18.68-5.56-19-5.8l2.23-.79C689.1,984.22,696.85,989.6,705.7,989.39Z"/><path d="M1455.8,985.09a20.11,20.11,0,0,0,13-5.17l1.19.34c-14.34,12.41-31.94,0-31.94,0s17.6,12.41,31.94,0l1.18.34a23.45,23.45,0,0,1-15.21,5.85c-10.37.25-18.68-5.55-19-5.8l2.23-.78C1439.2,979.92,1447,985.3,1455.8,985.09Z"/><path d="M1344.53,969.31a20.11,20.11,0,0,0,13-5.17l1.19.34c-14.33,12.42-31.94,0-31.94,0s17.61,12.42,31.94,0l1.18.34a23.5,23.5,0,0,1-15.21,5.86c-10.37.24-18.68-5.56-19-5.8l2.23-.79C1327.93,964.14,1335.68,969.52,1344.53,969.31Z"/><path d="M679.8,978.4a20.16,20.16,0,0,0,13-5.17l1.19.34c-14.33,12.41-31.94,0-31.94,0s17.61,12.41,31.94,0l1.18.34a23.43,23.43,0,0,1-15.21,5.85c-10.37.25-18.68-5.55-19-5.8l2.23-.79C663.2,973.23,671,978.6,679.8,978.4Z"/><path d="M512.9,991.78a20.11,20.11,0,0,0,13-5.17l1.19.34c-14.34,12.42-31.94,0-31.94,0s17.6,12.42,31.94,0l1.18.34A23.52,23.52,0,0,1,513,993.15c-10.37.24-18.68-5.56-19-5.8l2.23-.79C496.3,986.61,504.05,992,512.9,991.78Z"/><path d="M1007,987.49a20.11,20.11,0,0,0,13-5.17l1.18.34c-14.33,12.41-31.94,0-31.94,0s17.61,12.41,31.94,0l1.19.34a23.47,23.47,0,0,1-15.21,5.85c-10.37.25-18.68-5.55-19-5.8l2.23-.78C990.36,982.32,998.11,987.7,1007,987.49Z"/><path d="M900.48,956.41a20.2,20.2,0,0,0,13-5.16l1.18.34c-14.33,12.41-31.94,0-31.94,0s17.61,12.41,31.94,0l1.19.34a23.59,23.59,0,0,1-15.22,5.85c-10.36.24-18.68-5.55-19-5.8l2.24-.79C883.88,951.25,891.63,956.62,900.48,956.41Z"/><path d="M193,956.84s17.61,12.42,31.94,0l1.19.34A23.54,23.54,0,0,1,210.94,963c-10.37.24-18.69-5.56-19-5.8l2.24-.79c.07,0,7.82,5.43,16.67,5.22a20.1,20.1,0,0,0,12.91-5.12l.29,0,1,.27C210.63,969.26,193,956.84,193,956.84Z"/><path d="M223.78,956.5l.23.07-.29,0Z"/><path d="M1195.92,983.67a20.21,20.21,0,0,0,13-5.17l1.19.34c-14.34,12.41-31.94,0-31.94,0s17.6,12.41,31.94,0l1.18.34A23.56,23.56,0,0,1,1196,985c-10.37.24-18.68-5.55-19-5.8l2.23-.79C1179.32,978.5,1187.07,983.87,1195.92,983.67Z"/><path d="M1839.55,954a20.15,20.15,0,0,0,13-5.16l1.18.33c-14.33,12.42-31.94,0-31.94,0s17.61,12.42,31.94,0l1.19.35a23.58,23.58,0,0,1-15.21,5.85c-10.37.24-18.68-5.55-19-5.8l2.23-.79C1823,948.86,1830.7,954.23,1839.55,954Z"/><path d="M1900.25,978.75l2.24-.79c.07.06,7.82,5.43,16.67,5.23a19,19,0,0,0,2.63-.24v.71c-10.8,1.48-20.42-5.3-20.42-5.3s9.62,6.78,20.42,5.3v.71c-.82.1-1.66.16-2.51.18C1908.91,984.8,1900.6,979,1900.25,978.75Z"/><path d="M1618,987.49a20.11,20.11,0,0,0,13-5.17l1.19.34c-14.33,12.41-31.94,0-31.94,0s17.61,12.41,31.94,0l1.18.34a23.43,23.43,0,0,1-15.21,5.85c-10.37.25-18.68-5.55-19-5.8l2.23-.78C1601.37,982.32,1609.12,987.7,1618,987.49Z"/><path d="M1608.38,974.58a20.11,20.11,0,0,0,13-5.17l1.19.34c-14.34,12.42-31.94,0-31.94,0s17.6,12.42,31.94,0l1.18.34a23.45,23.45,0,0,1-15.21,5.85c-10.37.25-18.68-5.55-19-5.79l2.23-.79C1591.78,969.41,1599.53,974.79,1608.38,974.58Z"/><path d="M1567.13,966a20.21,20.21,0,0,0,13-5.17l1.19.34c-14.33,12.41-31.94,0-31.94,0s17.61,12.41,31.94,0l1.19.34a23.53,23.53,0,0,1-15.22,5.85c-10.37.25-18.68-5.55-19-5.8l2.24-.79C1550.53,960.81,1558.28,966.18,1567.13,966Z"/></g></g></g><g id="top"><g id="graesstaa-2" data-name="graesstaa"><path id="graes-2" data-name="graes" class="cls-1" d="M-1.1-.5V86.43c32.29-1.23,93.15-2.91,168-1.83,112.38,1.62,248.76,6.94,415.94,0s63.87,6.21,264.8.17,241.18,5.33,419.51,1,197.64,8,330.27-2.68,94.72-.64,202.28,3c58.39,2,98,1.81,122.08,1.24V-.5Z"/><g id="staa-2" data-name="staa"><path d="M1818.65,5.76A58.26,58.26,0,0,0,1812.3-.5h-2.45a64.14,64.14,0,0,1,8.91,9h0a97,97,0,0,1,5.66-9h-1.88C1821.4,1.17,1820.09,3.22,1818.65,5.76Z"/><path d="M1801.8-.5h-1.75c-1,2.72-.57,6.47-.09,9.11l1.84-.08S1800.72,2.89,1801.8-.5Z"/><path d="M1833.35-.5a67.09,67.09,0,0,1-.73,9l1.85.06a67.69,67.69,0,0,0,.74-9.09Z"/><path d="M1546.86,32.25s-5-25.89,17,0h0c.58-1.06,18.33-33.25,13.82,0l1.84.07c2-14.39-.25-15.78-2.89-16-1.46-.12-5.19-.43-12.92,13.16-8-9-11.83-10-14.68-9.63-5.34.67-4.81,8.11-4,12.49Z"/><path d="M1620,70.87s-5-25.89,17,0h0c.58-1.06,18.34-33.25,13.82,0l1.85.07c2-14.39-.26-15.78-2.9-16-1.46-.12-5.19-.43-12.92,13.16-8.05-9-11.82-10-14.67-9.63-5.35.67-4.81,8.11-4,12.49Z"/><path d="M1310,44.54s-5-25.89,17,0h0c.58-1.06,18.33-33.25,13.82,0l1.84.06c2-14.39-.25-15.77-2.89-16-1.46-.13-5.19-.43-12.92,13.16-8-9-11.82-10-14.68-9.63-5.34.67-4.81,8.11-4,12.48Z"/><path d="M992.4,44.54s-4.95-25.89,17,0h0c.58-1.06,18.33-33.25,13.82,0l1.85.06c2-14.39-.26-15.77-2.9-16-1.46-.13-5.19-.43-12.92,13.16-8-9-11.82-10-14.67-9.63-5.35.67-4.82,8.11-4,12.48Z"/><path d="M567.92,23s-5-25.89,17,0h0c.58-1.06,18.33-33.25,13.82,0l1.84.06c2-14.38-.25-15.77-2.89-16-1.46-.12-5.19-.43-12.92,13.16-8-9-11.82-10-14.68-9.63-5.34.67-4.81,8.11-4,12.49Z"/><path d="M360.49,77.86s-4.95-25.89,17,0h0c.58-1.06,18.33-33.25,13.82,0l1.85.06c1.95-14.38-.26-15.77-2.9-16-1.46-.13-5.19-.43-12.92,13.16-8-9-11.82-10-14.67-9.63-5.35.67-4.82,8.11-4,12.48Z"/><path d="M284.58,31.1s-5-25.89,16.95,0h0c.58-1.06,18.34-33.25,13.83,0l1.84.07c1.95-14.39-.25-15.78-2.89-16-1.46-.12-5.19-.43-12.93,13.16-8-9-11.82-10-14.67-9.63-5.34.67-4.81,8.11-4,12.49Z"/><path d="M99.6,51s-4.95-25.9,17,0h0c.58-1.06,18.33-33.25,13.82,0l1.85.06c1.95-14.39-.26-15.77-2.9-16-1.46-.12-5.19-.43-12.92,13.17-8-9-11.82-10-14.67-9.63-5.35.67-4.82,8.11-4,12.48Z"/><path d="M949.63,35.94s-5-25.89,17,0h0c.58-1.07,18.33-33.25,13.82,0l1.85.06c2-14.38-.26-15.77-2.9-16-1.46-.12-5.19-.43-12.92,13.16-8.05-9-11.82-10-14.67-9.63-5.35.67-4.82,8.11-4,12.48Z"/></g></g><g id="jord_med_buler-2" data-name="jord_med_buler"><path class="cls-2" d="M1921.8,149.59c-33.21-1.13-92-2.54-163.73-1.63-112.4,1.42-248.82,6.21-415.94-.29s-63.92,5.66-264.8,0-241.23,4.74-419.51.67-197.71,7.27-330.25-2.65-94.72-.64-202.31,2.65c-62,1.9-102.87,1.58-126.36,1V80.36c32.29-1.14,93.15-2.67,168-1.68,112.38,1.48,248.76,6.37,415.94-.05s63.87,5.7,264.8.16,241.18,4.89,419.51.93,197.64,7.38,330.27-2.46,94.72-.58,202.28,2.77c58.39,1.83,98,1.67,122.08,1.14Z"/><g id="buler-2" data-name="buler"><path d="M705.7,90.58a20.11,20.11,0,0,1,13,5.17l1.19-.34c-14.34-12.42-31.94,0-31.94,0s17.6-12.42,31.94,0l1.18-.34a23.52,23.52,0,0,0-15.21-5.86c-10.37-.24-18.68,5.56-19,5.8l2.23.79C689.1,95.75,696.85,90.37,705.7,90.58Z"/><path d="M1455.8,94.88a20.11,20.11,0,0,1,13,5.17l1.19-.34c-14.34-12.41-31.94,0-31.94,0s17.6-12.41,31.94,0l1.18-.34a23.45,23.45,0,0,0-15.21-5.85c-10.37-.25-18.68,5.55-19,5.8l2.23.78C1439.2,100.05,1447,94.67,1455.8,94.88Z"/><path d="M1344.53,110.66a20.11,20.11,0,0,1,13,5.17l1.19-.34c-14.33-12.42-31.94,0-31.94,0s17.61-12.42,31.94,0l1.18-.34a23.5,23.5,0,0,0-15.21-5.86c-10.37-.24-18.68,5.56-19,5.8l2.23.79C1327.93,115.83,1335.68,110.45,1344.53,110.66Z"/><path d="M679.8,101.57a20.16,20.16,0,0,1,13,5.17l1.19-.34c-14.33-12.41-31.94,0-31.94,0S679.62,94,694,106.4l1.18-.34a23.43,23.43,0,0,0-15.21-5.85c-10.37-.25-18.68,5.55-19,5.8l2.23.79C663.2,106.74,671,101.37,679.8,101.57Z"/><path d="M512.9,88.19a20.11,20.11,0,0,1,13,5.17l1.19-.34c-14.34-12.42-31.94,0-31.94,0s17.6-12.42,31.94,0l1.18-.34A23.52,23.52,0,0,0,513,86.82c-10.37-.24-18.68,5.56-19,5.8l2.23.79C496.3,93.36,504.05,88,512.9,88.19Z"/><path d="M1007,92.48a20.11,20.11,0,0,1,13,5.17l1.18-.34c-14.33-12.41-31.94,0-31.94,0s17.61-12.41,31.94,0l1.19-.34a23.47,23.47,0,0,0-15.21-5.85c-10.37-.25-18.68,5.55-19,5.8l2.23.78C990.36,97.65,998.11,92.27,1007,92.48Z"/><path d="M900.48,123.56a20.2,20.2,0,0,1,13,5.16l1.18-.34c-14.33-12.41-31.94,0-31.94,0s17.61-12.41,31.94,0l1.19-.34a23.59,23.59,0,0,0-15.22-5.85c-10.36-.24-18.68,5.55-19,5.8l2.24.79C883.88,128.72,891.63,123.35,900.48,123.56Z"/><path d="M193,123.13s17.61-12.42,31.94,0l1.19-.34a23.54,23.54,0,0,0-15.21-5.86c-10.37-.24-18.69,5.56-19,5.8l2.24.79c.07,0,7.82-5.43,16.67-5.22a20.1,20.1,0,0,1,12.91,5.12l.29,0,1-.27C210.63,110.71,193,123.13,193,123.13Z"/><path d="M223.78,123.47l.23-.07-.29,0Z"/><path d="M1195.92,96.3a20.21,20.21,0,0,1,13,5.17l1.19-.34c-14.34-12.41-31.94,0-31.94,0s17.6-12.41,31.94,0l1.18-.34A23.56,23.56,0,0,0,1196,94.94c-10.37-.24-18.68,5.55-19,5.8l2.23.79C1179.32,101.47,1187.07,96.1,1195.92,96.3Z"/><path d="M1839.55,126a20.15,20.15,0,0,1,13,5.16l1.18-.33c-14.33-12.42-31.94,0-31.94,0s17.61-12.42,31.94,0l1.19-.35a23.58,23.58,0,0,0-15.21-5.85c-10.37-.24-18.68,5.55-19,5.8l2.23.79C1823,131.11,1830.7,125.74,1839.55,126Z"/><path d="M1900.25,101.22l2.24.79c.07-.06,7.82-5.43,16.67-5.23a19,19,0,0,1,2.63.24v-.71c-10.8-1.48-20.42,5.3-20.42,5.3s9.62-6.78,20.42-5.3V95.6c-.82-.1-1.66-.16-2.51-.18C1908.91,95.17,1900.6,101,1900.25,101.22Z"/><path d="M1618,92.48a20.11,20.11,0,0,1,13,5.17l1.19-.34c-14.33-12.41-31.94,0-31.94,0s17.61-12.41,31.94,0l1.18-.34a23.43,23.43,0,0,0-15.21-5.85c-10.37-.25-18.68,5.55-19,5.8l2.23.78C1601.37,97.65,1609.12,92.27,1618,92.48Z"/><path d="M1608.38,105.39a20.11,20.11,0,0,1,13,5.17l1.19-.34c-14.34-12.42-31.94,0-31.94,0s17.6-12.42,31.94,0l1.18-.34A23.45,23.45,0,0,0,1608.5,104c-10.37-.25-18.68,5.55-19,5.79l2.23.79C1591.78,110.56,1599.53,105.18,1608.38,105.39Z"/><path d="M1567.13,114a20.21,20.21,0,0,1,13,5.17l1.19-.34c-14.33-12.41-31.94,0-31.94,0s17.61-12.41,31.94,0l1.19-.34a23.53,23.53,0,0,0-15.22-5.85c-10.37-.25-18.68,5.55-19,5.8l2.24.79C1550.53,119.16,1558.28,113.79,1567.13,114Z"/></g></g></g><g id="hav_med_beogler"><path id="hav" class="cls-3" d="M1921.63,853.67l0-88.39h0V658.62h0v-15.3h0l0-99.89-.07,0V446.94h0v-15.3h0V343.25h0V236.59h0v-15.3h0v-99.9s-21.36-5.85-73.69-.18-33.93,21.66-98.39,4.57-73.91,2.45-160.61-4.57-106.33,10.92-204,1.17-47.5,11.21-128.78,0-147.63-2.94-202.29-.5c-51.89,2.32-115,.74-167.32-5s-33.87-21.72-98.36-4.77-73.89-2.61-160.6,4.22-106.28-11.14-204-1.59-47.46-11.32-128.76-.27-147.61,2.62-202.26.07S-1.5,119.18-1.5,119.18l0,101.92h0V329.53h0v13.53h0v88.39h0V541.2h-.08l0,101.92h0V751.56h0v13.53h0l0,88.39h0v122s39.28-7.32,93.94-4.88,121,10.71,202.25-.5,31.08,9.75,128.76,0,117.3,8.18,204,1.17S722,976.57,788,966.66c64.9-9.75,46.06-1.11,98.38,4.57,50.14,5.44,112.85,9.27,167.51,6.71s121-11,202.29.07,31.06-9.81,128.78-.27,117.3-8.42,204-1.59,96.12-12.73,160.63,4.22,46.06,1,98.38-4.77,73.68,0,73.68,0V869h0v-15.3Z"/><g id="beogler"><path d="M215.83,389.87c14.28,0,21.4-2.37,22.71-2.85,23.77-6,39.21-5.44,48-3.92,9.4,1.62,13.35,4.68,13.39,4.71l3.47-1.28c-.18-.15-4.61-3.65-15.24-5.54-13.88-2.47-31.22-1.13-51.55,4l-.19.05-.18.06s-4.38,1.69-13.73,2.27c-8.7.54-23.61.22-45.2-4.38-26.31-5.62-32.35-4.48-38.56-2.1-2.61,1-4.87,1.86-11.33,1.49l-.45,2.27c8,.46,11.31-.79,14.19-1.9,4.15-1.59,8.44-3.23,34.62,2.36C192.8,388.75,206,389.87,215.83,389.87Z"/><path class="cls-4" d="M302.49,387.17S286.13,374,238.32,386c0,0-17.89,7.21-60.95-2s-29.64.6-49.35-.54"/><path d="M235.35,403.47c14.27,0,21.39-2.37,22.7-2.85,23.77-6,39.22-5.44,48-3.92,9.4,1.62,13.35,4.68,13.39,4.71l3.47-1.28c-.18-.15-4.61-3.65-15.24-5.54-13.88-2.47-31.22-1.13-51.55,4l-.19,0-.17.07S251.36,400.4,242,401c-8.7.54-23.61.22-45.2-4.38-26.31-5.62-32.35-4.48-38.56-2.1-2.61,1-4.87,1.86-11.33,1.49l-.45,2.27c8,.46,11.31-.79,14.2-1.9,4.14-1.59,8.44-3.23,34.61,2.36C212.31,402.35,225.52,403.47,235.35,403.47Z"/><path class="cls-4" d="M322,400.77s-16.36-13.21-64.17-1.14c0,0-17.89,7.21-60.95-2s-29.63.6-49.35-.54"/><path d="M1290.8,437c-14.27,0-21.4-2.37-22.71-2.85-23.77-6-39.21-5.44-48-3.92-9.4,1.62-13.35,4.68-13.39,4.71l-3.47-1.28c.18-.15,4.61-3.65,15.24-5.54,13.88-2.48,31.22-1.13,51.55,4l.2,0,.17.07s4.38,1.69,13.73,2.27c8.71.54,23.61.22,45.2-4.39,26.31-5.61,32.35-4.47,38.56-2.09,2.62,1,4.87,1.86,11.33,1.49l.45,2.27c-8,.46-11.31-.79-14.19-1.9-4.15-1.59-8.44-3.23-34.61,2.35C1313.84,435.83,1300.62,437,1290.8,437Z"/><path class="cls-4" d="M1204.14,434.25s16.36-13.21,64.17-1.14c0,0,17.89,7.21,61-2s29.64.61,49.35-.53"/><path d="M1271.29,450.55c-14.28,0-21.4-2.37-22.71-2.85-23.77-6-39.21-5.44-48-3.92-9.4,1.62-13.35,4.68-13.39,4.71l-3.47-1.28c.18-.15,4.61-3.65,15.24-5.54,13.88-2.48,31.22-1.13,51.55,4l.19.05.18.07s4.38,1.69,13.73,2.27c8.7.54,23.61.22,45.2-4.39,26.31-5.61,32.35-4.47,38.56-2.09,2.61,1,4.87,1.86,11.33,1.49l.45,2.26c-8,.47-11.31-.78-14.19-1.89-4.15-1.59-8.44-3.23-34.62,2.35C1294.32,449.43,1281.11,450.55,1271.29,450.55Z"/><path class="cls-4" d="M1184.63,447.85s16.36-13.21,64.17-1.14c0,0,17.89,7.21,61-2s29.64.61,49.35-.53"/><path d="M1081.45,296.72c-14.27,0-21.4-2.37-22.71-2.86-23.77-6-39.21-5.43-48-3.92-9.4,1.63-13.35,4.68-13.38,4.71l-3.48-1.27c.18-.15,4.61-3.65,15.24-5.55,13.88-2.47,31.23-1.12,51.55,4l.2.05.17.07s4.38,1.69,13.73,2.27c8.71.54,23.61.22,45.2-4.39,26.31-5.61,32.35-4.47,38.56-2.09,2.62,1,4.87,1.86,11.34,1.49l.44,2.26c-8,.47-11.31-.79-14.19-1.89-4.15-1.59-8.44-3.23-34.61,2.35C1104.49,295.59,1091.27,296.72,1081.45,296.72Z"/><path class="cls-4" d="M994.79,294s16.36-13.21,64.17-1.14c0,0,17.89,7.22,61-2s29.64.61,49.35-.53"/><path d="M1061.94,310.32c-14.28,0-21.4-2.37-22.71-2.86-23.77-6-39.21-5.43-48-3.92-9.4,1.62-13.35,4.68-13.39,4.71L974.38,307c.18-.15,4.61-3.65,15.24-5.55,13.88-2.47,31.22-1.12,51.55,4l.19.05.18.07s4.38,1.69,13.73,2.27c8.7.54,23.61.22,45.2-4.39,26.31-5.61,32.35-4.47,38.56-2.1,2.61,1,4.87,1.87,11.33,1.49l.45,2.27c-8,.46-11.31-.79-14.19-1.89-4.15-1.59-8.44-3.24-34.62,2.35C1085,309.19,1071.76,310.32,1061.94,310.32Z"/><path class="cls-4" d="M975.28,307.61s16.36-13.21,64.17-1.14c0,0,17.89,7.22,61-2s29.64.61,49.35-.53"/><path d="M1731.53,600.22c-14.27,0-21.39-2.36-22.7-2.85-23.77-6-39.22-5.43-48-3.92-9.4,1.62-13.35,4.68-13.39,4.71l-3.47-1.28c.18-.14,4.61-3.64,15.24-5.54,13.88-2.47,31.22-1.12,51.55,4l.19,0,.17.07s4.39,1.68,13.74,2.27c8.7.54,23.61.21,45.2-4.39,26.31-5.62,32.35-4.48,38.56-2.1,2.61,1,4.87,1.87,11.33,1.49l.45,2.27c-8,.46-11.31-.79-14.2-1.9-4.15-1.58-8.44-3.23-34.61,2.36C1754.57,599.1,1741.36,600.22,1731.53,600.22Z"/><path class="cls-4" d="M1644.88,597.52s16.35-13.21,64.16-1.14c0,0,17.9,7.22,61-2s29.63.6,49.34-.53"/><path d="M1712,613.82c-14.27,0-21.39-2.37-22.7-2.85-23.77-6-39.22-5.44-48-3.92-9.4,1.62-13.35,4.68-13.39,4.71l-3.47-1.28c.18-.15,4.61-3.65,15.24-5.54,13.88-2.47,31.22-1.13,51.55,4l.19,0,.17.07s4.39,1.68,13.74,2.26c8.7.55,23.61.22,45.2-4.38,26.3-5.62,32.35-4.48,38.56-2.1,2.61,1,4.87,1.86,11.33,1.49l.44,2.27c-8,.46-11.3-.79-14.19-1.9-4.15-1.59-8.44-3.23-34.61,2.36C1735.06,612.7,1721.85,613.82,1712,613.82Z"/><path class="cls-4" d="M1625.37,611.12s16.35-13.21,64.16-1.14c0,0,17.9,7.21,61-2s29.64.6,49.35-.54"/><path d="M1635.21,247.64c14.27,0,21.39-2.37,22.7-2.86,23.77-6,39.22-5.43,48-3.92,9.4,1.62,13.35,4.68,13.39,4.71l3.47-1.28c-.18-.14-4.61-3.64-15.24-5.54-13.88-2.47-31.22-1.12-51.55,4l-.19.05-.17.07s-4.39,1.68-13.74,2.27c-8.7.54-23.61.22-45.2-4.39-26.31-5.61-32.35-4.47-38.56-2.1-2.61,1-4.87,1.87-11.33,1.49l-.45,2.27c8,.46,11.31-.79,14.2-1.89,4.15-1.59,8.44-3.24,34.61,2.35C1612.17,246.51,1625.38,247.64,1635.21,247.64Z"/><path class="cls-4" d="M1721.86,244.93s-16.35-13.21-64.17-1.14c0,0-17.89,7.22-61-2s-29.63.61-49.34-.53"/><path d="M1654.72,261.23c14.27,0,21.39-2.36,22.7-2.85,23.77-6,39.22-5.43,48-3.92,9.4,1.62,13.35,4.68,13.39,4.71l3.47-1.28c-.18-.14-4.61-3.65-15.24-5.54-13.88-2.47-31.22-1.12-51.55,4l-.19.05-.17.07s-4.39,1.68-13.74,2.26c-8.7.55-23.61.22-45.2-4.38-26.3-5.62-32.35-4.48-38.56-2.1-2.61,1-4.87,1.87-11.33,1.49l-.44,2.27c8,.46,11.3-.79,14.19-1.9,4.15-1.58,8.44-3.23,34.61,2.36C1631.68,260.11,1644.89,261.23,1654.72,261.23Z"/><path class="cls-4" d="M1741.37,258.53s-16.35-13.21-64.16-1.14c0,0-17.9,7.21-61-2s-29.63.6-49.34-.53"/><path d="M678.61,223.6c14.27,0,21.39-2.37,22.7-2.86,23.77-6,39.22-5.43,48-3.92,9.4,1.62,13.35,4.68,13.39,4.71l3.47-1.28c-.18-.14-4.61-3.64-15.24-5.54-13.88-2.47-31.22-1.12-51.55,4l-.19.05-.17.07s-4.39,1.68-13.74,2.27c-8.7.54-23.61.22-45.2-4.39-26.3-5.61-32.35-4.48-38.56-2.1-2.61,1-4.87,1.87-11.33,1.49l-.44,2.27c8,.46,11.3-.79,14.19-1.89,4.15-1.59,8.44-3.24,34.61,2.35C655.57,222.47,668.78,223.6,678.61,223.6Z"/><path class="cls-4" d="M765.26,220.89s-16.35-13.21-64.16-1.14c0,0-17.9,7.22-61-2s-29.64.6-49.35-.53"/><path d="M698.12,237.19c14.27,0,21.39-2.36,22.7-2.85,23.77-6,39.22-5.43,48-3.92,9.4,1.62,13.35,4.68,13.39,4.71l3.48-1.28c-.19-.14-4.62-3.65-15.25-5.54-13.87-2.47-31.22-1.12-51.55,4l-.19.05-.17.07s-4.39,1.68-13.74,2.26c-8.7.55-23.61.22-45.2-4.38-26.3-5.62-32.34-4.48-38.56-2.1-2.61,1-4.87,1.87-11.33,1.49l-.44,2.27c8,.46,11.3-.79,14.19-1.9,4.15-1.58,8.44-3.23,34.61,2.36C675.08,236.07,688.29,237.19,698.12,237.19Z"/><path class="cls-4" d="M784.77,234.49s-16.35-13.21-64.16-1.14c0,0-17.9,7.21-61-2s-29.64.6-49.35-.54"/><path d="M1071.43,802.56c-14.27,0-21.39-2.37-22.7-2.85-23.78-6-39.22-5.44-48-3.92-9.39,1.62-13.34,4.68-13.38,4.71l-3.48-1.28c.19-.15,4.62-3.65,15.24-5.54,13.88-2.47,31.23-1.13,51.55,4l.2,0,.17.06s4.39,1.69,13.74,2.27c8.7.54,23.61.22,45.2-4.38,26.3-5.62,32.34-4.48,38.56-2.1,2.61,1,4.87,1.86,11.33,1.49l.44,2.27c-8,.46-11.3-.79-14.19-1.9-4.15-1.59-8.44-3.23-34.61,2.36C1094.47,801.44,1081.26,802.56,1071.43,802.56Z"/><path class="cls-4" d="M984.78,799.86s16.35-13.21,64.16-1.14c0,0,17.9,7.21,61-2s29.64.6,49.35-.54"/><path d="M1051.92,816.16c-14.27,0-21.4-2.37-22.7-2.85-23.78-6-39.22-5.44-48-3.92-9.4,1.62-13.34,4.68-13.38,4.71l-3.48-1.28c.19-.15,4.62-3.65,15.24-5.54,13.88-2.48,31.23-1.13,51.55,4l.2,0,.17.07s4.39,1.69,13.74,2.27c8.7.54,23.6.22,45.19-4.39,26.31-5.61,32.35-4.47,38.57-2.09,2.61,1,4.86,1.86,11.33,1.49l.44,2.26c-8,.47-11.3-.78-14.19-1.89-4.15-1.59-8.44-3.23-34.61,2.35C1075,815,1061.74,816.16,1051.92,816.16Z"/><path class="cls-4" d="M965.26,813.46s16.36-13.21,64.17-1.14c0,0,17.89,7.21,61-2s29.64.61,49.35-.53"/><path d="M466.25,692.38c14.27,0,21.4-2.37,22.71-2.86,23.77-6,39.21-5.43,48-3.92,9.4,1.63,13.35,4.68,13.38,4.71l3.48-1.27c-.18-.15-4.61-3.65-15.24-5.54-13.88-2.48-31.22-1.13-51.55,4l-.2,0-.17.07s-4.38,1.69-13.73,2.27c-8.71.54-23.61.22-45.2-4.39-26.31-5.61-32.35-4.47-38.56-2.09-2.62,1-4.87,1.86-11.34,1.49l-.44,2.26c8,.47,11.31-.79,14.19-1.89,4.15-1.59,8.44-3.23,34.61,2.35C443.21,691.26,456.43,692.38,466.25,692.38Z"/><path class="cls-4" d="M552.91,689.67s-16.36-13.21-64.17-1.14c0,0-17.89,7.22-60.95-2s-29.64.61-49.35-.53"/><path d="M485.76,706c14.28,0,21.4-2.37,22.71-2.86,23.77-6,39.21-5.43,48-3.92,9.4,1.63,13.35,4.68,13.39,4.71l3.47-1.27c-.18-.15-4.61-3.65-15.24-5.55-13.88-2.47-31.22-1.12-51.55,4l-.19,0-.18.07s-4.38,1.69-13.73,2.27c-8.7.54-23.61.22-45.2-4.39-26.31-5.61-32.35-4.47-38.56-2.09-2.61,1-4.87,1.86-11.33,1.49l-.45,2.26c8,.47,11.31-.79,14.19-1.89,4.15-1.59,8.44-3.23,34.62,2.35C462.73,704.85,475.94,706,485.76,706Z"/><path class="cls-4" d="M572.42,703.27s-16.36-13.21-64.17-1.14c0,0-17.89,7.22-60.95-2s-29.64.61-49.35-.53"/><path d="M108.1,849.17c-6.46.37-8.72-.49-11.33-1.49-6.21-2.38-12.26-3.52-38.56,2.1-21.59,4.6-36.5,4.92-45.2,4.38-9.35-.58-13.7-2.25-13.74-2.27l-.17-.06-.19-.05-.5-.12v1.55c4.69,1.39,23.09,5.44,59.73-2.37,43.05-9.19,29.63.6,49.34-.54-19.71,1.14-6.29-8.65-49.34.54-36.64,7.81-55,3.76-59.73,2.37v1.06c2.92.85,9.77,2.38,21.26,2.38,9.83,0,23-1.12,40.07-4.75,26.17-5.59,30.46-3.95,34.61-2.36,2.89,1.11,6.16,2.36,14.19,1.9Z"/><path d="M38.62,864.44c43.06-9.19,29.64.6,49.35-.54-19.71,1.14-6.29-8.65-49.35.54-17.32,3.69-30.56,4.73-40.21,4.66v1.13l1.75,0c9.83,0,23-1.12,40.07-4.75,26.17-5.59,30.46-4,34.61-2.36C77.73,864.25,81,865.5,89,865l-.44-2.27c-6.46.37-8.72-.49-11.33-1.49C71,858.9,65,857.76,38.7,863.38c-18,3.83-31.3,4.69-40.29,4.56v1.16C8.06,869.17,21.3,868.13,38.62,864.44Z"/><path d="M808.83,509.07c14.27,0,21.39-2.37,22.7-2.85,23.77-6,39.22-5.44,48-3.92,9.4,1.62,13.35,4.68,13.39,4.71l3.47-1.28c-.18-.15-4.61-3.65-15.24-5.54-13.88-2.47-31.22-1.13-51.55,4l-.19,0-.17.07s-4.39,1.69-13.74,2.27c-8.7.54-23.61.22-45.2-4.38-26.31-5.62-32.35-4.48-38.56-2.1-2.61,1-4.87,1.86-11.33,1.49l-.45,2.27c8,.46,11.31-.79,14.19-1.9,4.15-1.59,8.45-3.23,34.62,2.36C785.79,508,799,509.07,808.83,509.07Z"/><path class="cls-4" d="M895.48,506.37s-16.36-13.21-64.17-1.14c0,0-17.89,7.21-60.95-2s-29.63.6-49.35-.54"/><path d="M828.34,522.67c14.27,0,21.39-2.37,22.7-2.85,23.77-6,39.22-5.44,48-3.92,9.4,1.62,13.35,4.68,13.39,4.71l3.47-1.28c-.18-.15-4.61-3.65-15.24-5.54-13.88-2.48-31.22-1.13-51.55,4l-.19.05-.17.07s-4.39,1.69-13.74,2.27c-8.7.54-23.61.22-45.2-4.39-26.31-5.61-32.35-4.47-38.56-2.09-2.61,1-4.87,1.86-11.33,1.49l-.44,2.26c8,.47,11.3-.78,14.19-1.89,4.15-1.59,8.44-3.23,34.61,2.35C805.3,521.55,818.51,522.67,828.34,522.67Z"/><path class="cls-4" d="M915,520s-16.35-13.21-64.16-1.14c0,0-17.9,7.21-61-2s-29.63.61-49.34-.53"/><path d="M1635.21,800.56c14.27,0,21.39-2.37,22.7-2.85,23.77-6,39.22-5.44,48-3.92,9.4,1.62,13.35,4.67,13.39,4.7l3.47-1.27c-.18-.15-4.61-3.65-15.24-5.54-13.88-2.48-31.22-1.13-51.55,4l-.19.05-.17.07s-4.39,1.69-13.74,2.27c-8.7.54-23.61.22-45.2-4.39-26.31-5.61-32.35-4.47-38.56-2.09-2.61,1-4.87,1.86-11.33,1.49l-.45,2.26c8,.47,11.31-.79,14.2-1.89,4.15-1.59,8.44-3.23,34.61,2.35C1612.17,799.44,1625.38,800.56,1635.21,800.56Z"/><path class="cls-4" d="M1721.86,797.85s-16.35-13.21-64.17-1.13c0,0-17.89,7.21-61-2s-29.63.61-49.34-.53"/><path d="M1654.72,814.16c14.27,0,21.39-2.37,22.7-2.86,23.77-6,39.22-5.43,48-3.92,9.4,1.63,13.35,4.68,13.39,4.71l3.47-1.27c-.18-.15-4.61-3.65-15.24-5.55-13.88-2.47-31.22-1.12-51.55,4l-.19.05-.17.07s-4.39,1.69-13.74,2.27c-8.7.54-23.61.22-45.2-4.39-26.3-5.61-32.35-4.47-38.56-2.09-2.61,1-4.87,1.86-11.33,1.49l-.44,2.26c8,.47,11.3-.79,14.19-1.89,4.15-1.59,8.44-3.23,34.61,2.35C1631.68,813,1644.89,814.16,1654.72,814.16Z"/><path class="cls-4" d="M1741.37,811.45s-16.35-13.21-64.16-1.14c0,0-17.9,7.22-61-2s-29.63.61-49.34-.53"/></g></g><g id="trae_i_farver"><g id="trae13"><path class="cls-5" d="M1701.3,1058.8c.06-.28.12-.55.16-.77C1701.42,1058.28,1701.35,1058.55,1701.3,1058.8Z"/><path class="cls-5" d="M1743.07,1079.93c0,.19,0,.36-.07.54h-7.21c-.06-.35-.1-.68-.15-1a3.47,3.47,0,0,0-.71-.1c-.07.4-.15.76-.22,1.1H1732c0-.27-.11-.51-.16-.77a7.91,7.91,0,0,0-.89.36c0,.14,0,.27-.08.41h-3.29c0-.6-.11-1.17-.14-1.67-.8-.93-1.57-1.69-1.57-1.69.07,1.27.14,2.38.23,3.36h-33.87c4.48-8,7.82-15.5,9-21.67-.62,2.74-2.44,8.26-7,8.26-6.11,0-13.43-2.44-12.22-4.88s24.42-40.3,23.21-42.74-6.11,8.54-8.55,6.1-3.67-9.76-1.23-11,9.78-9.76,8.55-11-4.88-2.44-2.44-3.66,12.22-29.3,11-31.75-3.67,1.22-2.44-1.22c1-1.93,8-14.54,11.55-24a1.93,1.93,0,0,1,3.67.17c2.09,7.51,5.56,18.94,8,21.35,3.66,3.66-2.44,1.22-2.44,1.22s8.54,35.41,12.21,36.63c0,0,0,2.45-4.88,0s7.42,11.63,11.65,15c0,0-9.21,9.46-10.44,7,1,2.15,15,30.79,19.54,34.18,4.89,3.67-6.1,4.88-6.1,4.88s2.8,7.08,6.93,17.08h-15.33Z"/><path d="M1744.84,1077.2s-.87,1.26-1.77,2.73c0,.18,0,.35-.07.54h1.47C1744.59,1079.47,1744.71,1078.39,1744.84,1077.2Z"/><path d="M1731.88,1079.7a7.22,7.22,0,0,0-.89.36c0,.15,0,.27-.08.41H1732C1732,1080.21,1731.93,1080,1731.88,1079.7Z"/><path d="M1735.64,1079.47a5.52,5.52,0,0,0-.71-.1c-.07.4-.15.76-.22,1.1h1.08C1735.73,1080.12,1735.68,1079.79,1735.64,1079.47Z"/><path d="M1727.48,1078.8c-.79-.93-1.56-1.68-1.56-1.68.06,1.26.13,2.37.22,3.35h1.48C1727.57,1079.87,1727.52,1079.3,1727.48,1078.8Z"/><path d="M1696.16,1058a3.14,3.14,0,0,0-.15-.49c-4.4,5.11-2.38.66-1.13-1.81a3.19,3.19,0,0,0-.33-.31c-3.39,3.3-2.57.89-1.73-1a5.29,5.29,0,0,0-.6-.13c-5.61,5.58-2.75.35-1.38-1.95-.08-.78-.21-1.46-.21-1.46-3.52,5.61-2.78,6.18-2.24,6.6s1.21.41,2.76-.91a1.1,1.1,0,0,0,.49,1.15,1.19,1.19,0,0,0,1.19.14c-.84,2.15-.38,2.47,0,2.74a1,1,0,0,0,.74.2c-.95,2.15-.51,2.47-.1,2.78l.07,0c.82.57,1.62.43,7-5.77,0,0-.91.35-1.93.79C1691.54,1066.66,1694.19,1061.46,1696.16,1058Z"/><path d="M1751.22,1065.31l.06,0c.38-.28.8-.59-.09-2.59a1,1,0,0,0,.69-.19c.39-.25.83-.55,0-2.56a1.11,1.11,0,0,0,1.11-.13,1,1,0,0,0,.46-1.08c1.45,1.24,2,1.25,2.58.86s1.2-.94-2.09-6.17c0,0-.12.63-.2,1.36,1.28,2.15,4,7-1.29,1.82a3.06,3.06,0,0,0-.56.13c.78,1.71,1.55,4-1.62.88-.11.09-.21.19-.31.29,1.17,2.31,3.06,6.47-1,1.7a4,4,0,0,0-.15.45c1.85,3.21,4.32,8.08-2.3.62-1-.42-1.8-.74-1.8-.74C1749.7,1065.7,1750.45,1065.84,1751.22,1065.31Z"/><path d="M1725.74,1000.39s-.27.75-.53,1.62c1.23,8.63-.62,4.23-1.71,1.18a3.2,3.2,0,0,0-.39-.16c.86,5.44-.84,1.83-1.72-.26l-.37.05c.27,3.86-.81,2.07-1.5.57a3.68,3.68,0,0,0-.41.31c.51,6.44-1.23,1.9-1.94-.17-.53-.36-1-.64-1-.64,1.63,5.15,2.38,5,2.93,4.88s.89-.53.89-2.2a.9.9,0,0,0,1,.3,1,1,0,0,0,.71-.67c.9,1.67,1.34,1.55,1.73,1.43a.81.81,0,0,0,.51-.35c.84,1.72,1.28,1.62,1.68,1.52l.07,0C1726.43,1007.58,1726.77,1007,1725.74,1000.39Z"/><path d="M1705.83,1001.34l-.08-.18c-1.51,2.11-.89.34-.49-.65l-.14-.11c-1.19,1.38-1,.43-.7-.31l-.23,0c-2,2.33-1,.23-.6-.7a5,5,0,0,0-.13-.55c-1.16,2.27-.85,2.47-.63,2.61s.48.12,1-.44a.4.4,0,0,0,.22.42.46.46,0,0,0,.47,0c-.26.86-.07,1,.1,1.05a.38.38,0,0,0,.29,0c-.29.86-.11,1,.06,1.07l0,0c.33.19.63.11,2.48-2.45l-.72.36C1704.35,1004.82,1705.19,1002.73,1705.83,1001.34Z"/><path d="M1737.24,1001.14c.21-.17.27-.41-.06-1.12a.47.47,0,0,0,.65-.5c.71.54.88.4,1,.27a.39.39,0,0,0,.15-.25c.7.57.87.43,1,.31l0,0c.29-.24.32-.56-1.44-3.18,0,0,0,.38.1.8,2.24,3.45.58,1.93-.5.85H1738c1.44,2.15,0,1-.79.23l-.15.09c.88,1.6.07,1-.53.55a1,1,0,0,0-.11.21c1.5,2.65-.15,1.05-.86.31-.3-.05-.57-.07-.57-.07C1736.74,1001.51,1737,1001.29,1737.24,1001.14Z"/><path d="M1728.94,966.14c.2-.19.23-.44-.17-1.11a.41.41,0,0,0,.46-.11.45.45,0,0,0,.13-.45c.76.45.91.29,1,.15a.36.36,0,0,0,.12-.27c.76.49.91.35,1,.21l0,0c.26-.27.26-.58-1.78-3,0,0,.08.37.19.78,2.6,3.18.78,1.86-.41.9l-.19,0c1.68,2,.11.94-.76.32l-.14.11c1.06,1.49.19,1-.46.6,0,.06-.06.14-.09.22,1.78,2.47,0,1.06-.82.41-.3,0-.57,0-.57,0C1728.49,966.56,1728.75,966.32,1728.94,966.14Z"/><path d="M1716.5,966.6c-2.66,3.13-1.68,1.1-1-.24l-.06-.18c-1.66,2-.91.27-.45-.69l-.13-.12c-1.28,1.3-1,.37-.68-.35l-.23,0c-2.11,2.19-1,.16-.55-.74,0-.3-.09-.56-.09-.56-1.31,2.19-1,2.4-.81,2.56s.47.15,1.06-.38a.4.4,0,0,0,.2.44.44.44,0,0,0,.46.05c-.31.83-.13.95,0,1a.38.38,0,0,0,.29.07c-.35.84-.17,1,0,1.07l0,0c.32.21.63.15,2.64-2.28C1717.24,966.28,1716.89,966.42,1716.5,966.6Z"/><path d="M1722.44,955.08c.19,0,.36,0,.62-.56a.33.33,0,0,0,.26.25.35.35,0,0,0,.34-.1c0,.67.18.7.32.72a.33.33,0,0,0,.22,0c0,.68.16.71.3.74h0c.28,0,.48-.08,1.18-2.34l-.42.43c-1,2.94-.85,1.25-.73.11l-.1-.11c-.57,1.86-.55.45-.5-.35l-.13,0c-.51,1.27-.58.53-.57,0l-.17,0c-.84,2.13-.69.42-.59-.35a3.42,3.42,0,0,0-.23-.36C1722,955,1722.24,955,1722.44,955.08Z"/><path d="M1739.62,1021.75c.44-.36.56-.88-.19-2.37a.91.91,0,0,0,1-.16,1,1,0,0,0,.33-.92c1.55,1.08,1.89.78,2.19.5a.82.82,0,0,0,.3-.55c1.52,1.17,1.87.88,2.19.61l0,0c.61-.54.65-1.2-3.23-6.65,0,0,.09.79.25,1.68,5,7.17,1.34,4.06-1,1.83l-.41,0c3.2,4.49.06,2-1.66.55l-.31.2c2,3.33.21,2.21-1.08,1.19a4.73,4.73,0,0,0-.23.45c3.34,5.53-.25,2.25-1.81.72-.63-.09-1.2-.12-1.2-.12C1738.58,1022.57,1739.18,1022.1,1739.62,1021.75Z"/><path d="M1704.56,1017c-1.41,1.38-4.74,5-1.72,0-.07-.14-.13-.28-.21-.41-1.16.93-2.75,1.94-1-1.07a1.92,1.92,0,0,0-.28-.18c-1.55,1.33-4.38,3.55-1.49-.49a2.34,2.34,0,0,0-.38,0c-2.12,2-5.38,4.83-.9-1.65.14-.8.16-.88.16-.88-3.5,4.92-3.4,4.88-2.85,5.37l0,0c.29.24.6.5,2-.55a.76.76,0,0,0,.27.49c.27.25.57.53,2-.45a.86.86,0,0,0,.31.83.81.81,0,0,0,.91.15c-.68,1.34-.58,1.81-.17,2.14s.94.17,4.34-3.34A3.43,3.43,0,0,0,1704.56,1017Z"/></g><g id="trae12"><path class="cls-6" d="M1416.9,1050.38c1.24,2.4,10.43-7,10.43-7-4.23-3.34-16.54-17.4-11.66-15s4.89,0,4.89,0c-3.66-1.23-12.21-36.64-12.21-36.64s6.11,2.44,2.44-1.22c-2.41-2.41-5.88-13.84-8-21.35a1.94,1.94,0,0,0-3.67-.17c-3.53,9.42-10.6,22-11.57,24-1.21,2.44,1.23-1.23,2.46,1.21s-8.55,30.53-11,31.76,1.21,2.44,2.44,3.65-6.11,9.78-8.55,11-1.23,8.55,1.21,11,7.34-8.53,8.55-6.09c.91,1.81-11.63,23.11-18.65,35h2.06a36,36,0,0,1,2-3.51s.13.68.2,1.46c-.33.58-.75,1.32-1.13,2h2.42l.1-.1a2.73,2.73,0,0,1,.41.1h61.2c.06-.58.15-1,.15-1l.63,1h1.06C1427.23,1071.59,1417.77,1052.23,1416.9,1050.38Zm-9-59.71c-.14.14-.29.29-1.06-.15a.41.41,0,0,1-.11.43.41.41,0,0,1-.47.12c.4.67.37.92.18,1.11s-.46.43-2.38-1.25c0,0,.27,0,.57,0,.8.65,2.61,2.06.83-.41a2.09,2.09,0,0,1,.08-.23c.64.44,1.52.9.46-.59l.14-.11c.86.63,2.44,1.66.76-.32l.2,0c1.18,1,3,2.28.39-.91-.1-.4-.18-.77-.18-.77,2,2.4,2,2.72,1.77,3l0,0c-.14.14-.29.29-1-.2A.45.45,0,0,1,1407.87,990.67Z"/><path d="M1368.3,1078.43c-.08-.79-.21-1.46-.21-1.46a35.15,35.15,0,0,0-2,3.5h1.06C1367.53,1079.75,1368,1079,1368.3,1078.43Z"/><path d="M1431.44,1079.44s-.09.45-.16,1h.79Z"/><path d="M1393.61,1028.93c1.63,5.16,2.38,5,2.93,4.88s.89-.53.89-2.2a.91.91,0,0,0,1,.31,1,1,0,0,0,.71-.67c.9,1.66,1.34,1.54,1.73,1.42a.81.81,0,0,0,.51-.35c.84,1.72,1.28,1.62,1.68,1.53l.07,0c.78-.21,1.12-.79.09-7.4,0,0-.27.76-.53,1.62,1.23,8.63-.62,4.23-1.71,1.19a2.39,2.39,0,0,0-.38-.16c.85,5.43-.85,1.82-1.73-.26a2.33,2.33,0,0,0-.37,0c.27,3.86-.81,2.07-1.5.58a2.78,2.78,0,0,0-.4.3c.51,6.44-1.23,1.9-1.95-.17C1394.1,1029.21,1393.61,1028.93,1393.61,1028.93Z"/><path d="M1382,1027.45c-.25.86-.07,1,.11,1.06a.39.39,0,0,0,.28,0c-.29.85-.1,1,.06,1.07h0c.33.19.64.11,2.48-2.45,0,0-.34.16-.71.37-2.45,3.3-1.61,1.21-1-.17a.75.75,0,0,0-.08-.18c-1.51,2.11-.89.33-.49-.66l-.14-.11c-1.19,1.39-.95.43-.69-.3a1,1,0,0,0-.24,0c-2,2.33-1,.23-.6-.7a4.86,4.86,0,0,0-.13-.56c-1.16,2.27-.85,2.47-.63,2.61s.48.12,1-.44a.4.4,0,0,0,.22.42A.44.44,0,0,0,1382,1027.45Z"/><path d="M1414.7,1027.18c.21-.17.27-.41-.06-1.12a.44.44,0,0,0,.48-.06.45.45,0,0,0,.17-.43c.71.53.88.39,1,.26a.39.39,0,0,0,.15-.25c.7.57.87.44,1,.32l0,0c.29-.25.32-.56-1.44-3.18,0,0,0,.37.1.79,2.24,3.45.58,1.94-.5.85h-.19c1.44,2.15,0,1-.79.23l-.15.1c.88,1.59.07,1-.53.54a1.39,1.39,0,0,0-.11.21c1.5,2.65-.15,1.06-.86.32l-.57-.08C1414.2,1027.55,1414.49,1027.34,1414.7,1027.18Z"/><path d="M1406.41,992.18c.19-.19.22-.43-.18-1.1a.43.43,0,0,0,.46-.12.45.45,0,0,0,.13-.45c.77.46.91.3,1,.16a.37.37,0,0,0,.12-.27c.76.49.91.34,1,.2l0,0c.26-.28.26-.59-1.78-3,0,0,.08.37.19.78,2.6,3.18.78,1.85-.41.89l-.19,0c1.68,2,.11,1-.76.32l-.14.11c1.06,1.49.19,1-.46.6l-.09.22c1.78,2.47,0,1.07-.82.41-.3,0-.57,0-.57,0C1406,992.61,1406.21,992.36,1406.41,992.18Z"/><path d="M1391.07,991.91a.43.43,0,0,0,.2.44.47.47,0,0,0,.46,0c-.31.84-.13,1,0,1.06a.47.47,0,0,0,.28.07c-.35.83-.17,1,0,1.07h0c.32.22.63.15,2.64-2.28,0,0-.35.14-.74.32-2.66,3.14-1.68,1.11-1-.23l-.06-.19c-1.65,2-.91.28-.45-.69l-.13-.11c-1.28,1.3-1,.36-.68-.35l-.23-.05c-2.11,2.2-1,.16-.55-.74a5,5,0,0,0-.09-.56c-1.31,2.19-1,2.4-.81,2.56S1390.48,992.43,1391.07,991.91Z"/><path d="M1399.9,981.13c.2,0,.36,0,.62-.56.08.2.19.23.27.24a.33.33,0,0,0,.33-.1c0,.67.18.7.33.72a.26.26,0,0,0,.21,0c0,.68.16.71.3.75h0c.29.06.48-.07,1.18-2.34l-.42.44c-1,2.93-.85,1.25-.73.11l-.09-.11c-.58,1.86-.56.45-.51-.35l-.13,0c-.51,1.27-.57.54-.56-.05l-.18,0c-.84,2.12-.69.41-.59-.36a3.42,3.42,0,0,0-.23-.36C1399.44,981,1399.71,981.08,1399.9,981.13Z"/><path d="M1417.08,1047.79c.45-.36.56-.87-.19-2.36a.93.93,0,0,0,1-.17,1,1,0,0,0,.34-.92c1.54,1.09,1.88.78,2.18.5a.8.8,0,0,0,.3-.54c1.52,1.16,1.87.87,2.19.61l0-.05c.61-.53.65-1.2-3.23-6.65,0,0,.1.79.25,1.68,5,7.17,1.34,4.06-1,1.83a2.77,2.77,0,0,0-.42,0c3.2,4.48.07,2-1.65.54a2.2,2.2,0,0,0-.32.21c2,3.32.21,2.21-1.08,1.18a3.25,3.25,0,0,0-.22.46c3.34,5.52-.25,2.24-1.82.72-.63-.09-1.2-.12-1.2-.12C1416,1048.62,1416.64,1048.14,1417.08,1047.79Z"/><path d="M1382,1043.05c-1.41,1.38-4.74,5-1.72,0a2.25,2.25,0,0,0-.21-.41c-1.16.92-2.75,1.93-1-1.07a2,2,0,0,0-.28-.19c-1.55,1.33-4.38,3.56-1.49-.49l-.38,0c-2.12,2-5.38,4.82-.9-1.65.14-.81.16-.89.16-.89-3.5,4.92-3.4,4.89-2.85,5.37a.1.1,0,0,0,.05,0c.28.24.59.5,2-.55a.73.73,0,0,0,.27.49c.27.26.58.53,2-.45a.86.86,0,0,0,.31.83.81.81,0,0,0,.91.15c-.68,1.35-.58,1.81-.17,2.14s.94.17,4.34-3.33A3.43,3.43,0,0,0,1382,1043.05Z"/></g><g id="trae11"><path class="cls-5" d="M1329.16,1071.41s1.39,3.51,3.65,9.06h-60.07a58.83,58.83,0,0,0,5-14.2c-.49,2.46-2.25,8.81-7.16,8.81-6.11,0-13.43-2.45-12.22-4.89s24.42-40.3,23.21-42.74-6.11,8.55-8.55,6.11-3.67-9.78-1.23-11,9.78-9.78,8.55-11-4.88-2.44-2.44-3.67,12.22-29.3,11-31.74-3.66,1.22-2.44-1.23c1-1.92,8-14.53,11.55-24a1.93,1.93,0,0,1,3.67.16c2.09,7.52,5.56,18.94,8,21.36,3.66,3.67-2.44,1.22-2.44,1.22s8.55,35.42,12.21,36.63c0,0,0,2.44-4.88,0s7.43,11.63,11.65,15c0,0-9.21,9.44-10.43,7,1,2.16,15,30.8,19.53,34.2C1340.15,1070.19,1329.16,1071.41,1329.16,1071.41Z"/><path d="M1272.45,1066a3.37,3.37,0,0,0-.15-.48c-4.4,5.1-2.38.66-1.13-1.82a3.26,3.26,0,0,0-.33-.31c-3.39,3.31-2.57.89-1.73-.94a4.81,4.81,0,0,0-.6-.14c-5.6,5.58-2.74.36-1.38-1.94-.08-.79-.21-1.46-.21-1.46-3.52,5.6-2.78,6.18-2.24,6.6s1.21.41,2.76-.91a1.11,1.11,0,0,0,.49,1.15,1.17,1.17,0,0,0,1.19.13c-.84,2.16-.38,2.47,0,2.75a1,1,0,0,0,.74.19c-1,2.15-.5,2.48-.09,2.78l.06,0c.82.56,1.62.42,7-5.77,0,0-.91.34-1.92.78C1267.83,1074.67,1270.48,1069.47,1272.45,1066Z"/><path d="M1329.32,1067.8a1,1,0,0,0,.46-1.07c1.45,1.23,2.06,1.25,2.58.85s1.2-.93-2.09-6.17c0,0-.12.63-.19,1.36,1.27,2.16,3.94,7-1.3,1.82a4.59,4.59,0,0,0-.56.13c.78,1.71,1.55,4-1.62.88l-.31.29c1.17,2.31,3.06,6.47-1,1.7,0,.14-.1.29-.14.45,1.84,3.22,4.32,8.08-2.31.62-.94-.41-1.8-.73-1.8-.73,5,5.79,5.76,5.92,6.52,5.39l.06,0c.38-.28.8-.58-.08-2.59a.94.94,0,0,0,.68-.19c.39-.25.83-.55,0-2.56A1.09,1.09,0,0,0,1329.32,1067.8Z"/><path d="M1301.5,1010c1.23,8.63-.61,4.23-1.71,1.19a4.07,4.07,0,0,0-.38-.17c.85,5.44-.85,1.83-1.73-.25a2.33,2.33,0,0,0-.37,0c.27,3.86-.8,2.07-1.5.58a3.47,3.47,0,0,0-.4.3c.51,6.44-1.23,1.9-2-.17-.53-.36-1-.64-1-.64,1.63,5.16,2.38,5,2.93,4.88s.89-.53.89-2.2a.91.91,0,0,0,1,.31,1,1,0,0,0,.71-.67c.9,1.66,1.34,1.54,1.73,1.42a.81.81,0,0,0,.51-.35c.84,1.72,1.28,1.62,1.68,1.52h.07c.79-.21,1.12-.79.09-7.4C1302,1008.4,1301.76,1009.16,1301.5,1010Z"/><path d="M1282.12,1009.36a.75.75,0,0,0-.08-.18c-1.51,2.11-.89.33-.49-.66l-.14-.11c-1.19,1.39-1,.43-.69-.3l-.24,0c-2,2.33-1,.23-.6-.7a4.86,4.86,0,0,0-.13-.56c-1.15,2.27-.85,2.47-.63,2.61s.48.12,1-.44a.47.47,0,0,0,.69.43c-.25.86-.06,1,.11,1.06a.39.39,0,0,0,.28,0c-.28.85-.1,1,.06,1.07h0c.33.19.64.11,2.48-2.45,0,0-.34.16-.71.37C1280.64,1012.83,1281.48,1010.74,1282.12,1009.36Z"/><path d="M1313.53,1009.15c.21-.17.27-.41-.06-1.12a.43.43,0,0,0,.48-.06.45.45,0,0,0,.17-.43c.71.53.88.39,1,.26a.39.39,0,0,0,.15-.25c.7.57.87.44,1,.32l0,0c.29-.25.32-.56-1.43-3.18,0,0,0,.37.09.79,2.24,3.45.58,1.94-.5.85h-.19c1.45,2.15,0,.95-.79.23l-.15.1c.88,1.59.07,1-.53.54,0,.06-.07.14-.11.21,1.5,2.65-.15,1.06-.86.32l-.57-.08C1313,1009.52,1313.32,1009.31,1313.53,1009.15Z"/><path d="M1307.86,972.57l0,0c.26-.28.26-.59-1.77-3,0,0,.07.37.18.78,2.6,3.18.78,1.85-.4.89l-.2,0c1.68,2,.11,1-.76.32l-.13.11c1,1.49.18,1-.47.6l-.09.22c1.79,2.47,0,1.07-.82.41-.3,0-.57,0-.57,0,1.92,1.68,2.18,1.43,2.38,1.25s.23-.43-.18-1.1a.46.46,0,0,0,.47-.12.47.47,0,0,0,.12-.45c.77.46.92.3,1,.15a.34.34,0,0,0,.12-.26C1307.57,972.86,1307.73,972.71,1307.86,972.57Z"/><path d="M1292.8,974.61c-2.67,3.14-1.69,1.11-1-.23l-.06-.19c-1.65,2-.91.28-.45-.69l-.13-.11c-1.28,1.3-1,.36-.67-.35l-.24,0c-2.11,2.19-1,.16-.55-.74a5,5,0,0,0-.09-.56c-1.31,2.19-1,2.4-.81,2.56s.47.15,1.06-.37a.43.43,0,0,0,.2.44.47.47,0,0,0,.46,0c-.31.84-.13.95,0,1.06a.47.47,0,0,0,.28.07c-.34.83-.17,1,0,1.07h0c.31.21.62.15,2.63-2.28C1293.53,974.29,1293.18,974.43,1292.8,974.61Z"/><path d="M1298.73,963.1c.2,0,.36,0,.62-.56.08.2.19.23.27.24a.33.33,0,0,0,.33-.1c0,.67.18.7.33.72a.25.25,0,0,0,.21,0c0,.68.16.71.3.75h0c.28.06.47-.08,1.17-2.34l-.42.44c-1,2.93-.85,1.25-.73.11l-.09-.11c-.58,1.86-.56.45-.51-.35l-.13,0c-.51,1.27-.57.54-.56-.05l-.18,0c-.84,2.12-.68.41-.59-.36a3.42,3.42,0,0,0-.23-.36C1298.27,963,1298.54,963.05,1298.73,963.1Z"/><path d="M1315.72,1027.4a.93.93,0,0,0,1-.17,1,1,0,0,0,.34-.92c1.54,1.09,1.88.78,2.18.5a.8.8,0,0,0,.3-.54c1.52,1.16,1.87.87,2.19.61l0-.05c.61-.53.65-1.2-3.23-6.65,0,0,.1.79.25,1.68,5,7.17,1.34,4.06-1,1.83a2.77,2.77,0,0,0-.42,0c3.2,4.48.07,2-1.65.54a2.2,2.2,0,0,0-.32.21c2,3.32.21,2.2-1.08,1.18a3.25,3.25,0,0,0-.22.46c3.34,5.52-.25,2.24-1.82.72-.63-.09-1.2-.12-1.2-.12,3.77,3.88,4.37,3.4,4.81,3S1316.47,1028.89,1315.72,1027.4Z"/><path d="M1280.85,1025c-1.41,1.38-4.74,5-1.72,0a2.25,2.25,0,0,0-.21-.41c-1.16.92-2.75,1.93-1-1.07a2.9,2.9,0,0,0-.29-.19c-1.55,1.33-4.38,3.56-1.49-.49l-.38,0c-2.11,2-5.38,4.82-.9-1.65.14-.81.16-.89.16-.89-3.5,4.92-3.4,4.89-2.85,5.37a.1.1,0,0,0,0,0c.28.24.59.5,2-.55a.73.73,0,0,0,.27.49c.27.26.58.53,2-.45a.88.88,0,0,0,.31.83.81.81,0,0,0,.91.15c-.68,1.35-.58,1.81-.17,2.14s.94.17,4.34-3.33A3.43,3.43,0,0,0,1280.85,1025Z"/></g><g id="trae10"><path class="cls-7" d="M1200.85,1080.47c3.28-8.66,6.62-19.68,5.87-21.17-1.21-2.44-3.65,1.23-2.44-1.21,1-1.93,8-14.55,11.57-24a1.93,1.93,0,0,1,3.66.17c2.08,7.52,5.56,18.94,8,21.36,3.66,3.66-2.45,1.22-2.45,1.22s3.16,13.07,6.45,23.61Z"/><path d="M1225.73,1055.71l0,0c.27-.28.26-.59-1.77-3,0,0,.07.36.18.78,2.61,3.18.79,1.85-.4.89l-.19,0c1.67,2,.1.95-.76.32l-.14.11c1,1.49.18,1-.47.6a1.43,1.43,0,0,0-.08.22c1.78,2.47,0,1.07-.83.41-.3,0-.57,0-.57,0,1.92,1.68,2.19,1.43,2.38,1.25s.23-.43-.18-1.11a.43.43,0,0,0,.47-.11.47.47,0,0,0,.12-.45c.77.45.92.3,1,.15a.42.42,0,0,0,.12-.26C1225.44,1056,1225.59,1055.85,1225.73,1055.71Z"/><path d="M1209.7,1057.52a1.06,1.06,0,0,0-.06-.19c-1.65,2-.91.27-.45-.69l-.13-.12c-1.28,1.31-1,.37-.67-.34l-.24,0c-2.11,2.19-1.05.16-.54-.74,0-.3-.1-.56-.1-.56-1.3,2.19-1,2.4-.8,2.56s.46.15,1-.37a.43.43,0,0,0,.2.44.47.47,0,0,0,.46,0c-.31.83-.12,1,0,1a.36.36,0,0,0,.28.07c-.34.84-.17,1,0,1.07l0,0c.32.21.63.15,2.63-2.28l-.73.32C1208,1060.88,1209,1058.86,1209.7,1057.52Z"/><path d="M1219.43,1045.35c-.94,2.94-.85,1.25-.72.12l-.1-.12c-.57,1.87-.55.46-.51-.34l-.12,0c-.52,1.27-.58.53-.57,0l-.18,0c-.83,2.12-.68.41-.59-.36-.11-.2-.22-.36-.22-.36-.28,1.89,0,2,.17,2s.37,0,.63-.57c.07.21.18.24.26.25a.33.33,0,0,0,.33-.1c0,.67.19.7.33.72a.28.28,0,0,0,.22,0c0,.68.15.71.29.74h0c.28,0,.48-.08,1.17-2.34Z"/></g><g id="trae9"><path class="cls-5" d="M829.33,1073.41s1,2.68,2.83,7.06H773.84a55.22,55.22,0,0,0,4-11.94c-.55,2.61-2.35,8.55-7.11,8.55-6.11,0-13.43-2.44-12.21-4.88s24.43-40.3,23.2-42.75-6.11,8.55-8.55,6.11-3.66-9.77-1.21-11,9.76-9.77,8.54-11-4.89-2.44-2.45-3.66,12.22-29.31,11-31.75-3.65,1.22-2.44-1.22c1-1.93,8-14.54,11.57-24a1.92,1.92,0,0,1,3.65.16c2.09,7.51,5.57,18.94,8,21.36,3.66,3.66-2.44,1.21-2.44,1.21s8.55,35.42,12.2,36.64c0,0,0,2.44-4.88,0s7.43,11.62,11.65,15c0,0-9.21,9.45-10.42,7,1,2.15,15,30.79,19.53,34.19C840.32,1072.2,829.33,1073.41,829.33,1073.41Z"/><path d="M772.62,1068q-.07-.26-.15-.48c-4.41,5.1-2.38.66-1.13-1.81-.11-.11-.22-.22-.33-.31-3.39,3.3-2.57.88-1.73-1a5,5,0,0,0-.61-.13c-5.6,5.57-2.74.35-1.38-1.95-.08-.78-.2-1.46-.2-1.46-3.52,5.6-2.78,6.18-2.24,6.6s1.2.41,2.76-.91a1.1,1.1,0,0,0,.49,1.15,1.16,1.16,0,0,0,1.19.13c-.85,2.16-.38,2.48,0,2.75a1.07,1.07,0,0,0,.73.2c-.94,2.14-.5,2.47-.09,2.77l.07,0c.81.57,1.62.43,7-5.77,0,0-.92.34-1.93.79C768,1076.68,770.64,1071.47,772.62,1068Z"/><path d="M829.49,1069.81a1.06,1.06,0,0,0,.46-1.08c1.45,1.24,2,1.25,2.58.85s1.19-.93-2.1-6.17c0,0-.12.64-.19,1.37,1.27,2.15,4,7-1.29,1.82a4.78,4.78,0,0,0-.57.12c.79,1.71,1.56,4-1.61.89a1.7,1.7,0,0,0-.31.29c1.17,2.31,3.06,6.46-1.06,1.69,0,.14-.1.29-.14.45,1.85,3.22,4.32,8.08-2.3.62-1-.41-1.8-.73-1.8-.73,5,5.79,5.75,5.92,6.51,5.39l.07,0c.38-.28.79-.59-.09-2.6a1,1,0,0,0,.69-.18c.39-.26.82-.55,0-2.57A1.11,1.11,0,0,0,829.49,1069.81Z"/><path d="M801.67,1012c1.22,8.63-.62,4.23-1.72,1.18a3.89,3.89,0,0,0-.38-.16c.85,5.44-.85,1.83-1.72-.26l-.37,0c.26,3.86-.81,2.07-1.51.58a3.6,3.6,0,0,0-.4.31c.51,6.43-1.23,1.89-1.94-.17-.53-.37-1-.65-1-.65,1.63,5.16,2.38,5,2.93,4.89s.89-.54.89-2.2a.9.9,0,0,0,1,.3,1,1,0,0,0,.72-.67c.89,1.66,1.34,1.54,1.73,1.43a.86.86,0,0,0,.51-.36c.84,1.73,1.28,1.62,1.68,1.53l.07,0c.78-.21,1.12-.78.09-7.39C802.2,1010.41,801.93,1011.16,801.67,1012Z"/><path d="M782.28,1011.36a1.34,1.34,0,0,0-.07-.18c-1.52,2.11-.89.33-.49-.66l-.14-.11c-1.19,1.39-1,.43-.7-.3l-.23,0c-2,2.33-1,.23-.6-.7-.06-.3-.13-.55-.13-.55-1.16,2.27-.86,2.46-.63,2.61s.47.11,1-.45a.44.44,0,0,0,.23.43.47.47,0,0,0,.46,0c-.25.85-.06,1,.11,1.05a.42.42,0,0,0,.29,0c-.29.86-.11,1,.06,1.07l0,0c.33.19.63.1,2.47-2.46l-.71.37C780.8,1014.84,781.64,1012.75,782.28,1011.36Z"/><path d="M813.69,1011.15c.22-.16.28-.4-.05-1.12a.4.4,0,0,0,.47-.06.45.45,0,0,0,.17-.43c.72.53.88.39,1,.26a.38.38,0,0,0,.15-.25c.7.57.86.44,1,.32l0,0c.3-.25.33-.56-1.43-3.18,0,0,0,.38.1.8,2.24,3.44.57,1.93-.5.85a1.33,1.33,0,0,0-.2,0c1.45,2.16,0,.95-.79.24a.67.67,0,0,0-.14.09c.88,1.59.06,1-.53.54a2.12,2.12,0,0,0-.11.21c1.5,2.65-.15,1.06-.87.32-.3-.05-.56-.07-.56-.07C813.19,1011.53,813.48,1011.31,813.69,1011.15Z"/><path d="M808,974.57l0,0c.27-.27.26-.59-1.77-3,0,0,.08.37.18.78,2.61,3.18.79,1.86-.4.9a.58.58,0,0,0-.19,0c1.67,2,.1.94-.76.31l-.14.11c1,1.49.18,1-.46.6a1,1,0,0,0-.09.22c1.78,2.47,0,1.07-.83.41-.3,0-.56,0-.56,0,1.91,1.68,2.18,1.43,2.37,1.25s.23-.43-.18-1.1a.47.47,0,0,0,.59-.56c.77.45.92.29,1.05.15a.4.4,0,0,0,.12-.27C807.74,974.86,807.89,974.71,808,974.57Z"/><path d="M793,976.61c-2.66,3.14-1.69,1.11-1-.23a.75.75,0,0,0-.07-.18c-1.65,2-.91.27-.45-.69a.49.49,0,0,0-.13-.12c-1.27,1.3-1,.36-.67-.35l-.23,0c-2.11,2.2-1.06.16-.55-.73,0-.31-.09-.57-.09-.57-1.31,2.19-1,2.41-.81,2.57s.47.14,1-.38a.45.45,0,0,0,.2.44.47.47,0,0,0,.46,0c-.3.84-.12,1,0,1.06a.38.38,0,0,0,.29.07c-.35.83-.18,1,0,1.07l0,0c.32.21.63.15,2.64-2.28Z"/><path d="M798.89,965.1c.2,0,.37,0,.63-.56a.31.31,0,0,0,.26.25.33.33,0,0,0,.33-.11c0,.67.19.7.33.73a.34.34,0,0,0,.22,0c0,.68.15.72.3.75h0c.28.06.48-.07,1.18-2.33a5.81,5.81,0,0,0-.42.43c-1,2.93-.86,1.25-.73.11l-.1-.11c-.57,1.86-.55.45-.51-.35l-.12,0c-.52,1.26-.58.53-.57-.05a.86.86,0,0,0-.17,0c-.84,2.13-.69.41-.6-.35-.11-.2-.22-.37-.22-.37C798.44,965,798.7,965.05,798.89,965.1Z"/><path d="M815.89,1029.4a.87.87,0,0,0,1-.17,1,1,0,0,0,.34-.92c1.55,1.09,1.89.78,2.19.5a.89.89,0,0,0,.3-.54c1.52,1.17,1.86.88,2.18.61l.05,0c.61-.54.65-1.21-3.23-6.66,0,0,.1.8.26,1.69,5,7.17,1.34,4.06-1,1.82-.14,0-.28,0-.41,0,3.2,4.48.06,2-1.66.54l-.31.21c2,3.33.21,2.21-1.08,1.19a2.71,2.71,0,0,0-.23.45c3.34,5.53-.25,2.25-1.81.72-.64-.09-1.2-.12-1.2-.12,3.77,3.88,4.37,3.4,4.8,3.06S816.63,1030.89,815.89,1029.4Z"/><path d="M781,1027c-1.42,1.38-4.74,5-1.73,0-.06-.14-.13-.28-.2-.41-1.17.92-2.76,1.94-1-1.07l-.28-.19c-1.55,1.33-4.38,3.56-1.5-.49l-.37,0c-2.12,2-5.39,4.82-.91-1.65.14-.8.17-.88.17-.88-3.5,4.92-3.4,4.88-2.86,5.37l0,0c.29.24.6.5,2-.56a.8.8,0,0,0,.27.5c.27.25.58.53,2-.46a.87.87,0,0,0,.3.84.84.84,0,0,0,.91.15c-.67,1.34-.57,1.8-.17,2.13s1,.17,4.35-3.33A3.43,3.43,0,0,0,781,1027Z"/></g><g id="trae8"><path class="cls-6" d="M501.29,1080.47c13.56-17.72,29-40.52,32-55.48-.67,2.8-2.52,8-7,8-6.1,0-13.43-2.44-12.21-4.88s24.42-40.3,23.2-42.74-6.1,8.55-8.55,6.11-3.66-9.77-1.21-11,9.76-9.77,8.54-11-4.88-2.44-2.44-3.67,12.21-29.3,11-31.74-3.66,1.21-2.44-1.23c1-1.93,8-14.54,11.56-24a1.93,1.93,0,0,1,3.66.17c2.09,7.52,5.57,18.94,8,21.35,3.66,3.67-2.45,1.23-2.45,1.23s8.55,35.41,12.22,36.62c0,0,0,2.45-4.89,0s7.44,11.63,11.66,15c0,0-9.21,9.45-10.44,7,1,2.15,15,30.8,19.54,34.2,4.88,3.66-6.11,4.88-6.11,4.88s11,27.72,21.48,51.13Z"/><path d="M571.37,1047.21c-.21-.18-.42-.34-.62-.48-1.09,10.46-2.46,3-3.06-1.32a6.06,6.06,0,0,0-.71-.1c-1.39,7.25-2.5,3.42-3.05.33a6.71,6.71,0,0,0-.89.37c-2.21,12.13-3.2,2.9-3.51-1.27-.8-.93-1.57-1.68-1.57-1.68.49,10.31,1.95,10.39,3,10.45s1.91-.55,2.72-3.63a1.72,1.72,0,0,0,1.65,1A1.84,1.84,0,0,0,567,1050c.84,3.51,1.72,3.5,2.5,3.48a1.58,1.58,0,0,0,1.11-.4c.71,3.59,1.57,3.61,2.36,3.63h.13c1.55,0,2.45-.9,3.79-13.61,0,0-.87,1.26-1.77,2.73C573.16,1062.41,571.91,1053.38,571.37,1047.21Z"/><path d="M528.21,1024c0-.17-.1-.33-.15-.48-4.4,5.1-2.38.66-1.13-1.82-.1-.11-.22-.21-.33-.31-3.39,3.31-2.57.89-1.73-.94a5.27,5.27,0,0,0-.6-.14c-5.61,5.58-2.75.36-1.39-1.94-.07-.79-.2-1.46-.2-1.46-3.52,5.6-2.78,6.18-2.24,6.6s1.2.41,2.76-.91a1.11,1.11,0,0,0,.49,1.15,1.16,1.16,0,0,0,1.19.13c-.84,2.16-.38,2.47,0,2.74a1,1,0,0,0,.73.2c-.94,2.15-.5,2.48-.09,2.78l.07,0c.81.56,1.62.42,7-5.77,0,0-.91.34-1.93.78C523.59,1032.6,526.23,1027.4,528.21,1024Z"/><path d="M585.08,1025.73a1,1,0,0,0,.46-1.07c1.45,1.23,2.05,1.25,2.58.85s1.19-.93-2.1-6.17c0,0-.12.63-.19,1.36,1.27,2.16,3.95,7-1.29,1.82a4.76,4.76,0,0,0-.57.13c.79,1.71,1.56,4-1.61.88-.11.09-.21.19-.31.29,1.17,2.31,3.06,6.47-1.06,1.7,0,.14-.1.29-.14.45,1.85,3.22,4.32,8.08-2.3.62-.95-.41-1.8-.73-1.8-.73,5,5.79,5.75,5.92,6.51,5.39l.07,0c.38-.28.8-.58-.09-2.59a1,1,0,0,0,.69-.19c.39-.25.82-.55,0-2.56A1.09,1.09,0,0,0,585.08,1025.73Z"/><path d="M557.79,966.33s-.27.76-.53,1.62c1.22,8.63-.62,4.23-1.72,1.19a3.17,3.17,0,0,0-.38-.17c.85,5.44-.84,1.83-1.72-.25a2.21,2.21,0,0,0-.37,0c.26,3.86-.81,2.07-1.5.58a2.86,2.86,0,0,0-.41.3c.51,6.44-1.23,1.9-1.94-.17-.53-.36-1-.64-1-.64,1.63,5.15,2.38,5,2.93,4.88s.89-.53.89-2.2a.91.91,0,0,0,1,.31,1,1,0,0,0,.71-.67c.9,1.66,1.34,1.54,1.73,1.42a.81.81,0,0,0,.51-.35c.84,1.72,1.28,1.62,1.68,1.52h.07C558.48,973.52,558.82,972.94,557.79,966.33Z"/><path d="M537.88,967.29a1.59,1.59,0,0,0-.08-.18c-1.51,2.1-.89.33-.49-.66l-.14-.11c-1.19,1.38-1,.43-.7-.3a.85.85,0,0,0-.23,0c-2,2.33-1,.23-.6-.7-.06-.3-.13-.56-.13-.56-1.16,2.27-.86,2.47-.63,2.61s.47.12,1-.44a.47.47,0,0,0,.69.43c-.25.86-.06,1,.11,1.06a.43.43,0,0,0,.29.05c-.29.85-.11,1,.06,1.07h0c.33.19.63.11,2.48-2.45,0,0-.34.16-.72.37C536.4,970.76,537.23,968.67,537.88,967.29Z"/><path d="M569.28,967.08c.22-.17.28-.41,0-1.12a.42.42,0,0,0,.47-.06.48.48,0,0,0,.18-.43c.71.53.88.39,1,.26a.44.44,0,0,0,.15-.25c.7.57.87.44,1,.32l0,0c.3-.25.33-.56-1.43-3.18,0,0,0,.37.1.79,2.24,3.45.58,1.94-.5.85h-.2c1.45,2.15,0,1-.78.23a.56.56,0,0,0-.15.1c.88,1.59.06,1-.53.54a1.39,1.39,0,0,0-.11.21c1.5,2.65-.15,1.06-.87.32l-.56-.08C568.78,967.45,569.07,967.24,569.28,967.08Z"/><path d="M561,932.08c.2-.19.23-.43-.18-1.1a.44.44,0,0,0,.47-.12.45.45,0,0,0,.12-.45c.77.46.92.3,1.05.15a.37.37,0,0,0,.12-.26c.76.49.91.34,1,.2l0,0c.27-.28.26-.59-1.77-3,0,0,.08.36.18.78,2.61,3.18.79,1.85-.4.89l-.19,0c1.67,2,.11,1-.76.32l-.14.11c1.05,1.49.18,1-.46.6l-.09.22c1.78,2.47,0,1.07-.82.41-.31,0-.57,0-.57,0C560.54,932.51,560.8,932.26,561,932.08Z"/><path d="M548.55,932.54c-2.66,3.13-1.68,1.11-.95-.23l-.06-.19c-1.66,2-.91.28-.45-.69l-.14-.11c-1.27,1.3-1,.36-.67-.35l-.23-.05c-2.11,2.19-1.06.16-.55-.74,0-.3-.09-.56-.09-.56-1.31,2.19-1,2.4-.81,2.56s.47.15,1.06-.37a.43.43,0,0,0,.19.44.47.47,0,0,0,.46,0c-.3.84-.12,1,0,1.06a.48.48,0,0,0,.29.07c-.35.83-.17,1,0,1.07h0c.32.21.63.15,2.64-2.28C549.29,932.22,548.94,932.36,548.55,932.54Z"/><path d="M554.48,921c.2.05.37,0,.63-.56a.31.31,0,0,0,.26.24.32.32,0,0,0,.33-.1c0,.67.19.7.33.72a.28.28,0,0,0,.22,0c0,.68.15.71.3.75h0c.28.06.48-.08,1.18-2.34,0,0-.21.2-.42.44-1,2.93-.85,1.25-.73.11l-.1-.11c-.57,1.86-.55.45-.51-.35l-.12,0c-.51,1.27-.58.54-.57,0l-.17,0c-.84,2.12-.69.41-.6-.36-.11-.2-.22-.36-.22-.36C554,920.91,554.29,921,554.48,921Z"/><path d="M571.67,987.69c.44-.36.56-.87-.19-2.36a.93.93,0,0,0,1-.17,1,1,0,0,0,.33-.92c1.55,1.09,1.89.78,2.19.5a.84.84,0,0,0,.3-.54c1.52,1.16,1.87.87,2.18.61l.06,0c.6-.54.65-1.2-3.23-6.65,0,0,.09.79.25,1.68,5,7.17,1.34,4.06-1,1.83a2.73,2.73,0,0,0-.41,0c3.2,4.48.06,2-1.66.54a3.28,3.28,0,0,0-.31.2c2,3.33.21,2.21-1.08,1.19a3.94,3.94,0,0,0-.23.46c3.34,5.52-.25,2.24-1.81.72-.64-.09-1.2-.12-1.2-.12C570.63,988.52,571.23,988,571.67,987.69Z"/><path d="M536.61,983c-1.41,1.38-4.74,5-1.73,0a3.13,3.13,0,0,0-.2-.41c-1.16.92-2.75,1.93-1-1.07l-.28-.19c-1.55,1.33-4.38,3.56-1.5-.49l-.37,0c-2.12,2-5.39,4.82-.9-1.65.13-.81.16-.89.16-.89-3.5,4.92-3.4,4.89-2.85,5.37l0,0c.29.24.6.5,2-.55a.72.72,0,0,0,.27.49c.26.26.57.53,2-.45a.88.88,0,0,0,.3.83.82.82,0,0,0,.91.15c-.67,1.35-.57,1.81-.17,2.14s1,.17,4.35-3.33A3.43,3.43,0,0,0,536.61,983Z"/></g><g id="trae7"><path class="cls-5" d="M254.65,1052c-5.88-8.33-12.17-29.91-12.17-29.91s11-4.88,4.88-4.88-39.07-83-39.07-83,11-1.22,6.1-4.88c-4.53-3.4-18.53-32-19.53-34.19,1.21,2.44,10.43-7,10.43-7-4.23-3.34-16.54-17.4-11.66-15s4.89,0,4.89,0c-3.66-1.23-12.21-36.64-12.21-36.64s6.1,2.44,2.44-1.21c-2.41-2.42-5.89-13.85-8-21.36a1.93,1.93,0,0,0-3.66-.17c-3.53,9.42-10.6,22-11.57,24-1.21,2.44,1.23-1.23,2.45,1.21s-8.54,30.53-11,31.76,1.22,2.44,2.45,3.65-6.11,9.78-8.55,11-1.23,8.55,1.21,11,7.34-8.53,8.55-6.09-22,40.29-23.19,42.73,6.09,4.89,12.2,4.89c5,0,6.7-6.44,7.19-8.86-4.58,26-48.76,77.29-53.59,82.12s4.88,4.88,2.44,8.55c-2,3-17,24.33-22.65,32.37a1.94,1.94,0,0,0,1.6,3H253.09A1.93,1.93,0,0,0,254.65,1052ZM156.94,928.49l.06-.41S157,928.23,156.94,928.49Z"/><path class="cls-5" d="M157,928.08s0,.15-.06.41Z"/><path class="cls-4" d="M191.06,950.25c-.2-1.37-.31-2.42-.31-2.42-.14.88-.27,1.65-.4,2.32A6.06,6.06,0,0,1,191.06,950.25Z"/><path class="cls-4" d="M194.74,952.06c-.2-2.32-.3-4.23-.3-4.23-.1,1.46-.21,2.68-.32,3.74A6.3,6.3,0,0,1,194.74,952.06Z"/><path class="cls-4" d="M187.3,950.48c-.25-1.4-.39-2.65-.39-2.65-.17,1.14-.34,2.12-.5,3A6.71,6.71,0,0,1,187.3,950.48Z"/><path d="M198.49,950.71c-2,16.54-3.21,7.51-3.75,1.35a6.3,6.3,0,0,0-.62-.49c-1.09,10.46-2.46,3-3.06-1.32a6.06,6.06,0,0,0-.71-.1c-1.39,7.25-2.5,3.43-3,.33a6.71,6.71,0,0,0-.89.37c-2.21,12.13-3.2,2.9-3.51-1.27-.8-.93-1.57-1.68-1.57-1.68.49,10.31,1.95,10.39,3,10.45s1.91-.55,2.72-3.63a1.72,1.72,0,0,0,1.65,1,1.84,1.84,0,0,0,1.65-.89c.84,3.51,1.72,3.5,2.5,3.48A1.58,1.58,0,0,0,194,958c.71,3.59,1.57,3.61,2.36,3.64h.13c1.55,0,2.45-.9,3.79-13.61C200.26,948,199.39,949.24,198.49,950.71Z"/><path class="cls-4" d="M150.3,926.5c.4-.79.73-1.38.73-1.38-.4.41-.75.77-1.06,1.07C150.08,926.29,150.2,926.39,150.3,926.5Z"/><path class="cls-4" d="M151.58,928.8c.74-1.29,1.39-2.33,1.39-2.33-.59.73-1.1,1.33-1.54,1.85C151.48,928.47,151.54,928.63,151.58,928.8Z"/><path class="cls-4" d="M148.24,925.25c.38-.83.77-1.54.77-1.54l-1.37,1.4A5.27,5.27,0,0,1,148.24,925.25Z"/><path d="M154,929.46c-7.08,8-4.43,2.78-2.46-.66,0-.17-.1-.33-.15-.48-4.4,5.1-2.38.66-1.13-1.82-.1-.11-.22-.21-.33-.31-3.39,3.31-2.57.89-1.73-.94a5.27,5.27,0,0,0-.6-.14c-5.61,5.58-2.75.36-1.39-1.94-.07-.79-.2-1.46-.2-1.46-3.52,5.6-2.78,6.18-2.24,6.6s1.2.41,2.76-.91a1.11,1.11,0,0,0,.49,1.15,1.17,1.17,0,0,0,1.19.13c-.84,2.16-.38,2.47,0,2.75a1,1,0,0,0,.73.19c-.94,2.15-.5,2.48-.09,2.78l.07.05c.81.57,1.62.42,7-5.77C156,928.68,155.06,929,154,929.46Z"/><path class="cls-4" d="M205.42,928.66c-.38-.74-.68-1.29-.68-1.29.37.38.7.72,1,1C205.62,928.46,205.52,928.56,205.42,928.66Z"/><path class="cls-4" d="M204.22,930.81c-.69-1.21-1.29-2.18-1.29-2.18.55.68,1,1.25,1.44,1.73A3,3,0,0,0,204.22,930.81Z"/><path class="cls-4" d="M207.34,927.49c-.35-.77-.71-1.44-.71-1.44.47.5.89.93,1.28,1.31Z"/><path d="M201.92,931.43c6.62,7.46,4.15,2.6,2.3-.62a3,3,0,0,1,.15-.45c4.11,4.77,2.22.62,1-1.7.1-.1.2-.2.31-.29,3.17,3.09,2.4.83,1.61-.88l.57-.13c5.24,5.22,2.57.34,1.29-1.82.07-.73.2-1.36.2-1.36,3.28,5.24,2.59,5.78,2.09,6.17s-1.13.38-2.58-.85a1,1,0,0,1-.46,1.07,1.07,1.07,0,0,1-1.11.13c.78,2,.35,2.31,0,2.57a1,1,0,0,1-.69.18c.89,2,.47,2.31.09,2.59l-.06.05c-.77.53-1.52.4-6.52-5.39C200.12,930.7,201,931,201.92,931.43Z"/><path class="cls-4" d="M173.6,1012.36c-.25-1.74-.39-3.06-.39-3.06-.17,1.11-.34,2.08-.5,2.93C173,1012.26,173.3,1012.3,173.6,1012.36Z"/><path class="cls-4" d="M178.26,1014.64c-.26-2.92-.38-5.34-.38-5.34-.14,1.84-.27,3.39-.41,4.73A9.92,9.92,0,0,1,178.26,1014.64Z"/><path class="cls-4" d="M168.85,1012.65c-.32-1.77-.5-3.35-.5-3.35-.22,1.43-.43,2.68-.64,3.81A9.71,9.71,0,0,1,168.85,1012.65Z"/><path d="M183,1012.94c-2.48,20.91-4.06,9.5-4.73,1.7a9.92,9.92,0,0,0-.79-.61c-1.38,13.23-3.11,3.75-3.87-1.67-.3-.06-.6-.1-.89-.13-1.77,9.18-3.16,4.33-3.86.42a9.71,9.71,0,0,0-1.14.46c-2.79,15.35-4,3.67-4.43-1.59-1-1.18-2-2.13-2-2.13.62,13,2.46,13.14,3.81,13.21s2.42-.69,3.45-4.59a2.19,2.19,0,0,0,2.09,1.32,2.33,2.33,0,0,0,2.08-1.13c1.06,4.44,2.17,4.43,3.16,4.4a2,2,0,0,0,1.41-.51c.89,4.55,2,4.58,3,4.6h.16c2,0,3.1-1.14,4.79-17.21C185.23,1009.49,184.14,1011.08,183,1012.94Z"/><path class="cls-4" d="M111.68,1013.38c.49-.84.88-1.46.88-1.46-.46.42-.86.79-1.23,1.1A4,4,0,0,1,111.68,1013.38Z"/><path class="cls-4" d="M112.91,1016c.9-1.36,1.68-2.45,1.68-2.45-.69.75-1.28,1.38-1.81,1.91A4.27,4.27,0,0,1,112.91,1016Z"/><path class="cls-4" d="M109.51,1011.87c.47-.88.94-1.63.94-1.63-.59.55-1.11,1-1.59,1.44A5.54,5.54,0,0,1,109.51,1011.87Z"/><path d="M117.6,1014.79c-5,10.54-3.83,4.27-2.8.05a4.06,4.06,0,0,0-.3-.46c-3.08,6.7-2.3,1.41-1.74-1.57a3.61,3.61,0,0,0-.44-.22c-2.56,4.5-2.43,1.71-2.11-.47a5.22,5.22,0,0,0-.67,0c-4.2,7.57-2.78,1.21-2.05-1.63-.32-.8-.66-1.47-.66-1.47-2,7-1,7.34-.35,7.62s1.39.07,2.63-1.8A1.23,1.23,0,0,0,110,1016a1.29,1.29,0,0,0,1.3-.23c-.24,2.53.35,2.72.87,2.88a1.08,1.08,0,0,0,.83,0c-.34,2.55.23,2.76.75,2.95l.09,0c1,.35,1.83,0,5.57-8.19C119.38,1013.37,118.53,1014,117.6,1014.79Z"/><path class="cls-4" d="M236.55,1017.39c-.49-.84-.89-1.47-.89-1.47.46.43.87.79,1.23,1.11A3.89,3.89,0,0,0,236.55,1017.39Z"/><path class="cls-4" d="M235.31,1020c-.9-1.36-1.67-2.46-1.67-2.46.69.76,1.28,1.38,1.8,1.92C235.39,1019.61,235.35,1019.8,235.31,1020Z"/><path class="cls-4" d="M238.71,1015.88c-.47-.88-.94-1.63-.94-1.63.59.55,1.12,1,1.6,1.44A4.58,4.58,0,0,0,238.71,1015.88Z"/><path d="M230.63,1018.79c5,10.55,3.82,4.27,2.79.06a4.25,4.25,0,0,1,.31-.47c3.08,6.71,2.3,1.42,1.73-1.56a4.78,4.78,0,0,1,.45-.23c2.56,4.51,2.43,1.72,2.1-.47a5.31,5.31,0,0,1,.68,0c4.2,7.56,2.78,1.2,2-1.63.32-.8.66-1.47.66-1.47,2,7,1.05,7.34.35,7.62s-1.39.06-2.62-1.8a1.22,1.22,0,0,1-.87,1.06,1.27,1.27,0,0,1-1.29-.22c.23,2.52-.35,2.71-.88,2.87a1.08,1.08,0,0,1-.83,0c.34,2.55-.22,2.75-.74,2.95l-.09,0c-1,.35-1.83,0-5.58-8.19C228.84,1017.38,229.7,1018,230.63,1018.79Z"/><path class="cls-4" d="M176.81,873.56c-.28-.67-.48-1.19-.48-1.19,0,.47.08.87.11,1.23A2.21,2.21,0,0,1,176.81,873.56Z"/><path class="cls-4" d="M178.91,874c-.41-1.15-.71-2.1-.71-2.1.14.75.25,1.38.33,1.94A2.05,2.05,0,0,1,178.91,874Z"/><path class="cls-4" d="M174.94,874.18c-.32-.68-.56-1.29-.56-1.29.07.6.12,1.12.15,1.59A3.91,3.91,0,0,1,174.94,874.18Z"/><path d="M180.63,872.79c1.23,8.64-.62,4.23-1.72,1.19a2.05,2.05,0,0,0-.38-.16c.85,5.44-.84,1.82-1.72-.26a2.21,2.21,0,0,0-.37,0c.26,3.86-.81,2.07-1.5.58a3.91,3.91,0,0,0-.41.3c.51,6.44-1.23,1.9-1.94-.17-.53-.36-1-.64-1-.64,1.63,5.16,2.38,5,2.93,4.89s.89-.54.89-2.21a.91.91,0,0,0,1,.31,1,1,0,0,0,.71-.67c.9,1.66,1.34,1.54,1.73,1.42a.81.81,0,0,0,.51-.35c.84,1.72,1.28,1.62,1.68,1.53l.07,0c.78-.21,1.12-.78.09-7.39C181.16,871.18,180.89,871.93,180.63,872.79Z"/><path class="cls-4" d="M160.68,871.29c.12-.32.23-.56.23-.56l-.37.45Z"/><path class="cls-4" d="M161.25,872.13c.24-.52.45-.94.45-.94l-.53.76A1.59,1.59,0,0,1,161.25,872.13Z"/><path class="cls-4" d="M159.84,870.88c.12-.33.25-.62.25-.62l-.48.59A.85.85,0,0,1,159.84,870.88Z"/><path d="M162.21,872.3c-2.44,3.3-1.6,1.21-1-.17a1.59,1.59,0,0,0-.08-.18c-1.51,2.11-.89.33-.49-.66l-.14-.11c-1.19,1.39-1,.43-.7-.3a.85.85,0,0,0-.23,0c-2,2.33-1,.23-.6-.7-.06-.3-.13-.56-.13-.56-1.16,2.27-.85,2.47-.63,2.61s.47.12,1-.44a.4.4,0,0,0,.22.42.45.45,0,0,0,.46,0c-.25.85-.06,1,.11,1a.43.43,0,0,0,.29,0c-.29.85-.11,1,.06,1.07h0c.33.19.63.11,2.48-2.45C162.93,871.93,162.59,872.09,162.21,872.3Z"/><path class="cls-4" d="M192.65,869.32c-.26-.23-.44-.41-.44-.41l.29.51A.56.56,0,0,1,192.65,869.32Z"/><path class="cls-4" d="M193.63,869.08c-.4-.4-.72-.75-.72-.75.21.29.38.54.53.76Z"/><path class="cls-4" d="M192,870c-.27-.22-.49-.44-.49-.44l.38.65A2.12,2.12,0,0,1,192,870Z"/><path d="M194.13,868.24c2.24,3.44.58,1.93-.5.84h-.19c1.44,2.16,0,.95-.79.23a.56.56,0,0,0-.15.1c.88,1.59.06,1-.53.54a2.12,2.12,0,0,0-.11.21c1.5,2.65-.15,1.06-.87.32-.29,0-.56-.07-.56-.07,1.72,1.87,2,1.66,2.22,1.5s.28-.41-.05-1.12a.44.44,0,0,0,.48-.06.5.5,0,0,0,.17-.43c.71.53.88.39,1,.26a.41.41,0,0,0,.15-.25c.7.57.87.44,1,.32l0,0c.29-.25.32-.56-1.44-3.18C194,867.44,194.07,867.81,194.13,868.24Z"/><path class="cls-4" d="M185.07,834.34l-.48-.36c.13.18.25.33.34.47Z"/><path class="cls-4" d="M186,834l-.8-.67c.24.26.44.49.61.69Z"/><path class="cls-4" d="M184.47,835.05l-.54-.38.45.6Z"/><path d="M185.42,833.1c2.61,3.18.79,1.85-.4.9l-.19,0c1.67,2,.11,1-.76.32l-.14.11c1,1.49.18,1-.46.6l-.09.22c1.78,2.47,0,1.07-.82.41-.31,0-.57,0-.57,0,1.92,1.68,2.18,1.43,2.37,1.25s.23-.43-.18-1.1a.44.44,0,0,0,.47-.12.47.47,0,0,0,.13-.45c.76.46.91.3,1,.16a.42.42,0,0,0,.12-.27c.76.49.91.34,1.05.2l0,0c.27-.28.26-.59-1.77-3C185.24,832.32,185.32,832.69,185.42,833.1Z"/><path class="cls-4" d="M170.46,836.27c.14-.31.26-.54.26-.54-.14.17-.28.31-.39.43Z"/><path class="cls-4" d="M171,837.15c.27-.51.51-.91.51-.91l-.57.72Z"/><path class="cls-4" d="M169.65,835.81c.14-.32.28-.6.28-.6l-.51.55Z"/><path d="M171.92,837.38c-2.66,3.14-1.68,1.11-.95-.23l-.06-.19c-1.66,2-.91.28-.45-.69l-.13-.11c-1.28,1.3-1,.36-.68-.35l-.23,0c-2.11,2.2-1.06.16-.55-.74,0-.3-.09-.56-.09-.56-1.31,2.19-1,2.41-.81,2.56s.47.15,1.06-.37a.43.43,0,0,0,.19.44.48.48,0,0,0,.47,0c-.31.84-.13,1,0,1.06a.48.48,0,0,0,.29.07c-.35.83-.17,1,0,1.07h0c.32.22.63.15,2.64-2.28C172.66,837.06,172.31,837.2,171.92,837.38Z"/><path class="cls-4" d="M179.36,824.64c0-.26,0-.45,0-.45s-.11.29-.16.4Z"/><path class="cls-4" d="M180,825.1c.05-.43.1-.78.1-.78-.08.26-.14.48-.2.67A.52.52,0,0,1,180,825.1Z"/><path class="cls-4" d="M178.67,824.54c0-.26,0-.49,0-.49-.08.2-.14.37-.2.53Z"/><path d="M180.7,825c-.95,2.93-.85,1.25-.73.11a.52.52,0,0,0-.1-.11c-.57,1.86-.55.45-.51-.35l-.12,0c-.51,1.27-.58.54-.57-.05l-.17,0c-.84,2.13-.69.41-.59-.36l-.23-.36c-.28,1.89,0,2,.17,2s.37,0,.63-.56a.31.31,0,0,0,.26.24.32.32,0,0,0,.33-.1c0,.67.19.7.33.72a.28.28,0,0,0,.22,0c0,.68.16.71.3.75h0c.28.06.48-.07,1.18-2.34Z"/><path class="cls-4" d="M194.86,887c-.55-.47-1-.84-1-.84.25.39.47.74.65,1A2.11,2.11,0,0,1,194.86,887Z"/><path class="cls-4" d="M196.93,886.46c-.88-.84-1.58-1.55-1.58-1.55.46.6.85,1.12,1.17,1.58A2.73,2.73,0,0,1,196.93,886.46Z"/><path class="cls-4" d="M193.47,888.42c-.59-.46-1.07-.9-1.07-.9.32.5.6,1,.84,1.36A4.93,4.93,0,0,1,193.47,888.42Z"/><path d="M197.94,884.63c5,7.17,1.34,4.06-1,1.83a2.73,2.73,0,0,0-.41,0c3.2,4.48.06,2-1.66.54a2.11,2.11,0,0,0-.31.21c2,3.33.21,2.21-1.08,1.18a4.93,4.93,0,0,0-.23.46c3.34,5.53-.25,2.24-1.81.72-.64-.09-1.2-.12-1.2-.12,3.77,3.88,4.37,3.4,4.81,3s.56-.87-.19-2.36a.91.91,0,0,0,1-.17,1,1,0,0,0,.33-.92c1.55,1.09,1.89.78,2.19.5a.8.8,0,0,0,.3-.54c1.52,1.16,1.87.87,2.18.61l.06,0c.6-.53.65-1.2-3.23-6.65C197.69,883,197.78,883.74,197.94,884.63Z"/><path class="cls-4" d="M156.79,886.15l.87-.76c-.23.35-.42.67-.59,1Z"/><path class="cls-4" d="M154.92,885.64c.8-.76,1.43-1.41,1.43-1.41-.42.55-.76,1-1.06,1.43Z"/><path class="cls-4" d="M158.05,887.41c.53-.42,1-.82,1-.82l-.77,1.23A3.13,3.13,0,0,0,158.05,887.41Z"/><path d="M154,884c-4.48,6.47-1.22,3.66.9,1.65l.37,0c-2.88,4.05,0,1.82,1.5.49l.28.19c-1.77,3-.18,2,1,1.07a3.13,3.13,0,0,1,.2.41c-3,5,.32,1.35,1.73,0a3.43,3.43,0,0,1,1,0c-3.4,3.5-3.95,3.64-4.34,3.33s-.51-.79.16-2.14a.82.82,0,0,1-.91-.15.88.88,0,0,1-.3-.83c-1.4,1-1.7.71-2,.45a.73.73,0,0,1-.27-.49c-1.38,1.06-1.69.79-2,.55l0,0c-.55-.48-.65-.45,2.85-5.37C154.18,883.1,154.16,883.18,154,884Z"/></g><g id="trae6"><path class="cls-7" d="M194.55,1064c-5.89-8.32-12.17-29.9-12.17-29.9s11-4.88,4.88-4.88-39.07-83-39.07-83,11-1.22,6.1-4.88-20.76-36.63-19.54-34.19,10.43-7,10.43-7c-4.22-3.35-16.53-17.41-11.65-15s4.89,0,4.89,0c-3.67-1.22-12.21-36.64-12.21-36.64s6.1,2.45,2.44-1.22c-2.42-2.41-5.89-13.84-8-21.35a1.93,1.93,0,0,0-3.66-.17c-3.53,9.42-10.6,22-11.56,24-1.22,2.44,1.22-1.23,2.44,1.22s-8.55,30.52-11,31.75,1.22,2.44,2.44,3.66-6.1,9.77-8.55,11-1.22,8.55,1.23,11,7.32-8.55,8.54-6.11-22,40.3-23.2,42.74,6.11,4.89,12.21,4.89,7.33-9.77,7.33-9.77c-3.66,25.64-48.84,78.15-53.73,83s4.89,4.89,2.44,8.55c-2,3-17,24.33-22.64,32.37a1.93,1.93,0,0,0,1.59,3H193A1.93,1.93,0,0,0,194.55,1064Z"/><path class="cls-4" d="M131,962.27c-.2-1.37-.31-2.42-.31-2.42-.14.88-.27,1.65-.4,2.32A6.06,6.06,0,0,1,131,962.27Z"/><path class="cls-4" d="M134.64,964.08c-.2-2.32-.3-4.23-.3-4.23-.1,1.46-.21,2.68-.32,3.74A6.3,6.3,0,0,1,134.64,964.08Z"/><path class="cls-4" d="M127.2,962.5c-.25-1.4-.39-2.65-.39-2.65-.17,1.14-.34,2.12-.5,3A6.71,6.71,0,0,1,127.2,962.5Z"/><path d="M138.39,962.73c-2,16.54-3.21,7.51-3.75,1.35a6.3,6.3,0,0,0-.62-.49c-1.09,10.46-2.46,3-3.06-1.32a6.06,6.06,0,0,0-.71-.1c-1.39,7.25-2.5,3.43-3,.33a6.71,6.71,0,0,0-.89.37c-2.21,12.13-3.2,2.9-3.51-1.27-.8-.93-1.57-1.68-1.57-1.68.49,10.31,2,10.39,3,10.45s1.91-.55,2.72-3.63a1.72,1.72,0,0,0,1.65,1,1.84,1.84,0,0,0,1.65-.89c.84,3.51,1.72,3.5,2.5,3.48a1.58,1.58,0,0,0,1.11-.4c.71,3.59,1.57,3.61,2.36,3.64h.13c1.55,0,2.45-.9,3.79-13.61C140.16,960,139.29,961.26,138.39,962.73Z"/><path class="cls-4" d="M90.2,938.52c.4-.79.73-1.38.73-1.38-.4.41-.75.77-1.06,1.07C90,938.31,90.1,938.41,90.2,938.52Z"/><path class="cls-4" d="M91.48,940.82c.74-1.29,1.39-2.33,1.39-2.33-.59.73-1.1,1.33-1.54,1.85C91.38,940.49,91.44,940.65,91.48,940.82Z"/><path class="cls-4" d="M88.14,937.27c.38-.83.77-1.54.77-1.54l-1.37,1.4A5.27,5.27,0,0,1,88.14,937.27Z"/><path d="M93.94,941.48c-7.08,8-4.44,2.78-2.46-.66,0-.17-.1-.33-.15-.48-4.4,5.1-2.38.66-1.13-1.82-.1-.11-.22-.21-.33-.31-3.39,3.31-2.57.89-1.73-.94a5.27,5.27,0,0,0-.6-.14c-5.61,5.58-2.75.36-1.39-1.94-.07-.78-.2-1.46-.2-1.46-3.52,5.6-2.78,6.18-2.24,6.6s1.2.41,2.76-.91a1.11,1.11,0,0,0,.49,1.15,1.16,1.16,0,0,0,1.19.13c-.84,2.16-.38,2.47,0,2.75a1,1,0,0,0,.73.19c-.94,2.15-.5,2.48-.09,2.78l.07.05c.81.57,1.62.42,7-5.77C95.87,940.7,95,941,93.94,941.48Z"/><path class="cls-4" d="M145.32,940.68c-.38-.74-.68-1.29-.68-1.29.37.38.7.72,1,1C145.52,940.48,145.42,940.58,145.32,940.68Z"/><path class="cls-4" d="M144.12,942.83c-.69-1.21-1.29-2.18-1.29-2.18.54.68,1,1.25,1.44,1.73A3,3,0,0,0,144.12,942.83Z"/><path class="cls-4" d="M147.24,939.51c-.35-.77-.71-1.44-.71-1.44.47.5.89.93,1.28,1.31Z"/><path d="M141.82,943.45c6.62,7.46,4.15,2.6,2.3-.62a3,3,0,0,1,.15-.45c4.11,4.77,2.22.62,1-1.7.1-.1.2-.2.31-.29,3.17,3.09,2.4.83,1.61-.88l.57-.13c5.24,5.22,2.56.34,1.29-1.82.07-.73.19-1.36.19-1.36,3.29,5.24,2.6,5.78,2.1,6.17s-1.13.38-2.58-.85a1,1,0,0,1-.46,1.07,1.07,1.07,0,0,1-1.11.13c.78,2,.35,2.31,0,2.57a1,1,0,0,1-.69.18c.89,2,.47,2.31.09,2.59a.18.18,0,0,1-.07.05c-.76.53-1.51.4-6.51-5.39C140,942.72,140.87,943,141.82,943.45Z"/><path class="cls-4" d="M113.5,1024.38c-.25-1.74-.39-3.06-.39-3.06-.17,1.11-.34,2.08-.5,2.93C112.9,1024.28,113.2,1024.32,113.5,1024.38Z"/><path class="cls-4" d="M118.16,1026.66c-.26-2.92-.38-5.34-.38-5.34-.14,1.84-.27,3.39-.41,4.73A9.92,9.92,0,0,1,118.16,1026.66Z"/><path class="cls-4" d="M108.75,1024.67c-.32-1.77-.5-3.35-.5-3.35-.22,1.43-.43,2.68-.64,3.81A9.71,9.71,0,0,1,108.75,1024.67Z"/><path d="M122.89,1025c-2.48,20.91-4.06,9.5-4.73,1.7a9.92,9.92,0,0,0-.79-.61c-1.38,13.23-3.11,3.75-3.87-1.67-.3-.06-.6-.1-.89-.13-1.77,9.18-3.16,4.33-3.86.42a9.71,9.71,0,0,0-1.14.46c-2.79,15.35-4,3.67-4.43-1.59-1-1.18-2-2.13-2-2.13.62,13,2.46,13.14,3.81,13.21s2.42-.69,3.45-4.59a2.19,2.19,0,0,0,2.09,1.32,2.33,2.33,0,0,0,2.08-1.13c1.06,4.44,2.17,4.43,3.16,4.4a2,2,0,0,0,1.41-.51c.89,4.55,2,4.58,3,4.6h.16c2,0,3.1-1.14,4.79-17.21C125.13,1021.51,124,1023.1,122.89,1025Z"/><path class="cls-4" d="M51.58,1025.4c.49-.84.88-1.46.88-1.46-.46.42-.86.79-1.23,1.1A4,4,0,0,1,51.58,1025.4Z"/><path class="cls-4" d="M52.81,1028c.9-1.36,1.68-2.45,1.68-2.45-.69.75-1.29,1.38-1.81,1.91A4.27,4.27,0,0,1,52.81,1028Z"/><path class="cls-4" d="M49.41,1023.89c.47-.88.94-1.63.94-1.63-.59.55-1.11,1-1.59,1.44A5.54,5.54,0,0,1,49.41,1023.89Z"/><path d="M57.49,1026.81c-5,10.54-3.82,4.27-2.79,0a4.06,4.06,0,0,0-.3-.46c-3.08,6.7-2.3,1.41-1.74-1.57a3.61,3.61,0,0,0-.44-.22c-2.56,4.5-2.43,1.71-2.11-.47a5.22,5.22,0,0,0-.67,0c-4.2,7.57-2.78,1.21-2-1.63-.32-.8-.66-1.47-.66-1.47-2,7-1,7.34-.35,7.62s1.39.07,2.63-1.8a1.23,1.23,0,0,0,.86,1.07,1.29,1.29,0,0,0,1.3-.23c-.24,2.53.35,2.72.87,2.88a1.08,1.08,0,0,0,.83,0c-.34,2.55.23,2.76.75,3l.09,0c1,.35,1.83,0,5.57-8.19C59.28,1025.39,58.43,1026,57.49,1026.81Z"/><path class="cls-4" d="M176.45,1029.41c-.49-.84-.89-1.47-.89-1.47.46.43.87.79,1.23,1.11A3.89,3.89,0,0,0,176.45,1029.41Z"/><path class="cls-4" d="M175.21,1032c-.9-1.36-1.67-2.46-1.67-2.46.69.76,1.28,1.38,1.8,1.92C175.29,1031.63,175.25,1031.82,175.21,1032Z"/><path class="cls-4" d="M178.61,1027.9c-.47-.88-.94-1.63-.94-1.63.59.55,1.12,1,1.6,1.44A4.58,4.58,0,0,0,178.61,1027.9Z"/><path d="M170.53,1030.81c5,10.55,3.82,4.27,2.79.06a4.25,4.25,0,0,1,.31-.47c3.08,6.71,2.3,1.42,1.73-1.56a4.78,4.78,0,0,1,.45-.23c2.56,4.51,2.43,1.72,2.1-.47a5.31,5.31,0,0,1,.68,0c4.2,7.56,2.78,1.2,2-1.63.32-.8.66-1.47.66-1.47,2,7,1.05,7.34.35,7.62s-1.39.06-2.62-1.8a1.22,1.22,0,0,1-.87,1.06,1.27,1.27,0,0,1-1.29-.22c.23,2.52-.35,2.72-.88,2.87a1.08,1.08,0,0,1-.83,0c.34,2.55-.22,2.75-.75,3l-.08,0c-1,.35-1.83,0-5.58-8.19C168.74,1029.4,169.6,1030,170.53,1030.81Z"/><path class="cls-4" d="M116.71,885.58c-.28-.67-.48-1.19-.48-1.19,0,.47.08.87.11,1.23A2.21,2.21,0,0,1,116.71,885.58Z"/><path class="cls-4" d="M118.81,886c-.41-1.15-.72-2.1-.72-2.1.15.75.26,1.38.34,1.94A2.05,2.05,0,0,1,118.81,886Z"/><path class="cls-4" d="M114.84,886.2c-.32-.68-.56-1.29-.56-1.29.07.6.12,1.12.15,1.59A3.91,3.91,0,0,1,114.84,886.2Z"/><path d="M120.53,884.81c1.23,8.64-.62,4.23-1.72,1.19a2.05,2.05,0,0,0-.38-.16c.85,5.44-.84,1.82-1.72-.26a2.21,2.21,0,0,0-.37,0c.26,3.86-.81,2.07-1.5.58a3.91,3.91,0,0,0-.41.3c.51,6.44-1.23,1.9-1.94-.17-.53-.36-1-.64-1-.64,1.63,5.16,2.38,5,2.93,4.89s.89-.54.89-2.21a.91.91,0,0,0,1,.31A1,1,0,0,0,117,888c.9,1.66,1.34,1.54,1.73,1.42a.81.81,0,0,0,.51-.35c.84,1.72,1.28,1.62,1.68,1.53l.07,0c.78-.21,1.12-.78.09-7.39C121.06,883.2,120.79,884,120.53,884.81Z"/><path class="cls-4" d="M100.58,883.31c.12-.32.23-.56.23-.56l-.37.45Z"/><path class="cls-4" d="M101.15,884.15c.24-.52.45-.94.45-.94l-.53.76A1.59,1.59,0,0,1,101.15,884.15Z"/><path class="cls-4" d="M99.74,882.9c.12-.33.24-.62.24-.62l-.47.59A.85.85,0,0,1,99.74,882.9Z"/><path d="M102.11,884.32c-2.44,3.3-1.61,1.22-1-.17a1.59,1.59,0,0,0-.08-.18c-1.51,2.11-.89.33-.49-.66l-.14-.11c-1.19,1.39-1,.43-.7-.3a.85.85,0,0,0-.23,0c-2,2.33-1,.23-.6-.7-.06-.3-.13-.56-.13-.56-1.16,2.27-.85,2.47-.63,2.61s.47.12,1-.44a.42.42,0,0,0,.23.42.45.45,0,0,0,.46,0c-.25.85-.06,1,.11,1a.43.43,0,0,0,.29.05c-.29.85-.11,1,.06,1.07h0c.33.19.63.11,2.48-2.45C102.83,884,102.49,884.11,102.11,884.32Z"/><path class="cls-4" d="M132.55,881.34l-.45-.41c.12.19.21.36.3.51A.56.56,0,0,1,132.55,881.34Z"/><path class="cls-4" d="M133.53,881.1c-.4-.4-.73-.75-.73-.75l.54.76Z"/><path class="cls-4" d="M131.87,882c-.27-.22-.49-.44-.49-.44l.38.65A2.12,2.12,0,0,1,131.87,882Z"/><path d="M134,880.26c2.24,3.44.58,1.93-.5.84h-.19c1.44,2.16,0,.95-.79.23a.56.56,0,0,0-.15.1c.88,1.59.06,1-.53.54a2.12,2.12,0,0,0-.11.21c1.5,2.65-.15,1.06-.87.32-.29,0-.56-.07-.56-.07,1.72,1.87,2,1.66,2.22,1.5s.28-.41-.05-1.12a.42.42,0,0,0,.47-.06.48.48,0,0,0,.18-.43c.71.53.88.39,1,.26a.41.41,0,0,0,.15-.25c.7.57.87.44,1,.32l0,0c.3-.25.33-.56-1.43-3.18C133.93,879.46,134,879.83,134,880.26Z"/><path class="cls-4" d="M125,846.36l-.48-.36c.13.18.25.33.34.47Z"/><path class="cls-4" d="M125.92,846l-.8-.67c.24.26.44.49.61.69Z"/><path class="cls-4" d="M124.37,847.07l-.54-.38.45.6Z"/><path d="M125.32,845.12c2.61,3.18.79,1.85-.4.9l-.19,0c1.67,2,.11,1-.76.32l-.14.11c1,1.49.18,1-.46.6l-.09.22c1.78,2.47,0,1.07-.82.41-.31,0-.57,0-.57,0,1.92,1.68,2.18,1.43,2.37,1.25s.23-.43-.18-1.1a.44.44,0,0,0,.47-.12.44.44,0,0,0,.12-.45c.77.46.92.3,1,.16a.42.42,0,0,0,.12-.27c.76.49.91.34,1,.2l0,0c.27-.28.26-.59-1.77-3C125.14,844.34,125.22,844.71,125.32,845.12Z"/><path class="cls-4" d="M110.36,848.29c.14-.31.26-.54.26-.54-.14.17-.28.31-.39.43Z"/><path class="cls-4" d="M110.87,849.17c.27-.51.51-.91.51-.91l-.57.72Z"/><path class="cls-4" d="M109.55,847.83c.14-.32.28-.6.28-.6l-.51.55Z"/><path d="M111.82,849.4c-2.66,3.14-1.68,1.11-.95-.23l-.06-.19c-1.66,2-.91.28-.45-.69l-.13-.11c-1.28,1.3-1,.36-.68-.35l-.23-.05c-2.11,2.2-1.06.16-.55-.74,0-.3-.09-.56-.09-.56-1.31,2.19-1,2.41-.81,2.56s.47.15,1.06-.37a.43.43,0,0,0,.19.44.47.47,0,0,0,.46,0c-.3.84-.12,1,0,1.06a.48.48,0,0,0,.29.07c-.35.83-.17,1,0,1.07h0c.32.22.63.15,2.64-2.28C112.56,849.08,112.21,849.22,111.82,849.4Z"/><path class="cls-4" d="M119.26,836.66c0-.26,0-.45,0-.45s-.1.29-.15.4Z"/><path class="cls-4" d="M119.87,837.12c0-.43.1-.78.1-.78-.08.26-.14.48-.2.67Z"/><path class="cls-4" d="M118.57,836.56c0-.26,0-.49,0-.49-.08.2-.14.37-.2.53Z"/><path d="M120.6,837c-.95,2.93-.85,1.25-.73.11l-.1-.11c-.57,1.86-.55.45-.51-.35l-.12,0c-.51,1.27-.58.54-.57-.05l-.17,0c-.84,2.13-.69.41-.6-.36l-.22-.36c-.28,1.89,0,2,.17,2s.37,0,.63-.56a.31.31,0,0,0,.26.24.32.32,0,0,0,.33-.1c0,.67.19.7.33.72a.28.28,0,0,0,.22,0c0,.68.15.71.3.75h0c.28.06.48-.07,1.18-2.34Z"/><path class="cls-4" d="M134.76,899.05c-.55-.47-1-.84-1-.84.25.39.47.74.65,1A2.11,2.11,0,0,1,134.76,899.05Z"/><path class="cls-4" d="M136.83,898.48c-.88-.84-1.58-1.55-1.58-1.55.46.61.85,1.12,1.17,1.58A2.73,2.73,0,0,1,136.83,898.48Z"/><path class="cls-4" d="M133.37,900.44c-.59-.46-1.07-.9-1.07-.9.32.5.6,1,.84,1.36A4.93,4.93,0,0,1,133.37,900.44Z"/><path d="M137.84,896.65c5,7.17,1.34,4.06-1,1.83a2.73,2.73,0,0,0-.41,0c3.2,4.48.06,2-1.66.54a2.11,2.11,0,0,0-.31.21c2,3.33.21,2.21-1.08,1.18a4.93,4.93,0,0,0-.23.46c3.34,5.53-.25,2.24-1.81.72-.64-.09-1.2-.12-1.2-.12,3.77,3.88,4.37,3.4,4.81,3s.56-.87-.19-2.36a.91.91,0,0,0,1-.17,1,1,0,0,0,.33-.92c1.55,1.09,1.89.78,2.19.5a.8.8,0,0,0,.3-.54c1.52,1.16,1.87.87,2.18.61l.06,0c.6-.53.65-1.2-3.23-6.65C137.59,895,137.68,895.76,137.84,896.65Z"/><path class="cls-4" d="M96.69,898.17l.87-.76c-.23.35-.42.67-.59,1Z"/><path class="cls-4" d="M94.82,897.66c.8-.76,1.43-1.4,1.43-1.4-.42.54-.76,1-1.06,1.42Z"/><path class="cls-4" d="M98,899.43c.53-.42,1-.82,1-.82l-.77,1.23A3.13,3.13,0,0,0,98,899.43Z"/><path d="M93.92,896c-4.49,6.47-1.22,3.66.9,1.65l.37,0c-2.88,4.05,0,1.82,1.5.49l.28.19c-1.77,3-.18,2,1,1.07a3.13,3.13,0,0,1,.2.41c-3,5,.32,1.35,1.73,0a3.43,3.43,0,0,1,1,0c-3.4,3.5-3.95,3.64-4.35,3.33s-.5-.79.17-2.14a.82.82,0,0,1-.91-.15.88.88,0,0,1-.3-.83c-1.4,1-1.71.71-2,.45a.7.7,0,0,1-.27-.49c-1.38,1.06-1.69.79-2,.55l0,0c-.55-.48-.65-.45,2.85-5.37C94.08,895.12,94.05,895.2,93.92,896Z"/></g><g id="trae5"><path class="cls-5" d="M1914.87,70.43H1746.43a1.93,1.93,0,0,1-1.58-3c3-4.26,8.59-12.24,13.5-19.25,4.38-6.25,8.21-11.73,9.15-13.12,2.44-3.67-7.34-3.67-2.46-8.55,2.11-2.11,11.74-13.1,22.28-27H1891c7.84,17.6,15.48,33.08,18.11,33.08,6.11,0-4.88,4.88-4.88,4.88s6.29,21.57,12.19,29.9A1.94,1.94,0,0,1,1914.87,70.43Z"/><path d="M1826.89,38c1.39.06,2.41-.69,3.44-4.58a2.19,2.19,0,0,0,2.09,1.31,2.31,2.31,0,0,0,2.09-1.13c1.06,4.45,2.17,4.44,3.15,4.41a2,2,0,0,0,1.42-.51c.89,4.54,2,4.57,3,4.6h.17c2,0,3.1-1.14,4.79-17.2,0,0-1.09,1.59-2.24,3.44-2.48,20.92-4.06,9.5-4.74,1.71a7,7,0,0,0-.79-.61c-1.37,13.22-3.1,3.74-3.86-1.67a5.58,5.58,0,0,0-.9-.13c-1.76,9.17-3.16,4.33-3.86.42a8.66,8.66,0,0,0-1.13.46c-2.79,15.35-4,3.67-4.43-1.6-1-1.18-2-2.13-2-2.13C1823.69,37.78,1825.54,37.88,1826.89,38Z"/><path d="M1770.89,30.24a1.2,1.2,0,0,0,.86,1.06,1.27,1.27,0,0,0,1.29-.22c-.23,2.52.35,2.71.88,2.87a1.08,1.08,0,0,0,.83,0c-.34,2.54.23,2.75.75,2.94l.08,0c1,.34,1.83-.05,5.58-8.19,0,0-.86.64-1.79,1.41-5,10.55-3.82,4.27-2.79.05a5.27,5.27,0,0,0-.31-.46c-3.07,6.7-2.29,1.42-1.73-1.56a3.81,3.81,0,0,0-.45-.23c-2.56,4.51-2.43,1.71-2.1-.47a5.49,5.49,0,0,0-.68,0c-4.19,7.57-2.77,1.21-2-1.62-.32-.8-.66-1.48-.66-1.48-2,7-1,7.35-.35,7.62S1769.65,32.1,1770.89,30.24Z"/><path d="M1896.2,40.92l.08,0c.52-.19,1.09-.4.75-3a1.08,1.08,0,0,0,.83,0c.52-.16,1.11-.35.88-2.87a1.29,1.29,0,0,0,1.29.22,1.21,1.21,0,0,0,.86-1.06c1.24,1.86,1.91,2.07,2.63,1.79s1.65-.66-.35-7.62c0,0-.34.67-.66,1.47.73,2.84,2.15,9.2-2,1.63a5.49,5.49,0,0,0-.68,0c.33,2.18.45,5-2.1.47a3.74,3.74,0,0,0-.45.22c.56,3,1.34,8.27-1.74,1.57-.1.14-.2.29-.3.46,1,4.22,2.23,10.49-2.79-.05-.93-.77-1.79-1.41-1.79-1.41C1894.37,40.88,1895.17,41.27,1896.2,40.92Z"/></g><g id="trae4"><path class="cls-6" d="M1767.5,35c-.94,1.39-4.77,6.87-9.15,13.12h-120.1a1.93,1.93,0,0,1-1.58-3c5.65-8,20.66-29.41,22.64-32.37,2.45-3.66-7.33-3.66-2.44-8.55.69-.68,2.17-2.31,4.22-4.68h126.23c-10.54,13.87-20.17,24.86-22.28,27C1760.16,31.35,1769.94,31.35,1767.5,35Z"/><path d="M1731.85,7.71a8.39,8.39,0,0,0-.79-.61c-1.38,13.23-3.1,3.75-3.87-1.67a8.67,8.67,0,0,0-.89-.13c-1.76,9.18-3.16,4.33-3.86.42a9.58,9.58,0,0,0-1.13.46c-2.79,15.35-4,3.67-4.43-1.59-1-1.18-2-2.13-2-2.13.61,13,2.46,13.14,3.81,13.21s2.41-.69,3.44-4.59a2.18,2.18,0,0,0,2.09,1.32,2.35,2.35,0,0,0,2.09-1.13c1.06,4.44,2.17,4.43,3.15,4.4a2,2,0,0,0,1.41-.51c.9,4.55,2,4.58,3,4.61h.17c2,0,3.1-1.14,4.79-17.21,0,0-1.1,1.59-2.24,3.45C1734.11,26.92,1732.53,15.51,1731.85,7.71Z"/><path d="M1668.4,7.91a4.1,4.1,0,0,0-.31-.46c-3.07,6.7-2.3,1.41-1.73-1.57a4.66,4.66,0,0,0-.45-.22c-2.56,4.5-2.43,1.71-2.1-.47a5.49,5.49,0,0,0-.68,0c-4.2,7.57-2.77,1.21-2-1.63-.32-.8-.66-1.47-.66-1.47-2,7-1,7.34-.35,7.62s1.39.07,2.62-1.8a1.23,1.23,0,0,0,.87,1.07,1.27,1.27,0,0,0,1.29-.23c-.23,2.53.35,2.72.88,2.88a1.08,1.08,0,0,0,.83,0c-.34,2.55.22,2.76.75,2.95l.08,0c1,.35,1.83,0,5.58-8.18,0,0-.86.64-1.79,1.41C1666.17,18.4,1667.37,12.13,1668.4,7.91Z"/></g><g id="trae3"><path class="cls-6" d="M1238.73,63.41H1070.31a1.93,1.93,0,0,1-1.59-3c5.65-8,20.67-29.4,22.64-32.37,2.44-3.66-7.32-3.66-2.44-8.55,1.73-1.73,8.58-9.5,16.84-19.95h112.3c6.65,14.5,12.67,26.06,15,26.06,6.1,0-4.88,4.88-4.88,4.88s6.28,21.59,12.17,29.91A1.93,1.93,0,0,1,1238.73,63.41Z"/><path d="M1150.76,30.94c1.39.06,2.42-.69,3.44-4.58a2.19,2.19,0,0,0,2.09,1.31,2.33,2.33,0,0,0,2.09-1.13c1.06,4.44,2.17,4.43,3.15,4.4a2,2,0,0,0,1.42-.5c.89,4.54,2,4.57,3,4.6h.17c2,0,3.1-1.14,4.79-17.21,0,0-1.09,1.59-2.24,3.45-2.48,20.92-4.06,9.5-4.74,1.7a8.39,8.39,0,0,0-.79-.61c-1.37,13.23-3.1,3.75-3.86-1.67a6.94,6.94,0,0,0-.9-.12c-1.76,9.17-3.16,4.33-3.86.41a8.77,8.77,0,0,0-1.13.47c-2.79,15.34-4,3.66-4.43-1.6-1-1.18-2-2.13-2-2.13C1147.56,30.77,1149.41,30.87,1150.76,30.94Z"/><path d="M1100.45,23.18a4.1,4.1,0,0,0-.31-.46c-3.07,6.7-2.29,1.41-1.73-1.57a3.74,3.74,0,0,0-.45-.22c-2.56,4.5-2.43,1.71-2.1-.47a5.49,5.49,0,0,0-.68,0c-4.19,7.57-2.77,1.21-2-1.63-.32-.79-.66-1.47-.66-1.47-2,7-1,7.34-.35,7.62s1.39.07,2.63-1.79a1.2,1.2,0,0,0,.86,1.06,1.29,1.29,0,0,0,1.29-.22c-.23,2.52.35,2.71.88,2.87a1.13,1.13,0,0,0,.83,0c-.34,2.54.23,2.75.75,2.94l.08,0c1,.35,1.83,0,5.58-8.18,0,0-.86.64-1.79,1.41C1098.22,33.68,1099.42,27.4,1100.45,23.18Z"/><path d="M1220.07,33.91l.08,0c.52-.19,1.09-.4.75-3a1.13,1.13,0,0,0,.83,0c.52-.16,1.11-.35.88-2.88a1.29,1.29,0,0,0,1.29.23,1.21,1.21,0,0,0,.86-1.07c1.24,1.87,1.91,2.08,2.63,1.8s1.65-.66-.35-7.62c0,0-.34.67-.66,1.47.73,2.84,2.15,9.2-2,1.63a5.49,5.49,0,0,0-.68,0c.33,2.18.46,5-2.1.47a3.74,3.74,0,0,0-.45.22c.56,3,1.34,8.27-1.73,1.57a4.1,4.1,0,0,0-.31.46c1,4.21,2.23,10.49-2.79-.05-.93-.78-1.79-1.42-1.79-1.42C1218.24,33.86,1219,34.26,1220.07,33.91Z"/></g><g id="trae2"><path class="cls-5" d="M419.37,54.39H319.8s0,0,0,0c-5.9-8.32-12.18-29.91-12.18-29.91s11-4.88,4.88-4.88c-2,0-6.65-8.5-12.14-20H402.94c4.86,10,8.92,17,10.7,17,6.1,0-4.89,4.89-4.89,4.89S415,43,420.93,51.34A1.92,1.92,0,0,1,419.37,54.39Z"/><path d="M331.39,21.93c1.39.06,2.42-.7,3.44-4.59a2.18,2.18,0,0,0,2.09,1.31A2.32,2.32,0,0,0,339,17.53c1.06,4.44,2.17,4.43,3.15,4.4a2,2,0,0,0,1.42-.51c.89,4.55,2,4.58,3,4.6h.16c2,0,3.1-1.13,4.79-17.2,0,0-1.09,1.59-2.24,3.45-2.48,20.91-4.06,9.5-4.73,1.7a9.41,9.41,0,0,0-.79-.61c-1.38,13.22-3.11,3.74-3.87-1.67a7,7,0,0,0-.9-.13c-1.76,9.17-3.16,4.33-3.86.42a10.33,10.33,0,0,0-1.13.46c-2.79,15.35-4,3.67-4.43-1.6-1-1.18-2-2.13-2-2.13C328.2,21.76,330,21.85,331.39,21.93Z"/><path d="M400.7,24.89a.13.13,0,0,0,.08,0c.52-.19,1.09-.4.75-2.94a1.08,1.08,0,0,0,.83,0c.53-.16,1.11-.35.88-2.87a1.27,1.27,0,0,0,1.29.22,1.22,1.22,0,0,0,.87-1.06c1.23,1.86,1.9,2.07,2.62,1.79s1.65-.65-.35-7.62c0,0-.34.68-.66,1.48.73,2.83,2.15,9.19-2,1.62a5.49,5.49,0,0,0-.68,0c.33,2.18.46,5-2.1.47a3.19,3.19,0,0,0-.45.23c.57,3,1.34,8.26-1.73,1.56a5.27,5.27,0,0,0-.31.46c1,4.22,2.23,10.5-2.79-.05-.93-.77-1.79-1.41-1.79-1.41C398.87,24.85,399.67,25.24,400.7,24.89Z"/></g><g id="trae1"><path class="cls-7" d="M318.19,57.4H149.77a1.93,1.93,0,0,1-1.59-3c5.65-8,20.67-29.41,22.64-32.37,2.44-3.67-7.32-3.67-2.44-8.55,1.38-1.38,6-6.6,12-13.94H300.33c5.49,11.55,10.19,20.05,12.14,20.05,6.11,0-4.88,4.88-4.88,4.88S313.87,46,319.77,54.34c0,0,0,0,0,0A1.93,1.93,0,0,1,318.19,57.4Z"/><path d="M248.1,15.27c-2.48,20.92-4.06,9.5-4.73,1.7-.27-.23-.54-.43-.79-.61-1.38,13.23-3.11,3.75-3.87-1.67a7,7,0,0,0-.89-.12c-1.77,9.17-3.17,4.33-3.87.41a10.33,10.33,0,0,0-1.13.46c-2.79,15.35-4,3.67-4.43-1.59-1-1.18-2-2.13-2-2.13.62,13,2.46,13.14,3.81,13.21s2.42-.69,3.45-4.58a2.18,2.18,0,0,0,2.09,1.31,2.31,2.31,0,0,0,2.08-1.13C238.9,25,240,25,241,24.93a2,2,0,0,0,1.41-.5c.89,4.54,2,4.57,3,4.6h.16c2,0,3.1-1.14,4.79-17.21C250.34,11.82,249.25,13.41,248.1,15.27Z"/><path d="M179.91,17.17c-.1-.17-.2-.32-.3-.46-3.08,6.7-2.3,1.41-1.74-1.57a3.61,3.61,0,0,0-.44-.22c-2.56,4.5-2.44,1.71-2.11-.47a5.22,5.22,0,0,0-.67,0c-4.2,7.57-2.78,1.21-2.05-1.63-.32-.79-.66-1.47-.66-1.47-2,7-1,7.34-.35,7.62s1.39.07,2.63-1.79a1.2,1.2,0,0,0,.86,1.06,1.31,1.31,0,0,0,1.3-.22c-.24,2.52.35,2.71.87,2.87a1.13,1.13,0,0,0,.83,0c-.34,2.54.23,2.75.75,2.94l.09,0c1,.35,1.83,0,5.57-8.18,0,0-.85.64-1.79,1.41C177.68,27.67,178.88,21.39,179.91,17.17Z"/><path d="M299.53,27.9l.08,0c.53-.19,1.09-.4.75-2.95a1.13,1.13,0,0,0,.83,0c.53-.16,1.11-.35.88-2.88a1.29,1.29,0,0,0,1.29.23,1.23,1.23,0,0,0,.87-1.07c1.23,1.87,1.9,2.08,2.62,1.8s1.65-.66-.35-7.62c0,0-.34.67-.66,1.47.74,2.84,2.16,9.2-2,1.63a5.38,5.38,0,0,0-.68,0c.33,2.18.46,5-2.1.47a4.66,4.66,0,0,0-.45.22c.57,3,1.34,8.27-1.73,1.57a4.1,4.1,0,0,0-.31.46c1,4.21,2.23,10.49-2.79-.05-.93-.78-1.79-1.42-1.79-1.42C297.7,27.85,298.5,28.25,299.53,27.9Z"/></g></g></g></g></g></svg>
