<svg xmlns="http://www.w3.org/2000/svg" viewBox="0 0 150 200"><defs><style>.cls-1{fill:#fff;}</style></defs><g id="Assetlist_-_Artboard" data-name="Assetlist - Artboard"><g id="haand"><path d="M99.41,200c-16.61,0-35.94-3.41-43.47-4.88a8.75,8.75,0,0,1-6.73-6.62c-3.07-12.7-15.35-56.36-44.95-84.87a8.94,8.94,0,0,1-2-2.87C.91,97.61-1.87,89.62,1.9,83.47c2.58-4.22,7.38-6.36,14.25-6.36a46.26,46.26,0,0,1,7.77.73,8.62,8.62,0,0,1,6.25,4.78,124.13,124.13,0,0,0,7.4,13.47c-.06-4-.35-9.7-.65-15.59-1.76-34.45-2.56-66.24,6.87-76.69A10.84,10.84,0,0,1,52,0c11,0,17.37,14.27,19.39,43.54a13.35,13.35,0,0,1,6-1.36,15,15,0,0,1,1.62.08c4.23.42,10.89,2.67,14.82,12a15,15,0,0,1,9.62-3.13c.68,0,1.38,0,2.09.1,4.44.43,11.17,2.66,14.9,11.7a8,8,0,0,1,4.91-1.63c3.49,0,7.14,2.15,11.16,6.59,15.87,17.48,14.25,27,12.56,30.62-.5,4.28-2.68,22.37-6,41.39-8,45-14.82,51.47-17.07,53.59C121.2,197.87,112.55,200,99.41,200Zm-62.1-98.43"/><path class="cls-1" d="M53.36,187.4C50.56,175.78,38,130,7.16,100.32a4.43,4.43,0,0,1-1-1.42c-1.75-4-7.7-20.83,17.07-16.63a4.3,4.3,0,0,1,3.11,2.39c3.26,6.7,13.88,27.52,15.33,16.89C43.39,89,32.26,4.49,52,4.49S67.37,82.68,67.37,82.68s-6.85-37.75,11.13-36S92.2,81.78,92.2,81.78s-6-27.86,12.85-26.06,12.84,35.05,12.84,35.05S116.18,52.12,133.31,71s11.51,26.06,11.51,26.06-9,81-21.82,93.09c-11.11,10.45-54.87,2.77-66.28.55A4.34,4.34,0,0,1,53.36,187.4Z"/><path class="cls-1" d="M53.36,187.4C50.56,175.78,38,130,7.16,100.32a4.43,4.43,0,0,1-1-1.42c-1.75-4-7.7-20.83,17.07-16.63a4.3,4.3,0,0,1,3.11,2.39c3.26,6.7,13.88,27.52,15.33,16.89C43.39,89,32.26,4.49,52,4.49S67.37,82.68,67.37,82.68s-6.85-37.75,11.13-36S92.2,81.78,92.2,81.78s-6-27.86,12.85-26.06,12.84,35.05,12.84,35.05S116.18,52.12,133.31,71s11.51,26.06,11.51,26.06-9,81-21.82,93.09c-11.11,10.45-54.87,2.77-66.28.55A4.34,4.34,0,0,1,53.36,187.4Z"/></g></g></svg>
