<svg xmlns="http://www.w3.org/2000/svg" viewBox="0 0 32 32"><defs><style>.cls-1{fill:#fff;}</style></defs><g id="Assetlist_-_Artboard" data-name="Assetlist - Artboard"><g id="haand"><path d="M15.73,31.61a39.63,39.63,0,0,1-6.82-.77,1.38,1.38,0,0,1-1.06-1C7.37,27.8,5.44,21,.79,16.47A1.39,1.39,0,0,1,.48,16,3.12,3.12,0,0,1,.42,13.3a2.43,2.43,0,0,1,2.24-1,7,7,0,0,1,1.22.11,1.34,1.34,0,0,1,1,.75A20.65,20.65,0,0,0,6,15.29c0-.63,0-1.53-.1-2.45C5.64,7.43,5.52,2.43,7,.79A1.71,1.71,0,0,1,8.28.19C10,.19,11,2.44,11.33,7a2.08,2.08,0,0,1,.93-.21h.25a2.79,2.79,0,0,1,2.33,1.89,2.4,2.4,0,0,1,1.51-.49h.33A2.75,2.75,0,0,1,19,10.08a1.29,1.29,0,0,1,.77-.26,2.51,2.51,0,0,1,1.75,1c2.5,2.74,2.24,4.25,2,4.81-.08.67-.42,3.51-.95,6.5-1.25,7.07-2.33,8.08-2.68,8.41C19.16,31.27,17.8,31.61,15.73,31.61ZM6,16.15"/><path class="cls-1" d="M8.5,29.63c-.44-1.83-2.42-9-7.25-13.68a.69.69,0,0,1-.16-.22c-.27-.64-1.21-3.27,2.68-2.61a.66.66,0,0,1,.49.37c.51,1,2.18,4.32,2.41,2.65C6.94,14.17,5.19.9,8.28.9S10.7,13.18,10.7,13.18,9.63,7.25,12.45,7.53,14.6,13,14.6,13s-.94-4.38,2-4.09,2,5.5,2,5.5-.27-6.07,2.42-3.11,1.81,4.1,1.81,4.1-1.42,12.73-3.43,14.62c-1.75,1.64-8.62.43-10.41.08A.69.69,0,0,1,8.5,29.63Z"/><path class="cls-1" d="M8.5,29.63c-.44-1.83-2.42-9-7.25-13.68a.69.69,0,0,1-.16-.22c-.27-.64-1.21-3.27,2.68-2.61a.66.66,0,0,1,.49.37c.51,1,2.18,4.32,2.41,2.65C6.94,14.17,5.19.9,8.28.9S10.7,13.18,10.7,13.18,9.63,7.25,12.45,7.53,14.6,13,14.6,13s-.94-4.38,2-4.09,2,5.5,2,5.5-.27-6.07,2.42-3.11,1.81,4.1,1.81,4.1-1.42,12.73-3.43,14.62c-1.75,1.64-8.62.43-10.41.08A.69.69,0,0,1,8.5,29.63Z"/></g></g></svg>
