<svg xmlns="http://www.w3.org/2000/svg" xmlns:xlink="http://www.w3.org/1999/xlink" viewBox="0 0 380 380"><defs><style>.cls-1{filter:url(#AI_GaussianBlur_7);}.cls-2{fill:#999;}</style><filter id="AI_GaussianBlur_7" name="AI_GaussianBlur_7"><feGaussianBlur stdDeviation="7"/></filter></defs><g id="Assetlist_-_Artboard" data-name="Assetlist - Artboard"><g id="indstiller_knap"><g class="cls-1"><path d="M162.45,69.6l.7-.17Z"/><path d="M166.06,68.76l.78-.17Z"/><path d="M151.59,72.8l.14,0Z"/><path d="M158.92,70.53l.34-.09Z"/><path d="M169.84,68l.64-.13Z"/><path d="M178.65,25.25a16,16,0,0,1,2.29-1.89A16,16,0,0,0,178.65,25.25Z"/><path d="M81.36,331.32a15.68,15.68,0,0,0,8.46.09A15.68,15.68,0,0,1,81.36,331.32Z"/><path d="M182.21,22.59A15.68,15.68,0,0,1,186.46,21,15.68,15.68,0,0,0,182.21,22.59Z"/><path d="M147.72,74.2l.61-.23Z"/><path d="M174.81,31.56a15.41,15.41,0,0,1,2.84-5.22A15.41,15.41,0,0,0,174.81,31.56Z"/><path d="M174.1,328.52h0Z"/><polygon points="313.08 286.54 302.08 275.57 302.09 275.57 302.08 275.57 313.08 286.54"/><path d="M144.23,75.58l.71-.29Z"/><path d="M121.19,87.81l.49-.32Z"/><path d="M84.28,63.89a14.86,14.86,0,0,1,1.49-.07A14.86,14.86,0,0,0,84.28,63.89Z"/><path d="M127.35,84l.57-.34Z"/><path d="M79.31,65.23c.33-.15.66-.29,1-.42C80,64.94,79.64,65.08,79.31,65.23Z"/><path d="M124.2,85.87l.63-.39Z"/><path d="M140.89,77l.6-.26Z"/><path d="M130.8,82l.22-.12Z"/><path d="M300.9,331.41a15.72,15.72,0,0,0,8.47-.09A15.72,15.72,0,0,1,300.9,331.41Z"/><path d="M137.63,78.49l.19-.08Z"/><path d="M204.26,21a15.44,15.44,0,0,1,4.25,1.55A15.44,15.44,0,0,0,204.26,21Z"/><path d="M62.76,304a15.65,15.65,0,0,0,0,8.79A15.65,15.65,0,0,1,62.76,304Z"/><path d="M315,141.94l.05.11Z"/><path d="M174.11,67.25h0Z"/><polygon points="302.09 120.2 302.08 120.2 313.08 109.23 302.08 120.2 302.09 120.2"/><path d="M62.76,83a15.51,15.51,0,0,0-.08,8.44A15.51,15.51,0,0,1,62.76,83Z"/><path d="M328.59,87.45a15.32,15.32,0,0,1-.54,4A15.32,15.32,0,0,0,328.59,87.45Z"/><path d="M316.48,145.29v0Z"/><path d="M368.94,179.11a15.41,15.41,0,0,1,2.84,5.22A15.41,15.41,0,0,0,368.94,179.11Z"/><path d="M324.37,169.73c0,.06,0,.12,0,.18S324.38,169.79,324.37,169.73Z"/><path d="M365.65,176.13a16,16,0,0,1,2.29,1.89A16,16,0,0,0,365.65,176.13Z"/><polygon points="325.13 173.49 325.13 173.49 325.13 173.49 325.13 173.49"/><path d="M328,83a15.6,15.6,0,0,1,.64,4.39A15.6,15.6,0,0,0,328,83Z"/><path d="M323.53,166.13c0,.05,0,.11.05.17S323.55,166.18,323.53,166.13Z"/><path d="M305,63.82a14.66,14.66,0,0,1,1.48.07A14.66,14.66,0,0,0,305,63.82Z"/><path d="M255.94,80.55l.34.18Z"/><path d="M259.11,82.25l.48.27Z"/><polygon points="64.3 222.28 64.3 222.28 64.3 222.28 64.3 222.28"/><path d="M242.32,74.43l.08,0Z"/><path d="M213.08,26.34a15.59,15.59,0,0,1,2.84,5.22A15.59,15.59,0,0,0,213.08,26.34Z"/><path d="M238.74,73.12l.17.06Z"/><path d="M62.76,83a15.9,15.9,0,0,1,.79-2A15.9,15.9,0,0,0,62.76,83Z"/><path d="M310.42,64.81c.34.13.67.27,1,.42C311.09,65.08,310.76,64.94,310.42,64.81Z"/><path d="M327.18,80.94a15.83,15.83,0,0,1,.78,2A15.83,15.83,0,0,0,327.18,80.94Z"/><path d="M265.71,86.16l.06,0Z"/><path d="M209.79,23.36a16,16,0,0,1,2.29,1.89A16,16,0,0,0,209.79,23.36Z"/><path d="M262.31,84.09l.43.25Z"/><path d="M170.48,327.91l-.64-.13Z"/><path d="M360.13,173.81a15.68,15.68,0,0,1,4.25,1.55A15.68,15.68,0,0,0,360.13,173.81Z"/><path d="M141.49,319l-.6-.26Z"/><path d="M322.9,232.09h0Z"/><path d="M325.55,220v0Z"/><path d="M238.91,322.59l-.17.06Z"/><path d="M166.84,327.18l-.78-.17Z"/><path d="M148.33,321.8l-.61-.23Z"/><path d="M144.94,320.48l-.71-.29Z"/><path d="M85.47,122.85l.14-.21Z"/><path d="M163.15,326.34l-.7-.17Z"/><path d="M151.73,323l-.14,0Z"/><path d="M242.4,321.31l-.08,0Z"/><path d="M265.77,309.57l-.06,0Z"/><path d="M262.74,311.43l-.43.25Z"/><path d="M311.42,330.54a16.94,16.94,0,0,1-2.05.78A16.94,16.94,0,0,0,311.42,330.54Z"/><path d="M259.59,313.25l-.48.27Z"/><path d="M321.78,236h0Z"/><path d="M256.28,315l-.34.18Z"/><path d="M317.72,247.53v0Z"/><path d="M310.73,262.07v0Z"/><path d="M328.6,308.39a15.61,15.61,0,0,1-.64,4.4A15.61,15.61,0,0,0,328.6,308.39Z"/><path d="M328,304a15.17,15.17,0,0,1,.63,4.33A15.17,15.17,0,0,0,328,304Z"/><path d="M159.26,325.33l-.34-.09Z"/><path d="M22.78,184.44a16.54,16.54,0,0,1,2.29-1.89A16.54,16.54,0,0,0,22.78,184.44Z"/><path d="M65.08,226.1c0-.06,0-.13,0-.19S65.07,226,65.08,226.1Z"/><path d="M18.94,190.75a15.44,15.44,0,0,1,2.85-5.22A15.44,15.44,0,0,0,18.94,190.75Z"/><path d="M65.93,229.74a1,1,0,0,1,0-.14A1,1,0,0,0,65.93,229.74Z"/><path d="M71.73,247.55l-.06-.14Z"/><path d="M73.19,251l-.11-.24Z"/><path d="M26.35,181.78a15.12,15.12,0,0,1,4.25-1.55A15.12,15.12,0,0,0,26.35,181.78Z"/><path d="M77.07,136.72l.07-.14Z"/><path d="M74.69,254.29l0-.11A.54.54,0,0,1,74.69,254.29Z"/><path d="M71.87,147.88s0-.11.07-.17S71.89,147.83,71.87,147.88Z"/><path d="M79,133.18c0-.06,0-.11.08-.16S79,133.12,79,133.18Z"/><path d="M66.58,163.5l0-.11Z"/><path d="M63.9,175.75v0Z"/><path d="M85.82,273.43l-.15-.22Z"/><path d="M124.83,310.29l-.63-.39Z"/><path d="M81.36,331.32a16.94,16.94,0,0,1-2-.78A16.94,16.94,0,0,0,81.36,331.32Z"/><path d="M83.79,270.43l-.16-.24Z"/><path d="M137.82,317.36l-.19-.08Z"/><path d="M127.92,312.15l-.57-.34Z"/><path d="M131,313.9l-.22-.12Z"/><path d="M121.68,308.28l-.49-.32Z"/><path d="M81.73,267.22l0,0Z"/><path d="M194.72,65.66a134,134,0,0,1,21.9,1.8V36.13a15.32,15.32,0,0,0-.7-4.57,15.59,15.59,0,0,0-2.84-5.22c-.32-.38-.65-.74-1-1.09a16,16,0,0,0-2.29-1.89c-.41-.27-.84-.53-1.28-.77A15.44,15.44,0,0,0,204.26,21a15.09,15.09,0,0,0-3.1-.32H189.57a15.19,15.19,0,0,0-3.11.32,15.68,15.68,0,0,0-4.25,1.55c-.43.24-.86.5-1.27.77a16,16,0,0,0-2.29,1.89c-.35.35-.68.71-1,1.09a15.41,15.41,0,0,0-2.84,5.22,15,15,0,0,0-.7,4.57V67.25h0A133.41,133.41,0,0,1,194.72,65.66Z"/><path d="M118.27,89.81,96.7,68.31a15.47,15.47,0,0,0-10.93-4.49,14.86,14.86,0,0,0-1.49.07q-.73.07-1.47.21a15.78,15.78,0,0,0-2.5.71c-.34.13-.67.27-1,.42a15.41,15.41,0,0,0-4.47,3.08l-8.2,8.17a15.21,15.21,0,0,0-3.09,4.46,15.9,15.9,0,0,0-.79,2,15.51,15.51,0,0,0-.08,8.44,15.3,15.3,0,0,0,4,6.85L87.9,119.46A133.13,133.13,0,0,1,118.27,89.81Z"/><path d="M62,197.88a131.64,131.64,0,0,1,1.23-18H33.7a15.52,15.52,0,0,0-7.35,1.87c-.44.24-.86.49-1.28.77a16.54,16.54,0,0,0-2.29,1.89,14.53,14.53,0,0,0-1,1.09,15.28,15.28,0,0,0-3.55,9.79v11.55A15.49,15.49,0,0,0,33.7,222.28H64.3A132.53,132.53,0,0,1,62,197.88Z"/><path d="M174.11,328.52h0v31.12a15.48,15.48,0,0,0,15.46,15.41h11.59a15.49,15.49,0,0,0,15.46-15.41V328.31a134.24,134.24,0,0,1-42.51.21Z"/><path d="M271.92,305.43l22.11,22a15.38,15.38,0,0,0,6.87,4,15.72,15.72,0,0,0,8.47-.09,16.94,16.94,0,0,0,2.05-.78,15.41,15.41,0,0,0,4.47-3.08l8.2-8.17a15.36,15.36,0,0,0,3.38-5.09,14.71,14.71,0,0,0,.49-1.41,15.61,15.61,0,0,0,.64-4.4s0,0,0-.06a15.33,15.33,0,0,0-4.5-10.83l-11-11-11-11A133.11,133.11,0,0,1,271.92,305.43Z"/><path d="M87.9,276.31,66.64,297.5a15.32,15.32,0,0,0-3.88,6.5,15.65,15.65,0,0,0,0,8.79,14.79,14.79,0,0,0,.5,1.41,15.36,15.36,0,0,0,3.38,5.09l8.2,8.17a15.41,15.41,0,0,0,4.47,3.08,16.94,16.94,0,0,0,2,.78,15.68,15.68,0,0,0,8.46.09,15.42,15.42,0,0,0,6.88-4L118.27,306A133.13,133.13,0,0,1,87.9,276.31Z"/><path d="M302.08,120.2l11-11,11-11a15.45,15.45,0,0,0,4.5-10.82s0,0,0-.08A15.6,15.6,0,0,0,328,83a15.83,15.83,0,0,0-.78-2,15.41,15.41,0,0,0-3.09-4.46l-8.2-8.17a15.41,15.41,0,0,0-4.47-3.08c-.33-.15-.66-.29-1-.42a15.78,15.78,0,0,0-2.5-.71c-.49-.09-1-.16-1.48-.21a14.66,14.66,0,0,0-1.48-.07A15.47,15.47,0,0,0,294,68.31l-22.11,22A133.11,133.11,0,0,1,302.08,120.2Z"/><path d="M371.78,184.33a15.41,15.41,0,0,0-2.84-5.22c-.32-.38-.65-.74-1-1.09a16,16,0,0,0-2.29-1.89c-.41-.27-.84-.53-1.27-.77a15.68,15.68,0,0,0-4.25-1.55,15.12,15.12,0,0,0-3.11-.32H325.14a132.44,132.44,0,0,1,1,42.37H357a15.47,15.47,0,0,0,15.46-15.41V188.9A15.06,15.06,0,0,0,371.78,184.33Z"/><path d="M325.14,173.49h0c-.22-1.2-.46-2.39-.72-3.58,0-.06,0-.12,0-.18-.25-1.15-.51-2.29-.79-3.43,0-.06,0-.12-.05-.17a129.83,129.83,0,0,0-7-20.8v0q-.72-1.64-1.47-3.24l-.05-.11a132,132,0,0,0-12.87-21.74h0a133.11,133.11,0,0,0-30.16-29.86c-2-1.43-4.06-2.82-6.15-4.14l-.06,0c-1-.62-2-1.23-3-1.82l-.43-.25c-.9-.53-1.8-1-2.72-1.57l-.48-.27c-.94-.52-1.88-1-2.83-1.52l-.34-.18a130.9,130.9,0,0,0-13.54-6.09l-.08,0c-1.13-.43-2.27-.85-3.41-1.25l-.17-.06a131.62,131.62,0,0,0-22.12-5.66,134.24,134.24,0,0,0-42.51-.21h0c-1.22.19-2.42.39-3.62.61l-.64.13q-1.5.29-3,.6l-.78.17c-1,.21-1.94.44-2.91.67l-.7.17c-1.07.27-2.13.55-3.19.84l-.34.09c-2.43.68-4.82,1.42-7.19,2.23l-.14,0c-1.09.38-2.18.77-3.26,1.17l-.61.23c-.93.35-1.86.71-2.78,1.09l-.71.29c-.92.37-1.83.76-2.74,1.16l-.6.26c-1,.46-2.06.92-3.07,1.41l-.19.08c-2.24,1.07-4.44,2.19-6.61,3.38l-.22.12c-1,.53-1.93,1.08-2.88,1.63l-.57.34c-.85.49-1.69,1-2.52,1.52l-.63.39q-1.28.8-2.52,1.62l-.49.32c-1,.65-2,1.32-2.92,2A133.13,133.13,0,0,0,87.9,119.46c-.78,1-1.54,2.11-2.29,3.18l-.14.21q-3.42,4.94-6.39,10.17s0,.1-.08.16c-.64,1.12-1.26,2.25-1.86,3.4l-.07.14c-1.87,3.57-3.59,7.24-5.13,11,0,.06,0,.12-.07.17a131.55,131.55,0,0,0-5.26,15.51l0,.11q-1.62,6-2.67,12.21v0c-.23,1.38-.44,2.77-.63,4.16a132.44,132.44,0,0,0,1,42.37h0c.23,1.22.48,2.42.74,3.63,0,.06,0,.13,0,.19.25,1.17.52,2.34.81,3.5a1,1,0,0,0,0,.14,130.22,130.22,0,0,0,5.74,17.67l.06.14q.66,1.62,1.35,3.21l.11.24c.47,1.07,1,2.13,1.45,3.18l0,.11a132.59,132.59,0,0,0,7,12.9l0,0c.62,1,1.25,2,1.9,3l.16.24c.61.94,1.24,1.86,1.88,2.78l.15.22c.68,1,1.37,1.93,2.08,2.88A133.13,133.13,0,0,0,118.27,306c1,.68,1.94,1.35,2.92,2l.49.32q1.25.83,2.52,1.62l.63.39c.83.52,1.67,1,2.52,1.52l.57.34c1,.55,1.91,1.1,2.88,1.63l.22.12c2.17,1.19,4.37,2.31,6.61,3.38l.19.08c1,.49,2,.95,3.07,1.41l.6.26c.91.4,1.82.79,2.74,1.16l.71.29c.92.37,1.85.74,2.78,1.09l.61.23c1.08.4,2.17.79,3.26,1.17l.14,0c2.37.81,4.76,1.55,7.19,2.23l.34.09c1.06.29,2.12.57,3.19.84l.7.17c1,.23,1.94.46,2.91.67l.78.17,3,.6.64.13c1.2.22,2.4.42,3.62.61h0a134.24,134.24,0,0,0,42.51-.21,131.62,131.62,0,0,0,22.12-5.66l.17-.06c1.14-.4,2.28-.82,3.41-1.25l.08,0a130.9,130.9,0,0,0,13.54-6.09l.34-.18c1-.5,1.89-1,2.83-1.52l.48-.27c.92-.52,1.82-1,2.72-1.57l.43-.25c1-.59,2-1.2,3-1.82l.06,0c2.09-1.32,4.14-2.71,6.15-4.14a133.11,133.11,0,0,0,30.16-29.86h0a133.31,133.31,0,0,0,8.63-13.47v0a131.72,131.72,0,0,0,7-14.51v0c1.52-3.74,2.88-7.58,4.06-11.49h0c.4-1.3.77-2.62,1.12-3.93h0q1.61-5.94,2.64-12.08V220c.23-1.36.44-2.72.62-4.09a132.44,132.44,0,0,0-1-42.37ZM102,198.53c0-51.41,41.82-93.08,93.39-93.08s93.39,41.67,93.39,93.08-41.81,93.07-93.39,93.07S102,249.93,102,198.53Z"/></g><path class="cls-2" d="M151.72,53.83l.71-.17Z"/><path class="cls-2" d="M155.34,53l.78-.17Z"/><path class="cls-2" d="M140.87,57l.13,0Z"/><path class="cls-2" d="M148.2,54.76l.33-.09Z"/><path class="cls-2" d="M159.12,52.22l.63-.13Z"/><path class="cls-2" d="M167.92,9.48a16,16,0,0,1,2.29-1.89A16,16,0,0,0,167.92,9.48Z"/><path class="cls-2" d="M70.63,315.55a15.72,15.72,0,0,0,8.47.09A15.72,15.72,0,0,1,70.63,315.55Z"/><path class="cls-2" d="M171.49,6.82a15.44,15.44,0,0,1,4.25-1.55A15.44,15.44,0,0,0,171.49,6.82Z"/><path class="cls-2" d="M137,58.43l.61-.23Z"/><path class="cls-2" d="M164.08,15.79a15.59,15.59,0,0,1,2.84-5.22A15.59,15.59,0,0,0,164.08,15.79Z"/><path class="cls-2" d="M163.37,312.75h0Z"/><polygon class="cls-2" points="302.36 270.77 291.36 259.8 291.36 259.8 291.36 259.8 302.36 270.77"/><path class="cls-2" d="M133.5,59.81l.71-.29Z"/><path class="cls-2" d="M110.46,72l.5-.32Z"/><path class="cls-2" d="M73.56,48.12A14.66,14.66,0,0,1,75,48.05,14.66,14.66,0,0,0,73.56,48.12Z"/><path class="cls-2" d="M116.63,68.19l.56-.34Z"/><path class="cls-2" d="M68.58,49.46c.33-.15.66-.29,1-.42C69.24,49.17,68.91,49.31,68.58,49.46Z"/><path class="cls-2" d="M113.47,70.1l.63-.39Z"/><path class="cls-2" d="M130.16,61.23l.6-.26Z"/><path class="cls-2" d="M120.07,66.22l.23-.12Z"/><path class="cls-2" d="M290.18,315.64a15.68,15.68,0,0,0,8.46-.09A15.68,15.68,0,0,1,290.18,315.64Z"/><path class="cls-2" d="M126.91,62.72l.18-.08Z"/><path class="cls-2" d="M193.54,5.27a15.68,15.68,0,0,1,4.25,1.55A15.68,15.68,0,0,0,193.54,5.27Z"/><path class="cls-2" d="M52,288.23A15.47,15.47,0,0,0,52,297,15.47,15.47,0,0,1,52,288.23Z"/><path class="cls-2" d="M304.23,126.17l0,.11Z"/><path class="cls-2" d="M163.38,51.48h0Z"/><polygon class="cls-2" points="291.36 104.43 291.36 104.43 302.36 93.46 291.36 104.43 291.36 104.43"/><path class="cls-2" d="M52,67.21A15.61,15.61,0,0,0,52,75.65,15.61,15.61,0,0,1,52,67.21Z"/><path class="cls-2" d="M317.87,71.68a15.77,15.77,0,0,1-.55,4A15.77,15.77,0,0,0,317.87,71.68Z"/><path class="cls-2" d="M305.75,129.52l0,0Z"/><path class="cls-2" d="M358.21,163.34a15.44,15.44,0,0,1,2.85,5.22A15.44,15.44,0,0,0,358.21,163.34Z"/><path class="cls-2" d="M313.65,154a1.16,1.16,0,0,0,0,.18A1.16,1.16,0,0,1,313.65,154Z"/><path class="cls-2" d="M354.93,160.36a16.54,16.54,0,0,1,2.29,1.89A16.54,16.54,0,0,0,354.93,160.36Z"/><polygon class="cls-2" points="314.41 157.72 314.41 157.72 314.41 157.72 314.41 157.72"/><path class="cls-2" d="M317.24,67.21a15.58,15.58,0,0,1,.63,4.39A15.58,15.58,0,0,0,317.24,67.21Z"/><path class="cls-2" d="M312.81,150.36s0,.11,0,.17S312.82,150.41,312.81,150.36Z"/><path class="cls-2" d="M294.23,48.05a14.86,14.86,0,0,1,1.49.07A14.86,14.86,0,0,0,294.23,48.05Z"/><path class="cls-2" d="M245.22,64.78l.33.18Z"/><path class="cls-2" d="M248.38,66.48l.49.27Z"/><polygon class="cls-2" points="53.58 206.51 53.58 206.51 53.58 206.51 53.58 206.51"/><path class="cls-2" d="M231.59,58.66l.08,0Z"/><path class="cls-2" d="M202.35,10.57a15.41,15.41,0,0,1,2.84,5.22A15.41,15.41,0,0,0,202.35,10.57Z"/><path class="cls-2" d="M228,57.35l.17.06Z"/><path class="cls-2" d="M52,67.21a15.83,15.83,0,0,1,.78-2A15.83,15.83,0,0,0,52,67.21Z"/><path class="cls-2" d="M299.69,49c.34.13.67.27,1,.42C300.36,49.31,300,49.17,299.69,49Z"/><path class="cls-2" d="M316.45,65.17a15.9,15.9,0,0,1,.79,2A15.9,15.9,0,0,0,316.45,65.17Z"/><path class="cls-2" d="M255,70.39l.06,0Z"/><path class="cls-2" d="M199.06,7.59a16,16,0,0,1,2.29,1.89A16,16,0,0,0,199.06,7.59Z"/><path class="cls-2" d="M251.59,68.32l.42.25Z"/><path class="cls-2" d="M159.75,312.14l-.63-.13Z"/><path class="cls-2" d="M349.4,158a15.44,15.44,0,0,1,4.25,1.55A15.44,15.44,0,0,0,349.4,158Z"/><path class="cls-2" d="M130.76,303.26l-.6-.26Z"/><path class="cls-2" d="M312.18,216.32h0Z"/><path class="cls-2" d="M314.82,204.18v0Z"/><path class="cls-2" d="M228.18,306.82l-.17.06Z"/><path class="cls-2" d="M156.12,311.41l-.78-.17Z"/><path class="cls-2" d="M137.61,306l-.61-.23Z"/><path class="cls-2" d="M134.21,304.71l-.71-.29Z"/><path class="cls-2" d="M74.74,107.08l.15-.21Z"/><path class="cls-2" d="M152.43,310.57l-.71-.17Z"/><path class="cls-2" d="M141,307.24l-.13,0Z"/><path class="cls-2" d="M231.67,305.54l-.08,0Z"/><path class="cls-2" d="M255,293.8l-.06,0Z"/><path class="cls-2" d="M252,295.66l-.42.25Z"/><path class="cls-2" d="M300.69,314.77a16.94,16.94,0,0,1-2.05.78A16.94,16.94,0,0,0,300.69,314.77Z"/><path class="cls-2" d="M248.87,297.48l-.49.27Z"/><path class="cls-2" d="M311.06,220.26h0Z"/><path class="cls-2" d="M245.55,299.27l-.33.18Z"/><path class="cls-2" d="M307,231.76v0Z"/><path class="cls-2" d="M300,246.3l0,0Z"/><path class="cls-2" d="M317.87,292.63a15.58,15.58,0,0,1-.63,4.39A15.58,15.58,0,0,0,317.87,292.63Z"/><path class="cls-2" d="M317.24,288.23a15.91,15.91,0,0,1,.63,4.33A15.91,15.91,0,0,0,317.24,288.23Z"/><path class="cls-2" d="M148.53,309.56l-.33-.09Z"/><path class="cls-2" d="M12.06,168.67a16,16,0,0,1,2.29-1.89A16,16,0,0,0,12.06,168.67Z"/><path class="cls-2" d="M54.35,210.33a1.29,1.29,0,0,0,0-.19A1.29,1.29,0,0,1,54.35,210.33Z"/><path class="cls-2" d="M8.22,175a15.41,15.41,0,0,1,2.84-5.22A15.41,15.41,0,0,0,8.22,175Z"/><path class="cls-2" d="M55.2,214l0-.14Z"/><path class="cls-2" d="M61,231.78a.78.78,0,0,1,0-.14A.78.78,0,0,0,61,231.78Z"/><path class="cls-2" d="M62.46,235.23l-.1-.24Z"/><path class="cls-2" d="M15.62,166a15.35,15.35,0,0,1,4.25-1.55A15.35,15.35,0,0,0,15.62,166Z"/><path class="cls-2" d="M66.34,121l.08-.14Z"/><path class="cls-2" d="M64,238.52l0-.11A.37.37,0,0,0,64,238.52Z"/><path class="cls-2" d="M61.14,132.11c0-.05,0-.11.07-.17S61.16,132.06,61.14,132.11Z"/><path class="cls-2" d="M68.27,117.41l.09-.16Z"/><path class="cls-2" d="M55.86,147.73l0-.11Z"/><path class="cls-2" d="M53.18,160v0Z"/><path class="cls-2" d="M75.1,257.66l-.15-.22Z"/><path class="cls-2" d="M114.1,294.52l-.63-.39Z"/><path class="cls-2" d="M70.63,315.55a16.94,16.94,0,0,1-2-.78A16.94,16.94,0,0,0,70.63,315.55Z"/><path class="cls-2" d="M73.06,254.66l-.16-.24Z"/><path class="cls-2" d="M127.09,301.59l-.18-.08Z"/><path class="cls-2" d="M117.19,296.38l-.56-.34Z"/><path class="cls-2" d="M120.3,298.13l-.23-.12Z"/><path class="cls-2" d="M111,292.51l-.5-.32Z"/><path class="cls-2" d="M71,251.45l0,0Z"/><path class="cls-2" d="M184,49.89a133.91,133.91,0,0,1,21.9,1.8V20.36a15.06,15.06,0,0,0-.7-4.57,15.41,15.41,0,0,0-2.84-5.22c-.32-.38-.65-.74-1-1.09a16,16,0,0,0-2.29-1.89c-.41-.27-.84-.53-1.27-.77a15.68,15.68,0,0,0-4.25-1.55A15.19,15.19,0,0,0,190.43,5H178.84a15.09,15.09,0,0,0-3.1.32,15.44,15.44,0,0,0-4.25,1.55c-.44.24-.87.5-1.28.77a16,16,0,0,0-2.29,1.89c-.35.35-.68.71-1,1.09a15.59,15.59,0,0,0-2.84,5.22,15.37,15.37,0,0,0-.7,4.57V51.48h0A133.41,133.41,0,0,1,184,49.89Z"/><path class="cls-2" d="M107.54,74,86,52.54A15.47,15.47,0,0,0,75,48.05a14.66,14.66,0,0,0-1.48.07c-.5.05-1,.12-1.48.21a15.78,15.78,0,0,0-2.5.71c-.34.13-.67.27-1,.42a15.41,15.41,0,0,0-4.47,3.08l-8.2,8.17a15.41,15.41,0,0,0-3.09,4.46,15.83,15.83,0,0,0-.78,2A15.61,15.61,0,0,0,52,75.65a15.25,15.25,0,0,0,4,6.85l21.26,21.19A133.13,133.13,0,0,1,107.54,74Z"/><path class="cls-2" d="M51.32,182.12a133.29,133.29,0,0,1,1.22-18H23a15.12,15.12,0,0,0-3.11.32A15.35,15.35,0,0,0,15.62,166c-.43.24-.86.49-1.27.77a16,16,0,0,0-2.29,1.89c-.35.35-.68.71-1,1.09A15.41,15.41,0,0,0,8.22,175a15,15,0,0,0-.7,4.57V191.1A15.48,15.48,0,0,0,23,206.51h30.6A132.51,132.51,0,0,1,51.32,182.12Z"/><path class="cls-2" d="M163.38,312.75h0v31.12a15.49,15.49,0,0,0,15.46,15.41h11.59a15.48,15.48,0,0,0,15.46-15.41V312.54a134.24,134.24,0,0,1-42.51.21Z"/><path class="cls-2" d="M261.2,289.66l22.1,22a15.42,15.42,0,0,0,6.88,3.95,15.68,15.68,0,0,0,8.46-.09,16.94,16.94,0,0,0,2.05-.78,15.41,15.41,0,0,0,4.47-3.08l8.2-8.17a15.36,15.36,0,0,0,3.38-5.09,14.79,14.79,0,0,0,.5-1.41,15.58,15.58,0,0,0,.63-4.39v-.07a15.91,15.91,0,0,0-.63-4.33,15.32,15.32,0,0,0-3.88-6.5l-11-11-11-11A133.32,133.32,0,0,1,261.2,289.66Z"/><path class="cls-2" d="M77.17,260.54,55.91,281.73a15.2,15.2,0,0,0-3.87,6.5A15.47,15.47,0,0,0,52,297a14.71,14.71,0,0,0,.49,1.41,15.36,15.36,0,0,0,3.38,5.09l8.2,8.17a15.41,15.41,0,0,0,4.47,3.08,16.94,16.94,0,0,0,2,.78,15.72,15.72,0,0,0,8.47.09A15.38,15.38,0,0,0,86,311.69l21.57-21.5A133.13,133.13,0,0,1,77.17,260.54Z"/><path class="cls-2" d="M291.36,104.43l11-11,11-11a15.25,15.25,0,0,0,4-6.85,15.77,15.77,0,0,0,.55-4V71.6a15.58,15.58,0,0,0-.63-4.39,15.9,15.9,0,0,0-.79-2,15.21,15.21,0,0,0-3.09-4.46l-8.2-8.17a15.41,15.41,0,0,0-4.47-3.08c-.33-.15-.66-.29-1-.42a15.78,15.78,0,0,0-2.5-.71q-.74-.13-1.47-.21a14.86,14.86,0,0,0-1.49-.07,15.47,15.47,0,0,0-10.93,4.49l-22.1,22A133.32,133.32,0,0,1,291.36,104.43Z"/><path class="cls-2" d="M361.06,168.56a15.44,15.44,0,0,0-2.85-5.22,14.53,14.53,0,0,0-1-1.09,16.54,16.54,0,0,0-2.29-1.89c-.42-.27-.84-.53-1.28-.77A15.44,15.44,0,0,0,349.4,158a15.09,15.09,0,0,0-3.1-.32H314.41a132.89,132.89,0,0,1,1,42.37H346.3a15.48,15.48,0,0,0,15.46-15.41V173.13A15.37,15.37,0,0,0,361.06,168.56Z"/><path class="cls-2" d="M314.41,157.72h0c-.23-1.2-.47-2.39-.72-3.58a1.16,1.16,0,0,1,0-.18c-.25-1.15-.52-2.29-.8-3.43,0-.06,0-.12,0-.17a130.82,130.82,0,0,0-7-20.8l0,0q-.71-1.64-1.47-3.24l0-.11a132,132,0,0,0-12.87-21.74h0A133.32,133.32,0,0,0,261.2,74.57c-2-1.43-4.06-2.82-6.16-4.14l-.06,0c-1-.62-2-1.23-3-1.82l-.42-.25c-.9-.53-1.81-1-2.72-1.57l-.49-.27c-.93-.52-1.88-1-2.83-1.52l-.33-.18a132,132,0,0,0-13.55-6.09l-.08,0c-1.13-.43-2.26-.85-3.41-1.25l-.17-.06a131.37,131.37,0,0,0-22.12-5.66,134.24,134.24,0,0,0-42.51-.21h0c-1.21.19-2.42.39-3.62.61l-.63.13q-1.51.28-3,.6l-.78.17c-1,.21-2,.44-2.91.67l-.71.17c-1.07.27-2.13.55-3.19.84l-.33.09q-3.64,1-7.2,2.23l-.13,0c-1.1.38-2.18.77-3.26,1.17l-.61.23c-.94.35-1.86.72-2.79,1.09l-.71.29c-.91.37-1.83.76-2.74,1.16l-.6.26c-1,.46-2,.92-3.07,1.41l-.18.08c-2.24,1.07-4.45,2.19-6.61,3.38l-.23.12c-1,.53-1.92,1.08-2.88,1.63l-.56.34c-.85.49-1.69,1-2.53,1.52l-.63.39c-.84.53-1.68,1.07-2.51,1.62l-.5.32c-1,.65-2,1.32-2.92,2a133.13,133.13,0,0,0-30.37,29.65q-1.17,1.57-2.28,3.18l-.15.21q-3.42,4.94-6.38,10.17l-.09.16c-.63,1.12-1.25,2.25-1.85,3.4l-.08.14q-2.81,5.35-5.13,11c0,.06-.05.12-.07.17a130.31,130.31,0,0,0-5.25,15.51l0,.11q-1.62,6-2.68,12.21v0c-.24,1.38-.45,2.77-.64,4.16a132.89,132.89,0,0,0,1,42.37h0c.22,1.22.47,2.42.73,3.63a1.29,1.29,0,0,1,0,.19c.26,1.17.53,2.34.82,3.5l0,.14A130.26,130.26,0,0,0,61,231.64a.78.78,0,0,0,0,.14c.44,1.08.89,2.15,1.36,3.21l.1.24c.47,1.07,1,2.13,1.46,3.18l0,.11a130.48,130.48,0,0,0,7,12.9l0,0q.93,1.5,1.89,3l.16.24c.62.94,1.25,1.86,1.89,2.78l.15.22q1,1.45,2.07,2.88a133.13,133.13,0,0,0,30.37,29.65c1,.68,1.94,1.35,2.92,2l.5.32c.83.55,1.67,1.09,2.51,1.62l.63.39c.84.52,1.68,1,2.53,1.52l.56.34c1,.55,1.92,1.1,2.88,1.63l.23.12c2.16,1.19,4.37,2.31,6.61,3.38l.18.08c1,.49,2,1,3.07,1.41l.6.26c.91.4,1.83.79,2.74,1.16l.71.29c.93.38,1.85.74,2.79,1.09l.61.23c1.08.4,2.16.79,3.26,1.17l.13,0q3.56,1.22,7.2,2.23l.33.09c1.06.29,2.12.57,3.19.84l.71.17c1,.23,1.93.46,2.91.67l.78.17q1.49.31,3,.6l.63.13c1.2.22,2.41.42,3.62.61h0a134.24,134.24,0,0,0,42.51-.21A131.37,131.37,0,0,0,228,306.88l.17-.06c1.15-.4,2.28-.82,3.41-1.25l.08,0a132,132,0,0,0,13.55-6.09l.33-.18c.95-.5,1.9-1,2.83-1.52l.49-.27c.91-.52,1.82-1,2.72-1.57l.42-.25c1-.59,2-1.2,3-1.82l.06,0c2.1-1.32,4.15-2.71,6.16-4.14a133.32,133.32,0,0,0,30.16-29.86h0A131.59,131.59,0,0,0,300,246.33l0,0a129.87,129.87,0,0,0,7-14.51v0c1.53-3.74,2.88-7.58,4.06-11.49h0c.39-1.3.76-2.62,1.12-3.93h0q1.59-5.94,2.63-12.08v-.06c.23-1.36.44-2.72.63-4.09a132.89,132.89,0,0,0-1-42.37Zm-223.16,25c0-51.41,41.81-93.08,93.39-93.08S278,131.35,278,182.76s-41.82,93.07-93.39,93.07S91.25,234.16,91.25,182.76Z"/></g></g></svg>
