<svg xmlns="http://www.w3.org/2000/svg" xmlns:xlink="http://www.w3.org/1999/xlink" viewBox="0 0 1600 900"><defs><style>.cls-1{filter:url(#AI_GaussianBlur_7);}.cls-2{fill:#fff;}.cls-3{fill:#a68946;}.cls-4{fill:#735f30;}.cls-5{fill:#a68549;}.cls-6{fill:#b5a582;}.cls-7{fill:#cca956;}.cls-8{fill:#7e6b44;}.cls-9{fill:#f2deae;}.cls-10{fill:#d7847c;}.cls-11{fill:#333;}.cls-12{fill:#242b33;}.cls-13{fill:#424242;}.cls-14{fill:#999;}.cls-15{fill:#e6e6e6;}.cls-16{fill:#54a651;}.cls-17{fill:#b0a663;}.cls-18{fill:#61bf5e;}.cls-19{fill:#8a824d;}.cls-20{fill:#41803e;}.cls-21{fill:#20401f;}.cls-22{fill:#67cc64;}.cls-23{fill:#635e38;}.cls-24{fill:#ed1c24;}</style><filter id="AI_GaussianBlur_7" name="AI_GaussianBlur_7"><feGaussianBlur stdDeviation="7"/></filter></defs><g id="Assetlist_-_Artboard" data-name="Assetlist - Artboard"><g id="infoskærm"><g class="cls-1"><rect x="18.67" y="17.98" width="1534.26" height="863.02" rx="12"/></g><rect class="cls-2" x="11" y="9.35" width="1534.26" height="863.02" rx="12"/><g class="cls-1"><rect x="42.62" y="436.61" width="1479.44" height="19.07" rx="9.34"/></g><rect x="39.89" y="433.88" width="1479.44" height="19.07" rx="9.34"/><g id="odder_farlig" data-name="odder farlig" class="cls-1"><g id="odder"><g id="krop"><g id="bsgben"><g id="fod_foreben" data-name="fod foreben"><path d="M425.75,375a11.94,11.94,0,0,0-6.35,7.63h0l0,0-.74,2.75,0,0L418,388l0,0-.75,2.74s7.2-8.54,15.11-8.26c1.25.05,12.52-7.73,6.3-6.11,3.66-2.38,5.09-3.86.71-2.72,3.67-2.39,5.09-3.87.72-2.73,3.63-2.36,4.69-2.66,1.28-3C429.68,366.94,425.75,375,425.75,375Z"/><path d="M439.46,373.72c-2.17.21-3.68,0-5.19,1.61-.07.08-.15,0-.17,0h0s0-.1,0-.18c1.58-1.55,3-1.41,5.23-1.64.12,0,.16,0,.18.09h0A.11.11,0,0,1,439.46,373.72Z"/><path d="M438.86,376.45c-2.17.22-3.68,0-5.19,1.62-.07.08-.15,0-.17,0h0s0-.11.05-.19c1.58-1.54,3-1.41,5.23-1.64.12,0,.16,0,.18.09h0A.11.11,0,0,1,438.86,376.45Z"/><path d="M440.18,371c-2.17.21-3.68,0-5.19,1.61-.07.08-.15,0-.17,0h0s0-.11.05-.19c1.58-1.54,3-1.4,5.23-1.63.12,0,.16,0,.18.08h0A.12.12,0,0,1,440.18,371Z"/></g><g id="fod_bagben" data-name="fod bagben"><path d="M341.87,384.05a12,12,0,0,0-7.77,6.19h0l-1.28,2.53h0l-1.28,2.53h0l-1.28,2.54s8.78-6.91,16.46-5c1.22.3,13.84-5,7.41-4.7,4.08-1.6,5.77-2.76,1.26-2.53,4.07-1.59,5.76-2.75,1.25-2.52,4-1.58,5.14-1.65,1.85-2.65C347.34,377,341.87,384.05,341.87,384.05Z"/><path d="M355.54,385.62c-2.17-.23-3.61-.72-5.41.53-.09.06-.14,0-.16-.08h0s0-.11.09-.17c1.86-1.19,3.24-.76,5.46-.54.11,0,.14.06.15.12h0A.11.11,0,0,1,355.54,385.62Z"/><path d="M354.4,388.17c-2.17-.23-3.61-.72-5.41.53-.09.07-.15,0-.16-.07h0c0-.05,0-.11.09-.17,1.86-1.19,3.24-.77,5.45-.55.12,0,.15.07.16.12h0C354.54,388.09,354.51,388.19,354.4,388.17Z"/><path d="M356.8,383.12c-2.17-.23-3.61-.72-5.41.53-.09.06-.15,0-.17-.08h0s0-.11.09-.17c1.86-1.19,3.25-.76,5.46-.54.11,0,.15.06.16.12h0A.11.11,0,0,1,356.8,383.12Z"/></g><path id="bagben" d="M285.4,340.67s22.39,60.89,31.54,60,32.06-.91,29.31-6.41S333.12,380.58,331,383.74s-11.71-13.24-3.26-16,16.59-18.63,13.43-19.86,7.23-1.75-5.29-24.85-50.47,15.48-50.47,15.48"/><path id="foreben" d="M398,328.48s-4.59,18.58-1.21,24.13,6.92,19.66,4.59,23.68,9.4,16.12,13,12.85c0,0,20.1,2.91,17.32-2.59s-7.79-12.64-11.69-11.31-2.15-16.31,2-16,10-20.6,6.84-20.9,19.6-14.13,14.47-16.86-17.51-35.87-28.84-29S398,328.48,398,328.48Z"/></g><g id="krop_u_ben" data-name="krop u ben"><path id="hele_krop" data-name="hele krop" d="M479,277.28c-.36-2.08-3.38-1.46-7.49,0-6.94,2.45-17,7.27-22.56,5.38a15.72,15.72,0,0,1-9.36-7.86c-2.86-5.38-2.51-10.54-7.7-7.48-3.48,2.05-12.75,10.52-20.5,19.6a36.43,36.43,0,0,1-29.81,12.83c-29-1.63-79.34-15-115.57,29.28,0,0-47.56,6.2-77.45,6.83-.16,0-115.27,9.3-70.48,18.27,25.35,5.08,30.31,6.6,47.71,7.52,6.59.34,32.05-3.67,66.85,3.66,24.46,5.15,34.24-4.76,49.8,5.37,2.3,1.49,9.9,3.85,15.67,1.28a56.41,56.41,0,0,0,8.85.89c8.92.27,22.89-1.07,33.86-10.17,14.15-11.74,31-8.36,42.47-6.26l.18,0c6.29,1.07,19.45-1.16,27.58.83s48.95-28.62,49.29-39.43C460.52,311.74,480.22,284.53,479,277.28Z"/><path id="lyser_krop" data-name="lyser krop" d="M471.65,278.3c0-.35,3-7.55,2.92-7.88-6.95,2.45-13.67,6.47-19.23,4.58-5.16-1.76-9.39-1.56-11-4.58C424.2,319,316,336.91,316,336.91c0-.18-13.69,27.9-9,35.93,8.92.27,22.89-1.07,33.86-10.17,14.15-11.74,31-8.36,42.47-6.26l.18,0c10.79-3.44,19.83-7.17,25-11.29,9.51-7.57,25.81-12.78,37.72-24.36C461.56,305.82,471.65,284.49,471.65,278.3Z"/></g><g id="foreben-2" data-name="foreben"><g id="fod_bagben-2" data-name="fod bagben"><path d="M326.9,392.68a13,13,0,0,0-10.15,3.72h0l-2.2,2.17h0l-2.2,2.17h0l-2.2,2.17s11.44-4.12,18.73.47c1.15.73,16-.44,9.27-2.31,4.75-.24,6.9-.86,2.16-2.18,4.75-.24,6.9-.85,2.16-2.17,4.71-.24,5.88.06,2.82-2.09C335,387.29,326.9,392.68,326.9,392.68Z"/><path d="M340.48,399c-2.16-1-3.48-2-5.77-1.32-.12,0-.14-.08-.14-.13h0c0-.06,0-.12.15-.15,2.33-.59,3.61.33,5.82,1.32.11,0,.13.12.12.18h0A.12.12,0,0,1,340.48,399Z"/><path d="M338.42,401.25c-2.16-1-3.48-2-5.77-1.31-.11,0-.14-.08-.14-.14h0c0-.05,0-.11.15-.14,2.33-.59,3.61.32,5.82,1.32.11,0,.13.11.12.17h0A.12.12,0,0,1,338.42,401.25Z"/><path d="M342.63,396.86c-2.16-1-3.47-2-5.76-1.32-.12,0-.15-.08-.15-.13h0c0-.06,0-.12.15-.15,2.33-.59,3.62.33,5.82,1.32.12.05.13.12.12.18h0A.12.12,0,0,1,342.63,396.86Z"/></g><g id="fod_foreben-2" data-name="fod foreben"><path d="M417.16,383.59a13,13,0,0,0-9.91,4.33h0l-2.06,2.3h0l-2.07,2.3h0l-2.06,2.3s11.17-4.8,18.73-.66c1.19.66,15.95-1.4,9.11-2.86,4.73-.53,6.83-1.27,2-2.3,4.73-.53,6.84-1.28,2-2.31,4.68-.52,5.87-.29,2.69-2.25C424.9,377.72,417.16,383.59,417.16,383.59Z"/><path d="M431.1,389.09c-2.22-.86-3.59-1.78-5.84-1-.11,0-.15-.07-.15-.12h0c0-.06,0-.12.14-.16,2.29-.73,3.63.11,5.89,1,.12,0,.14.1.13.17h0A.12.12,0,0,1,431.1,389.09Z"/><path d="M429.18,391.45c-2.22-.85-3.59-1.77-5.84-1-.11,0-.15-.08-.15-.13h0c0-.05,0-.12.14-.15,2.29-.73,3.63.1,5.89,1,.12,0,.14.11.13.17h0A.12.12,0,0,1,429.18,391.45Z"/><path d="M433.12,386.81c-2.22-.85-3.59-1.77-5.84-1-.11,0-.14-.07-.15-.12h0c0-.05,0-.12.14-.15,2.29-.73,3.63.1,5.89,1,.12,0,.14.11.13.17h0A.12.12,0,0,1,433.12,386.81Z"/></g><path id="bagben-2" data-name="bagben" d="M271.66,347.08s22.39,60.89,31.55,60c4.4-.44,12-.67,18.36-1.4,6.88-.78,12.37-2.16,10.94-5-2.74-5.49-13.12-13.65-15.26-10.49s-11.7-13.24-3.26-16,16.59-18.62,13.44-19.86,7.22-1.75-5.3-24.85-50.47,15.48-50.47,15.48"/><path id="foreben-3" data-name="foreben" d="M385.19,334s-4.6,18.57-1.22,24.13,6.93,19.65,4.6,23.68,9.4,16.12,13,12.84c0,0,20.1,2.92,17.32-2.58s-7.79-12.65-11.69-11.31-2.15-16.31,2-16,10-20.6,6.84-20.9,17.24-13.68,14.46-16.86c-3.82-4.39-17.81-28.75-27.44-25.2C390.59,306.31,385.19,334,385.19,334Z"/></g><g id="hår"><path d="M290.82,318.76s16.32-8.44,31.09-9.65S290.82,318.76,290.82,318.76Z"/><path d="M430,321.49s8.74-11.52,18.82-17.38S430,321.49,430,321.49Z"/><path d="M420.85,305.31s8.73-11.52,18.82-17.38S420.85,305.31,420.85,305.31Z"/><path d="M345.21,339.92s16.24-5,29.89-3.69S345.21,339.92,345.21,339.92Z"/><path d="M332.73,350s16.25-5,29.89-3.69S332.73,350,332.73,350Z"/><path d="M156.61,345.11s15.11-4.19,27.66-2.6S156.61,345.11,156.61,345.11Z"/><path d="M220.67,358.26s15.11-4.19,27.66-2.6S220.67,358.26,220.67,358.26Z"/><path d="M348.45,315.61s16.69-6.2,31-5.63S348.45,315.61,348.45,315.61Z"/></g></g><g id="farligt_ansigt" data-name="farligt ansigt"><path id="hovedform" d="M489.11,262.36c-3.66,12.82-12.52,24.72-30.22,24.72s-23.81-12.82-27.47-23.81c-4.4-13.19,9.77-26.56,27.47-26.56S492.93,249,489.11,262.36Z"/><g id="under_ansigt" data-name="under ansigt"><path d="M447.21,272c1.41,4-2.35,7.66-5,9.64,4,3.37,9.34,5.57,16.68,5.57a31.29,31.29,0,0,0,13.09-2.65,61.84,61.84,0,0,0,2.46-12C461.57,283.21,447.21,272,447.21,272Z"/></g><g id="ansigt"><g id="hår-2" data-name="hår"><path d="M432.19,251.49c-.09.2-.18.4-.26.6"/><path d="M480.79,270a26,26,0,0,0-3.74,7.82S483.22,266.89,480.79,270Z"/><path d="M441.75,253a20.91,20.91,0,0,0-3,6.19S443.71,250.6,441.75,253Z"/><path d="M482.83,255.26s1.55,10.46,1.56,7.14A22.13,22.13,0,0,0,482.83,255.26Z"/><path d="M457.59,250.05a16.48,16.48,0,0,0-1.38-5.29S457.68,252.53,457.59,250.05Z"/><path d="M464.13,249.76a16.3,16.3,0,0,0,1.28-5.31S463,252,464.13,249.76Z"/><path d="M452.9,278.83a18.75,18.75,0,0,0-1.72,5.95S454.26,276.36,452.9,278.83Z"/><path d="M463.69,280.18a18.75,18.75,0,0,0-1.72,5.95S465.05,277.71,463.69,280.18Z"/><path d="M436.39,268.58a19.7,19.7,0,0,0,2.83,5.88S435.71,265.69,436.39,268.58Z"/></g><g id="mule"><path d="M460.31,278.71c-11,1.59-18.82-10.86-19.73-13.61-.76-2.28,13.82-7,18.28-8.49a1.1,1.1,0,0,1,1.45,1Z"/><path d="M460.33,278.71c11,1.59,18.71-10.86,19.63-13.61.76-2.28-13.72-7-18.18-8.49a1.1,1.1,0,0,0-1.45,1Z"/></g><g id="næse"><path id="farve" d="M464.21,259.52s-1.78-2.49-5.82-1.17c-3.31,1.08.24,5.71,1.82,7.71a.92.92,0,0,0,1.43,0C462.85,264.63,465,261.61,464.21,259.52Z"/><ellipse id="næsebor2" cx="463.12" cy="260.82" rx="0.79" ry="1.38"/><ellipse id="næsebor1" cx="458.66" cy="260.82" rx="0.79" ry="1.38"/></g><g id="mund"><path d="M474,267.66l-1.06,0a.6.6,0,0,1-.06.19l-1,2a.81.81,0,0,1-1.43,0l-1.07-2a.71.71,0,0,1-.09-.28l-2.12,0a.73.73,0,0,1-.05.54l-1,2a.81.81,0,0,1-1.43,0l-1.07-2a.8.8,0,0,1-.07-.6c-1.82,0-3.64.13-5.46.28a.85.85,0,0,1,0,.61l-.86,2.1a.8.8,0,0,1-1.42.12l-1.21-1.92a.75.75,0,0,1-.11-.54l-2.11.25a.77.77,0,0,1-.05.29l-.86,2.1A.8.8,0,0,1,450,271l-1.21-1.93a.89.89,0,0,1-.08-.17l-1.2.14c-5-7.83-1.63,1.55-.8,2.35a28.84,28.84,0,0,0,4.34,3.39l2.2-2.59a.8.8,0,0,1,1.4.6l-.36,3.67c.35.14.7.29,1.06.41.84-1,6.25-6.65,11.59-.7.4-.2.8-.43,1.21-.67l-.71-3.38a.81.81,0,0,1,1.34-.75l2.25,2.15A39.68,39.68,0,0,0,475,270C475.79,269.12,479.59,259.29,474,267.66Z"/><path d="M455.39,276.89a16,16,0,0,0,5.64.92,14.09,14.09,0,0,0,6-1.62C461.64,270.24,456.23,275.93,455.39,276.89Z"/><path d="M450,271a.8.8,0,0,0,1.42-.13l.86-2.1a.77.77,0,0,0,.05-.29l-3.62.42a.89.89,0,0,0,.08.17Z"/><path d="M454.59,268.79l1.21,1.92a.8.8,0,0,0,1.42-.12l.86-2.1a.85.85,0,0,0,0-.61c-1,.08-2,.18-2.94.29l-.66.08A.75.75,0,0,0,454.59,268.79Z"/><path d="M470.44,269.9a.81.81,0,0,0,1.43,0l1-2a.6.6,0,0,0,.06-.19l-3.65,0a.71.71,0,0,0,.09.28Z"/><path d="M463.61,268.2l1.07,2a.81.81,0,0,0,1.43,0l1-2a.73.73,0,0,0,.05-.54h-.84c-.92,0-1.85,0-2.78,0A.8.8,0,0,0,463.61,268.2Z"/><path d="M453.29,272.21l-2.2,2.59a22.42,22.42,0,0,0,3.24,1.68l.36-3.67A.8.8,0,0,0,453.29,272.21Z"/><path d="M467.48,272.14l.71,3.38a25.67,25.67,0,0,0,2.88-2l-2.25-2.15A.81.81,0,0,0,467.48,272.14Z"/></g><g id="øjene_og_bryn" data-name="øjene og bryn"><circle id="øje1" cx="447.38" cy="257.84" r="2.47"/><circle id="øje2" cx="473.28" cy="257.11" r="2.47"/></g><g id="øre2"><path d="M443.14,239.67c2.22.42.12,5.19-2.93,7.68s-6.68,3.11-8.11,1.36-1-5.57,2.93-7.68A13.24,13.24,0,0,1,443.14,239.67Z"/><path d="M443.65,239.84c2.15.4.11,5-2.85,7.46s-6.48,3-7.87,1.31-.94-5.4,2.85-7.45A12.91,12.91,0,0,1,443.65,239.84Z"/></g><g id="øre1"><path d="M476.71,241.5c-2.21.42-.11,5.19,2.94,7.69s6.68,3.1,8.11,1.35,1-5.56-2.93-7.68A13.27,13.27,0,0,0,476.71,241.5Z"/><path d="M476.21,241.68c-2.15.4-.11,5,2.85,7.45s6.48,3,7.87,1.31.94-5.4-2.85-7.45A12.81,12.81,0,0,0,476.21,241.68Z"/></g><rect x="445.57" y="247.67" width="2.02" height="12.48" transform="matrix(0.5, -0.87, 0.87, 0.5, 3.4, 513.71)"/><rect x="467.32" y="252.9" width="12.48" height="2.02" transform="translate(-63.51 270.8) rotate(-30)"/></g><g id="hår-3" data-name="hår"><path d="M454.51,261.85s-26.93-1.85-42.45.14"/><path d="M455.38,263.1s-27,0-42.34,3.13"/><path d="M457,264s-26.88,2.45-41.89,6.89"/><path d="M456.29,265.54s-26.25,6.33-40.45,12.89"/><path d="M467.65,261.85s26.94-1.85,42.46.14"/><path d="M466.79,263.1s27,0,42.34,3.13"/><path d="M465.17,264s26.89,2.45,41.89,6.89"/><path d="M465.88,265.54s26.24,6.33,40.45,12.89"/></g></g></g><path d="M428.44,243.53h0Z"/><path d="M492.78,243.23a5.08,5.08,0,0,0-.66-.68c-11.88,7.93-49.61,7.82-62.92.09q.33-.3.75-.63c12.66,7.31,50.06,7.56,61.41-.09-.54-.42-1.18-.89-1.86-1.38-17.64,7-40.05,7.43-57.49-.06l.83-.59c16.9,7.18,38.65,6.67,55.78,0l-1.25-.9c-14.89,5.26-38.77,6.13-52.4-.68l.84-.66c13.25,6.45,36.3,5.75,50.74.73a26.11,26.11,0,0,1-2.15-1.78c-13.65,4.65-33.4,4.57-47-.37a6.82,6.82,0,0,0,.64-.73c13.21,4.73,32.41,4.87,45.67.42a3.16,3.16,0,0,1-.9-1.58c-.36-2.91-3.21-11.24-5.71-14.94-13.37,2.76-19.12,3.91-32.55-.32a3.24,3.24,0,0,0-.24.31c-2.51,3.69-5.37,12-5.73,15-.3,2.48-8.24,6.78-9.9,8.78C436,251.82,485.77,251.83,492.78,243.23Z"/><path d="M476.43,218.71c-3.65-3-15.62-3.54-15.72-3.54h0c-.1,0-11.42.47-15.4,3.29C458.06,222.42,463.73,221.34,476.43,218.71Z"/><path d="M428.55,243.33Z"/><path d="M492.94,244c-1.18,1.25-9.65,7-32.23,6-22.58,1-31-4.71-32.24-6l0,0s0,0,0,0c1.19,1.25,9.66,7,32.24,6,22.58,1,31.05-4.72,32.23-6l0,0S493,244,492.94,244Z"/><path d="M444.58,219.09l0-.05Z"/><path d="M493,243.68v0Z"/><path d="M428.39,243.71v0Z"/><path d="M493,243.84s0,0,0,0S493,243.85,493,243.84Z"/><path d="M493,243.5l0,0Z"/><path d="M428.41,243.88l0,0Z"/><path d="M492.86,243.33Z"/><path d="M438.05,235.53a6.82,6.82,0,0,1-.64.73c13.59,4.94,33.34,5,47,.37h0c-.24-.24-.47-.46-.67-.69h0C470.46,240.4,451.26,240.26,438.05,235.53Z"/><path d="M435.81,237.68l-.84.66c13.63,6.81,37.51,5.94,52.4.68h0l-.82-.6h0C472.11,243.43,449.06,244.13,435.81,237.68Z"/><path d="M432.84,239.89l-.83.59c17.44,7.49,39.85,7.08,57.49.06h0l-.88-.63h0C471.49,246.56,449.74,247.07,432.84,239.89Z"/><path d="M430,242q-.42.33-.75.63c13.31,7.73,51,7.84,62.92-.09h0c-.23-.2-.48-.41-.76-.63h0C480,249.57,442.61,249.32,430,242Z"/><path d="M477.11,219.43h0v0a3.6,3.6,0,0,0-.66-.7h0c-12.7,2.63-18.37,3.71-31.13-.25h0a4.91,4.91,0,0,0-.67.58l0,.05,0,0h0C458,223.34,463.74,222.19,477.11,219.43Z"/><path d="M460.71,249.93c22.58,1,31.05-4.71,32.23-6,0,0,0,0,0,0a.25.25,0,0,0,0-.07s0,0,0,0a.24.24,0,0,0,0-.12v0a.74.74,0,0,0,0-.14l0,0-.1-.17h0a.39.39,0,0,0-.08-.1h0c-7,8.6-56.78,8.59-64.09-.08h0l-.14.18h0l-.11.19h0a.88.88,0,0,0-.05.15v0a.48.48,0,0,0,0,.12l0,0,0,.06,0,0C429.66,245.22,438.13,251,460.71,249.93Z"/><g id="æg"><path id="outline" d="M460.53,237.12a2.56,2.56,0,0,1-.39,0l-.15,0,0,0c-1.39-.32-2.55-1.78-3.07-3.88h0l0-.2a8.92,8.92,0,0,1-.19-1.17l0-.25h0c0-.24,0-.49,0-.73a10.45,10.45,0,0,1,.2-2h0l.06-.26c0-.14.07-.27.12-.43l0-.09v0l0-.09c.67-2.08,2-3.38,3.49-3.38a3.41,3.41,0,0,1,2.84,1.94,8.67,8.67,0,0,1,1.09,4.38,9.47,9.47,0,0,1-.58,3.33c-.1.24-.2.48-.32.71l-.08.17h0a4.34,4.34,0,0,1-1.68,1.78v0l-.14.07A2.61,2.61,0,0,1,460.53,237.12Z"/><g id="æg1"><ellipse cx="460.54" cy="230.79" rx="3.5" ry="5.89"/><ellipse cx="460.24" cy="233.39" rx="0.68" ry="0.82" transform="translate(-27.66 65.33) rotate(-7.88)"/><ellipse cx="459.76" cy="230.61" rx="0.82" ry="0.62" transform="translate(-53.21 268.42) rotate(-30.85)"/><ellipse cx="461.48" cy="226.36" rx="0.68" ry="0.65" transform="translate(-10.55 429.82) rotate(-49.45)"/><ellipse cx="460.01" cy="228.06" rx="0.57" ry="0.69" transform="translate(169.56 651.45) rotate(-81.92)"/><ellipse cx="462.02" cy="231.1" rx="0.67" ry="0.77" transform="translate(-33.42 377.41) rotate(-43.03)"/><path d="M458.57,228.23a.71.71,0,0,0-.67-.74.76.76,0,0,0-.26,0,7,7,0,0,0-.35,1.09.84.84,0,0,0,.42.18A.72.72,0,0,0,458.57,228.23Z"/><path d="M460.92,235.36a.79.79,0,0,0-.71,1.31l.32,0a2.19,2.19,0,0,0,.94-.21.86.86,0,0,0,.07-.21A.77.77,0,0,0,460.92,235.36Z"/><path d="M463.15,233.2a.73.73,0,0,0-.26,1.44.6.6,0,0,0,.3,0,6.7,6.7,0,0,0,.44-1.09A.68.68,0,0,0,463.15,233.2Z"/><path d="M462.71,227.83a.82.82,0,0,0,1.11,1.2l0,0a7.89,7.89,0,0,0-.34-1.25A.7.7,0,0,0,462.71,227.83Z"/><path d="M458,232.79a.65.65,0,0,0,0-.91.66.66,0,0,0-.85-.14,9.7,9.7,0,0,0,.18,1.12A.62.62,0,0,0,458,232.79Z"/></g></g></g><g id="odder_farlig-2" data-name="odder farlig"><g id="odder-2" data-name="odder"><g id="krop-2" data-name="krop"><g id="bsgben-2" data-name="bsgben"><g id="fod_foreben-3" data-name="fod foreben"><path class="cls-3" d="M415.63,370.35a12,12,0,0,0-6.35,7.64h0l0,0-.75,2.74h0l-.75,2.74,0,0-.74,2.74s7.2-8.55,15.1-8.26c1.25.05,12.53-7.73,6.31-6.11,3.66-2.39,5.08-3.86.71-2.73,3.66-2.38,5.08-3.86.71-2.72,3.63-2.36,4.7-2.66,1.28-3C419.56,362.34,415.63,370.35,415.63,370.35Z"/><path d="M429.34,369.12c-2.17.21-3.68,0-5.19,1.61-.08.08-.15,0-.18,0h0s0-.11.06-.18c1.58-1.55,3-1.41,5.23-1.64.11,0,.16,0,.18.08h0A.12.12,0,0,1,429.34,369.12Z"/><path d="M428.74,371.85c-2.17.21-3.68,0-5.19,1.61-.08.08-.15,0-.18,0h0s0-.1.06-.18c1.58-1.54,3-1.41,5.23-1.64.11,0,.16,0,.18.09h0A.11.11,0,0,1,428.74,371.85Z"/><path d="M430.06,366.41c-2.17.22-3.68,0-5.19,1.62-.08.08-.15,0-.18,0h0s0-.11.06-.19c1.58-1.54,3-1.41,5.23-1.63a.14.14,0,0,1,.18.08h0A.11.11,0,0,1,430.06,366.41Z"/></g><g id="fod_bagben-3" data-name="fod bagben"><path class="cls-3" d="M331.74,379.45a12,12,0,0,0-7.77,6.19h0l-1.29,2.53h0l-1.29,2.53h0l-1.29,2.54s8.78-6.91,16.47-5c1.21.3,13.83-5,7.41-4.71,4.07-1.59,5.76-2.75,1.25-2.52,4.07-1.59,5.76-2.75,1.25-2.52,4-1.58,5.14-1.66,1.86-2.65C337.22,372.4,331.74,379.45,331.74,379.45Z"/><path d="M345.42,381c-2.17-.23-3.61-.72-5.41.53-.09.06-.15,0-.17-.08h0c0-.05,0-.11.1-.17,1.86-1.19,3.24-.77,5.45-.54.11,0,.15.06.16.12h0A.11.11,0,0,1,345.42,381Z"/><path d="M344.28,383.57c-2.17-.23-3.61-.72-5.41.53-.09.06-.15,0-.17-.08h0s0-.1.09-.16c1.86-1.2,3.25-.77,5.46-.55a.17.17,0,0,1,.16.12h0A.11.11,0,0,1,344.28,383.57Z"/><path d="M346.67,378.52c-2.17-.23-3.6-.72-5.41.52-.09.07-.14,0-.16-.07h0c0-.05,0-.11.09-.17,1.86-1.19,3.24-.77,5.46-.54.11,0,.14.06.15.12h0A.12.12,0,0,1,346.67,378.52Z"/></g><path id="bagben-3" data-name="bagben" class="cls-4" d="M275.28,336.07s22.38,60.89,31.54,60,32.05-.92,29.31-6.41S323,376,320.86,379.14s-11.7-13.24-3.25-16,16.58-18.63,13.43-19.86,7.22-1.75-5.29-24.85-50.47,15.48-50.47,15.48"/><path id="foreben-4" data-name="foreben" class="cls-4" d="M387.89,323.88s-4.6,18.58-1.22,24.13,6.93,19.66,4.6,23.68,9.4,16.12,13,12.84c0,0,20.11,2.92,17.32-2.58s-7.78-12.65-11.68-11.31-2.16-16.31,2-16,10-20.6,6.84-20.9,19.6-14.13,14.46-16.86-17.51-35.87-28.83-29S387.89,323.88,387.89,323.88Z"/></g><g id="krop_u_ben-2" data-name="krop u ben"><path id="hele_krop-2" data-name="hele krop" class="cls-5" d="M468.86,272.67c-.35-2.08-3.37-1.45-7.48,0-6.95,2.45-17,7.26-22.57,5.37a15.74,15.74,0,0,1-9.36-7.85c-2.85-5.38-2.51-10.54-7.69-7.49-3.49,2.06-12.76,10.53-20.5,19.61a36.43,36.43,0,0,1-29.81,12.83c-29-1.64-79.34-15-115.57,29.28,0,0-47.56,6.2-77.45,6.83-.16,0-115.27,9.3-70.48,18.27,25.35,5.08,30.3,6.6,47.7,7.51,6.6.35,32.06-3.66,66.86,3.67,24.46,5.15,34.24-4.76,49.8,5.37,2.3,1.49,9.89,3.85,15.66,1.28a56.62,56.62,0,0,0,8.85.89c8.92.27,22.9-1.07,33.87-10.17,14.15-11.74,31-8.36,42.47-6.26l.18,0c6.29,1.07,19.45-1.16,27.58.82s48.94-28.61,49.28-39.42C450.39,307.14,470.09,279.92,468.86,272.67Z"/><path id="lyser_krop-2" data-name="lyser krop" class="cls-6" d="M461.53,273.7c0-.36,3-7.55,2.91-7.88-6.94,2.45-13.67,6.47-19.23,4.58-5.15-1.76-9.39-1.57-11-4.58-20.15,48.53-128.38,66.49-128.38,66.49,0-.19-13.68,27.89-9,35.93,8.92.27,22.9-1.07,33.87-10.17,14.15-11.74,31-8.36,42.47-6.26l.18,0c10.78-3.44,19.83-7.17,25-11.29,9.5-7.57,25.81-12.78,37.71-24.36C451.44,301.22,461.53,279.89,461.53,273.7Z"/></g><g id="foreben-5" data-name="foreben"><g id="fod_bagben-4" data-name="fod bagben"><path class="cls-7" d="M316.77,388.08a13,13,0,0,0-10.15,3.72h0l-2.2,2.18h0l-2.19,2.17h0l-2.19,2.18s11.44-4.12,18.73.47c1.15.72,16-.44,9.27-2.31,4.75-.25,6.9-.86,2.16-2.18,4.75-.24,6.89-.86,2.16-2.17,4.7-.24,5.87.06,2.82-2.1C324.85,382.68,316.77,388.08,316.77,388.08Z"/><path d="M330.35,394.41c-2.16-1-3.47-2-5.76-1.32-.12,0-.15-.08-.15-.13h0c0-.06,0-.12.16-.15,2.33-.59,3.61.33,5.81,1.32.12.05.13.11.12.18h0A.12.12,0,0,1,330.35,394.41Z"/><path d="M328.3,396.65c-2.16-1-3.48-2-5.77-1.31-.12,0-.14-.09-.15-.14h0c0-.05,0-.11.16-.14,2.33-.59,3.61.32,5.82,1.31.11.05.13.12.12.18h0A.12.12,0,0,1,328.3,396.65Z"/><path d="M332.51,392.26c-2.16-1-3.48-2-5.77-1.32-.11,0-.14-.08-.14-.13h0c0-.06,0-.12.15-.15,2.33-.59,3.61.33,5.82,1.32.11,0,.13.11.12.18h0A.12.12,0,0,1,332.51,392.26Z"/></g><g id="fod_foreben-4" data-name="fod foreben"><path class="cls-7" d="M407,379a13,13,0,0,0-9.91,4.32h0l-2.07,2.31h0l-2.06,2.31h0l-2.06,2.3s11.17-4.8,18.72-.66c1.19.65,16-1.4,9.12-2.86,4.72-.53,6.83-1.28,2-2.31,4.73-.53,6.83-1.27,2-2.3,4.69-.52,5.87-.29,2.7-2.26C414.77,373.12,407,379,407,379Z"/><path d="M421,384.49c-2.21-.86-3.59-1.78-5.83-1-.12,0-.15-.07-.16-.13h0c0-.05,0-.11.15-.15,2.29-.73,3.62.11,5.89,1,.11.05.13.11.13.17h0A.13.13,0,0,1,421,384.49Z"/><path d="M419.05,386.85c-2.21-.85-3.59-1.77-5.83-1-.12,0-.15-.07-.16-.12h0c0-.06,0-.12.15-.15,2.29-.73,3.63.1,5.89,1a.17.17,0,0,1,.13.17h0A.13.13,0,0,1,419.05,386.85Z"/><path d="M423,382.21c-2.21-.85-3.59-1.77-5.83-1-.12,0-.15-.07-.15-.12h0c0-.06,0-.12.14-.16,2.29-.72,3.63.11,5.89,1a.17.17,0,0,1,.13.17h0A.13.13,0,0,1,423,382.21Z"/></g><path id="bagben-4" data-name="bagben" class="cls-8" d="M261.54,342.48s22.39,60.89,31.54,60c4.41-.44,12-.67,18.36-1.4,6.89-.79,12.38-2.16,10.95-5-2.75-5.5-13.13-13.65-15.26-10.49s-11.71-13.24-3.26-16,16.59-18.63,13.43-19.86,7.23-1.75-5.29-24.85-50.47,15.48-50.47,15.48"/><path id="foreben-6" data-name="foreben" class="cls-8" d="M375.07,329.37s-4.6,18.58-1.22,24.13,6.92,19.66,4.59,23.68,9.4,16.13,13,12.85c0,0,20.11,2.92,17.32-2.58S401,374.8,397.05,376.13s-2.16-16.3,2-16,10-20.6,6.84-20.9,17.24-13.67,14.46-16.85c-3.82-4.39-17.81-28.75-27.44-25.21C380.47,301.71,375.07,329.37,375.07,329.37Z"/></g><g id="hår-4" data-name="hår"><path d="M280.7,314.16s16.31-8.44,31.08-9.65S280.7,314.16,280.7,314.16Z"/><path d="M419.83,316.89s8.73-11.52,18.82-17.38S419.83,316.89,419.83,316.89Z"/><path d="M410.73,300.7s8.73-11.52,18.81-17.37S410.73,300.7,410.73,300.7Z"/><path d="M335.09,335.32s16.24-5,29.89-3.69S335.09,335.32,335.09,335.32Z"/><path d="M322.61,345.44s16.24-5,29.89-3.69S322.61,345.44,322.61,345.44Z"/><path d="M146.48,340.51s15.11-4.19,27.66-2.6S146.48,340.51,146.48,340.51Z"/><path d="M210.55,353.66s15.11-4.19,27.66-2.6S210.55,353.66,210.55,353.66Z"/><path d="M338.32,311s16.7-6.2,31.05-5.63S338.32,311,338.32,311Z"/></g></g><g id="farligt_ansigt-2" data-name="farligt ansigt"><path id="hovedform-2" data-name="hovedform" class="cls-5" d="M479,257.75c-3.66,12.83-12.52,24.73-30.22,24.73S425,269.66,421.29,258.67c-4.39-13.19,9.78-26.56,27.48-26.56S482.81,244.38,479,257.75Z"/><g id="under_ansigt-2" data-name="under ansigt"><path class="cls-9" d="M437.09,267.37c1.41,4-2.36,7.66-5.06,9.64,4,3.36,9.35,5.57,16.69,5.57a31.08,31.08,0,0,0,13.08-2.66,60.84,60.84,0,0,0,2.46-12C451.44,278.61,437.09,267.37,437.09,267.37Z"/></g><g id="ansigt-2" data-name="ansigt"><g id="hår-5" data-name="hår"><path d="M422.07,246.89l-.26.59"/><path d="M470.66,265.39a26.38,26.38,0,0,0-3.74,7.82S473.1,262.29,470.66,265.39Z"/><path d="M431.63,248.44a20.63,20.63,0,0,0-3,6.19S433.59,246,431.63,248.44Z"/><path d="M472.7,250.66s1.56,10.46,1.57,7.13A22,22,0,0,0,472.7,250.66Z"/><path d="M447.47,245.44a16.36,16.36,0,0,0-1.39-5.28S447.56,247.93,447.47,245.44Z"/><path d="M454,245.16a16.5,16.5,0,0,0,1.27-5.31S452.92,247.39,454,245.16Z"/><path d="M442.78,274.23a18.46,18.46,0,0,0-1.72,5.95S444.13,271.76,442.78,274.23Z"/><path d="M453.57,275.58a18.46,18.46,0,0,0-1.72,5.95S454.92,273.11,453.57,275.58Z"/><path d="M426.26,264a19.64,19.64,0,0,0,2.84,5.87S425.58,261.09,426.26,264Z"/></g><g id="mule-2" data-name="mule"><path class="cls-7" d="M450.19,274.1c-11,1.6-18.82-10.85-19.74-13.6-.76-2.28,13.82-6.95,18.28-8.49a1.1,1.1,0,0,1,1.46,1Z"/><path class="cls-7" d="M450.2,274.1c11,1.6,18.72-10.85,19.63-13.6.76-2.28-13.71-6.95-18.18-8.49a1.09,1.09,0,0,0-1.45,1Z"/></g><g id="næse-2" data-name="næse"><path id="farve-2" data-name="farve" d="M454.08,254.92s-1.77-2.49-5.81-1.17c-3.31,1.08.24,5.71,1.82,7.71a.91.91,0,0,0,1.42,0C452.73,260,454.9,257,454.08,254.92Z"/><ellipse id="næsebor2-2" data-name="næsebor2" class="cls-6" cx="452.99" cy="256.22" rx="0.79" ry="1.38"/><ellipse id="næsebor1-2" data-name="næsebor1" class="cls-6" cx="448.54" cy="256.22" rx="0.79" ry="1.38"/></g><g id="mund-2" data-name="mund"><path d="M463.87,263.05h-1.06a1.07,1.07,0,0,1-.07.19l-1,2a.8.8,0,0,1-1.42,0l-1.08-2a.74.74,0,0,1-.08-.28L457,263a.79.79,0,0,1-.06.54l-1,2a.8.8,0,0,1-1.42,0l-1.08-2a.79.79,0,0,1-.06-.6c-1.82,0-3.65.14-5.47.29a.74.74,0,0,1,0,.6l-.86,2.11a.79.79,0,0,1-1.41.12l-1.21-1.92a.75.75,0,0,1-.11-.54l-2.11.24a.8.8,0,0,1-.06.3l-.85,2.1a.8.8,0,0,1-1.42.12l-1.21-1.92a.65.65,0,0,1-.08-.17l-1.21.14c-5-7.83-1.63,1.55-.79,2.35a28.22,28.22,0,0,0,4.34,3.38l2.19-2.58a.8.8,0,0,1,1.41.59l-.37,3.68c.35.14.7.29,1.07.41.84-1,6.25-6.65,11.59-.71.4-.19.8-.42,1.2-.66l-.7-3.39a.8.8,0,0,1,1.34-.74l2.24,2.15a37.57,37.57,0,0,0,3.89-3.56C465.67,264.51,469.47,254.68,463.87,263.05Z"/><path class="cls-10" d="M445.27,272.29a15.73,15.73,0,0,0,5.63.91,14,14,0,0,0,6-1.62C451.52,265.64,446.11,271.33,445.27,272.29Z"/><path class="cls-2" d="M439.92,266.41a.8.8,0,0,0,1.42-.12l.85-2.1a.8.8,0,0,0,.06-.3l-3.62.43a.65.65,0,0,0,.08.17Z"/><path class="cls-2" d="M444.47,264.19l1.21,1.92a.79.79,0,0,0,1.41-.12l.86-2.11a.74.74,0,0,0,0-.6c-1,.08-1.95.18-2.93.29l-.66.08A.75.75,0,0,0,444.47,264.19Z"/><path class="cls-2" d="M460.32,265.29a.8.8,0,0,0,1.42,0l1-2a1.07,1.07,0,0,0,.07-.19l-3.65,0a.74.74,0,0,0,.08.28Z"/><path class="cls-2" d="M453.48,263.59l1.08,2a.8.8,0,0,0,1.42,0l1-2A.79.79,0,0,0,457,263h-.84c-.93,0-1.85,0-2.78,0A.79.79,0,0,0,453.48,263.59Z"/><path class="cls-2" d="M443.16,267.61,441,270.19a22.86,22.86,0,0,0,3.23,1.69l.37-3.68A.8.8,0,0,0,443.16,267.61Z"/><path class="cls-2" d="M457.36,267.53l.7,3.39a24,24,0,0,0,2.88-2l-2.24-2.15A.8.8,0,0,0,457.36,267.53Z"/></g><g id="øjene_og_bryn-2" data-name="øjene og bryn"><circle id="øje1-2" data-name="øje1" cx="437.26" cy="253.24" r="2.47"/><circle id="øje2-2" data-name="øje2" cx="463.15" cy="252.51" r="2.47"/></g><g id="øre2-2" data-name="øre2"><path class="cls-4" d="M433,235.07c2.22.41.12,5.19-2.93,7.68s-6.69,3.1-8.12,1.36-1-5.57,2.94-7.68A13.24,13.24,0,0,1,433,235.07Z"/><path class="cls-9" d="M433.53,235.24c2.15.4.11,5-2.85,7.45s-6.48,3-7.87,1.32-.94-5.4,2.85-7.45A12.91,12.91,0,0,1,433.53,235.24Z"/></g><g id="øre1-2" data-name="øre1"><path class="cls-4" d="M466.59,236.9c-2.22.42-.11,5.19,2.94,7.68s6.68,3.11,8.11,1.36,1-5.57-2.94-7.68A13.24,13.24,0,0,0,466.59,236.9Z"/><path class="cls-9" d="M466.08,237.07c-2.15.4-.11,5,2.85,7.46s6.48,3,7.87,1.31.95-5.4-2.85-7.45A12.91,12.91,0,0,0,466.08,237.07Z"/></g><rect x="430.22" y="248.3" width="12.48" height="2.02" transform="translate(183.13 -184.83) rotate(30)"/><rect x="457.2" y="248.3" width="12.48" height="2.02" transform="translate(989.43 233.5) rotate(150)"/></g><g id="hår-6" data-name="hår"><path class="cls-6" d="M444.39,257.25s-26.94-1.86-42.46.14"/><path class="cls-6" d="M445.25,258.49s-27,.06-42.34,3.14"/><path class="cls-6" d="M446.87,259.36S420,261.82,405,266.25"/><path class="cls-6" d="M446.16,260.94s-26.24,6.32-40.45,12.89"/><path class="cls-6" d="M457.53,257.25s26.93-1.86,42.46.14"/><path class="cls-6" d="M456.67,258.49s27,.06,42.33,3.14"/><path class="cls-6" d="M455.05,259.36s26.88,2.46,41.89,6.89"/><path class="cls-6" d="M455.75,260.94s26.25,6.32,40.46,12.89"/></g></g></g><path class="cls-11" d="M418.31,238.93h0Z"/><path class="cls-12" d="M482.66,238.63A5.11,5.11,0,0,0,482,238c-11.89,7.93-49.61,7.82-62.92.08.21-.19.46-.4.74-.62,12.66,7.3,50.06,7.56,61.42-.09-.55-.42-1.18-.89-1.87-1.38-17.63,7-40.05,7.43-57.48-.06l.83-.59c16.9,7.18,38.65,6.67,55.77,0l-1.25-.9c-14.88,5.27-38.77,6.13-52.4-.68.29-.21.57-.43.84-.65,13.25,6.45,36.31,5.75,50.75.73a26.34,26.34,0,0,1-2.16-1.78c-13.64,4.65-33.39,4.57-47-.37a8.15,8.15,0,0,0,.64-.73c13.2,4.73,32.4,4.86,45.67.42a3.32,3.32,0,0,1-.91-1.58c-.35-2.91-3.21-11.24-5.71-14.94-13.36,2.76-19.12,3.91-32.55-.32a3.65,3.65,0,0,0-.24.31c-2.5,3.68-5.36,12-5.72,15-.3,2.47-8.24,6.78-9.9,8.78C425.88,247.22,475.64,247.23,482.66,238.63Z"/><path class="cls-13" d="M466.31,214.11c-3.65-3-15.62-3.54-15.73-3.55h0c-.1,0-11.42.48-15.41,3.3C447.94,217.81,453.61,216.73,466.31,214.11Z"/><path class="cls-11" d="M418.43,238.73Z"/><path class="cls-11" d="M482.82,239.37c-1.19,1.25-9.66,7-32.24,6-22.58,1-31.05-4.71-32.23-6l0,0,0,0c1.18,1.24,9.65,7,32.23,6,22.58,1,31.05-4.72,32.24-6l0,0A0,0,0,0,0,482.82,239.37Z"/><path class="cls-11" d="M434.45,214.49s0,0,.05-.05S434.47,214.47,434.45,214.49Z"/><path class="cls-11" d="M482.9,239.08v0Z"/><path class="cls-11" d="M418.26,239.11s0,0,0,0S418.26,239.1,418.26,239.11Z"/><path class="cls-11" d="M482.89,239.23s0,0,0,0S482.89,239.25,482.89,239.23Z"/><path class="cls-11" d="M482.84,238.9v0Z"/><path class="cls-11" d="M418.29,239.28a.17.17,0,0,1,0-.05A.17.17,0,0,0,418.29,239.28Z"/><path class="cls-11" d="M482.74,238.73Z"/><path class="cls-14" d="M427.93,230.93a8.15,8.15,0,0,1-.64.73c13.59,4.94,33.34,5,47,.37h0c-.25-.24-.47-.47-.67-.69h0C460.33,235.79,441.13,235.66,427.93,230.93Z"/><path class="cls-14" d="M425.68,233.08c-.27.22-.55.44-.84.65,13.63,6.81,37.52,6,52.4.68h0l-.81-.61h0C462,238.83,438.93,239.53,425.68,233.08Z"/><path class="cls-14" d="M422.72,235.29l-.83.59c17.43,7.49,39.85,7.08,57.48.06h0l-.88-.62h0C461.37,242,439.62,242.47,422.72,235.29Z"/><path class="cls-14" d="M419.82,237.41c-.28.22-.53.43-.74.62,13.31,7.74,51,7.85,62.92-.08h0c-.22-.2-.47-.41-.76-.63h0C469.88,245,432.48,244.71,419.82,237.41Z"/><path class="cls-14" d="M467,214.83h0l0,0a3.32,3.32,0,0,0-.66-.7h0c-12.7,2.62-18.37,3.7-31.14-.25h0a4.3,4.3,0,0,0-.67.58s0,0-.05.05l0,0h0C447.86,218.74,453.62,217.59,467,214.83Z"/><path class="cls-14" d="M450.58,245.33c22.58,1,31.05-4.71,32.24-6a0,0,0,0,1,0,0s0,0,0-.08,0,0,0,0a.37.37,0,0,0,0-.11v0a.78.78,0,0,0,0-.14v0l-.1-.17h0l-.08-.11h0c-7,8.6-56.78,8.59-64.09-.08h0l-.13.18h0a.77.77,0,0,0-.11.19h0a1,1,0,0,0,0,.14s0,0,0,0a.49.49,0,0,0,0,.12.17.17,0,0,0,0,.05l0,.06,0,0C419.53,240.62,428,246.36,450.58,245.33Z"/><g id="æg-2" data-name="æg"><path id="outline-2" data-name="outline" d="M450.41,232.52l-.39,0-.16,0,0,0c-1.4-.32-2.56-1.79-3.08-3.89h0l-.05-.2a11,11,0,0,1-.18-1.17l0-.25h0c0-.25,0-.49,0-.73a9.73,9.73,0,0,1,.21-2h0l.07-.27c0-.13.07-.27.12-.43l0-.08v0l0-.08c.67-2.08,2-3.38,3.48-3.38a3.42,3.42,0,0,1,2.85,1.93,8.73,8.73,0,0,1,1.08,4.39,9.47,9.47,0,0,1-.58,3.33,7.41,7.41,0,0,1-.31.7l-.09.18h0a4.31,4.31,0,0,1-1.68,1.77v0l-.14.06A2.62,2.62,0,0,1,450.41,232.52Z"/><g id="æg1-2" data-name="æg1"><ellipse class="cls-15" cx="450.41" cy="226.19" rx="3.5" ry="5.89"/><ellipse class="cls-16" cx="450.11" cy="228.79" rx="0.68" ry="0.82" transform="translate(-27.13 63.9) rotate(-7.88)"/><ellipse class="cls-16" cx="449.64" cy="226.01" rx="0.82" ry="0.62" transform="translate(-52.28 262.57) rotate(-30.85)"/><ellipse class="cls-16" cx="451.35" cy="221.76" rx="0.68" ry="0.65" transform="translate(-10.59 420.51) rotate(-49.45)"/><ellipse class="cls-16" cx="449.88" cy="223.46" rx="0.57" ry="0.69" transform="translate(165.42 637.47) rotate(-81.92)"/><ellipse class="cls-16" cx="451.9" cy="226.5" rx="0.67" ry="0.77" transform="translate(-33 369.27) rotate(-43.03)"/><path class="cls-16" d="M448.45,223.63a.72.72,0,0,0-.68-.74.57.57,0,0,0-.26,0,10,10,0,0,0-.35,1.09,1,1,0,0,0,.43.18A.73.73,0,0,0,448.45,223.63Z"/><path class="cls-16" d="M450.79,230.75a.79.79,0,0,0-.9.65.84.84,0,0,0,.19.67l.33,0a2.22,2.22,0,0,0,.94-.21,1.72,1.72,0,0,0,.07-.21A.8.8,0,0,0,450.79,230.75Z"/><path class="cls-16" d="M453,228.6a.73.73,0,0,0-.26,1.44.76.76,0,0,0,.3,0,6.82,6.82,0,0,0,.44-1.1A.7.7,0,0,0,453,228.6Z"/><path class="cls-16" d="M452.58,223.23a.83.83,0,0,0,1.12,1.2s0,0,0,0a7.73,7.73,0,0,0-.35-1.26A.73.73,0,0,0,452.58,223.23Z"/><path class="cls-16" d="M447.82,228.19a.7.7,0,0,0-.87-1.05,8.17,8.17,0,0,0,.17,1.12A.61.61,0,0,0,447.82,228.19Z"/></g></g></g><path d="M179.75,518.32c1.58,0,3,2.39,4.41,7.15q9.71,23.41,14,30c2,1.87,3.07,3.69,3.07,5.46l-.67.31H192q-5.81,0-5.81-4.08-3.31-10.57-4.41-10.57-7.33.34-10.25.35-1,2.49-4.4,14.66,0,1.11-16.7,1.69v.35a2.71,2.71,0,0,0-1.37-.35q0-4.5,8.17-6.8c2-1.47,3.07-3.86,3.07-7.15v-2.05h-.67a52.81,52.81,0,0,1-6.84,1.34v-.32q1.47-6.12,6.84-6.13,4.43,0,4.43-4.43a45.47,45.47,0,0,0,2.37-12.62v-.67q0-2.9-3.74-5.46l.67-.35q9-.32,15-.32Zm-4.12,11.24q-2.72,10.83-2.71,11.59h6.83c.45,0,.67-.23.67-.7q-.67-1.08-3.77-10.89Z"/><path d="M212.89,518q2.85,0,3.64,5.17A122.51,122.51,0,0,0,230,539.3h.51q-.26-.93-.51-12.2-7.26-5.61-7.25-6.22a3.35,3.35,0,0,1,1.79-2.59,54.84,54.84,0,0,0,6,1.05H231a25.85,25.85,0,0,0,5.46-1.05q1.75,0,2.33,4.41-.25,13.89-.26,22.28v9.36q0,4.67-6,8.3h-.76q-1.64-5.85-5-8.56-2.52-3.37-10.6-10.63c-.36,0-.55.21-.55.51a55.37,55.37,0,0,1,.55,6.74v6.22q0,3-10.89,6.74l-1-.25v-.26c0-1.09,1.29-3.68,3.89-7.79q.51-20.15.51-23.6l-4.66-9.57c.83-2.18,1.86-3.47,3.1-3.9a2.2,2.2,0,0,1,1-.25Z"/><path d="M280.9,518.13q7.19,0,10.5,9.71,2.14,11.17,2.14,14,0,7.83-8.33,20.76l-1.37.54q-3.76-.29-6.45-.29a6.73,6.73,0,0,0-3,.54q-10,0-13.48-17.49a15.08,15.08,0,0,1-.25-2.43q0-9.65,8.08-20.47Q276.52,518.14,280.9,518.13Zm-8.08,17q0,3.81-.54,11.85,0,1,4,4.06,5.11-3.59,5.11-7.83V538.6q0-4.73-4-5.94h-.26A5.15,5.15,0,0,0,272.82,535.08Z"/><path d="M300.22,518.23c.95,0,1.43.11,1.43.35l4.22-.35h21.55q8.11,0,15.87,13.06a25.63,25.63,0,0,1,1.75,7.4v3.2q0,11-11.27,18.36-5.49,3.15-27.55,3.16h-8.11a.62.62,0,0,1-.7-.71q1.39-4.05,8.46-9.54v-.35q-.36-12.52-.35-19.77v-1q0-7.41-3.52-7.41c-2.89-1.87-4.54-3.41-4.94-4.6C297.06,518.81,298.11,518.23,300.22,518.23Zm17.3,7.4V526c0,6.76.24,12.42.7,17a.31.31,0,0,1-.35.35c.2,8,.66,12,1.41,12h3.89q5.06,0,8.11-12,0-12.36-7-16.25a21.72,21.72,0,0,0-6.36-1.41Z"/><path d="M351,518.23c1,0,1.44.11,1.44.35l4.21-.35h21.55q8.12,0,15.87,13.06a25.73,25.73,0,0,1,1.76,7.4v3.2q0,11-11.27,18.36Q379,563.4,357,563.41h-8.11a.63.63,0,0,1-.7-.71q1.41-4.05,8.46-9.54v-.35q-.35-12.52-.35-19.77v-1q0-7.41-3.51-7.41c-2.9-1.87-4.55-3.41-4.95-4.6C347.79,518.81,348.84,518.23,351,518.23Zm17.31,7.4V526a169.29,169.29,0,0,0,.7,17,.31.31,0,0,1-.35.35q.28,12,1.4,12h3.9q5,0,8.11-12Q382,530.93,375,527a21.67,21.67,0,0,0-6.35-1.41Z"/><path d="M431,518l1.31,1q-.34,6.19-.35,8.46l1,9.07a2.07,2.07,0,0,1-1.31,2q-10-10.07-12.32-10.06h-2.59c-1.3.11-1.94.44-1.94,1v5.85c0,.31.42.74,1.27,1.27h7.79c1.09,0,2.49,1,4.22,2.94v1q-4.21,4.88-5.49,4.88l-.68-.32h-6.8v7.44c0,1.3.87,2,2.59,2h1.63c1.83,0,4.74-.11,8.75-.32q3.09-3.25,4.56-3.26c.85.34,1.28.67,1.28,1v.32q-3.64,11.37-6.48,11.37a2.5,2.5,0,0,0-1,.32c-4.83-.21-8.73-.32-11.68-.32H403.7c-1.51,0-2.27-1-2.27-2.94v-6.8a1.81,1.81,0,0,1,1.63-2,2.67,2.67,0,0,0,.32-1.31v-.63a.28.28,0,0,0-.32-.32l.32-.64V534.57a25.9,25.9,0,0,0-.32-3.54,2.76,2.76,0,0,0,.32-1q0-4-3.9-7.79a.28.28,0,0,0-.32-.32q.16-1.84,4.86-2.27l1.63.32h19.79q1,0,5.2-1.94Z"/><path d="M459.54,517.94q10.27,2.58,10.28,8.68,0,3.71-7.06,10.6a53.79,53.79,0,0,0,8.05,12.55q2.24,0,5.14,3.87a4.14,4.14,0,0,1,2.24,3.83v1.31a1.69,1.69,0,0,1-1.92,1.91h-8.68q-3.87,0-13.83-22.51h-.32l-.32.64v11.91a24.16,24.16,0,0,1-.32,3.54c1.71,2.52,2.56,4.12,2.56,4.83a3.86,3.86,0,0,1-2.56,1.27h-8.68c-2.83,0-4.55-.53-5.14-1.59a8.73,8.73,0,0,1,2.58-4.51V520.53c0-1.52,1.72-2.27,5.15-2.27Q456.7,517.94,459.54,517.94Zm-4.5,7.73-1.6.32v9.32a.29.29,0,0,1-.32.32,2.45,2.45,0,0,1,.32,1h.32q6.11-6.93,6.1-8.69v-.64Q459.86,526,455,525.67Z"/><path d="M196.05,631.37h-6.14a3.26,3.26,0,0,1-3.47-3.33,3.31,3.31,0,0,1,3.47-3.4h6.14v-6.15a3.37,3.37,0,1,1,6.74,0v6.15H209a3.3,3.3,0,0,1,3.46,3.4,3.25,3.25,0,0,1-3.46,3.33h-6.21v6.21a3.37,3.37,0,1,1-6.74,0Z"/><path d="M239.93,596.39a3.88,3.88,0,0,1,3.66,4.05v35.38h2.29a3.13,3.13,0,0,1,3.2,3.27,3.06,3.06,0,0,1-3.2,3.13H234.11a3.07,3.07,0,0,1-3.21-3.13,3.14,3.14,0,0,1,3.21-3.27h2.29v-33h-2.23a3.14,3.14,0,0,1-3.2-3.27,3.07,3.07,0,0,1,3.2-3.14Z"/><path d="M283.36,596.5q4.69,0,8.36,6.29a17.24,17.24,0,0,1,.51,3.13q0,8.12-13.85,17v11.49c0,.2.08.29.25.29l-.25.51v.26l1.82,4.72c0,1.22-1.92,1.82-5.75,1.82q-8.11,0-8.11-2.1v-.26a6.19,6.19,0,0,1,2.11-4.18V598.87c0-1.24,1.21-1.86,3.64-1.86q1.79,0,9.16-.51Zm-3.42,8.37-1.31.25v8.4q3.87,0,5.49-6.8C284.12,605.76,282.73,605.15,279.94,604.87Z"/><path d="M315.22,596.6q7.18,0,10.51,9.7,2.13,11.19,2.14,14,0,7.82-8.34,20.75l-1.37.55c-2.51-.2-4.66-.29-6.45-.29a6.73,6.73,0,0,0-3,.54q-10,0-13.47-17.5a15.17,15.17,0,0,1-.26-2.42q0-9.64,8.08-20.47Q310.85,596.61,315.22,596.6Zm-8.08,16.95c0,2.54-.18,6.48-.54,11.85q0,1,4,4.05,5.11-3.57,5.11-7.82v-4.56q0-4.73-4-5.94h-.26A5.15,5.15,0,0,0,307.14,613.55Z"/><path d="M333.29,596.92l1.63-.32h12.2a2.33,2.33,0,0,1,1.95,1q-2.6,8-2.59,27.65l2.27,13.5c0,.6-.55,1.14-1.63,1.63a20.27,20.27,0,0,0-4.82-1l-8.69,2.24c-1.28-.53-1.91-1.17-1.91-1.92l4.18-7.72V612.37q0-12.54-2.59-14.17Z"/><path d="M364,596.5q2.83,0,3.64,5.18a122.16,122.16,0,0,0,13.47,16.09h.51q-.25-.93-.51-12.2-7.24-5.62-7.25-6.23a3.37,3.37,0,0,1,1.79-2.58,55.72,55.72,0,0,0,6,1h.51a25.85,25.85,0,0,0,5.46-1q1.76,0,2.33,4.41-.25,13.88-.25,22.28v9.36q0,4.65-6,8.3h-.77c-1.08-3.9-2.74-6.75-5-8.56q-2.52-3.39-10.6-10.63-.54.06-.54.51a57.08,57.08,0,0,1,.54,6.74v6.22q0,3-10.89,6.74l-1.05-.26v-.25c0-1.09,1.3-3.68,3.9-7.79q.51-20.15.51-23.6l-4.67-9.58q1.26-3.25,3.1-3.89a2.22,2.22,0,0,1,1.06-.26Z"/><path d="M399.9,596.5a2.47,2.47,0,0,1,1.27.32l2.24-.32q10.15.33,15,.32a15.32,15.32,0,0,0,2.55-.32,11.08,11.08,0,0,0,2.87.32,20.07,20.07,0,0,0,3.83-.32,41.55,41.55,0,0,0,5.43.32h3.83q3.76,0,4.47,9.58v.32l-.95,3.83h-.32q-3.93-5.1-12.14-5.11h-2.87l-1.6.32q0,3.33-.32,20.76,0,6.32,3.52,9.89c-.54,1.28-1.17,1.92-1.92,1.92a32.06,32.06,0,0,0-4.47-.64q-2.86,0-9.9,4.15c-1-.25-1.49-.68-1.59-1.28q.32-1.17,5.11-8a16.16,16.16,0,0,0,.31-2.55q0-7.35.32-11.5-.31-4.31-.32-12.13l-.95-.64h-8.94q-1.75,0-7,5.11H397c-1.06-.32-1.59-1.7-1.59-4.15V604.8q.85-7.24,4.15-8.3Z"/><path class="cls-17" d="M173.39,510.15q2.37,0,4.41,7.15,9.7,23.4,14,30,3.08,2.81,3.07,5.46l-.67.32h-8.53q-5.81,0-5.81-4.09-3.32-10.56-4.4-10.57-7.35.36-10.25.36-1,2.49-4.41,14.65,0,1.13-16.7,1.69v.35a2.71,2.71,0,0,0-1.37-.35q0-4.5,8.17-6.8,3.08-2.2,3.07-7.15v-2h-.67a54.84,54.84,0,0,1-6.83,1.34v-.32q1.45-6.14,6.83-6.13,4.44,0,4.44-4.44A45.71,45.71,0,0,0,160.08,517v-.67q0-2.91-3.74-5.46l.67-.35q9-.33,15-.32Zm-4.12,11.24q-2.72,10.82-2.71,11.59h6.83c.45,0,.67-.24.67-.71q-.66-1.08-3.76-10.88Z"/><path class="cls-17" d="M206.54,509.86q2.84,0,3.63,5.17a122.51,122.51,0,0,0,13.48,16.09h.51q-.25-.92-.51-12.19-7.25-5.62-7.25-6.23a3.37,3.37,0,0,1,1.79-2.58,55.72,55.72,0,0,0,6,1.05h.51a25.85,25.85,0,0,0,5.46-1.05c1.17,0,2,1.46,2.33,4.4q-.26,13.89-.25,22.29v9.35q0,4.67-6,8.3h-.77q-1.64-5.84-4.95-8.55-2.52-3.39-10.6-10.63-.54.06-.54.51a56.94,56.94,0,0,1,.54,6.73v6.23q0,3-10.89,6.74l-1.05-.26V555q0-1.63,3.89-7.8.51-20.14.51-23.59L197.72,514c.83-2.17,1.87-3.47,3.1-3.89a2.21,2.21,0,0,1,1.05-.26Z"/><path class="cls-17" d="M274.54,510q7.18,0,10.51,9.7,2.13,11.18,2.14,14,0,7.82-8.34,20.75l-1.37.54q-3.76-.29-6.45-.28a6.73,6.73,0,0,0-3,.54q-10,0-13.47-17.5a15.29,15.29,0,0,1-.26-2.42q0-9.64,8.08-20.47Q270.16,510,274.54,510Zm-8.08,16.95q0,3.8-.54,11.85,0,1,4,4,5.12-3.57,5.11-7.82v-4.57q0-4.73-4-5.94h-.26A5.13,5.13,0,0,0,266.46,526.91Z"/><path class="cls-17" d="M293.86,510.05c1,0,1.44.12,1.44.35l4.21-.35h21.55q8.12,0,15.87,13.06a25.71,25.71,0,0,1,1.76,7.41v3.19q0,11-11.27,18.36-5.51,3.16-27.56,3.16h-8.11a.62.62,0,0,1-.7-.7q1.41-4,8.46-9.55v-.35q-.35-12.51-.35-19.76v-1.06c0-4.94-1.17-7.4-3.51-7.4q-4.35-2.82-4.95-4.6C290.7,510.64,291.75,510.05,293.86,510.05Zm17.31,7.41v.35a169.15,169.15,0,0,0,.7,17,.32.32,0,0,1-.35.36q.28,12,1.4,12h3.9q5,0,8.11-12,0-12.36-7.06-16.26a21.91,21.91,0,0,0-6.35-1.4Z"/><path class="cls-17" d="M344.59,510.05c1,0,1.44.12,1.44.35l4.22-.35H371.8q8.1,0,15.87,13.06a25.61,25.61,0,0,1,1.75,7.41v3.19q0,11-11.27,18.36-5.49,3.16-27.55,3.16h-8.11a.62.62,0,0,1-.71-.7q1.41-4,8.47-9.55v-.35q-.36-12.51-.36-19.76v-1.06c0-4.94-1.17-7.4-3.51-7.4q-4.33-2.82-4.95-4.6C341.43,510.64,342.49,510.05,344.59,510.05Zm17.31,7.41v.35a169.15,169.15,0,0,0,.7,17,.32.32,0,0,1-.35.36q.28,12,1.41,12h3.89q5,0,8.11-12,0-12.36-7.06-16.26a21.85,21.85,0,0,0-6.35-1.4Z"/><path class="cls-17" d="M424.61,509.86l1.31,1q-.36,6.2-.36,8.46l1,9.07a2,2,0,0,1-1.3,1.94q-10-10-12.33-10h-2.59c-1.29.1-1.94.43-1.94,1v5.84c0,.32.42.75,1.27,1.28h7.8c1.08,0,2.49,1,4.21,2.93v1q-4.21,4.89-5.49,4.89l-.67-.32h-6.8v7.44q0,1.95,2.58,2h1.63q2.74,0,8.75-.32c2.06-2.17,3.59-3.26,4.57-3.26.85.34,1.27.67,1.27,1v.32c-2.42,7.58-4.59,11.36-6.48,11.36a2.55,2.55,0,0,0-1,.32q-7.24-.32-11.68-.32H397.34c-1.51,0-2.27-1-2.27-2.93v-6.8a1.81,1.81,0,0,1,1.63-1.95,2.67,2.67,0,0,0,.32-1.31v-.64a.29.29,0,0,0-.32-.32l.32-.64V526.4a25.64,25.64,0,0,0-.32-3.54,2.76,2.76,0,0,0,.32-1q0-4-3.9-7.79c0-.22-.1-.32-.31-.32.1-1.24,1.72-2,4.85-2.27l1.63.32h19.79q1,0,5.21-1.95Z"/><path class="cls-17" d="M453.18,509.76q10.29,2.6,10.28,8.69,0,3.7-7,10.6a53.7,53.7,0,0,0,8,12.55c1.49,0,3.21,1.29,5.14,3.86a4.15,4.15,0,0,1,2.24,3.83v1.31a1.7,1.7,0,0,1-1.92,1.92h-8.68q-3.87,0-13.83-22.51h-.32l-.32.64v11.91a25.64,25.64,0,0,1-.31,3.54q2.55,3.76,2.55,4.82a3.86,3.86,0,0,1-2.55,1.28h-8.69q-4.25,0-5.14-1.6a8.62,8.62,0,0,1,2.59-4.5V512.35q0-2.27,5.14-2.27Q450.34,509.77,453.18,509.76Zm-4.5,7.73-1.6.32v9.32a.28.28,0,0,1-.32.32,2.38,2.38,0,0,1,.32,1h.32q6.11-6.93,6.1-8.68v-.64Q453.5,517.88,448.68,517.49Z"/><path d="M189.69,623.2h-6.14a3.27,3.27,0,0,1-3.47-3.34,3.31,3.31,0,0,1,3.47-3.4h6.14v-6.14a3.37,3.37,0,1,1,6.74,0v6.14h6.21a3.31,3.31,0,0,1,3.47,3.4,3.27,3.27,0,0,1-3.47,3.34h-6.21v6.21a3.37,3.37,0,1,1-6.74,0Z"/><path d="M233.57,588.22a3.87,3.87,0,0,1,3.66,4v35.37h2.29a3.14,3.14,0,0,1,3.2,3.27,3.07,3.07,0,0,1-3.2,3.14H227.75a3.07,3.07,0,0,1-3.2-3.14,3.14,3.14,0,0,1,3.2-3.27H230v-33h-2.22a3.14,3.14,0,0,1-3.21-3.27,3.07,3.07,0,0,1,3.21-3.13Z"/><path class="cls-17" d="M277,588.33q4.69,0,8.37,6.29a17.11,17.11,0,0,1,.51,3.13q0,8.1-13.86,17v11.5c0,.19.08.29.25.29l-.25.51v.25l1.82,4.73q0,1.82-5.75,1.82c-5.4,0-8.11-.7-8.11-2.11v-.25a6.19,6.19,0,0,1,2.11-4.19V590.69c0-1.23,1.21-1.85,3.64-1.85,1.19,0,4.25-.17,9.16-.51Zm-3.42,8.36-1.31.26v8.4q3.87,0,5.5-6.81Q277.77,597.12,273.58,596.69Z"/><path class="cls-17" d="M308.86,588.42q7.18,0,10.51,9.71,2.13,11.18,2.14,14,0,7.82-8.34,20.75l-1.37.54q-3.76-.28-6.45-.29a6.64,6.64,0,0,0-3,.55q-10,0-13.47-17.5a15.28,15.28,0,0,1-.26-2.43q0-9.63,8.08-20.46Q304.48,588.42,308.86,588.42Zm-8.07,17q0,3.79-.55,11.84,0,1,4,4.06,5.1-3.59,5.11-7.82v-4.57c0-3.15-1.35-5.13-4-5.94h-.25A5.12,5.12,0,0,0,300.79,605.38Z"/><path class="cls-17" d="M326.94,588.74l1.62-.32h12.2a2.33,2.33,0,0,1,1.95,1q-2.59,8-2.59,27.65l2.27,13.51c0,.59-.54,1.14-1.63,1.63a20.18,20.18,0,0,0-4.82-1l-8.69,2.23c-1.27-.53-1.91-1.17-1.91-1.91l4.18-7.73V604.2q0-12.56-2.58-14.18Z"/><path class="cls-17" d="M357.62,588.33c1.89,0,3.11,1.72,3.64,5.17a123.1,123.1,0,0,0,13.47,16.09h.51q-.25-.92-.51-12.19-7.25-5.62-7.24-6.23a3.37,3.37,0,0,1,1.78-2.59,54.31,54.31,0,0,0,6,1.06h.51a25.31,25.31,0,0,0,5.46-1.06q1.76,0,2.33,4.41-.24,13.89-.25,22.29v9.35q0,4.67-6,8.3h-.77q-1.62-5.83-4.95-8.56Q369.08,621,361,613.74q-.54.07-.54.51A57.24,57.24,0,0,1,361,621v6.23q0,3-10.88,6.73l-1.06-.25v-.26q0-1.62,3.9-7.79.51-20.14.51-23.59l-4.66-9.58q1.24-3.26,3.09-3.9a2.21,2.21,0,0,1,1.06-.25Z"/><path class="cls-17" d="M393.54,588.33a2.44,2.44,0,0,1,1.28.32l2.23-.32q10.15.31,15,.32a16.5,16.5,0,0,0,2.55-.32,11.56,11.56,0,0,0,2.88.32,21.08,21.08,0,0,0,3.83-.32,43.32,43.32,0,0,0,5.42.32h3.84q3.76,0,4.47,9.58v.31l-1,3.84h-.32q-3.93-5.11-12.13-5.11h-2.88l-1.59.32q0,3.31-.32,20.75,0,6.33,3.51,9.9c-.53,1.28-1.17,1.91-1.92,1.91a33.1,33.1,0,0,0-4.47-.63q-2.87,0-9.89,4.15c-1-.26-1.5-.68-1.6-1.28q.31-1.18,5.11-8a16.45,16.45,0,0,0,.32-2.56c0-4.89.1-8.72.32-11.49q-.33-4.3-.32-12.13l-1-.64H398q-1.75,0-7,5.11h-.31c-1.07-.32-1.6-1.71-1.6-4.16v-1.91q.85-7.25,4.15-8.3Z"/><g id="skildpadde_glad" data-name="skildpadde glad" class="cls-1"><g id="skildpaddeb1"><ellipse cx="1443.38" cy="347.37" rx="5.57" ry="14.02" transform="translate(268.1 1254.42) rotate(-51.19)"/><path d="M1263.59,333.54l-30.65-10.33a1.85,1.85,0,0,1-.81-3h0c16.5-19,46.85-24.67,45.44-49.78l-18.15-4.95c-.13,23.19-26,27.71-42.41,44.31a12.4,12.4,0,0,0-3,6.09h0c0,.24,0,.48-.08.71a17.29,17.29,0,0,0,11.57,17.81l33.74,11.92Z"/><path d="M1274.85,277.53c-6,1.67-9.25,2.17-12.95-3.55-.14-.22-.07-.28.1-.37,0,0,0,0,0,0,.17-.1.27-.13.4.08,3.6,5.48,6.47,4.86,12.27,3.3.23-.06.3,0,.36.2h0C1275.09,277.38,1275.09,277.47,1274.85,277.53Z"/><path d="M1266.47,291.5c-6.59,0-9.57-1.23-10.78-8.15,0-.27,0-.3.26-.31h0c.23,0,.28,0,.32.28,1.2,6.66,3.92,7.55,10.18,7.62.25,0,.3.07.3.28h0C1266.75,291.43,1266.72,291.5,1266.47,291.5Z"/><path d="M1230.59,319.05c-5.51,3-8.54,4.19-13.42-.56-.19-.18-.13-.25,0-.39h0c.14-.13.22-.18.41,0,4.72,4.53,7.39,3.29,12.69.46a.26.26,0,0,1,.4.12h0C1230.78,318.85,1230.8,318.94,1230.59,319.05Z"/><path d="M1231.14,324.09c-3.11,5.49-5.34,6.9-11.4,4.52-.23-.09-.22-.21-.11-.39h0c.12-.18.18-.2.4-.12,5.82,2.21,7.6.93,10.6-4.26.12-.2.21-.22.39-.12h0C1231.2,323.81,1231.25,323.88,1231.14,324.09Z"/><path d="M1252.9,331.44c2.52,5,1.09,7.84-4.13,9.68-.2.07-.28,0-.33-.21,0,0,0,0,0,0,0-.19,0-.28.19-.34,4.84-1.75,6.11-4.2,3.77-8.85a.26.26,0,0,1,.13-.39h0C1252.7,331.24,1252.8,331.25,1252.9,331.44Z"/><g id="førsteben"><g id="bagben-5" data-name="bagben"><path id="tager" d="M1417.37,393l15.83-2.16s7.12,3,3.39,6.16c-1.93,1.67-3.28.65-4.14-.74a1.43,1.43,0,0,0-1,.4c.51,1.77.44,3.7-2.14,4-2.4.24-3-1.2-3-2.74a1.28,1.28,0,0,0-.91.13c.5,1.76.42,3.68-2.15,3.94-3.13.31-3.19-2.21-2.81-4.12a2.27,2.27,0,0,0-1.18-.25c-.72,1.64-2,3-4.09,1.61C1411.06,396.43,1417.37,393,1417.37,393Z"/><path id="arm2" d="M1430.13,397.52l-6.38,1.69a6.19,6.19,0,0,1-7.56-4.4l-.19-2.49a115.38,115.38,0,0,0-11.75-42.56h0a9.49,9.49,0,0,1,6.74-11.6h0a9.49,9.49,0,0,1,11.6,6.74h0a83.3,83.3,0,0,1,11.91,42l0,3.07A6.19,6.19,0,0,1,1430.13,397.52Z"/><path d="M1412.11,365.28c7.16,3.85,11.09,5.41,17.41-.76.25-.23.17-.33,0-.5h0c-.19-.18-.3-.23-.54,0-6.12,5.9-9.59,4.29-16.48.63-.26-.14-.38-.06-.51.16h0C1411.85,365,1411.83,365.13,1412.11,365.28Z"/><path d="M1414,373c7,4.89,11.09,5.82,17.54-.64.25-.25.18-.35-.06-.52h0c-.23-.18-.3-.19-.54.05-6.24,6.2-9.79,5.11-16.5.52-.26-.17-.37-.13-.53.08h0C1413.71,372.74,1413.68,372.84,1414,373Z"/></g><g id="foreben-7" data-name="foreben"><path id="tager-2" data-name="tager" d="M1273.38,400.21l-14.21-7.29s-7.7.44-5.25,4.7c1.27,2.21,2.89,1.7,4.16.67a1.42,1.42,0,0,1,.76.69c-1.07,1.5-1.65,3.35.7,4.44s3.23-.13,3.72-1.6a1.3,1.3,0,0,1,.81.43c-1.06,1.49-1.62,3.33.72,4.42,2.85,1.33,3.75-1,4-2.95a2.32,2.32,0,0,1,1.2.16c.14,1.78.87,3.47,3.32,2.87C1278.19,405.57,1273.38,400.21,1273.38,400.21Z"/><path id="arm2-2" data-name="arm2" d="M1259.83,400.28l5.46,3.71a6.19,6.19,0,0,0,8.59-1.64l1-2.29a115.11,115.11,0,0,1,25.19-36.26h0a9.5,9.5,0,0,0-2.52-13.18h0a9.49,9.49,0,0,0-13.18,2.52h0a83.22,83.22,0,0,0-25.14,35.65l-1,2.9A6.18,6.18,0,0,0,1259.83,400.28Z"/><path d="M1287.52,375.84c-8,1.26-12.25,1.43-16.18-6.49-.15-.3,0-.37.19-.47,0,0,0,0,0,0,.23-.1.35-.12.5.17,3.83,7.59,7.63,7.22,15.34,6.06.3,0,.39.07.43.31h0C1287.85,375.67,1287.83,375.79,1287.52,375.84Z"/><path d="M1283.21,382.54c-8.23,2.29-12.39,1.82-16.33-6.42-.15-.31-.05-.38.23-.47h0c.28-.09.34-.08.49.23,3.84,7.92,7.54,8.07,15.4,6,.3-.08.39,0,.47.25h0C1283.54,382.35,1283.53,382.45,1283.21,382.54Z"/></g></g><g id="bagben-6" data-name="bagben"><path id="tager-3" data-name="tager" d="M1394.21,382.66l12.7-1.74s5.71,2.38,2.72,4.95c-1.55,1.34-2.63.52-3.32-.6a1.16,1.16,0,0,0-.76.32c.41,1.42.36,3-1.71,3.18s-2.41-1-2.39-2.2a1,1,0,0,0-.73.11c.4,1.41.34,2.95-1.72,3.16-2.51.24-2.57-1.78-2.26-3.31a2,2,0,0,0-1-.2c-.58,1.32-1.58,2.4-3.28,1.29C1389.15,385.44,1394.21,382.66,1394.21,382.66Z"/><path id="arm2-3" data-name="arm2" d="M1404.45,386.32l-5.11,1.35a5,5,0,0,1-6.07-3.53l-.16-2a92.47,92.47,0,0,0-9.42-34.15h0a7.62,7.62,0,0,1,5.41-9.3h0a7.61,7.61,0,0,1,9.31,5.41h0a66.83,66.83,0,0,1,9.54,33.67l0,2.47A5,5,0,0,1,1404.45,386.32Z"/><path d="M1391.6,347.74s.53-2,1.89-1.85,1.16-1.13,2.18.67,4.94.84,2,1.84-.81,2.85-3,2-2.57,1.54-2.51,0-2,.82-1.53-1.26S1390.19,345.51,1391.6,347.74Z"/><path d="M1390,360.45c5.75,3.1,8.9,4.34,14-.6.2-.19.14-.27,0-.41h0c-.15-.14-.24-.18-.43,0-4.91,4.73-7.69,3.44-13.22.5-.21-.11-.31,0-.41.13h0C1389.79,360.24,1389.77,360.33,1390,360.45Z"/><path d="M1391.47,366.67c5.63,3.93,8.9,4.67,14.07-.51.2-.2.14-.28,0-.42h0c-.19-.14-.25-.15-.44,0-5,5-7.85,4.1-13.24.42-.21-.14-.29-.11-.42.06h0C1391.28,366.44,1391.26,366.52,1391.47,366.67Z"/></g><g id="foreben-8" data-name="foreben"><path id="tager-4" data-name="tager" d="M1259.45,377.77l-11-5.62s-5.93.34-4,3.62c1,1.7,2.22,1.31,3.2.52a1.07,1.07,0,0,1,.58.53c-.82,1.15-1.26,2.58.55,3.42a1.84,1.84,0,0,0,2.86-1.23,1,1,0,0,1,.62.33c-.81,1.15-1.24,2.57.56,3.41,2.2,1,2.89-.79,3.1-2.28a2,2,0,0,1,.92.12c.1,1.38.67,2.68,2.56,2.22C1263.15,381.9,1259.45,377.77,1259.45,377.77Z"/><path id="arm2-4" data-name="arm2" d="M1249,377.82l4.2,2.86a4.77,4.77,0,0,0,6.62-1.26l.78-1.77a88.89,88.89,0,0,1,19.4-27.93h0a7.3,7.3,0,0,0-1.94-10.15h0a7.3,7.3,0,0,0-10.15,1.94h0A64.06,64.06,0,0,0,1248.56,369l-.82,2.23A4.77,4.77,0,0,0,1249,377.82Z"/><path d="M1272.93,347s.17-2-1.12-2.28-.69-1.39-2.19-.09-4.75-.81-2.44,1-.17,2.84,2.06,2.72,1.84,2.21,2.26.82,1.59,1.39,1.79-.66S1274.92,345.39,1272.93,347Z"/><path d="M1270.34,359c-6.19,1-9.44,1.11-12.47-5-.11-.23,0-.29.15-.36,0,0,0,0,0,0,.18-.08.27-.1.39.13,2.94,5.85,5.87,5.56,11.81,4.67.23,0,.3.05.34.24h0C1270.59,358.86,1270.58,359,1270.34,359Z"/><path d="M1267,364.16c-6.34,1.76-9.54,1.4-12.58-5-.12-.24,0-.29.17-.36h0c.22-.07.27-.06.38.18,3,6.1,5.81,6.21,11.86,4.59.24-.06.31,0,.36.19h0C1267.27,364,1267.26,364.09,1267,364.16Z"/></g><ellipse cx="1278.39" cy="240.34" rx="31.35" ry="34.23"/><g id="bange_mund" data-name="bange mund"><path d="M1294.12,259.39a17.63,17.63,0,0,0-6-4.16c-3.15-1.21-4-1.64-8.29.17a21.75,21.75,0,0,0-5.86,4.2,1,1,0,0,0,.62,1.69l5.47.27.42,0c1.08-1,4.64-3.81,7.94-.15l5.07-.39A1,1,0,0,0,1294.12,259.39Z"/><path d="M1280.47,261.58a63.75,63.75,0,0,0,7.57-.12l.37,0C1285.11,257.77,1281.55,260.59,1280.47,261.58Z"/></g><g id="øje2-3" data-name="øje2"><ellipse cx="1274.27" cy="238.49" rx="8.66" ry="8.87"/><path d="M1274.68,243.64c-4.62,0-8-2-8.16-6.51a7.48,7.48,0,0,1,1.73-5,8.93,8.93,0,0,0-2.64,6.37,8.66,8.66,0,1,0,17.31.15C1282.27,242.41,1278.5,243.64,1274.68,243.64Z"/></g><g id="øje2-4" data-name="øje2"><ellipse cx="1295.3" cy="238.49" rx="8.66" ry="8.87"/><path d="M1294.89,243.64c4.63,0,8-2,8.16-6.51a7.47,7.47,0,0,0-1.72-5,9,9,0,0,1,2.64,6.37,8.66,8.66,0,1,1-17.32.15C1287.31,242.41,1291.07,243.64,1294.89,243.64Z"/></g><circle cx="1274.89" cy="238.49" r="2.68"/><circle cx="1295.51" cy="238.49" r="2.68"/><g id="cap-_blå" data-name="cap- blå"><path d="M1261.76,219.65a8.45,8.45,0,0,1,1.7-10.45h-1c-11.28,0-20.42,2.68-20.42,6s9.14,6,20.42,6h.47A9.4,9.4,0,0,1,1261.76,219.65Z"/><path d="M1278.52,201.94s1.12-2.78,2.23,0Z"/><path d="M1251.82,221.33h53.62C1278.73,176.8,1251.82,221.33,1251.82,221.33Zm19.24-1.24s8.41-13.92,16.76,0Z"/><rect x="1279.33" y="201.54" width="0.58" height="12.36"/><path d="M1252.86,221.33s10.18-16.91,26.47-19.39v.55s-12.58.69-26,18.84Z"/><path d="M1304.26,221.33s-9.36-16.91-24.35-19.39v.55s11.57.69,23.89,18.84Z"/><rect x="1273.24" y="219.68" width="4.32" height="2.06" rx="1.01"/><ellipse cx="1288.52" cy="211.01" rx="0.66" ry="1.03" transform="translate(259.27 1014.42) rotate(-47.28)"/><ellipse cx="1270.38" cy="211.01" rx="1.03" ry="0.66" transform="translate(193.96 917.92) rotate(-42.72)"/></g><path d="M1265.15,228.34c6.49-5,10.68-6.41,17.36,0,.25.25.17.26,0,.41h0c-.14.15-.19.26-.44,0-6.42-6.35-10.37-4.82-16.57-.05-.24.19-.31.11-.44,0s0,0,0,0S1264.9,228.53,1265.15,228.34Z"/><path d="M1303.94,228.34c-6.49-5-10.68-6.41-17.35,0-.26.25-.17.26,0,.41s0,0,0,0,.19.26.44,0c6.42-6.35,10.37-4.82,16.57-.05.24.19.31.11.44,0s0,0,0,0S1304.19,228.53,1303.94,228.34Z"/><g id="skjold"><path id="bund_skjold" data-name="bund skjold" d="M1440,341.39s-39,20-83.87,23.51c-25.25,2-58.59-5.87-77.85-9.9-10-2.08-18.76-7.76-24.63-12.44a8,8,0,0,1,3.39-14.23,4.81,4.81,0,0,1,1-.13l.62.15a336.54,336.54,0,0,0,178.73-5.1h0a8.53,8.53,0,0,1,3.17,1.16,9.4,9.4,0,0,1,.55,16.57C1440.58,341.31,1440.18,341.47,1440,341.39Z"/><path d="M1434.23,319.52l-.22-.3c-2.62-7-8.84-14.56-17.48-21.47-12.23-12.46-26-21.6-40.59-26.6v0a79.72,79.72,0,0,0-32.68-4.07l-1.48.16h-.09a83.77,83.77,0,0,0-29.91,9.1,99.53,99.53,0,0,0-15,9.6,123.56,123.56,0,0,0-18.08,17.2l-.06.07a156,156,0,0,0-15,20.72,1,1,0,0,0-.14.3,18.31,18.31,0,0,0-.85,5.26c0,7.47,6.86,12.07,17.65,14.9a107.7,107.7,0,0,0,14,2.55c3.51.43,7.22.76,11.08,1h0l15.69,1.59q6.39.63,12.78,1l.11,0h.24c1.34.09,6.3.39,8.62.25q10.07.13,20.11-.56l3.23-.23,6.35-.49v0l18.26-1.41.14.07c4.06-.25,7.92-.58,11.54-1,2.81-.34,5.48-.74,8-1.21h0a60.21,60.21,0,0,0,13-3.77h0l.07,0,0,0c7.65-3.38,12-8.42,12-15.93A19.74,19.74,0,0,0,1434.23,319.52Zm-83,85.72h0Z"/><path d="M1290.54,303,1307,326.44l21-14.67-3.47-32.52-2.35-.55-10.28-2.42a101.13,101.13,0,0,0-15,9.6L1295,291.1Z"/><path d="M1297.29,302.35l10.53,15,13.45-9.38-2.22-20.8-1.51-.36-6.57-1.54a64.16,64.16,0,0,0-9.61,6.14l-1.24,3.33Z"/><path d="M1324.93,340.11a59.52,59.52,0,0,1,6.26-2.43l-10.75-8.76L1297,331.56l-2,11.84Z"/><path d="M1319,338.3a30.52,30.52,0,0,1,3.29-1.27l-5.65-4.61-12.31,1.39-1.06,6.22Z"/><polygon points="1368.84 303.95 1378.79 333.74 1402.11 329.7 1406.56 297.41 1386 281.5 1368.84 303.95"/><polygon points="1375.59 308.44 1381.37 325.74 1394.91 323.39 1397.5 304.64 1385.56 295.39 1375.59 308.44"/><path d="M1384.31,343.07l-.08.7h.08l6.68,4.47h-.12l.14.07a159.39,159.39,0,0,0,19.44-2.22l-2.93-8.09Z"/><path d="M1395.26,344.44l0,.26h0l2.53,1.7h0l.06,0a63,63,0,0,0,7.36-.84l-1.11-3.07Z"/><path d="M1348.08,292.43l23.47-1.44,2.72-13.73,1.22-6.16a79.65,79.65,0,0,0-32.67-4.07c-.5,0-1,.1-1.48.15l1.94,7.27Z"/><path d="M1352.93,288.69l16.86-1,2-9.87.88-4.42a57.13,57.13,0,0,0-23.47-2.92l-1.06.11,1.39,5.21Z"/><path d="M1342.16,338.38a87.35,87.35,0,0,1,19.75.54h.87l6.11-23.29-18.48-20.31-19.51,18.31,5.13,25.29h1.49C1339.06,338.7,1340.6,338.51,1342.16,338.38Z"/><path d="M1346.63,332.12a50.73,50.73,0,0,1,11.37.31h.51L1362,319l-10.64-11.69-11.23,10.54,2.95,14.56h.86C1344.84,332.3,1345.73,332.19,1346.63,332.12Z"/><path d="M1434.39,319.5c-.2-.29-.4-.57-.61-.84l.22.46-12.33-9.57-6.42,18.54,8.38,14c7.64-3.38,12-8.42,12-15.93A19.74,19.74,0,0,0,1434.39,319.5Z"/><path d="M1433.09,322.46a6.15,6.15,0,0,0-.37-.52l.14.28-7.64-5.92-4,11.48,5.2,8.65c4.72-2.09,7.44-5.22,7.44-9.87A12.18,12.18,0,0,0,1433.09,322.46Z"/><path d="M1289.27,311.11l-10.58-8h0l-.06.07A156.62,156.62,0,0,0,1263.48,324a18.12,18.12,0,0,0-.9,5.41c0,7.47,6.85,12.08,17.65,14.91l4.81-.91Z"/><path d="M1285,317.19l-7.21-5.45h0l0,0A107.48,107.48,0,0,0,1267.44,326a12.43,12.43,0,0,0-.61,3.69c0,5.09,4.67,8.23,12,10.16l3.28-.62Z"/><path d="M1322.5,347.06l-.15.7h.15l12.48,2.81c.14,0,6.3.44,9,.28,7.41.09,14.83-.15,22.22-.73l6.35-.49L1367,342Z"/><path d="M1342.15,347.7l-.06.27h.06l4.8,1.08s2.42.16,3.45.1q4.27.06,8.55-.27l2.44-.19-2.12-2.94Z"/></g></g></g><g id="skildpadde_glad-2" data-name="skildpadde glad"><g id="skildpaddeb1-2" data-name="skildpaddeb1"><ellipse class="cls-16" cx="1437.3" cy="342.16" rx="5.57" ry="14.02" transform="translate(269.9 1247.74) rotate(-51.19)"/><path class="cls-16" d="M1257.51,328.33,1226.86,318a1.86,1.86,0,0,1-.81-3h0c16.5-19,46.85-24.67,45.44-49.78l-18.15-4.95c-.13,23.19-26,27.7-42.41,44.31a12.4,12.4,0,0,0-3,6.09h0c0,.24,0,.48-.08.71a17.29,17.29,0,0,0,11.57,17.81l33.74,11.92Z"/><path d="M1268.77,272.32c-6,1.67-9.25,2.17-13-3.55-.14-.22-.07-.28.1-.38h0c.17-.09.27-.12.4.09,3.6,5.48,6.47,4.86,12.27,3.3.23-.06.3,0,.36.2h0C1269,272.16,1269,272.26,1268.77,272.32Z"/><path d="M1260.39,286.29c-6.59,0-9.57-1.23-10.78-8.16,0-.26,0-.29.26-.3,0,0,0,0,0,0,.23,0,.28,0,.32.27,1.2,6.67,3.92,7.55,10.18,7.63.25,0,.3.07.3.28h0C1260.67,286.21,1260.64,286.29,1260.39,286.29Z"/><path d="M1224.51,313.84c-5.51,3-8.54,4.18-13.42-.56-.19-.18-.13-.25,0-.39h0c.14-.13.22-.18.41,0,4.72,4.53,7.39,3.29,12.69.46.21-.11.3,0,.4.12h0C1224.7,313.63,1224.72,313.73,1224.51,313.84Z"/><path d="M1225.05,318.88c-3.1,5.48-5.33,6.89-11.39,4.52-.23-.1-.22-.21-.11-.39h0c.12-.18.18-.2.4-.12,5.82,2.21,7.6.93,10.6-4.26.12-.2.21-.22.39-.12h0C1225.12,318.6,1225.17,318.67,1225.05,318.88Z"/><path d="M1246.82,326.23c2.52,5,1.09,7.84-4.13,9.68-.21.07-.28,0-.33-.21,0,0,0,0,0,0,0-.19,0-.28.19-.35,4.84-1.74,6.11-4.19,3.77-8.84a.26.26,0,0,1,.13-.39h0C1246.62,326,1246.72,326,1246.82,326.23Z"/><g id="førsteben-2" data-name="førsteben"><g id="bagben-7" data-name="bagben"><path id="tager-5" data-name="tager" class="cls-17" d="M1411.29,387.75l15.83-2.17s7.12,3,3.39,6.17c-1.93,1.67-3.28.65-4.14-.74a1.42,1.42,0,0,0-.95.39c.51,1.78.44,3.71-2.14,4-2.4.24-3-1.2-3-2.74a1.28,1.28,0,0,0-.91.13c.5,1.76.42,3.68-2.15,3.93-3.13.31-3.19-2.21-2.81-4.11a2.37,2.37,0,0,0-1.18-.26c-.72,1.64-2,3-4.09,1.62C1405,391.21,1411.29,387.75,1411.29,387.75Z"/><path id="arm2-5" data-name="arm2" class="cls-18" d="M1424.05,392.31l-6.38,1.69a6.19,6.19,0,0,1-7.56-4.4l-.19-2.49a115.38,115.38,0,0,0-11.75-42.56h0a9.49,9.49,0,0,1,6.74-11.6h0a9.48,9.48,0,0,1,11.6,6.74h0a83.26,83.26,0,0,1,11.91,42l0,3.08A6.2,6.2,0,0,1,1424.05,392.31Z"/><path d="M1406,360.07c7.16,3.85,11.09,5.41,17.41-.76.25-.23.17-.33,0-.5h0c-.18-.18-.29-.24-.53,0-6.13,5.89-9.59,4.29-16.48.63-.26-.14-.38-.06-.51.15h0C1405.77,359.8,1405.75,359.92,1406,360.07Z"/><path d="M1407.87,367.82c7,4.89,11.09,5.82,17.54-.64.25-.25.18-.35-.06-.52h0c-.23-.18-.3-.19-.54,0-6.24,6.2-9.79,5.11-16.5.52-.26-.18-.37-.14-.53.08h0C1407.63,367.53,1407.6,367.63,1407.87,367.82Z"/></g><g id="foreben-9" data-name="foreben"><path id="tager-6" data-name="tager" class="cls-17" d="M1267.3,395l-14.21-7.29s-7.7.44-5.25,4.69c1.27,2.21,2.89,1.71,4.16.68a1.44,1.44,0,0,1,.76.68c-1.07,1.51-1.65,3.36.7,4.45,2.2,1,3.23-.13,3.72-1.6a1.28,1.28,0,0,1,.81.42c-1.06,1.5-1.62,3.34.72,4.43,2.85,1.33,3.75-1,4-2.95a2.42,2.42,0,0,1,1.2.15c.14,1.79.87,3.48,3.32,2.88C1272.11,400.36,1267.3,395,1267.3,395Z"/><path id="arm2-6" data-name="arm2" class="cls-18" d="M1253.75,395.07l5.46,3.71a6.19,6.19,0,0,0,8.59-1.64l1-2.29A115.11,115.11,0,0,1,1294,358.59h0a9.5,9.5,0,0,0-2.52-13.18h0a9.49,9.49,0,0,0-13.18,2.51h0a83.25,83.25,0,0,0-25.14,35.66l-1.05,2.89A6.19,6.19,0,0,0,1253.75,395.07Z"/><path d="M1281.44,370.63c-8,1.26-12.25,1.43-16.18-6.49-.15-.3,0-.37.19-.47h0c.23-.1.35-.12.5.17,3.83,7.59,7.63,7.22,15.34,6.06.3,0,.39.07.43.31h0C1281.77,370.46,1281.75,370.58,1281.44,370.63Z"/><path d="M1277.13,377.33c-8.23,2.29-12.39,1.82-16.33-6.42-.15-.32,0-.39.23-.47h0c.28-.09.34-.08.49.23,3.84,7.92,7.54,8.07,15.4,6,.3-.08.39,0,.47.25h0C1277.46,377.14,1277.45,377.24,1277.13,377.33Z"/></g></g><g id="bagben-8" data-name="bagben"><path id="tager-7" data-name="tager" class="cls-19" d="M1388.13,377.45l12.7-1.74s5.71,2.38,2.72,5c-1.55,1.33-2.63.52-3.32-.6a1.16,1.16,0,0,0-.76.32c.41,1.42.36,3-1.72,3.18s-2.4-1-2.38-2.2a1,1,0,0,0-.73.1c.4,1.42.34,3-1.72,3.16-2.51.25-2.57-1.77-2.26-3.3a1.86,1.86,0,0,0-1-.2c-.58,1.31-1.58,2.4-3.28,1.29C1383.07,380.23,1388.13,377.45,1388.13,377.45Z"/><path id="arm2-7" data-name="arm2" class="cls-20" d="M1398.37,381.1l-5.11,1.36a5,5,0,0,1-6.07-3.53l-.16-2a92.48,92.48,0,0,0-9.42-34.14h0a7.61,7.61,0,0,1,5.41-9.3h0a7.61,7.61,0,0,1,9.31,5.4h0a66.87,66.87,0,0,1,9.54,33.68l0,2.47A5,5,0,0,1,1398.37,381.1Z"/><path class="cls-21" d="M1385.52,342.53s.53-2,1.89-1.85,1.16-1.13,2.18.67,4.94.84,2,1.84-.81,2.84-3,2-2.57,1.54-2.51,0-2,.82-1.53-1.26S1384.11,340.29,1385.52,342.53Z"/><path d="M1383.91,355.24c5.75,3.1,8.9,4.34,14-.6.2-.19.14-.27,0-.41h0c-.15-.14-.24-.19-.43,0-4.91,4.72-7.69,3.43-13.22.5-.21-.11-.31-.05-.41.13,0,0,0,0,0,0S1383.69,355.12,1383.91,355.24Z"/><path d="M1385.39,361.46c5.63,3.92,8.9,4.67,14.07-.51.2-.2.14-.28,0-.42h0c-.19-.14-.25-.15-.44,0-5,5-7.85,4.1-13.24.42-.21-.14-.29-.11-.42.06h0C1385.2,361.23,1385.18,361.31,1385.39,361.46Z"/></g><g id="foreben-10" data-name="foreben"><path id="tager-8" data-name="tager" class="cls-19" d="M1253.37,372.56l-10.95-5.62s-5.93.34-4,3.62c1,1.7,2.22,1.31,3.2.52a1.07,1.07,0,0,1,.58.53c-.82,1.15-1.26,2.58.55,3.42a1.84,1.84,0,0,0,2.86-1.23,1,1,0,0,1,.62.32c-.81,1.16-1.24,2.57.56,3.42,2.2,1,2.89-.79,3.1-2.28a1.86,1.86,0,0,1,.92.12c.1,1.38.67,2.68,2.56,2.22C1257.07,376.69,1253.37,372.56,1253.37,372.56Z"/><path id="arm2-8" data-name="arm2" class="cls-20" d="M1242.93,372.61l4.2,2.86a4.76,4.76,0,0,0,6.62-1.27l.78-1.76a88.77,88.77,0,0,1,19.4-27.93h0a7.3,7.3,0,0,0-1.94-10.15h0a7.3,7.3,0,0,0-10.15,1.94h0a64.16,64.16,0,0,0-19.37,27.46l-.81,2.23A4.77,4.77,0,0,0,1242.93,372.61Z"/><path class="cls-21" d="M1266.85,341.76s.17-2-1.12-2.29-.69-1.38-2.19-.08-4.75-.81-2.44,1-.17,2.83,2.06,2.72,1.84,2.21,2.26.82,1.59,1.39,1.79-.66S1268.83,340.18,1266.85,341.76Z"/><path d="M1264.26,353.78c-6.19,1-9.44,1.1-12.47-5-.11-.24,0-.29.15-.37,0,0,0,0,0,0,.18-.07.27-.09.39.14,2.94,5.84,5.87,5.56,11.81,4.66.23,0,.3.06.34.25h0C1264.51,353.65,1264.5,353.74,1264.26,353.78Z"/><path d="M1260.94,358.94c-6.34,1.77-9.54,1.41-12.58-4.94-.12-.24,0-.3.17-.36h0c.22-.07.27-.06.38.18,3,6.09,5.81,6.21,11.86,4.59.24-.06.31,0,.36.19h0C1261.19,358.8,1261.18,358.88,1260.94,358.94Z"/></g><ellipse class="cls-22" cx="1272.31" cy="235.13" rx="31.35" ry="34.23"/><g id="bange_mund-2" data-name="bange mund"><path d="M1288,254.18a17.63,17.63,0,0,0-6-4.16c-3.15-1.21-4-1.64-8.29.17a21.75,21.75,0,0,0-5.86,4.2,1,1,0,0,0,.62,1.69l5.47.27.42,0c1.08-1,4.64-3.81,7.94-.15l5.07-.39A1,1,0,0,0,1288,254.18Z"/><path class="cls-10" d="M1274.39,256.37a63.75,63.75,0,0,0,7.57-.12l.37,0C1279,252.56,1275.47,255.37,1274.39,256.37Z"/></g><g id="øje2-5" data-name="øje2"><ellipse class="cls-2" cx="1268.19" cy="233.27" rx="8.66" ry="8.87"/><path d="M1268.6,238.43c-4.62,0-8-2-8.16-6.51a7.48,7.48,0,0,1,1.73-5,8.9,8.9,0,0,0-2.64,6.36,8.66,8.66,0,1,0,17.31.16C1276.19,237.2,1272.42,238.43,1268.6,238.43Z"/></g><g id="øje2-6" data-name="øje2"><ellipse class="cls-2" cx="1289.22" cy="233.27" rx="8.66" ry="8.87"/><path d="M1288.81,238.43c4.63,0,8-2,8.16-6.51a7.47,7.47,0,0,0-1.72-5,8.94,8.94,0,0,1,2.64,6.36,8.66,8.66,0,1,1-17.32.16C1281.23,237.2,1285,238.43,1288.81,238.43Z"/></g><circle cx="1268.81" cy="233.27" r="2.68"/><circle cx="1289.43" cy="233.27" r="2.68"/><g id="cap-_blå-2" data-name="cap- blå"><path d="M1255.68,214.43a8.45,8.45,0,0,1,1.7-10.45h-1c-11.28,0-20.42,2.68-20.42,6s9.14,6,20.42,6h.47A9.06,9.06,0,0,1,1255.68,214.43Z"/><path d="M1272.44,196.73s1.12-2.79,2.23,0Z"/><path class="cls-12" d="M1245.74,216.11h53.62C1272.65,171.59,1245.74,216.11,1245.74,216.11Zm19.24-1.23s8.41-13.92,16.76,0Z"/><rect x="1273.25" y="196.33" width="0.58" height="12.36"/><path d="M1246.78,216.11s10.18-16.91,26.47-19.38v.55s-12.58.69-26,18.83Z"/><path d="M1298.18,216.11s-9.36-16.91-24.35-19.38v.55s11.57.69,23.89,18.83Z"/><rect class="cls-14" x="1267.16" y="214.46" width="4.32" height="2.06" rx="1.01"/><ellipse cx="1282.44" cy="205.8" rx="0.66" ry="1.03" transform="translate(261.15 1008.28) rotate(-47.28)"/><ellipse cx="1264.3" cy="205.8" rx="1.03" ry="0.66" transform="translate(195.89 912.41) rotate(-42.72)"/></g><path d="M1259.07,223.12c6.49-5,10.68-6.41,17.36,0,.25.24.17.26,0,.41s0,0,0,0-.19.26-.44,0c-6.42-6.35-10.37-4.82-16.57,0-.24.19-.31.11-.44,0s0,0,0,0S1258.82,223.32,1259.07,223.12Z"/><path d="M1297.86,223.12c-6.49-5-10.68-6.41-17.35,0-.26.24-.17.26,0,.41s0,0,0,0,.19.26.44,0c6.42-6.35,10.37-4.82,16.57,0,.24.19.31.11.44,0s0,0,0,0S1298.11,223.32,1297.86,223.12Z"/><g id="skjold-2" data-name="skjold"><path id="bund_skjold-2" data-name="bund skjold" class="cls-19" d="M1433.93,336.18s-39,20-83.87,23.51c-25.25,2-58.59-5.87-77.85-9.9-10-2.08-18.76-7.76-24.63-12.44a8,8,0,0,1,3.39-14.23,4.9,4.9,0,0,1,1-.14l.62.16A336.44,336.44,0,0,0,1431.35,318h0a8.59,8.59,0,0,1,3.17,1.17,9.4,9.4,0,0,1,.55,16.57C1434.5,336.1,1434.1,336.26,1433.93,336.18Z"/><path class="cls-17" d="M1428.15,314.31a2.32,2.32,0,0,0-.22-.3c-2.62-7-8.84-14.57-17.48-21.47-12.23-12.46-26-21.6-40.59-26.6v0a79.72,79.72,0,0,0-32.68-4.07c-.5,0-1,.1-1.48.16h-.09a83.57,83.57,0,0,0-29.91,9.1,100.25,100.25,0,0,0-15,9.59,124.17,124.17,0,0,0-18.08,17.21l-.06.06a156.78,156.78,0,0,0-15,20.73,1,1,0,0,0-.14.3,18.31,18.31,0,0,0-.85,5.26c0,7.47,6.86,12.07,17.65,14.9a107.7,107.7,0,0,0,14,2.55c3.51.42,7.22.76,11.07,1h0L1315,344.3q6.39.65,12.78,1l.11,0h.24c1.34.09,6.3.39,8.62.25q10.07.14,20.11-.57l3.23-.22,6.35-.5h0l18.26-1.41.14.07c4.06-.25,7.92-.59,11.54-1,2.81-.34,5.48-.74,8-1.21h0a59.94,59.94,0,0,0,13-3.77h0l.08,0,0,0c7.65-3.38,12-8.43,12-15.93A19.74,19.74,0,0,0,1428.15,314.31Zm-83,85.72h0Z"/><path class="cls-23" d="M1284.46,297.77l16.46,23.45,21-14.66L1318.48,274l-2.35-.56-10.28-2.41a101.13,101.13,0,0,0-15,9.6l-1.94,5.21Z"/><path class="cls-19" d="M1291.21,297.14l10.53,15,13.45-9.38L1313,282l-1.51-.36-6.57-1.54a64.16,64.16,0,0,0-9.61,6.14l-1.24,3.33Z"/><path class="cls-23" d="M1318.85,334.89a61.42,61.42,0,0,1,6.26-2.42l-10.75-8.76-23.42,2.64-2,11.84Z"/><path class="cls-19" d="M1312.9,333.09a30.89,30.89,0,0,1,3.29-1.28l-5.65-4.6-12.31,1.39-1.06,6.22Z"/><polygon class="cls-23" points="1362.76 298.74 1372.71 328.53 1396.03 324.49 1400.48 292.2 1379.92 276.29 1362.76 298.74"/><polygon class="cls-19" points="1369.51 303.23 1375.29 320.53 1388.83 318.18 1391.42 299.43 1379.48 290.18 1369.51 303.23"/><path class="cls-23" d="M1378.23,337.86l-.08.7h.08l6.68,4.47h-.12l.14.07a159.39,159.39,0,0,0,19.44-2.22l-2.93-8.09Z"/><path class="cls-19" d="M1389.18,339.22l0,.27h0l2.53,1.69h0l.06,0a60.81,60.81,0,0,0,7.36-.85l-1.11-3.06Z"/><path class="cls-23" d="M1342,287.21l23.47-1.43,2.72-13.73,1.22-6.16a79.48,79.48,0,0,0-32.67-4.07c-.5,0-1,.1-1.48.15l1.94,7.26Z"/><path class="cls-19" d="M1346.85,283.48l16.86-1,2-9.86.88-4.42a57.14,57.14,0,0,0-23.47-2.93l-1.06.12,1.39,5.21Z"/><path class="cls-23" d="M1336.08,333.16a87.93,87.93,0,0,1,19.75.55h.87l6.11-23.29-18.48-20.31-19.51,18.31,5.13,25.29h1.49C1333,333.49,1334.52,333.3,1336.08,333.16Z"/><path class="cls-19" d="M1340.55,326.91a50.15,50.15,0,0,1,11.37.31h.51l3.51-13.41-10.64-11.7-11.23,10.55,3,14.56h.86C1338.76,327.09,1339.65,327,1340.55,326.91Z"/><path class="cls-23" d="M1428.31,314.29c-.2-.29-.4-.57-.61-.84l.22.46-12.33-9.57-6.42,18.54,8.38,14c7.64-3.38,12-8.42,12-15.93A19.74,19.74,0,0,0,1428.31,314.29Z"/><path class="cls-19" d="M1427,317.25a6.15,6.15,0,0,0-.37-.52l.14.28-7.64-5.93-4,11.48,5.2,8.66c4.72-2.1,7.44-5.22,7.44-9.87A12.14,12.14,0,0,0,1427,317.25Z"/><path class="cls-23" d="M1283.19,305.9l-10.58-8h0l-.06.07a157.16,157.16,0,0,0-15.14,20.86,18.24,18.24,0,0,0-.9,5.42c0,7.47,6.85,12.07,17.65,14.91l4.81-.91Z"/><path class="cls-19" d="M1278.94,312l-7.21-5.45h0l0,0a108,108,0,0,0-10.32,14.22,12.55,12.55,0,0,0-.61,3.7c0,5.09,4.67,8.23,12,10.16l3.28-.62Z"/><path class="cls-23" d="M1316.42,341.85l-.15.7h.15l12.48,2.81c.14,0,6.3.44,9,.27,7.41.1,14.83-.14,22.22-.72l6.35-.49-5.5-7.63Z"/><path class="cls-19" d="M1336.07,342.49l-.06.27h.06l4.8,1.07c.05,0,2.42.17,3.45.11,2.85,0,5.7-.06,8.55-.28l2.44-.19-2.12-2.93Z"/></g></g></g><g class="cls-1"><path d="M1203.8,518.32c1.58,0,3,2.39,4.41,7.15q9.7,23.41,14,30,3.07,2.81,3.07,5.46l-.67.31h-8.53q-5.8,0-5.81-4.08-3.32-10.57-4.4-10.57-7.35.34-10.25.35-1,2.49-4.41,14.66,0,1.11-16.7,1.69v.35a2.71,2.71,0,0,0-1.37-.35q0-4.5,8.17-6.8c2-1.47,3.07-3.86,3.07-7.15v-2.05h-.67a52.82,52.82,0,0,1-6.83,1.34v-.32q1.46-6.12,6.83-6.13,4.44,0,4.44-4.43a45.77,45.77,0,0,0,2.36-12.62v-.67q0-2.9-3.74-5.46l.67-.35q9-.32,15-.32Zm-4.12,11.24q-2.7,10.83-2.71,11.59h6.83c.45,0,.67-.23.67-.7q-.66-1.08-3.76-10.89Z"/><path d="M1247.87,518a2.49,2.49,0,0,1,1.27.31l2.24-.31q10.15.32,15,.31a16.13,16.13,0,0,0,2.56-.31,11.51,11.51,0,0,0,2.87.31,21.06,21.06,0,0,0,3.83-.31,43.46,43.46,0,0,0,5.43.31h3.83q3.76,0,4.47,9.58v.32l-1,3.83h-.32q-3.91-5.1-12.13-5.1h-2.87l-1.6.31q0,3.33-.32,20.76,0,6.32,3.52,9.9c-.54,1.27-1.18,1.91-1.92,1.91a33.77,33.77,0,0,0-4.47-.64q-2.88,0-9.9,4.15c-1-.25-1.49-.68-1.6-1.27q.33-1.19,5.11-8a15.32,15.32,0,0,0,.32-2.55c0-4.89.11-8.73.32-11.49q-.32-4.32-.32-12.14l-1-.64h-9q-1.75,0-7,5.11H1245c-1.06-.32-1.59-1.7-1.59-4.15v-1.91q.86-7.26,4.15-8.3Z"/><path d="M1296.62,518.13q15.62.87,15.61,2.43c0,.3-1.39,1.57-4.18,3.83v3.1a.31.31,0,0,0,.35.35,2.78,2.78,0,0,0-.35,1q0,3.74.35,9.71c-.23,2.89-.35,4.63-.35,5.2q0,10.07,3.48,10.06h1.72q4.18-2.52,4.19-10.41a86.11,86.11,0,0,1-.71-11.78v-7.28q0-5.55,9.71-5.56c3,0,4.5.12,4.5.35a2.67,2.67,0,0,1,.35,1.38v3.83q-2.41,4.59-2.42,7.28V544.5q0,5.12.35,13.86-1,1-8.69,5.21a4,4,0,0,1-2.77-3.8l-8.3,2.74q-6.78,0-12.84-10.06a23.77,23.77,0,0,1-1-5.52q.26-3.54.7-18,0-6.93-2.78-9v-1C1295.58,518.66,1296.62,518.43,1296.62,518.13Z"/><path d="M1357.76,517.94q10.29,2.58,10.28,8.68,0,3.71-7,10.6a53.48,53.48,0,0,0,8,12.55c1.49,0,3.21,1.29,5.14,3.87a4.14,4.14,0,0,1,2.24,3.83v1.31a1.69,1.69,0,0,1-1.92,1.91h-8.68q-3.87,0-13.83-22.51h-.32l-.32.64v11.91a25.39,25.39,0,0,1-.31,3.54c1.7,2.52,2.55,4.12,2.55,4.83a3.84,3.84,0,0,1-2.55,1.27h-8.69q-4.24,0-5.14-1.59a8.69,8.69,0,0,1,2.59-4.51V520.53c0-1.52,1.71-2.27,5.14-2.27Q1354.92,517.94,1357.76,517.94Zm-4.5,7.73-1.6.32v9.32a.28.28,0,0,1-.32.32,2.29,2.29,0,0,1,.32,1h.32q6.11-6.93,6.1-8.69v-.64Q1358.08,526,1353.26,525.67Z"/><path d="M1383,518a2.47,2.47,0,0,1,1.27.31l2.24-.31q10.15.32,15,.31a16.16,16.16,0,0,0,2.55-.31,11.57,11.57,0,0,0,2.87.31,21,21,0,0,0,3.83-.31,43.57,43.57,0,0,0,5.43.31h3.83q3.78,0,4.47,9.58v.32l-1,3.83h-.32q-3.93-5.1-12.14-5.1h-2.87l-1.6.31q0,3.33-.31,20.76,0,6.32,3.51,9.9c-.54,1.27-1.17,1.91-1.92,1.91a33.77,33.77,0,0,0-4.47-.64q-2.87,0-9.9,4.15c-1-.25-1.49-.68-1.59-1.27q.32-1.19,5.11-8a16.5,16.5,0,0,0,.32-2.55c0-4.89.1-8.73.32-11.49q-.33-4.32-.32-12.14l-1-.64h-8.94q-1.76,0-7,5.11h-.32c-1.06-.32-1.59-1.7-1.59-4.15v-1.91q.85-7.26,4.15-8.3Z"/><path d="M1450.51,518.23c.52.17.77.67.77,1.5V520c0,1.45-1.74,3.44-5.24,6l-2,2.24v13.47c0,1.32-.08,3.07-.25,5.24,0,1.83.83,2.74,2.49,2.74h8.49q2,0,5.49-4l2-1.5a1.67,1.67,0,0,1,1.25,1.76v.48q-4.67,9.17-5.75,14.21-.6,3-1.47,3h-.76c-.41,0-2.31-1.09-5.72-3.26a37,37,0,0,0-15-3.48h-1a24.41,24.41,0,0,0-3.48.51,7.88,7.88,0,0,1-1.76-2.75q0-.32,4-4.5V529.43c0-1.15-1.08-3-3.26-5.46v-.51q0-2.24,5.5-2.23h4q2.43,0,11-3Z"/><path d="M1496.68,518l1.31,1q-.35,6.19-.35,8.46l1,9.07a2.08,2.08,0,0,1-1.31,2q-10-10.07-12.32-10.06h-2.59q-2,.17-2,1v5.85c0,.31.43.74,1.28,1.27h7.79c1.09,0,2.49,1,4.22,2.94v1q-4.21,4.88-5.5,4.88l-.67-.32h-6.8v7.44c0,1.3.86,2,2.59,2H1485c1.83,0,4.74-.11,8.75-.32q3.09-3.25,4.56-3.26c.85.34,1.28.67,1.28,1v.32q-3.64,11.37-6.48,11.37a2.5,2.5,0,0,0-1,.32q-7.25-.31-11.69-.32h-11c-1.52,0-2.27-1-2.27-2.94v-6.8a1.81,1.81,0,0,1,1.63-2,2.67,2.67,0,0,0,.32-1.31v-.63a.28.28,0,0,0-.32-.32l.32-.64V534.57a25.9,25.9,0,0,0-.32-3.54,2.76,2.76,0,0,0,.32-1q0-4-3.9-7.79a.29.29,0,0,0-.32-.32q.16-1.84,4.86-2.27l1.62.32h19.8q1,0,5.2-1.94Z"/><path d="M1228.26,629.61a3.19,3.19,0,0,1-3.33-3.34,3.24,3.24,0,0,1,3.33-3.4h11.38a3.29,3.29,0,0,1,3.4,3.4,3.25,3.25,0,0,1-3.4,3.34Z"/><path d="M1337.51,596.69c.51.18.77.68.77,1.51v.25q0,2.17-5.24,6l-2,2.24v13.47c0,1.32-.08,3.07-.25,5.24,0,1.83.83,2.74,2.49,2.74h8.49q2,0,5.49-4l2-1.5a1.67,1.67,0,0,1,1.25,1.76v.48q-4.67,9.15-5.75,14.2c-.41,2-.9,3-1.47,3h-.77c-.4,0-2.31-1.09-5.71-3.26a37,37,0,0,0-15-3.48h-1a24.81,24.81,0,0,0-3.48.51,8.05,8.05,0,0,1-1.75-2.75q0-.32,4-4.5V607.9q0-1.73-3.26-5.46v-.51q0-2.23,5.49-2.23h4q2.42,0,11-3Z"/><path d="M1353.45,596.92l1.62-.32h12.2a2.33,2.33,0,0,1,2,1q-2.6,8-2.59,27.65l2.27,13.5c0,.6-.54,1.14-1.63,1.63a20.18,20.18,0,0,0-4.82-1l-8.69,2.24c-1.27-.53-1.91-1.17-1.91-1.92L1356,632V612.37q0-12.54-2.58-14.17Z"/><path d="M1412.23,596.79c.7.11,1,1,1,2.75q-1.56,16-3.1,16h-.67q-2.8-7.5-7.18-7.5h-7.15v7.86c0,.46.26.7.67.7h1.37a31.69,31.69,0,0,1,4.79.32,18.78,18.78,0,0,1,3.42-.32q4.42,0,4.43,2.36c-1.59,4.34-2.63,6.51-3.09,6.51h-.67a22.15,22.15,0,0,0-8.88-2.39h-2q.32,6.31.32,9.23V634l4.11,7.53v.67H1390q-13.83,0-14.69-2a50.91,50.91,0,0,1,4.79-4.79q.66-17.85.67-23.56,0-.87-5.46-12.29v-.36l1.69-.35h13a18,18,0,0,1,3.41.35,11.9,11.9,0,0,1,3.07-.35h1.72a18,18,0,0,1,3.42.35,59,59,0,0,0,9.9-2.39Z"/><path d="M1449.33,596.5l1.31,1q-.36,6.19-.36,8.46l1,9.07a2.07,2.07,0,0,1-1.31,2q-10-10.07-12.32-10.06h-2.59c-1.29.11-1.94.44-1.94,1v5.84c0,.32.42.75,1.27,1.28h7.79q1.63,0,4.22,2.94v1q-4.22,4.89-5.49,4.89l-.67-.32h-6.8v7.44q0,2,2.58,2h1.63q2.74,0,8.75-.32c2.06-2.17,3.59-3.26,4.57-3.26.85.34,1.27.67,1.27,1v.32c-2.42,7.58-4.59,11.37-6.48,11.37a2.38,2.38,0,0,0-1,.32q-7.24-.33-11.68-.32h-11c-1.51,0-2.27-1-2.27-2.94v-6.8a1.81,1.81,0,0,1,1.63-2,2.67,2.67,0,0,0,.32-1.31v-.64a.29.29,0,0,0-.32-.32l.32-.63V613a25.9,25.9,0,0,0-.32-3.54,2.76,2.76,0,0,0,.32-1q0-4-3.9-7.79c0-.22-.1-.32-.31-.32.1-1.24,1.72-2,4.85-2.27l1.63.32h19.79q1,0,5.21-2Z"/><image width="49" height="56" transform="translate(1257.17 595.79)" xlink:href="info_box1.png"/><path d="M1301.55,607.8c-.7-22.8-20.37,3.23-20.37,3.23s-19.68-26-20.38-3.23,20.38,37.3,20.38,37.3S1302.25,630.6,1301.55,607.8Z"/><path d="M1301.55,607.8c-.7-22.8-20.37,3.23-20.37,3.23s-19.68-26-20.38-3.23,20.38,37.3,20.38,37.3S1302.25,630.6,1301.55,607.8Z"/></g><path class="cls-17" d="M1196.54,513.78c1.57,0,3,2.39,4.4,7.15q9.7,23.42,14,30,3.06,2.82,3.06,5.46l-.67.32h-8.52c-3.88,0-5.81-1.36-5.81-4.08q-3.33-10.58-4.41-10.57-7.33.35-10.25.35-1,2.49-4.4,14.65,0,1.13-16.7,1.7v.35a2.65,2.65,0,0,0-1.38-.35q0-4.51,8.18-6.8,3.06-2.21,3.06-7.16v-2h-.67a54.48,54.48,0,0,1-6.83,1.34v-.32q1.47-6.13,6.83-6.13,4.44,0,4.44-4.44a45.28,45.28,0,0,0,2.36-12.61v-.67q0-2.91-3.73-5.46l.67-.35q9-.32,15-.32ZM1192.42,525q-2.72,10.83-2.71,11.59h6.83c.44,0,.67-.23.67-.7q-.68-1.1-3.77-10.89Z"/><path class="cls-17" d="M1240.6,513.49a2.53,2.53,0,0,1,1.28.32l2.23-.32q10.16.33,15,.32a15.32,15.32,0,0,0,2.55-.32,11.11,11.11,0,0,0,2.88.32,20.22,20.22,0,0,0,3.83-.32,41.5,41.5,0,0,0,5.42.32h3.84q3.77,0,4.47,9.58v.32l-1,3.83h-.32q-3.93-5.1-12.13-5.11h-2.88l-1.59.32q0,3.33-.32,20.76,0,6.32,3.51,9.89-.8,1.92-1.92,1.92a31.86,31.86,0,0,0-4.47-.64q-2.87,0-9.89,4.15c-1-.25-1.49-.68-1.6-1.28q.32-1.17,5.11-8A16.5,16.5,0,0,0,1255,547c0-4.9.1-8.73.32-11.5q-.33-4.31-.32-12.13l-1-.64h-8.94q-1.75,0-7,5.11h-.31c-1.07-.32-1.6-1.7-1.6-4.15v-1.92q.86-7.24,4.15-8.3Z"/><path class="cls-17" d="M1289.35,513.59q15.62.85,15.62,2.43,0,.43-4.19,3.83v3.09c0,.24.12.35.36.35a2.7,2.7,0,0,0-.36,1.06q0,3.74.36,9.71c-.24,2.89-.36,4.62-.36,5.2q0,10.05,3.48,10.06H1306q4.18-2.52,4.18-10.41a86.35,86.35,0,0,1-.7-11.78v-7.28q0-5.57,9.7-5.56c3,0,4.51.12,4.51.35A2.75,2.75,0,0,1,1324,516v3.83q-2.43,4.59-2.43,7.28V540q0,5.12.35,13.86-1,1-8.68,5.2a4,4,0,0,1-2.78-3.8l-8.3,2.75q-6.76,0-12.84-10.06a24.91,24.91,0,0,1-1-5.52q.26-3.54.7-18c0-4.62-.92-7.63-2.78-9v-1C1288.31,514.12,1289.35,513.89,1289.35,513.59Z"/><path class="cls-17" d="M1350.5,513.4q10.27,2.58,10.28,8.68,0,3.7-7.06,10.6a53.79,53.79,0,0,0,8,12.55q2.24,0,5.14,3.86a4.15,4.15,0,0,1,2.23,3.83v1.31a1.69,1.69,0,0,1-1.91,1.92h-8.69q-3.86,0-13.82-22.51h-.32l-.32.64v11.91a25.77,25.77,0,0,1-.32,3.54q2.55,3.76,2.55,4.82a3.79,3.79,0,0,1-2.55,1.28h-8.68q-4.26,0-5.14-1.6a8.68,8.68,0,0,1,2.58-4.5V516q0-2.26,5.14-2.26Q1347.65,513.39,1350.5,513.4Zm-4.5,7.72-1.6.32v9.33a.29.29,0,0,1-.32.32,2.46,2.46,0,0,1,.32.95h.32q6.09-6.93,6.1-8.68v-.64Q1350.82,521.5,1346,521.12Z"/><path class="cls-17" d="M1375.75,513.49a2.51,2.51,0,0,1,1.28.32l2.23-.32q10.15.33,15,.32a15.32,15.32,0,0,0,2.55-.32,11.11,11.11,0,0,0,2.88.32,20.22,20.22,0,0,0,3.83-.32,41.55,41.55,0,0,0,5.43.32h3.83q3.76,0,4.47,9.58v.32l-1,3.83H1416q-3.93-5.1-12.13-5.11H1401l-1.6.32q0,3.33-.32,20.76,0,6.32,3.51,9.89c-.53,1.28-1.17,1.92-1.91,1.92a32.06,32.06,0,0,0-4.47-.64q-2.88,0-9.9,4.15c-1-.25-1.49-.68-1.6-1.28q.32-1.17,5.11-8a16.5,16.5,0,0,0,.32-2.55q0-7.35.32-11.5-.32-4.31-.32-12.13l-1-.64h-8.94q-1.76,0-7,5.11h-.32c-1.07-.32-1.6-1.7-1.6-4.15v-1.92q.87-7.24,4.15-8.3Z"/><path class="cls-17" d="M1443.25,513.68c.51.18.77.68.77,1.51v.25q0,2.17-5.24,6l-2,2.24v13.47c0,1.32-.09,3.07-.26,5.24,0,1.83.83,2.74,2.49,2.74h8.5q2,0,5.49-4l2-1.5a1.66,1.66,0,0,1,1.24,1.76v.48q-4.67,9.17-5.75,14.2c-.4,2-.89,3-1.46,3h-.77q-.6,0-5.72-3.26a36.92,36.92,0,0,0-15-3.48h-1a24.81,24.81,0,0,0-3.48.51,8.12,8.12,0,0,1-1.76-2.75q0-.32,4-4.5V524.89q0-1.73-3.26-5.46v-.51q0-2.24,5.49-2.23h4q2.43,0,11-3Z"/><path class="cls-17" d="M1489.42,513.49l1.31,1c-.24,4.13-.35,6.95-.35,8.46l1,9.07a2.08,2.08,0,0,1-1.31,1.95q-10-10.06-12.33-10.06h-2.58q-2,.17-2,1v5.84c0,.32.42.75,1.27,1.28h7.8c1.08,0,2.49,1,4.21,2.94v1q-4.21,4.89-5.49,4.89l-.67-.32h-6.8v7.44q0,1.95,2.58,2h1.63q2.74,0,8.75-.32c2.06-2.17,3.59-3.26,4.57-3.26.85.34,1.27.67,1.27,1v.32q-3.63,11.37-6.48,11.37a2.38,2.38,0,0,0-1,.32q-7.25-.33-11.68-.32h-11c-1.51,0-2.27-1-2.27-2.94v-6.8a1.81,1.81,0,0,1,1.63-2,2.67,2.67,0,0,0,.32-1.31v-.64a.29.29,0,0,0-.32-.32l.32-.63V530a25.9,25.9,0,0,0-.32-3.54,2.76,2.76,0,0,0,.32-1q0-4-3.89-7.79a.29.29,0,0,0-.32-.32c.1-1.24,1.72-2,4.85-2.27l1.63.32h19.79q1,0,5.21-2Z"/><path d="M1221,625.06a3.18,3.18,0,0,1-3.33-3.33,3.24,3.24,0,0,1,3.33-3.4h11.38a3.29,3.29,0,0,1,3.4,3.4,3.24,3.24,0,0,1-3.4,3.33Z"/><path class="cls-17" d="M1330.25,592.15c.51.17.76.67.76,1.5v.26q0,2.18-5.23,6l-2,2.23v13.48c0,1.32-.09,3.06-.26,5.23,0,1.84.83,2.75,2.49,2.75h8.49q2.05,0,5.5-4l2-1.5a1.65,1.65,0,0,1,1.24,1.75v.48q-4.67,9.16-5.75,14.21c-.4,2-.89,3-1.46,3h-.77c-.41,0-2.31-1.08-5.72-3.25a36.92,36.92,0,0,0-15-3.48h-1a24.81,24.81,0,0,0-3.48.51,8.12,8.12,0,0,1-1.76-2.75q0-.31,4-4.5V603.36q0-1.73-3.25-5.46v-.51q0-2.24,5.49-2.24h4q2.43,0,11-3Z"/><path class="cls-17" d="M1346.18,592.38l1.63-.32H1360a2.35,2.35,0,0,1,2,1q-2.58,8-2.58,27.66l2.26,13.5c0,.6-.54,1.14-1.63,1.63a20.18,20.18,0,0,0-4.82-1l-8.68,2.24c-1.28-.54-1.92-1.17-1.92-1.92l4.19-7.73v-19.6q0-12.55-2.59-14.18Z"/><path class="cls-17" d="M1405,592.25c.7.11,1,1,1,2.74q-1.56,16-3.09,16h-.67q-2.82-7.5-7.19-7.5h-7.15v7.85c0,.47.27.71.67.71H1390a31.59,31.59,0,0,1,4.79.32,18.86,18.86,0,0,1,3.42-.32c3,0,4.44.78,4.44,2.36q-2.4,6.51-3.1,6.51h-.67a22.15,22.15,0,0,0-8.88-2.39h-2q.31,6.32.32,9.23v1.69l4.12,7.53v.67h-9.58q-13.83,0-14.69-2a49.47,49.47,0,0,1,4.79-4.79q.68-17.85.67-23.56,0-.87-5.46-12.3v-.35l1.7-.35h13a18.13,18.13,0,0,1,3.42.35,11.82,11.82,0,0,1,3.06-.35H1391a18,18,0,0,1,3.41.35,59.54,59.54,0,0,0,9.9-2.39Z"/><path class="cls-17" d="M1442.06,592l1.31,1q-.34,6.2-.35,8.46l1,9.07a2.08,2.08,0,0,1-1.31,1.95q-10-10.06-12.32-10.06h-2.59q-1.95.15-2,1v5.84c0,.32.43.75,1.28,1.28h7.79c1.08,0,2.49,1,4.21,2.93v1q-4.21,4.89-5.49,4.89l-.67-.32h-6.8v7.44c0,1.3.86,1.95,2.59,1.95h1.63q2.74,0,8.74-.32,3.11-3.26,4.57-3.26c.85.34,1.28.67,1.28,1V626q-3.65,11.37-6.48,11.37a2.39,2.39,0,0,0-1,.31q-7.24-.32-11.69-.31h-11c-1.51,0-2.26-1-2.26-2.94v-6.8a1.8,1.8,0,0,1,1.63-1.95,2.67,2.67,0,0,0,.31-1.31v-.64a.28.28,0,0,0-.31-.32l.31-.64V608.5a25.39,25.39,0,0,0-.31-3.54,2.69,2.69,0,0,0,.31-1c0-2.64-1.29-5.24-3.89-7.79a.28.28,0,0,0-.32-.32c.11-1.24,1.72-2,4.85-2.27l1.63.32h19.8q1,0,5.2-1.95Z"/><g class="cls-1"><path d="M1294.75,605.27c-.7-22.8-20.38,3.24-20.38,3.24s-19.67-26-20.37-3.24,20.37,37.3,20.37,37.3S1295.45,628.07,1294.75,605.27Z"/></g><path d="M1294.29,603.26c-.7-22.8-20.38,3.23-20.38,3.23s-19.68-26-20.38-3.23,20.38,37.3,20.38,37.3S1295,626.05,1294.29,603.26Z"/><path class="cls-24" d="M1294.29,603.26c-.7-22.8-20.38,3.23-20.38,3.23s-19.68-26-20.38-3.23,20.38,37.3,20.38,37.3S1295,626.05,1294.29,603.26Z"/><g id="æg-3" data-name="æg" class="cls-1"><g id="æg1-3" data-name="æg1"><ellipse cx="820.98" cy="302.62" rx="57.73" ry="97.04"/><ellipse cx="816.06" cy="345.59" rx="11.2" ry="13.56" transform="translate(-39.69 115.19) rotate(-7.88)"/><ellipse cx="808.18" cy="299.76" rx="13.48" ry="10.29" transform="translate(-39.36 456.88) rotate(-30.85)"/><ellipse cx="836.47" cy="229.62" rx="11.25" ry="10.72" transform="translate(118.16 715.88) rotate(-49.45)"/><ellipse cx="812.23" cy="257.63" rx="9.47" ry="11.38" transform="translate(443.01 1025.59) rotate(-81.92)"/><ellipse cx="845.44" cy="307.75" rx="11.1" ry="12.64" transform="translate(17.41 659.66) rotate(-43.03)"/><path d="M788.54,260.48c.82-5.79-4.15-11.29-11.11-12.28a14.75,14.75,0,0,0-4.25,0,129.62,129.62,0,0,0-5.76,18,14.36,14.36,0,0,0,7,3C781.41,270.17,787.72,266.28,788.54,260.48Z"/><path d="M827.24,377.94a12.88,12.88,0,0,0-14.81,10.6,13.06,13.06,0,0,0,3.1,11,35,35,0,0,0,5.33.42,36.3,36.3,0,0,0,15.53-3.56,13.34,13.34,0,0,0,1.12-3.44A12.88,12.88,0,0,0,827.24,377.94Z"/><path d="M864.06,342.4a12.07,12.07,0,0,0-4.22,23.77,11.56,11.56,0,0,0,4.91-.19A116.77,116.77,0,0,0,872,347.93,11.63,11.63,0,0,0,864.06,342.4Z"/><path d="M856.73,253.83c-4.79,4.48-4.55,12.53.55,18s13.11,6.26,17.91,1.79c.21-.2.4-.42.59-.63a135.14,135.14,0,0,0-5.67-20.69C865.54,250.11,860.26,250.54,856.73,253.83Z"/><path d="M778.25,335.62c4-3.74,3.81-10.47-.45-15-3.92-4.19-9.89-5.08-13.95-2.3a151.93,151.93,0,0,0,2.89,18.47C770.63,338.76,775.21,338.46,778.25,335.62Z"/></g></g><g id="æg-4" data-name="æg"><g id="æg1-4" data-name="æg1"><ellipse class="cls-15" cx="814.21" cy="294.17" rx="57.73" ry="97.04"/><ellipse class="cls-16" cx="809.3" cy="337.13" rx="11.2" ry="13.56" transform="matrix(0.99, -0.14, 0.14, 0.99, -38.59, 114.18)"/><ellipse class="cls-16" cx="801.42" cy="291.3" rx="13.48" ry="10.29" transform="translate(-35.98 452.22) rotate(-30.85)"/><ellipse class="cls-16" cx="829.71" cy="221.17" rx="11.25" ry="10.72" transform="translate(122.22 707.78) rotate(-49.45)"/><ellipse class="cls-16" cx="805.46" cy="249.17" rx="9.47" ry="11.38" transform="translate(445.57 1011.62) rotate(-81.92)"/><ellipse class="cls-16" cx="838.68" cy="299.3" rx="11.1" ry="12.64" transform="translate(21.36 652.77) rotate(-43.03)"/><path class="cls-16" d="M781.77,252c.83-5.8-4.15-11.3-11.1-12.28a15.12,15.12,0,0,0-4.25,0,128.3,128.3,0,0,0-5.77,18,14.5,14.5,0,0,0,7,3C774.64,261.72,781,257.82,781.77,252Z"/><path class="cls-16" d="M820.48,369.48a12.89,12.89,0,0,0-14.82,10.6,13.12,13.12,0,0,0,3.11,11,34.94,34.94,0,0,0,5.33.41A36.39,36.39,0,0,0,829.62,388a13.21,13.21,0,0,0,1.12-3.44A12.88,12.88,0,0,0,820.48,369.48Z"/><path class="cls-16" d="M857.29,333.94a12.08,12.08,0,0,0-4.22,23.78,11.39,11.39,0,0,0,4.91-.2,116,116,0,0,0,7.28-18A11.68,11.68,0,0,0,857.29,333.94Z"/><path class="cls-16" d="M850,245.38c-4.8,4.47-4.55,12.53.54,18s13.12,6.26,17.91,1.78a7.11,7.11,0,0,0,.6-.63,134.69,134.69,0,0,0-5.67-20.68C858.78,241.66,853.5,242.08,850,245.38Z"/><path class="cls-16" d="M771.49,327.17c4-3.74,3.8-10.48-.46-15-3.91-4.2-9.89-5.09-13.94-2.3A152.56,152.56,0,0,0,760,328.3C763.87,330.3,768.45,330,771.49,327.17Z"/></g></g><g class="cls-1"><path d="M729.26,517.42c1.58,0,3,2.38,4.41,7.15q9.71,23.4,14,30c2,1.87,3.07,3.69,3.07,5.46l-.67.32h-8.53c-3.87,0-5.81-1.37-5.81-4.09q-3.32-10.56-4.41-10.57c-4.89.24-8.31.35-10.25.35q-1,2.49-4.4,14.66,0,1.11-16.7,1.69v.35a2.71,2.71,0,0,0-1.37-.35q0-4.5,8.17-6.8c2-1.47,3.07-3.85,3.07-7.15v-2h-.67a53.77,53.77,0,0,1-6.84,1.35v-.32q1.47-6.14,6.84-6.13,4.43,0,4.43-4.44A45.41,45.41,0,0,0,716,524.22v-.67q0-2.91-3.74-5.46l.67-.36q9-.32,15-.31Zm-4.12,11.23q-2.71,10.83-2.71,11.59h6.83c.45,0,.67-.23.67-.7q-.67-1.08-3.77-10.89Z"/><path d="M762.4,517.13q2.85,0,3.64,5.17a122.51,122.51,0,0,0,13.48,16.09H780q-.25-.92-.51-12.19-7.26-5.62-7.25-6.23a3.36,3.36,0,0,1,1.79-2.59,53.46,53.46,0,0,0,6,1.06h.51a25.42,25.42,0,0,0,5.46-1.06q1.75,0,2.33,4.41-.26,13.89-.26,22.29v9.35q0,4.67-6,8.3h-.76q-1.64-5.84-5-8.56-2.52-3.37-10.6-10.63c-.37.05-.55.22-.55.51a55.52,55.52,0,0,1,.55,6.74V556q0,3-10.89,6.73l-1-.25v-.26c0-1.08,1.29-3.68,3.89-7.79q.51-20.15.51-23.59l-4.66-9.58q1.24-3.25,3.1-3.9a2.2,2.2,0,0,1,1-.25Z"/><path d="M842.41,517.13l1.31,1q-.35,6.2-.35,8.46l1,9.06a2,2,0,0,1-1.31,1.95q-10-10-12.32-10.06h-2.59c-1.3.11-1.94.44-1.94,1v5.85c0,.32.42.74,1.27,1.27h7.79c1.09,0,2.49,1,4.22,2.94v1c-2.81,3.26-4.64,4.88-5.49,4.88l-.68-.31h-6.8v7.43c0,1.3.87,2,2.59,2h1.63c1.83,0,4.74-.1,8.75-.32q3.09-3.25,4.56-3.25c.85.34,1.28.67,1.28,1v.32q-3.65,11.35-6.48,11.36a2.5,2.5,0,0,0-1,.32c-4.83-.21-8.73-.32-11.68-.32H815.15c-1.51,0-2.27-1-2.27-2.94v-6.8a1.8,1.8,0,0,1,1.63-1.94,2.7,2.7,0,0,0,.32-1.31v-.64a.29.29,0,0,0-.32-.32l.32-.64v-14.3a25.9,25.9,0,0,0-.32-3.55,2.65,2.65,0,0,0,.32-1c0-2.64-1.3-5.23-3.9-7.79a.28.28,0,0,0-.32-.32c.11-1.23,1.73-2,4.86-2.26l1.63.32h19.79c.66,0,2.4-.65,5.2-2Z"/><path d="M870.51,517q14.4,1.61,14.4,8.08a7.66,7.66,0,0,1,2.46,2.81v1.76a16,16,0,0,1-4.21.7h-3.52a16,16,0,0,1-4.21-.7v-.35l.7-2.46a6.88,6.88,0,0,0-4.21-1.76q-8.17,0-9.49,6.32a40.86,40.86,0,0,0-1.75,10.89v2.46Q862.44,555,868.05,555h1.76q6.23,0,9.13-4.56v-.35q0-.62-8.43-3.16a4.11,4.11,0,0,1-.7-2.11v-.7a2.17,2.17,0,0,1,2.46-2.46h16.86a1.86,1.86,0,0,1,2.1,2.1v11.59a1.86,1.86,0,0,1-2.1,2.11q-2.11,0-2.11-4.56h-1q-4.07,8.43-10.19,8.43-.25.94-7.37,1.4a22.24,22.24,0,0,1-11.95-3.86q-5.61-4.47-5.62-13c-.46,0-.82-2.46-1.05-7.37q1.66-13,4.21-13a21,21,0,0,1,12.3-7.73c.3,0,1.58-.23,3.86-.7Z"/><path d="M915.44,517q14.38,1.61,14.39,8.08a7.49,7.49,0,0,1,2.46,2.81v1.76a16,16,0,0,1-4.21.7h-3.51a16.11,16.11,0,0,1-4.22-.7v-.35l.7-2.46a6.86,6.86,0,0,0-4.21-1.76q-8.18,0-9.48,6.32a40.92,40.92,0,0,0-1.76,10.89v2.46Q907.36,555,913,555h1.75q6.22,0,9.13-4.56v-.35q0-.62-8.42-3.16a4.13,4.13,0,0,1-.71-2.11v-.7a2.17,2.17,0,0,1,2.46-2.46h16.86a1.86,1.86,0,0,1,2.11,2.1v11.59a1.87,1.87,0,0,1-2.11,2.11q-2.12,0-2.11-4.56h-1.05q-4.07,8.43-10.19,8.43-.26.94-7.37,1.4a22.18,22.18,0,0,1-11.94-3.86q-5.62-4.47-5.62-13-.71,0-1.06-7.37,1.66-13,4.22-13a20.94,20.94,0,0,1,12.29-7.73c.3,0,1.59-.23,3.86-.7Z"/><path d="M673.54,630.46H667.4a3.26,3.26,0,0,1-3.47-3.33,3.31,3.31,0,0,1,3.47-3.4h6.14v-6.15a3.37,3.37,0,1,1,6.74,0v6.15h6.21a3.3,3.3,0,0,1,3.46,3.4,3.25,3.25,0,0,1-3.46,3.33h-6.21v6.21a3.37,3.37,0,1,1-6.74,0Z"/><path d="M731.47,627.33c0-5.24-4.64-6.54-9.8-6.54H718.2a3.31,3.31,0,0,1-3.33-3.53,3.25,3.25,0,0,1,3.33-3.47h3.47c5.29,0,7.65-2.29,7.65-6.34,0-3-2.16-5.76-7.65-5.76a12.26,12.26,0,0,0-5.1,1,3.24,3.24,0,0,1,.06,2.22,4.33,4.33,0,0,1-4.38,3.27c-2.81,0-5.75-2.22-5-5.75,1-4.9,7.06-7.39,14.38-7.39,9.55,0,15.56,4.38,15.56,12.36,0,4.38-1.7,8.3-5.88,9.61,4.12.33,8.37,4.51,8.37,10.2,0,10.27-7.91,14.71-17.46,14.71-8,0-17.07-1.44-17.39-9.48a4.87,4.87,0,1,1,9.74,0,7.17,7.17,0,0,1-.33,1.31c1.38,1,4.32,1.57,7.85,1.57C726.24,635.37,731.47,633.41,731.47,627.33Z"/><path d="M774.91,595.6q4.7,0,8.36,6.29a17.17,17.17,0,0,1,.51,3.12q0,8.12-13.85,17v11.5c0,.19.08.28.25.28l-.25.52v.25l1.82,4.73q0,1.82-5.75,1.82c-5.41,0-8.11-.71-8.11-2.11v-.26a6.19,6.19,0,0,1,2.11-4.18V598c0-1.24,1.21-1.85,3.64-1.85q1.79,0,9.16-.51ZM771.49,604l-1.31.26v8.39q3.87,0,5.49-6.8Q775.67,604.39,771.49,604Z"/><path d="M806.77,595.69q7.18,0,10.51,9.71,2.13,11.18,2.13,14,0,7.83-8.33,20.76l-1.37.54q-3.76-.28-6.45-.29a6.73,6.73,0,0,0-3,.54q-10,0-13.47-17.49a14.18,14.18,0,0,1-.26-2.43q0-9.64,8.08-20.47Q802.4,595.69,806.77,595.69Zm-8.08,17q0,3.79-.54,11.84,0,1,4,4.06,5.12-3.59,5.11-7.83v-4.56q0-4.73-4-5.94H803A5.13,5.13,0,0,0,798.69,612.65Z"/><path d="M824.84,596l1.63-.32h12.2a2.32,2.32,0,0,1,1.94,1q-2.58,8-2.58,27.65l2.27,13.51c0,.59-.55,1.13-1.63,1.62a20.2,20.2,0,0,0-4.82-.95l-8.69,2.23c-1.28-.53-1.91-1.17-1.91-1.92l4.18-7.72V611.46q0-12.54-2.59-14.17Z"/><path d="M855.53,595.6q2.84,0,3.64,5.17a121.51,121.51,0,0,0,13.47,16.09h.51q-.25-.93-.51-12.2-7.25-5.61-7.25-6.22a3.37,3.37,0,0,1,1.79-2.59,57.19,57.19,0,0,0,6,1.06h.51a26.08,26.08,0,0,0,5.46-1.06q1.75,0,2.33,4.41-.26,13.89-.25,22.28v9.36q0,4.67-6,8.3h-.77q-1.63-5.85-5-8.56Q867,628.27,858.91,621q-.54.06-.54.51a57.08,57.08,0,0,1,.54,6.74v6.22q0,3-10.89,6.74l-1-.25v-.26c0-1.09,1.3-3.68,3.89-7.79q.51-20.14.52-23.59l-4.67-9.58c.83-2.17,1.87-3.47,3.1-3.9a2.2,2.2,0,0,1,1.05-.25Z"/><path d="M891.45,595.6a2.4,2.4,0,0,1,1.27.32l2.24-.32q10.15.31,15,.32a16.45,16.45,0,0,0,2.56-.32,11.48,11.48,0,0,0,2.87.32,21,21,0,0,0,3.83-.32,43.37,43.37,0,0,0,5.43.32h3.83q3.76,0,4.47,9.57v.32l-1,3.83h-.32q-3.92-5.1-12.13-5.1h-2.87l-1.6.32q0,3.32-.32,20.75,0,6.32,3.52,9.9c-.54,1.27-1.18,1.91-1.92,1.91a33.77,33.77,0,0,0-4.47-.64q-2.88,0-9.9,4.15c-1-.25-1.49-.68-1.6-1.27q.33-1.18,5.11-8a15.32,15.32,0,0,0,.32-2.55c0-4.89.11-8.73.32-11.49q-.32-4.32-.32-12.14l-.95-.63h-8.94q-1.77,0-7,5.1h-.32c-1.06-.32-1.59-1.7-1.59-4.15V603.9q.85-7.24,4.15-8.3Z"/><path d="M960.19,595.69q2,0,10.12,4.76c0,1.74-1.06,3.85-3.16,6.32q-4.44,0-4.44-3.48-1.82-2.52-7.28-2.52-8.23,0-8.24,6v1.28q0,5.36,5.72,7.28a17.17,17.17,0,0,0,5.68.64h2.87q5.91,0,9.81,8.2a7.43,7.43,0,0,0,.63,2.24,16.44,16.44,0,0,0-.32,2.84v1l.32,1.88q-1.75,8.55-13.95,8.56h-7.28q-12.31-3.48-12.32-9.81v-.63q0-1.92,5.36-4.44h.64c4.22,2.57,6.32,4.27,6.32,5.07a3.5,3.5,0,0,0,1.92,3.17h2.2c2.49,0,4.18-1.7,5.08-5.08v-2.52c0-1.9-1.27-3.48-3.8-4.76q-15.42,0-18-10.12,0-.25-1-4.44,0-4.59,6.64-8.88,5.24-2.52,14-2.52Z"/><path d="M704.26,708.93h-6.15a3.26,3.26,0,0,1-3.47-3.33,3.31,3.31,0,0,1,3.47-3.4h6.15v-6.15a3.37,3.37,0,1,1,6.73,0v6.15h6.21a3.31,3.31,0,0,1,3.47,3.4,3.26,3.26,0,0,1-3.47,3.33H711v6.21a3.37,3.37,0,1,1-6.73,0Z"/><path d="M826.38,674.25c.51.17.76.67.76,1.5V676q0,2.18-5.23,6l-2,2.24v13.47c0,1.32-.08,3.06-.25,5.24,0,1.83.83,2.74,2.49,2.74h8.49q2,0,5.49-4l2-1.5a1.67,1.67,0,0,1,1.25,1.76v.48q-4.67,9.15-5.75,14.2-.6,3-1.47,3h-.76c-.41,0-2.31-1.08-5.72-3.25a37,37,0,0,0-15-3.48h-1a24.41,24.41,0,0,0-3.48.51,8.12,8.12,0,0,1-1.76-2.75q0-.31,4-4.5V685.46c0-1.15-1.08-3-3.26-5.46v-.51q0-2.24,5.5-2.23h4q2.43,0,11-3Z"/><path d="M842,674.48l1.63-.32h12.2a2.33,2.33,0,0,1,1.94,1q-2.58,8-2.58,27.65l2.26,13.5c0,.6-.54,1.14-1.62,1.63a20.33,20.33,0,0,0-4.83-1l-8.68,2.24q-1.92-.79-1.92-1.92l4.19-7.72V689.93q0-12.54-2.59-14.18Z"/><path d="M900.8,674.35c.7.11,1.05,1,1.05,2.75q-1.56,16-3.09,16h-.67q-2.82-7.5-7.19-7.5h-7.15v7.86c0,.46.27.7.67.7h1.37a31.59,31.59,0,0,1,4.79.32,18.86,18.86,0,0,1,3.42-.32c3,0,4.44.78,4.44,2.36q-2.4,6.51-3.1,6.51h-.67a22.15,22.15,0,0,0-8.88-2.39h-2q.32,6.32.32,9.23v1.69l4.12,7.53v.67h-9.58q-13.83,0-14.69-2a49.47,49.47,0,0,1,4.79-4.79q.67-17.85.67-23.56,0-.87-5.46-12.29v-.36l1.7-.35h13a18.13,18.13,0,0,1,3.42.35,11.82,11.82,0,0,1,3.06-.35h1.73a18,18,0,0,1,3.41.35,58.55,58.55,0,0,0,9.9-2.39Z"/><path d="M937.9,674.06l1.31,1q-.35,6.19-.35,8.46l1,9.07a2.08,2.08,0,0,1-1.31,2q-10-10.07-12.32-10.06h-2.59q-1.95.16-2,1v5.84c0,.32.43.75,1.28,1.28h7.79c1.08,0,2.49,1,4.21,2.94v1q-4.22,4.89-5.49,4.89l-.67-.32H922v7.44c0,1.3.86,1.95,2.59,1.95h1.63q2.74,0,8.74-.32,3.1-3.26,4.57-3.26c.85.34,1.28.67,1.28,1v.32q-3.64,11.37-6.48,11.37a2.29,2.29,0,0,0-1,.32q-7.25-.33-11.69-.32h-11c-1.51,0-2.26-1-2.26-2.94v-6.8a1.8,1.8,0,0,1,1.63-2,2.67,2.67,0,0,0,.32-1.31v-.64a.29.29,0,0,0-.32-.32l.32-.63V690.6a25.77,25.77,0,0,0-.32-3.54,2.76,2.76,0,0,0,.32-1q0-4-3.9-7.79a.28.28,0,0,0-.32-.32c.11-1.24,1.73-2,4.85-2.27l1.63.32h19.8q1,0,5.2-2Z"/><image width="49" height="56" transform="translate(741.32 673.89)" xlink:href="info_box2.png"/><path d="M785.7,685.9c-.7-22.8-20.38,3.24-20.38,3.24s-19.67-26-20.37-3.24,20.37,37.3,20.37,37.3S786.4,708.7,785.7,685.9Z"/><path d="M785.7,685.9c-.7-22.8-20.38,3.24-20.38,3.24s-19.67-26-20.37-3.24,20.37,37.3,20.37,37.3S786.4,708.7,785.7,685.9Z"/></g><path class="cls-20" d="M724.72,510.15q2.35,0,4.4,7.15,9.71,23.4,14,30,3.06,2.81,3.06,5.46l-.67.32H737c-3.88,0-5.81-1.36-5.81-4.09q-3.33-10.56-4.41-10.57-7.34.36-10.25.36-1,2.49-4.4,14.65,0,1.13-16.7,1.69v.35a2.77,2.77,0,0,0-1.38-.35q0-4.5,8.18-6.8,3.06-2.2,3.06-7.15v-2h-.67a54.48,54.48,0,0,1-6.83,1.34v-.32q1.47-6.14,6.83-6.13,4.44,0,4.44-4.44A45.34,45.34,0,0,0,711.4,517v-.67q0-2.91-3.73-5.46l.67-.35q9-.33,15-.32Zm-4.12,11.24q-2.72,10.82-2.72,11.59h6.84c.44,0,.67-.24.67-.71q-.67-1.08-3.77-10.88Z"/><path class="cls-20" d="M757.86,509.86c1.89,0,3.11,1.72,3.64,5.17A123.1,123.1,0,0,0,775,531.12h.51q-.26-.92-.51-12.19-7.25-5.62-7.24-6.23a3.36,3.36,0,0,1,1.78-2.58,55.72,55.72,0,0,0,6,1.05H776a25.85,25.85,0,0,0,5.46-1.05c1.16,0,1.94,1.46,2.33,4.4q-.25,13.89-.26,22.29v9.35q0,4.67-6,8.3h-.77q-1.62-5.84-4.95-8.55-2.52-3.39-10.6-10.63-.54.06-.54.51a56.94,56.94,0,0,1,.54,6.73v6.23q0,3-10.88,6.74l-1.06-.26V555q0-1.63,3.9-7.8.51-20.14.51-23.59L749.05,514q1.25-3.25,3.09-3.89a2.22,2.22,0,0,1,1.06-.26Z"/><path class="cls-20" d="M837.87,509.86l1.31,1q-.34,6.2-.35,8.46l1,9.07a2.06,2.06,0,0,1-1.31,1.94q-10-10-12.32-10H823.6q-2,.15-2,1v5.84c0,.32.43.75,1.28,1.28h7.79c1.08,0,2.49,1,4.21,2.93v1q-4.21,4.89-5.49,4.89l-.67-.32H822v7.44c0,1.3.86,2,2.59,2h1.63q2.74,0,8.74-.32,3.11-3.25,4.57-3.26c.85.34,1.28.67,1.28,1v.32q-3.64,11.37-6.48,11.36a2.45,2.45,0,0,0-1,.32q-7.25-.32-11.69-.32h-11c-1.51,0-2.26-1-2.26-2.93v-6.8a1.8,1.8,0,0,1,1.63-1.95,2.67,2.67,0,0,0,.32-1.31v-.64a.29.29,0,0,0-.32-.32l.32-.64V526.4a25.64,25.64,0,0,0-.32-3.54,2.76,2.76,0,0,0,.32-1q0-4-3.9-7.79a.28.28,0,0,0-.32-.32c.11-1.24,1.72-2,4.85-2.27l1.63.32h19.8q1,0,5.2-1.95Z"/><path class="cls-20" d="M866,509.76q14.4,1.61,14.4,8.08a7.66,7.66,0,0,1,2.46,2.81v1.76a15.7,15.7,0,0,1-4.22.7H875.1a15.64,15.64,0,0,1-4.21-.7v-.35l.7-2.46a6.9,6.9,0,0,0-4.22-1.76q-8.18,0-9.48,6.32a40.92,40.92,0,0,0-1.75,10.89v2.46q1.75,10.18,7.37,10.19h1.76q6.22,0,9.13-4.57v-.35q0-.62-8.43-3.16a4.11,4.11,0,0,1-.7-2.11v-.7a2.17,2.17,0,0,1,2.46-2.46h16.85a1.86,1.86,0,0,1,2.11,2.11v11.59a1.86,1.86,0,0,1-2.11,2.1q-2.1,0-2.1-4.56h-1.06q-4,8.43-10.18,8.43c-.17.64-2.63,1.1-7.38,1.4a22.21,22.21,0,0,1-11.94-3.86q-5.62-4.47-5.62-13c-.47,0-.82-2.45-1-7.37q1.65-13,4.21-13a20.9,20.9,0,0,1,12.29-7.72c.3,0,1.59-.24,3.87-.71Z"/><path class="cls-20" d="M910.89,509.76q14.4,1.61,14.4,8.08a7.66,7.66,0,0,1,2.46,2.81v1.76a15.64,15.64,0,0,1-4.21.7H920a15.64,15.64,0,0,1-4.21-.7v-.35l.7-2.46a6.88,6.88,0,0,0-4.21-1.76q-8.17,0-9.49,6.32a40.92,40.92,0,0,0-1.75,10.89v2.46q1.76,10.18,7.37,10.19h1.76q6.22,0,9.13-4.57v-.35q0-.62-8.43-3.16a4.11,4.11,0,0,1-.7-2.11v-.7a2.17,2.17,0,0,1,2.46-2.46h16.86a1.86,1.86,0,0,1,2.1,2.11v11.59a1.86,1.86,0,0,1-2.1,2.1q-2.12,0-2.11-4.56h-1Q922.29,554,916.16,554c-.17.64-2.63,1.1-7.37,1.4a22.24,22.24,0,0,1-11.95-3.86q-5.61-4.47-5.62-13c-.46,0-.82-2.45-1.05-7.37q1.67-13,4.21-13a20.89,20.89,0,0,1,12.3-7.72c.3,0,1.58-.24,3.86-.71Z"/><path d="M669,623.2h-6.15a3.26,3.26,0,0,1-3.46-3.34,3.3,3.3,0,0,1,3.46-3.4H669v-6.14a3.37,3.37,0,1,1,6.73,0v6.14h6.21a3.31,3.31,0,0,1,3.47,3.4,3.27,3.27,0,0,1-3.47,3.34h-6.21v6.21a3.37,3.37,0,1,1-6.73,0Z"/><path d="M726.93,620.06c0-5.23-4.64-6.54-9.81-6.54h-3.46a3.32,3.32,0,0,1-3.34-3.53,3.26,3.26,0,0,1,3.34-3.47h3.46c5.3,0,7.65-2.29,7.65-6.34,0-3-2.15-5.75-7.65-5.75a12.33,12.33,0,0,0-5.1,1,3.2,3.2,0,0,1,.07,2.23,4.34,4.34,0,0,1-4.38,3.27c-2.81,0-5.75-2.23-5-5.76,1.05-4.9,7.07-7.39,14.39-7.39,9.55,0,15.56,4.38,15.56,12.36,0,4.38-1.7,8.3-5.88,9.61,4.12.33,8.37,4.51,8.37,10.2,0,10.27-7.92,14.71-17.46,14.71-8,0-17.07-1.43-17.4-9.48a4.75,4.75,0,0,1,5-4.9,4.69,4.69,0,0,1,4.71,4.9,8.09,8.09,0,0,1-.33,1.31c1.37,1.05,4.32,1.57,7.85,1.57C721.7,628.1,726.93,626.14,726.93,620.06Z"/><path class="cls-20" d="M770.36,588.33q4.7,0,8.37,6.29a17.11,17.11,0,0,1,.51,3.13q0,8.1-13.86,17v11.5c0,.19.09.29.26.29l-.26.51v.25L767.2,632q0,1.82-5.74,1.82-8.12,0-8.11-2.11v-.25a6.22,6.22,0,0,1,2.1-4.19V590.69c0-1.23,1.22-1.85,3.64-1.85q1.78,0,9.17-.51ZM767,596.69l-1.31.26v8.4q3.86,0,5.49-6.81Q771.13,597.12,767,596.69Z"/><path class="cls-20" d="M802.23,588.42q7.18,0,10.5,9.71,2.14,11.18,2.14,14,0,7.82-8.33,20.75l-1.37.54q-3.78-.28-6.45-.29a6.58,6.58,0,0,0-3,.55q-10,0-13.48-17.5a15.08,15.08,0,0,1-.25-2.43q0-9.63,8.07-20.46Q797.86,588.42,802.23,588.42Zm-8.08,17q0,3.79-.54,11.84,0,1,4,4.06,5.11-3.59,5.11-7.82v-4.57q0-4.73-4-5.94h-.26A5.13,5.13,0,0,0,794.15,605.38Z"/><path class="cls-20" d="M820.3,588.74l1.63-.32h12.19a2.33,2.33,0,0,1,2,1q-2.58,8-2.58,27.65l2.26,13.51c0,.59-.54,1.14-1.63,1.63a20.18,20.18,0,0,0-4.82-1l-8.68,2.23c-1.28-.53-1.92-1.17-1.92-1.91l4.19-7.73V604.2q0-12.56-2.59-14.18Z"/><path class="cls-20" d="M851,588.33q2.85,0,3.64,5.17a122.51,122.51,0,0,0,13.48,16.09h.51q-.25-.92-.51-12.19-7.26-5.62-7.25-6.23a3.36,3.36,0,0,1,1.79-2.59,53.46,53.46,0,0,0,6,1.06h.51a25.42,25.42,0,0,0,5.46-1.06q1.75,0,2.33,4.41-.25,13.89-.26,22.29v9.35q0,4.67-6,8.3h-.76q-1.63-5.83-4.95-8.56-2.52-3.37-10.6-10.63c-.37,0-.55.22-.55.51a55.52,55.52,0,0,1,.55,6.74v6.23q0,3-10.89,6.73l-1.05-.25v-.26c0-1.08,1.29-3.68,3.89-7.79q.51-20.14.51-23.59l-4.66-9.58q1.25-3.26,3.1-3.9a2.2,2.2,0,0,1,1.05-.25Z"/><path class="cls-20" d="M886.9,588.33a2.41,2.41,0,0,1,1.28.32l2.23-.32q10.15.31,15,.32a16.5,16.5,0,0,0,2.55-.32,11.56,11.56,0,0,0,2.88.32,21.08,21.08,0,0,0,3.83-.32,43.37,43.37,0,0,0,5.43.32h3.83q3.76,0,4.47,9.58v.31l-1,3.84h-.32q-3.93-5.11-12.13-5.11h-2.87l-1.6.32q0,3.31-.32,20.75,0,6.33,3.51,9.9c-.53,1.28-1.17,1.91-1.91,1.91a33.1,33.1,0,0,0-4.47-.63q-2.88,0-9.9,4.15c-1-.26-1.49-.68-1.6-1.28q.31-1.18,5.11-8a16.45,16.45,0,0,0,.32-2.56q0-7.33.32-11.49-.32-4.3-.32-12.13l-1-.64h-8.94q-1.75,0-7,5.11H884c-1.07-.32-1.6-1.71-1.6-4.16v-1.91q.87-7.25,4.15-8.3Z"/><path class="cls-20" d="M955.64,588.42q2.05,0,10.13,4.76c0,1.75-1.06,3.85-3.17,6.32q-4.43,0-4.43-3.48c-1.22-1.68-3.64-2.52-7.28-2.52q-8.25,0-8.24,6v1.28q0,5.37,5.71,7.28a17,17,0,0,0,5.69.64h2.87q5.91,0,9.8,8.2a7.47,7.47,0,0,0,.64,2.24A16.54,16.54,0,0,0,967,622v1l.32,1.88q-1.75,8.56-14,8.56h-7.28q-12.33-3.48-12.33-9.8v-.64q0-1.92,5.37-4.44h.64q6.32,3.87,6.32,5.08a3.5,3.5,0,0,0,1.91,3.16h2.21q3.74,0,5.07-5.08v-2.52q0-2.83-3.79-4.76-15.43,0-18-10.12,0-.25-1-4.44,0-4.59,6.64-8.87,5.24-2.54,14-2.53Z"/><path d="M699.71,701.66h-6.14a3.26,3.26,0,0,1-3.47-3.33,3.31,3.31,0,0,1,3.47-3.4h6.14v-6.15a3.37,3.37,0,1,1,6.74,0v6.15h6.21a3.3,3.3,0,0,1,3.46,3.4,3.25,3.25,0,0,1-3.46,3.33h-6.21v6.21a3.37,3.37,0,1,1-6.74,0Z"/><path class="cls-20" d="M821.83,667c.51.17.77.67.77,1.5v.25q0,2.18-5.24,6l-2,2.24v13.47c0,1.32-.08,3.07-.25,5.24,0,1.83.83,2.74,2.49,2.74h8.49q2,0,5.49-4l2-1.5a1.66,1.66,0,0,1,1.24,1.76v.48q-4.65,9.17-5.74,14.21-.62,3-1.47,3h-.77c-.4,0-2.31-1.09-5.71-3.26a37,37,0,0,0-15-3.48h-1a24.81,24.81,0,0,0-3.48.51,8.05,8.05,0,0,1-1.75-2.75q0-.32,4-4.5V678.19q0-1.73-3.26-5.46v-.51q0-2.24,5.49-2.23h4q2.43,0,11-3Z"/><path class="cls-20" d="M837.48,667.21l1.63-.32H851.3a2.33,2.33,0,0,1,2,1q-2.58,8-2.59,27.65l2.27,13.5c0,.6-.54,1.14-1.63,1.63a20.18,20.18,0,0,0-4.82-1l-8.68,2.24q-1.92-.79-1.92-1.92l4.18-7.72V682.66q0-12.54-2.58-14.17Z"/><path class="cls-20" d="M896.26,667.08c.7.11,1,1,1,2.75q-1.56,16-3.1,16h-.67q-2.81-7.51-7.18-7.51h-7.15v7.86c0,.47.26.7.67.7h1.37a33,33,0,0,1,4.79.32,19.71,19.71,0,0,1,3.42-.32c3,0,4.43.79,4.43,2.36q-2.39,6.53-3.09,6.52h-.67a22,22,0,0,0-8.88-2.4h-2c.21,4.22.32,7.29.32,9.23v1.69l4.12,7.54v.67h-9.58q-13.83,0-14.69-2a50.91,50.91,0,0,1,4.79-4.79q.68-17.83.67-23.56,0-.86-5.46-12.29v-.35l1.69-.35h13a17.24,17.24,0,0,1,3.41.35,11.48,11.48,0,0,1,3.07-.35h1.72a17.27,17.27,0,0,1,3.42.35,58.94,58.94,0,0,0,9.9-2.4Z"/><path class="cls-20" d="M933.36,666.79l1.31,1c-.24,4.13-.35,7-.35,8.46l1,9.07a2.08,2.08,0,0,1-1.31,2q-10-10.07-12.33-10.06h-2.58q-2,.17-2,1V684c0,.32.42.75,1.28,1.28h7.79c1.08,0,2.49,1,4.21,2.94v1q-4.21,4.88-5.49,4.88l-.67-.32h-6.8v7.44q0,2,2.58,2h1.63q2.75,0,8.75-.32,3.11-3.25,4.57-3.26c.85.34,1.27.67,1.27,1v.32q-3.63,11.37-6.48,11.37a2.46,2.46,0,0,0-.95.32q-7.26-.31-11.69-.32h-11c-1.51,0-2.26-1-2.26-2.94v-6.8a1.81,1.81,0,0,1,1.62-2,2.57,2.57,0,0,0,.32-1.31v-.63a.28.28,0,0,0-.32-.32l.32-.64V683.33a24.39,24.39,0,0,0-.32-3.54,2.57,2.57,0,0,0,.32-1q0-4-3.89-7.79a.29.29,0,0,0-.32-.32q.15-1.85,4.85-2.27l1.63.32h19.79c.67,0,2.4-.65,5.21-2Z"/><g class="cls-1"><path d="M781.63,680.65c-.7-22.8-20.38,3.24-20.38,3.24s-19.68-26-20.38-3.24S761.25,718,761.25,718,782.32,703.45,781.63,680.65Z"/></g><path d="M781.16,678.64c-.7-22.8-20.38,3.23-20.38,3.23s-19.67-26-20.37-3.23,20.37,37.3,20.37,37.3S781.86,701.43,781.16,678.64Z"/><path class="cls-24" d="M781.16,678.64c-.7-22.8-20.38,3.23-20.38,3.23s-19.67-26-20.37-3.23,20.37,37.3,20.37,37.3S781.86,701.43,781.16,678.64Z"/></g></g></svg>
