<svg xmlns="http://www.w3.org/2000/svg" xmlns:xlink="http://www.w3.org/1999/xlink" viewBox="0 0 55 65"><defs><style>.cls-1{filter:url(#AI_GaussianBlur_7);}.cls-2{fill:#ed1c24;}</style><filter id="AI_GaussianBlur_7" name="AI_GaussianBlur_7"><feGaussianBlur stdDeviation="7"/></filter></defs><g id="Assetlist_-_Artboard" data-name="Assetlist - Artboard"><g id="liv"><g class="cls-1"><path d="M49.92,16.85C49.16-8.92,27.7,20.5,27.7,20.5S6.23-8.92,5.47,16.85,27.7,59,27.7,59,50.69,42.61,49.92,16.85Z"/></g><path d="M49.42,14.57c-.77-25.76-22.23,3.66-22.23,3.66S5.72-11.19,5,14.57,27.19,56.72,27.19,56.72,50.18,40.33,49.42,14.57Z"/><path class="cls-2" d="M49.42,14.57c-.77-25.76-22.23,3.66-22.23,3.66S5.72-11.19,5,14.57,27.19,56.72,27.19,56.72,50.18,40.33,49.42,14.57Z"/></g></g></svg>
