<svg xmlns="http://www.w3.org/2000/svg" xmlns:xlink="http://www.w3.org/1999/xlink" viewBox="0 0 158 158"><defs><style>.cls-1{filter:url(#AI_GaussianBlur_7);}.cls-2{fill:#999;}</style><filter id="AI_GaussianBlur_7" name="AI_GaussianBlur_7"><feGaussianBlur stdDeviation="7"/></filter></defs><g id="Assetlist_-_Artboard" data-name="Assetlist - Artboard"><path class="cls-1" d="M143.31,66.67h0c-.11-.6-.23-1.19-.36-1.78l0-.09c-.12-.57-.25-1.14-.39-1.7l0-.09A64.91,64.91,0,0,0,139,52.69v0c-.23-.54-.47-1.08-.72-1.61l0-.06a65.46,65.46,0,0,0-6.36-10.79h0A66,66,0,0,0,117,25.39c-1-.72-2-1.4-3-2.06l0,0c-.49-.31-1-.61-1.48-.9l-.21-.13-1.34-.78-.24-.13c-.46-.26-.93-.51-1.4-.76l-.17-.08a65.27,65.27,0,0,0-6.7-3h0c-.56-.22-1.12-.43-1.69-.63l-.08,0a66,66,0,0,0-32-2.91h0c-.6.09-1.2.2-1.79.31l-.32.06c-.5.09-1,.19-1.48.3l-.39.08L63.16,15l-.35.09-1.58.41-.16.05c-1.2.34-2.39.7-3.56,1.11l-.07,0c-.54.18-1.08.38-1.61.58l-.3.11-1.38.54-.35.15c-.46.18-.91.37-1.36.57l-.3.13-1.52.7-.09,0c-1.1.53-2.2,1.09-3.27,1.68l-.11.06c-.48.26-.95.53-1.42.81a2.61,2.61,0,0,0-.28.17c-.42.24-.84.5-1.25.75l-.31.2-1.25.8-.24.16c-.49.32-1,.65-1.45,1a66.23,66.23,0,0,0-15,14.72c-.38.52-.76,1-1.13,1.58l-.07.11q-1.7,2.44-3.16,5l0,.07c-.31.56-.62,1.12-.92,1.69l0,.07c-.93,1.77-1.78,3.6-2.54,5.46L18,54a65.73,65.73,0,0,0-2.6,7.7v.06q-.81,3-1.33,6.06v0c-.12.69-.22,1.37-.31,2.07a65.5,65.5,0,0,0-.61,8.92,66.2,66.2,0,0,0,1.12,12.11h0q.16.9.36,1.8l0,.1c.13.58.26,1.16.4,1.73l0,.07a66.16,66.16,0,0,0,2.84,8.78l0,.07c.22.53.44,1.06.67,1.59l.06.12c.23.53.47,1.06.71,1.58l0,0a64.76,64.76,0,0,0,3.47,6.41h0c.31.5.62,1,.94,1.48l.08.12c.3.46.62.92.93,1.38l.08.11c.33.48.67,1,1,1.43a66.23,66.23,0,0,0,15,14.72l1.45,1,.24.16,1.25.8.31.2c.41.25.83.51,1.25.75l.28.17,1.42.81.11.06c1.07.59,2.17,1.15,3.27,1.68l.09,0,1.52.7.3.13c.45.19.9.39,1.36.57l.35.15,1.38.54.3.11,1.61.58.07,0c1.17.4,2.36.77,3.56,1.11l.16,0c.53.15,1.05.29,1.58.42l.35.08,1.44.34L65,143c.49.11,1,.21,1.48.3l.32.06,1.79.31h0a65.92,65.92,0,0,0,21-.11,64.41,64.41,0,0,0,11-2.81l.08,0c.57-.2,1.13-.4,1.69-.62h0a65.27,65.27,0,0,0,6.7-3l.17-.08c.47-.25.94-.5,1.4-.76l.24-.14,1.34-.77.21-.13c.5-.29,1-.59,1.48-.9l0,0c1-.66,2-1.34,3-2.06a66,66,0,0,0,14.92-14.82h0a66.5,66.5,0,0,0,4.27-6.69h0a64.47,64.47,0,0,0,3.45-7.21h0c.75-1.86,1.42-3.77,2-5.71h0c.2-.65.38-1.3.56-2h0c.52-2,1-4,1.3-6v0c.12-.67.22-1.35.31-2a65.81,65.81,0,0,0-.51-21ZM32.89,79.1A46.21,46.21,0,1,1,79.1,125.31,46.21,46.21,0,0,1,32.89,79.1Z"/><path class="cls-1" d="M119,111h0a2.74,2.74,0,0,0-.09-.39v0l-.12-.41v0a18.49,18.49,0,0,0-1.53-3.16h0c-.11-.2-.23-.4-.36-.61v0c-.91-1.47-2.08-3.14-3.49-5h0c-2.38-3.13-5.45-6.74-9.07-10.7-.63-.69-1.27-1.39-1.93-2.09l0,0-.94-1-.14-.14-.86-.91-.16-.16-.9-.95-.11-.11q-2.12-2.17-4.39-4.46l0,0-1.12-1.11,0-.06q-3.51-3.47-7.35-7.08-3.58-3.37-7.43-6.83-3.62-3.24-7.14-6.27h0L70.49,58.4l-.22-.19-1-.89-.28-.24-1-.86L67.67,56l-1.13-.94-.12-.1c-.86-.72-1.72-1.42-2.56-2.11l0,0-1.17-1-.22-.18-1-.8-.25-.21c-.34-.26-.67-.53-1-.79a1.84,1.84,0,0,1-.22-.17l-1.11-.88-.07-.05-2.41-1.88-.08-.06L55.23,46,55,45.88l-.93-.7L53.86,45l-.93-.7-.19-.13q-.54-.42-1.08-.81c-4.34-3.2-8.29-5.89-11.67-8l-.92-.55-.06,0c-.92-.54-1.8-1-2.62-1.48l0,0-.78-.41,0,0c-.8-.41-1.54-.76-2.23-1.06h0a17.55,17.55,0,0,0-2.46-.89h0a7.06,7.06,0,0,0-1.43-.25H29a1.69,1.69,0,0,0-1.18.48A2.06,2.06,0,0,0,27.52,33h0c0,.13.06.26.1.4v0c0,.13.08.27.13.41v0A17.07,17.07,0,0,0,29,36.47l0,0q.15.28.33.57l0,0,.36.6,0,0c.53.86,1.15,1.79,1.86,2.78h0l.53.73,0,.06.53.71,0,.06.59.77c2.41,3.15,5.51,6.78,9.15,10.76l.92,1,.15.17.8.85.2.21.8.85.18.19.92,1,.07.07c.69.73,1.4,1.46,2.12,2.2l.06.06,1,1,.2.2.89.9.23.23.91.91.2.2,1.07,1.06,0,0L55.59,67l.11.11,1.06,1,.24.23,1,.92a3.07,3.07,0,0,0,.26.25c.33.32.66.64,1,1l.21.21,1.22,1.14h0q3.39,3.18,7,6.43c2.56,2.29,5.09,4.52,7.58,6.65q4,3.43,7.83,6.55l.06,0,1.22,1,0,0q2.5,2,4.91,3.89l.12.09,1,.8.18.14,1,.76.16.12,1.09.83h0c.77.59,1.53,1.15,2.28,1.7,4.33,3.18,8.25,5.84,11.61,7.88h0c1.26.76,2.44,1.44,3.54,2h0c1.09.59,2.1,1.08,3,1.47h0a19,19,0,0,0,1.88.7h0l.55.15h0a6.93,6.93,0,0,0,1.41.24h0a2.54,2.54,0,0,0,.39,0,1.64,1.64,0,0,0,1.18-.47A2.06,2.06,0,0,0,119,111ZM41.45,43.49c2.19-2.44,18.29,8.47,36,24.35S107.68,98.58,105.49,101s-18.29-8.47-36-24.36S39.27,45.92,41.45,43.49Z"/><path class="cls-1" d="M119,39.71h0l-.4.07h0l-.42.11h0a17.94,17.94,0,0,0-3.24,1.34h0l-.62.33h0c-1.53.82-3.27,1.89-5.2,3.18h0c-3.26,2.2-7.06,5-11.23,8.41-.72.59-1.46,1.19-2.2,1.81h0l-1.06.88-.15.13-1,.81-.17.14-1,.85-.12.1q-2.31,2-4.72,4.11l0,0-1.18,1-.06,0c-2.44,2.19-5,4.5-7.51,6.91q-3.58,3.38-7.27,7-3.45,3.41-6.69,6.74h0L63.52,85l-.2.21c-.33.33-.65.66-1,1-.09.08-.17.17-.25.25l-.93,1-.22.23c-.34.36-.67.72-1,1.07l-.11.12c-.76.81-1.52,1.62-2.26,2.43l0,0-1,1.11-.19.21c-.29.31-.58.63-.86,1l-.22.24c-.29.31-.57.63-.85.94l-.18.21-.95,1-.06.07c-.68.77-1.36,1.53-2,2.29l-.07.08c-.3.33-.59.67-.87,1l-.18.2-.76.89-.18.22-.76.89-.15.17-.87,1C43.91,107,41,110.78,38.72,114c-.2.3-.41.59-.6.88l0,.06c-.6.88-1.15,1.73-1.64,2.52l0,0-.46.75,0,0c-.45.77-.85,1.49-1.19,2.16l0,0a17.86,17.86,0,0,0-1,2.41h0a7,7,0,0,0-.34,1.42h0c0,.14,0,.27,0,.4a1.68,1.68,0,0,0,.4,1.21,2.1,2.1,0,0,0,1.83.37h0l.41-.07h0l.42-.1h0a16.28,16.28,0,0,0,2.67-1.06h0l.59-.29,0,0,.62-.32h0c.89-.48,1.85-1,2.88-1.69h0q.38-.23.75-.48l.07,0,.74-.48.06,0,.81-.54c3.29-2.22,7.1-5.09,11.29-8.48.34-.29.69-.57,1-.86l.17-.15.9-.74.22-.18.9-.75.2-.17,1-.86.08-.06c.76-.65,1.54-1.31,2.32-2l.06-.06c.36-.3.72-.61,1.07-.93l.21-.18,1-.83.25-.22,1-.85.21-.19,1.12-1,.05,0,2.46-2.23.11-.1,1.09-1,.24-.22,1-.91.27-.24,1-1,.21-.2,1.22-1.14h0q3.38-3.18,6.83-6.59,3.67-3.63,7.11-7.17,3.66-3.78,7-7.42l0,0,1.06-1.17,0,0c1.44-1.59,2.84-3.14,4.17-4.66l.1-.12.86-1,.15-.17.82-1,.13-.15.89-1.05,0,0c.63-.73,1.24-1.46,1.84-2.18,3.43-4.12,6.32-7.88,8.56-11.11h0c.84-1.21,1.59-2.35,2.23-3.4h0c.64-1.06,1.19-2,1.64-2.91h0a19.49,19.49,0,0,0,.82-1.83h0c.07-.18.13-.36.19-.54h0a7.51,7.51,0,0,0,.33-1.4h0c0-.14,0-.27,0-.39a1.68,1.68,0,0,0-.4-1.21A2.07,2.07,0,0,0,119,39.71ZM46.87,113.06c-2.29-2.33,9.57-17.74,26.49-34.44s32.51-28.33,34.81-26S98.6,70.36,81.68,87.05,49.17,115.39,46.87,113.06Z"/><path class="cls-2" d="M138,58.84h0c-.11-.6-.23-1.19-.36-1.78l0-.09c-.12-.57-.25-1.14-.39-1.7l0-.09a65.89,65.89,0,0,0-3.48-10.32v0c-.24-.54-.48-1.08-.73-1.61l0-.06a65.51,65.51,0,0,0-6.37-10.79h0a66,66,0,0,0-14.93-14.82c-1-.72-2-1.4-3-2.06l0,0q-.73-.46-1.47-.9l-.21-.13-1.35-.77-.24-.14c-.46-.26-.93-.51-1.4-.76l-.16-.08a66.42,66.42,0,0,0-6.71-3h0c-.55-.22-1.12-.43-1.68-.63l-.09,0A64.54,64.54,0,0,0,84.31,6.2a66,66,0,0,0-21-.11h0c-.6.09-1.2.2-1.79.31l-.32.06c-.49.09-1,.19-1.48.3l-.39.08-1.44.33-.35.09c-.52.13-1,.27-1.57.42l-.17,0c-1.2.34-2.39.71-3.56,1.11l-.07,0-1.61.58-.3.11-1.38.54-.35.15-1.36.57-.29.13-1.52.7-.09,0q-1.66.8-3.27,1.68l-.12.06c-.47.26-1,.53-1.42.81l-.28.17c-.42.24-.84.5-1.25.75l-.31.2-1.25.8-.24.16c-.49.32-1,.65-1.45,1A66,66,0,0,0,20.62,32c-.39.52-.76,1.05-1.13,1.58l-.08.11c-1.12,1.63-2.18,3.31-3.15,5l-.05.07c-.31.56-.62,1.12-.91,1.69l0,.07Q13.87,43.25,12.72,46l0,.08a65.73,65.73,0,0,0-2.6,7.7v.06c-.53,2-1,4-1.32,6.06v0c-.11.69-.22,1.37-.31,2.07A65.5,65.5,0,0,0,7.82,71,66.2,66.2,0,0,0,8.94,83.06h0c.11.6.24,1.21.36,1.8l0,.1c.12.58.26,1.16.4,1.73l0,.08a63.66,63.66,0,0,0,2.84,8.77l0,.07c.21.53.44,1.06.67,1.59l.05.12c.23.53.47,1.06.72,1.58l0,0a64.84,64.84,0,0,0,3.48,6.41h0c.3.5.62,1,.93,1.48l.08.12.94,1.38.07.11c.34.48.68,1,1,1.43a66,66,0,0,0,15,14.72c.48.34,1,.66,1.45,1l.24.16,1.25.8.31.2c.41.25.83.51,1.25.75l.28.17,1.42.81.12.06q1.6.88,3.27,1.68l.09,0,1.52.7.29.13,1.36.57.35.15,1.38.54.3.11,1.61.58.07,0c1.17.4,2.36.77,3.56,1.11l.17,0c.52.15,1,.29,1.57.42l.35.08,1.44.34.39.08c.49.11,1,.21,1.48.3l.32.06,1.79.31h0a66,66,0,0,0,21-.11,64.54,64.54,0,0,0,10.94-2.81l.09,0c.56-.2,1.13-.4,1.68-.62h0a66.42,66.42,0,0,0,6.71-3l.16-.08c.47-.25.94-.5,1.4-.76l.24-.14,1.35-.77.21-.13q.74-.43,1.47-.9l0,0c1-.66,2.05-1.34,3-2.06a66,66,0,0,0,14.93-14.82h0a66.5,66.5,0,0,0,4.27-6.69h0a66.27,66.27,0,0,0,3.45-7.21h0c.76-1.86,1.43-3.77,2-5.71h0c.2-.65.38-1.3.56-2h0c.52-2,1-4,1.3-6v0c.11-.67.21-1.35.31-2a67.26,67.26,0,0,0,.6-8.92A66.2,66.2,0,0,0,138,58.84ZM27.58,71.27a46.21,46.21,0,1,1,46.21,46.21A46.21,46.21,0,0,1,27.58,71.27Z"/><rect class="cls-2" x="13.27" y="62.21" width="122.68" height="16.47" rx="8.23" transform="translate(-27.85 76) rotate(-46.46)"/><rect class="cls-2" x="9.59" y="62.5" width="127.51" height="16.47" rx="8.23" transform="translate(72.59 172.63) rotate(-133.54)"/></g></svg>
