<svg xmlns="http://www.w3.org/2000/svg" xmlns:xlink="http://www.w3.org/1999/xlink" viewBox="0 0 451 135"><defs><style>.cls-1{filter:url(#AI_GaussianBlur_7);}.cls-2{fill:#999;}</style><filter id="AI_GaussianBlur_7" name="AI_GaussianBlur_7"><feGaussianBlur stdDeviation="7"/></filter></defs><g id="Assetlist_-_Artboard" data-name="Assetlist - Artboard"><g class="cls-1"><path d="M236.35,47.48H218.78c-7,0-12.76,6.71-12.76,15v9.6c0,8.29,5.72,15,12.76,15h17.57a22.79,22.79,0,0,1,13.38,4.46l40.1,29.05c5.67,4.11,13-.68,13-8.51V22.48c0-7.83-7.3-12.62-13-8.51L249.73,43A22.79,22.79,0,0,1,236.35,47.48Z"/></g><g class="cls-1"><rect x="310.8" y="61.99" width="60" height="10" rx="5"/></g><g class="cls-1"><rect x="308.8" y="26.99" width="60" height="10" rx="5" transform="translate(14.91 136.41) rotate(-23.26)"/></g><g class="cls-1"><rect x="333.8" y="71.99" width="10" height="60" rx="5" transform="translate(111.3 372.97) rotate(-66.74)"/></g><path class="cls-2" d="M232.35,42.48H214.78c-7,0-12.76,6.71-12.76,15v9.6c0,8.29,5.72,15,12.76,15h17.57a22.79,22.79,0,0,1,13.38,4.46l40.1,29.05c5.67,4.11,13-.68,13-8.51V17.48c0-7.83-7.3-12.62-13-8.51L245.73,38A22.79,22.79,0,0,1,232.35,42.48Z"/><rect class="cls-2" x="306.8" y="56.99" width="60" height="10" rx="5"/><rect class="cls-2" x="304.8" y="21.99" width="60" height="10" rx="5" transform="translate(16.56 134.42) rotate(-23.26)"/><rect class="cls-2" x="304.8" y="91.99" width="60" height="10" rx="5" transform="translate(65.52 -124.34) rotate(23.26)"/><g class="cls-1"><path d="M40.2,47.48H22.63c-7,0-12.75,6.71-12.75,15v9.6c0,8.29,5.71,15,12.75,15H40.2a22.79,22.79,0,0,1,13.38,4.46l40.1,29.05c5.67,4.11,13-.68,13-8.51V22.48c0-7.83-7.3-12.62-13-8.51L53.58,43A22.79,22.79,0,0,1,40.2,47.48Z"/></g><path class="cls-2" d="M37.2,43.48H19.63c-7,0-12.75,6.71-12.75,15v9.6c0,8.29,5.71,15,12.75,15H37.2a22.79,22.79,0,0,1,13.38,4.46l40.1,29.05c5.67,4.11,13-.68,13-8.51V18.48c0-7.83-7.3-12.62-13-8.51L50.58,39A22.79,22.79,0,0,1,37.2,43.48Z"/><g class="cls-1"><rect x="13.77" y="60.97" width="131.01" height="10" rx="5" transform="translate(-23.15 77.99) rotate(-46.46)"/></g><rect class="cls-2" x="10.77" y="55.97" width="131.01" height="10" rx="5" transform="translate(-20.46 74.26) rotate(-46.46)"/></g></svg>
