<svg xmlns="http://www.w3.org/2000/svg" viewBox="0 0 150 200"><defs><style>.cls-1{fill:#fff;}</style></defs><g id="Assetlist_-_Artboard" data-name="Assetlist - Artboard"><g id="mus"><path class="cls-1" d="M98.92,183.81c-5.32-20.17-22.12-68-53.59-24a5.06,5.06,0,0,1-9-1.63c-13.9-52.36-65.14-267.68,95.12-50.73a5,5,0,0,1-5.28,7.76c-17.14-4.09-42-6.4-25.38,21,16.93,27.85,15.59,33.77,16.72,35.5a4.88,4.88,0,0,1-1.06,6.22l-9.3,8.31A5.07,5.07,0,0,1,98.92,183.81Z"/><path d="M103.81,192.5a10.06,10.06,0,0,1-9.76-7.43c-6.24-23.63-15.62-38.31-24.48-38.31-5.71,0-12.67,5.51-20.12,15.92a9.94,9.94,0,0,1-8.18,4.2,10.11,10.11,0,0,1-9.79-7.43C19.66,114.91,2.45,36.83,20,14.41A17.32,17.32,0,0,1,34.06,7.5c10,0,22.69,7.4,38.81,22.62,16.91,16,38,41,62.68,74.41a9.76,9.76,0,0,1,.86,10.34,10,10,0,0,1-9,5.48,10.7,10.7,0,0,1-2.44-.29,72.4,72.4,0,0,0-16.25-2.33c-4.26,0-7.27.81-8.05,2.16-.32.56-1.6,3.83,4.43,13.76C119,156.36,121,165.07,121.88,168.79c.05.24.1.45.14.62a9.87,9.87,0,0,1-2.16,12.2l-9.3,8.31A10.14,10.14,0,0,1,103.81,192.5Z"/><path class="cls-1" d="M98.92,183.81c-5.32-20.17-22.12-68-53.59-24a5.06,5.06,0,0,1-9-1.63c-13.9-52.36-65.14-267.68,95.12-50.73a5,5,0,0,1-5.28,7.76c-17.14-4.09-42-6.4-25.38,21,16.93,27.85,15.59,33.77,16.72,35.5a4.88,4.88,0,0,1-1.06,6.22l-9.3,8.31A5.07,5.07,0,0,1,98.92,183.81Z"/></g></g></svg>
