<svg xmlns="http://www.w3.org/2000/svg" viewBox="0 0 32 32"><defs><style>.cls-1{fill:#fff;}</style></defs><g id="Assetlist_-_Artboard" data-name="Assetlist - Artboard"><g id="mus"><path class="cls-1" d="M14.87,30.17c-.9-3.43-3.76-11.58-9.12-4.09a.86.86,0,0,1-1.53-.27c-2.37-8.92-11.09-45.58,16.2-8.64a.85.85,0,0,1-.9,1.32c-2.92-.7-7.16-1.09-4.32,3.58s2.65,5.75,2.84,6a.83.83,0,0,1-.18,1.06l-1.58,1.41A.86.86,0,0,1,14.87,30.17Z"/><path d="M15.71,31.65A1.72,1.72,0,0,1,14,30.38c-1.06-4-2.66-6.52-4.17-6.52-1,0-2.15.94-3.42,2.71a1.68,1.68,0,0,1-1.39.72A1.72,1.72,0,0,1,3.39,26c-2-7.58-4.94-20.88-2-24.69A3,3,0,0,1,3.83.15C5.53.15,7.69,1.41,10.44,4A99.38,99.38,0,0,1,21.11,16.67a1.67,1.67,0,0,1,.15,1.76,1.7,1.7,0,0,1-1.53.93,1.84,1.84,0,0,1-.41,0,12.08,12.08,0,0,0-2.77-.4c-.73,0-1.24.14-1.37.37s-.28.65.75,2.34c2.35,3.87,2.7,5.35,2.85,6l0,.11a1.69,1.69,0,0,1-.37,2.08l-1.59,1.41A1.71,1.71,0,0,1,15.71,31.65Z"/><path class="cls-1" d="M14.87,30.17c-.9-3.43-3.76-11.58-9.12-4.09a.86.86,0,0,1-1.53-.27c-2.37-8.92-11.09-45.58,16.2-8.64a.85.85,0,0,1-.9,1.32c-2.92-.7-7.16-1.09-4.32,3.58s2.65,5.75,2.84,6a.83.83,0,0,1-.18,1.06l-1.58,1.41A.86.86,0,0,1,14.87,30.17Z"/></g></g></svg>
