<svg xmlns="http://www.w3.org/2000/svg" xmlns:xlink="http://www.w3.org/1999/xlink" viewBox="0 0 220 360"><defs><style>.cls-1{fill:#cca956;}.cls-2{fill:#a68946;}.cls-3{fill:#735f30;}.cls-4{filter:url(#AI_GaussianBlur_7);}.cls-5{fill:#41803e;}.cls-6{fill:#b5a582;}.cls-7{fill:#f2deae;}</style><filter id="AI_GaussianBlur_7" name="AI_GaussianBlur_7"><feGaussianBlur stdDeviation="7"/></filter></defs><g id="Assetlist_-_Artboard" data-name="Assetlist - Artboard"><g id="points_baad"><path class="cls-1" d="M113,359.84c150.73-251,4.26-342.83,0-345.42v-.06l-.05,0,0,0v.06c-4.25,2.59-150.73,94.4,0,345.42V360l0-.08.05.08Z"/><path class="cls-2" d="M113,347.19c128.81-232.63,3.64-317.71,0-320.11V27l0,0,0,0v.06c-3.64,2.4-128.8,87.48,0,320.11v.15l0-.08,0,.08Z"/><polygon class="cls-3" points="66.61 91.02 159.32 91.02 163.36 103.09 62.57 103.09 66.61 91.02"/><polygon class="cls-3" points="73.31 259.68 152.62 259.68 155.79 250.05 70.14 250.05 73.31 259.68"/><polygon class="cls-3" points="54.86 159.44 171.07 159.44 170.87 169.01 55.1 170.05 54.86 159.44"/><g class="cls-4"><path d="M23.55,12.58q4.64,0,8.25,6.3A16.94,16.94,0,0,1,32.3,22q0,8.13-13.67,17.05V50.58c0,.19.09.28.26.28l-.26.52v.25l1.8,4.74q0,1.82-5.67,1.82c-5.33,0-8-.71-8-2.11v-.26a6.25,6.25,0,0,1,2.08-4.19V15c0-1.24,1.2-1.86,3.59-1.86q1.77,0,9-.51ZM20.18,21l-1.29.25v8.42q3.81,0,5.41-6.82C24.3,21.85,22.93,21.24,20.18,21Z"/><path d="M55.27,12.67q7.08,0,10.36,9.73,2.12,11.19,2.11,14,0,7.83-8.22,20.79l-1.36.54q-3.7-.29-6.36-.29a6.45,6.45,0,0,0-2.93.55Q39,58,35.58,40.47A15.08,15.08,0,0,1,35.33,38q0-9.66,8-20.5Q51,12.68,55.27,12.67Zm-8,17q0,3.81-.54,11.86c0,.69,1.32,2,4,4.07q5-3.59,5-7.84V33.18q0-4.74-4-5.95h-.25A5,5,0,0,0,47.3,29.66Z"/><path d="M73.09,13l1.61-.32h12a2.28,2.28,0,0,1,1.92,1q-2.55,8-2.55,27.7l2.24,13.53c0,.6-.54,1.14-1.61,1.63a19.7,19.7,0,0,0-4.75-1l-8.57,2.24q-1.89-.8-1.89-1.92l4.13-7.74V28.48q0-12.58-2.56-14.21Z"/><path d="M103.36,12.58q2.81,0,3.59,5.18a122,122,0,0,0,13.3,16.12h.5q-.25-.93-.5-12.22Q113.1,16,113.1,15.43a3.38,3.38,0,0,1,1.76-2.6,52.45,52.45,0,0,0,5.89,1.06h.5a24.71,24.71,0,0,0,5.39-1.06c1.16,0,1.92,1.48,2.3,4.42q-.25,13.91-.25,22.32v9.37q0,4.68-5.89,8.32H122q-1.61-5.85-4.88-8.57Q114.67,45.3,106.7,38c-.35,0-.53.21-.53.51a59.2,59.2,0,0,1,.53,6.75v6.24q0,3-10.74,6.74l-1-.25v-.26c0-1.08,1.28-3.69,3.85-7.8q.49-20.19.5-23.64l-4.6-9.59q1.23-3.27,3.06-3.91a2.13,2.13,0,0,1,1-.25Z"/><path d="M138.8,12.58a2.46,2.46,0,0,1,1.26.32l2.2-.32q10,.31,14.81.32a16.23,16.23,0,0,0,2.52-.32,11.2,11.2,0,0,0,2.83.32,20.43,20.43,0,0,0,3.78-.32,42.22,42.22,0,0,0,5.36.32h3.78q3.71,0,4.41,9.59v.32l-.95,3.84h-.31q-3.88-5.12-12-5.12h-2.84l-1.57.32q0,3.33-.32,20.79,0,6.34,3.47,9.92-.8,1.92-1.89,1.92a31.27,31.27,0,0,0-4.41-.64q-2.84,0-9.77,4.16c-.94-.26-1.47-.69-1.57-1.28q.31-1.19,5-8a16.13,16.13,0,0,0,.31-2.56q0-7.35.32-11.51Q153,30.33,153,22.49l-.94-.64h-8.82q-1.74,0-6.93,5.12H136c-1.05-.32-1.57-1.7-1.57-4.16V20.89q.86-7.26,4.09-8.31Z"/><path d="M206.61,12.67q2,0,10,4.77,0,2.63-3.12,6.33-4.38,0-4.38-3.48c-1.19-1.69-3.59-2.53-7.18-2.53q-8.13,0-8.13,6v1.28q0,5.39,5.64,7.3A16.87,16.87,0,0,0,205,33h2.83c3.89,0,7.11,2.75,9.67,8.22a7.35,7.35,0,0,0,.63,2.24,16.38,16.38,0,0,0-.31,2.85v1l.31,1.89q-1.72,8.56-13.76,8.57h-7.18q-12.16-3.49-12.16-9.82v-.64q0-1.92,5.29-4.45H191q6.24,3.87,6.24,5.09a3.52,3.52,0,0,0,1.89,3.17h2.17q3.69,0,5-5.09V43.44q0-2.84-3.75-4.76-15.21,0-17.8-10.14c0-.17-.31-1.65-.94-4.45q0-4.61,6.55-8.89,5.16-2.52,13.77-2.53Z"/></g><path class="cls-5" d="M19.24,9.85q4.64,0,8.26,6.3a17.88,17.88,0,0,1,.5,3.13q0,8.13-13.67,17V47.84c0,.2.08.29.25.29l-.25.51v.26l1.8,4.73q0,1.83-5.67,1.83c-5.34,0-8-.71-8-2.11v-.26A6.25,6.25,0,0,1,4.54,48.9V12.21c0-1.23,1.19-1.85,3.59-1.85q1.76,0,9-.51Zm-3.37,8.38-1.29.25v8.41q3.81,0,5.42-6.81C20,19.12,18.62,18.5,15.87,18.23Z"/><path class="cls-5" d="M51,9.94q7.09,0,10.37,9.73,2.1,11.19,2.11,14,0,7.83-8.22,20.79L53.86,55q-3.72-.28-6.36-.29a6.57,6.57,0,0,0-2.93.54q-9.82,0-13.29-17.52A15.28,15.28,0,0,1,31,35.31q0-9.66,8-20.51Q46.66,9.94,51,9.94Zm-8,17q0,3.8-.53,11.86,0,1,4,4.06c3.36-2.38,5-5,5-7.83V30.44c0-3.15-1.33-5.13-4-5.94h-.25A5.07,5.07,0,0,0,43,26.93Z"/><path class="cls-5" d="M68.79,10.26l1.61-.32h12a2.28,2.28,0,0,1,1.92,1q-2.55,8-2.55,27.7L84,52.13c0,.6-.54,1.14-1.61,1.63a19.76,19.76,0,0,0-4.76-1L69.11,55q-1.89-.8-1.89-1.92l4.12-7.74V25.74q0-12.57-2.55-14.2Z"/><path class="cls-5" d="M99.06,9.85c1.87,0,3.07,1.72,3.59,5.18a123.24,123.24,0,0,0,13.29,16.12h.51q-.26-.93-.51-12.22-7.14-5.62-7.15-6.24a3.38,3.38,0,0,1,1.77-2.59,52.45,52.45,0,0,0,5.89,1.06h.5a24.82,24.82,0,0,0,5.39-1.06q1.72,0,2.3,4.42-.26,13.9-.26,22.32v9.37q0,4.68-5.89,8.32h-.75q-1.6-5.85-4.88-8.57-2.49-3.39-10.46-10.65-.54.06-.54.51a57.38,57.38,0,0,1,.54,6.75V48.8q0,3-10.74,6.75l-1-.25V55q0-1.63,3.84-7.8Q95,27.05,95,23.6L90.37,14c.82-2.17,1.83-3.47,3-3.9a2.16,2.16,0,0,1,1-.25Z"/><path class="cls-5" d="M134.5,9.85a2.3,2.3,0,0,1,1.25.32L138,9.85q10,.32,14.8.32a16,16,0,0,0,2.52-.32,11.28,11.28,0,0,0,2.84.32,20.51,20.51,0,0,0,3.78-.32,42.17,42.17,0,0,0,5.35.32H171q3.72,0,4.41,9.59v.32l-.94,3.84h-.32q-3.87-5.12-12-5.12h-2.83l-1.58.32q0,3.33-.31,20.79,0,6.33,3.46,9.92-.78,1.92-1.89,1.92a30.88,30.88,0,0,0-4.41-.64q-2.84,0-9.76,4.15c-.95-.25-1.47-.68-1.58-1.27q.31-1.18,5-8a16.59,16.59,0,0,0,.32-2.56q0-7.35.31-11.51-.31-4.32-.31-12.16l-.95-.64H138.9q-1.72,0-6.92,5.12h-.32c-1-.32-1.57-1.71-1.57-4.16V18.16q.84-7.26,4.09-8.31Z"/><path class="cls-5" d="M202.31,9.94q2,0,10,4.77c0,1.75-1,3.86-3.11,6.33q-4.38,0-4.38-3.49Q203,15,197.62,15q-8.13,0-8.13,6v1.28q0,5.37,5.64,7.29a16.54,16.54,0,0,0,5.61.64h2.83q5.82,0,9.67,8.22a7.35,7.35,0,0,0,.63,2.24,16.54,16.54,0,0,0-.32,2.85v1l.32,1.88Q212.13,55,200.1,55h-7.18q-12.15-3.49-12.15-9.82v-.64q0-1.92,5.29-4.45h.63q6.23,3.87,6.23,5.09a3.49,3.49,0,0,0,1.89,3.16H197q3.67,0,5-5.08V40.71c0-1.9-1.25-3.48-3.75-4.76Q183,36,180.45,25.81c0-.17-.31-1.66-.94-4.45q0-4.61,6.55-8.89,5.16-2.52,13.76-2.53Z"/><rect class="cls-6" x="66.05" y="106.25" width="94.33" height="116.54"/><rect class="cls-7" x="70.21" y="111.21" width="86.08" height="106.53"/></g></g></svg>
