<svg xmlns="http://www.w3.org/2000/svg" viewBox="0 0 365 80"><defs><style>.cls-1{fill:#fff;}</style></defs><g id="Assetlist_-_Artboard" data-name="Assetlist - Artboard"><g id="sky"><path d="M88,80C39.91,80,19.74,61.42,15.72,57.13,9,54.86.53,51,0,43.77c-.69-9.93,13.79-17.91,34.32-28.11A161.23,161.23,0,0,0,48.9,7.91a13.76,13.76,0,0,1,7.62-2.38c7.21,0,13.26,5.71,19.1,11.23,4.22,4,8.57,8.1,11.73,8.1.76,0,2-.22,3.6-2.1C101.16,11,151.37,0,182.83,0c16.88,0,27.78,2.91,32.41,8.66,5,6.28,21.23,10,43.27,10,24.21,0,52.76-4.47,71.05-11.13A39.59,39.59,0,0,1,343,4.92c10.68,0,18.59,6,21.17,16,2.93,11.4-1.82,27.49-16.56,36.18-17,10.06-34.54,19.09-61.13,19.09-14,0-29.58-2.46-47.48-7.53-7.66-2.17-13.53-4-18.25-5.38-9.53-2.88-13.88-4.2-17.88-4.2-3.56,0-7.23,1-14.55,3.11-9.34,2.64-25,7.06-53.64,12.79A239.13,239.13,0,0,1,88,80Z"/><path class="cls-1" d="M17.69,53.93S46.07,89,134,71.39s50.12-22,105.92-6.26,80.86,3.59,105.93-11.2S365.73-1.73,330.73,11,226.47,28.33,212.52,11s-106.16-.46-118.93,14.2S66.87.47,50.79,11-22.74,40.87,17.69,53.93Z"/></g></g></svg>
