<svg xmlns="http://www.w3.org/2000/svg" xmlns:xlink="http://www.w3.org/1999/xlink" viewBox="0 0 1000 330"><defs><style>.cls-1{filter:url(#AI_GaussianBlur_7);}.cls-2{fill:#67cc64;}.cls-3{fill:#ed1c24;}.cls-4{fill:#f15a24;}.cls-5{fill:#999;}.cls-6{fill:none;}.cls-7{fill:#735f30;}.cls-8{fill:#a68946;}.cls-9{fill:#f2deae;}.cls-10{fill:#b5a582;}</style><filter id="AI_GaussianBlur_7" name="AI_GaussianBlur_7"><feGaussianBlur stdDeviation="7"/></filter></defs><g id="Assetlist_-_Artboard" data-name="Assetlist - Artboard"><g id="spil_igen_knap"><g class="cls-1"><g id="skud2"><path d="M422.24,163.9,522.92,66.49c2.39-2.32,8.48-1.25,8.3,1.45l-2.68,40.49c-.12,1.85,3,3.18,6,2.57L826.94,50.27c4.58-1,8.1,2.46,4.53,4.39l-94.08,51c-2.62,1.43-1.47,4,2,4.47l257.16,35.77c4.47.62,4.63,4.31.22,5.06L864.31,173.57c-4.08.69-4.36,4-.42,4.94l133,31.36c4.29,1,3.46,4.7-1.13,5l-258,18.41,46.13,62.22c1.71,2.31-2.58,4.56-6.32,3.32L538.23,219.14c-3.34-1.11-7.37.6-6.6,2.8l14.53,41.56c.93,2.68-4.9,4.3-7.85,2.18L420,180.92Z"/><path d="M415.53,165.21l231.11-59c4.79-1.22,8.66,2.53,4.59,4.45l-60.1,28.25c-3.2,1.5-1.54,4.53,2.56,4.66l192.56,6.05c5.27.17,5.79,4.61.6,5.19l-124.91,14c-4.46.5-5,4.12-.69,5l119.6,25.56c5.07,1.08,3.13,5.53-2.21,5L612.21,189.75c-4-.35-6.67,2.31-4.23,4.18l48.31,37c2.76,2.12-1,5-5.22,4L415.53,179.61Z"/></g><polygon points="150.01 224.66 149.69 222.89 147.02 221.22 150.92 216.52 158.98 217.44 174.54 211.72 150.01 224.66"/><path d="M285.27,194.83s5.36,1.58,5.23,3.65,4.37,7.39,4.37,7.39l1.47-.28L419,182.15l6.45-1.24a2.52,2.52,0,0,0,2-2.92l-2.14-11.86a2.5,2.5,0,0,0-2.91-2L180.31,209.63l.05.28.54,3Z"/><path d="M426.42,172.78,288.46,198a.58.58,0,0,1-.67-.47l-.06-.34a.57.57,0,0,1,.47-.67l138-25.26a.58.58,0,0,1,.67.47l.06.34A.58.58,0,0,1,426.42,172.78Z"/><path d="M35.67,260.71c.45,2.48,7.62,30.83,10.35,40.57a2.49,2.49,0,0,0,3.75,1.44l4.56-2.94-12.81-43.9S35.13,257.7,35.67,260.71Z"/><path d="M117.37,261.62a2.51,2.51,0,0,0,1.36,2.87c3.15,1.49,9.82,4.08,15.46,2.45a2.5,2.5,0,0,0,1.77-2.6c0-.45-.05-1-.06-1.58l-18.31-2.07Z"/><path d="M164.08,216.24c-2.08.66-4.81,1.42-8.69,2.3-17,3.84-5.55.79-22.41,9.89-6.21,3.34-8.54,5.13-9.49,6.31l2.12,1.07Z"/><path d="M151.88,240.73c-6.93,2-10.91,5.85-13.16,10,3-3,6.71-5,14.72-8.08,11.95-4.6,21.64-4.33,41.93-10.09,15-4.26,11.57-4.59,17-6.19l-35.68,7.1S171.18,235.15,151.88,240.73Z"/><path d="M117.28,259.2h.66l.11-.49Z"/><path d="M82.89,262.32c7.79.62,13.94-9.34,23.73-14.65s2.48-2.57,11.83-7.55c5.92-3.14,3.42-3.35,5-5.38l-4.58-2.31-1.24.38c-7.24,5.53-11.16,10.25-20.55,15.13-10.68,5.54-.72,7.3-27.22,9.59-19.14,1.65-23.82,7.19-25,10.13l2.46,8.41C54.13,272.68,76.3,261.79,82.89,262.32Z"/><path d="M69.9,257.53c26.5-2.29,16.54-4,27.22-9.59,9.39-4.88,13.31-9.6,20.55-15.13l-15.21,4.6a31.84,31.84,0,0,0-2.26,2.28c-2.1,2.43-7.86,7.07-21.52,12s.34-5.57-19.34,2.14c-10,3.91-14.6,5.31-16.75,5.74L45,267.66C46.08,264.72,50.76,259.18,69.9,257.53Z"/><path d="M181.12,212.58c13.63-.44,6.57-.18,18.23-.26s-3.12,9.72,15.44-.82c5-2.83,8.54-5.11,11.22-6.95l-44.72,7.75-.54-3-5.4,1-4.16,2.3-7.11,3.62C171.1,214,170.61,212.93,181.12,212.58Z"/><path d="M235.12,208.29l47.45-8.69a4,4,0,0,1,3.86,1.5c2.12-.16,4-.22,5.64-.21a6.41,6.41,0,0,1-1.18-3c.13-2.07-5.23-3.65-5.23-3.65l-28.6,4.95a92.36,92.36,0,0,1-12.9,5.46A64.6,64.6,0,0,0,235.12,208.29Z"/><path d="M78.68,251.7c13.66-4.94,19.42-9.58,21.52-12a31.84,31.84,0,0,1,2.26-2.28L41.51,255.86l1.08,3.72c2.15-.43,6.78-1.83,16.75-5.74C79,246.13,65,256.64,78.68,251.7Z"/><path d="M117.94,259.19l-.36,1.47,18.31,2.08a24.85,24.85,0,0,1,2.83-12.06,37.64,37.64,0,0,0-4.23,5.26C130.33,261.86,123.64,259.22,117.94,259.19Z"/><path d="M222.76,223.91c-5.39,1.12-8.43,1.85-10.37,2.41L276,213.68c-2.33,0-5.55.09-10.32.33C246.53,215,243.31,219.63,222.76,223.91Z"/><path d="M295.35,205.76c-.33-.14.17-.4,1.38-.78l-1.47.28a40.62,40.62,0,0,1-3.19-4.37c-1.68,0-3.52.05-5.64.21a3.93,3.93,0,0,1,.78,1.75,4,4,0,0,1-3.22,4.68l-42.93,7.86c-7,4.06-13.62,5.2-35.89,11.28-26.19,7.16-17.42,4.42-49.55,9.27s-10,3.88-26.63,10-3.88-1.85-26.85,17.21C84,278.24,60.87,288.42,52.06,292l1.42,4.87c10.87-7,57.65-37.1,62.93-37.62l.87-.05.77-.5-.11.49c5.7,0,12.39,2.67,16.55-3.25a37.64,37.64,0,0,1,4.23-5.26c2.25-4.1,6.23-7.94,13.16-10,19.3-5.58,24.83-7.31,24.83-7.31l35.68-7.1c1.94-.56,5-1.29,10.37-2.41,20.55-4.28,23.77-9,42.89-9.9,4.77-.24,8-.32,10.32-.33l17.64-3.5S299.73,207.52,295.35,205.76Z"/><path d="M129,245.94c16.67-6.12-5.49-5.14,26.63-10s23.36-2.11,49.55-9.27c22.27-6.08,28.87-7.22,35.89-11.28l-21,3.84a4,4,0,0,1-4.1-1.83l-2.36,1c-19.34,8.15-11.52,3.64-32.59,7s-10.66.93-23.51,2-11.81,2.94-18,5.1-10.15,8.52-14.61,9.26S102.74,251,90.48,266.27C80.74,278.38,58,281,49,281.56L52.06,292c8.81-3.58,31.89-13.76,50.08-28.85C125.11,244.09,112.33,252.06,129,245.94Z"/><path d="M90.48,266.27c12.26-15.27,30-23.78,34.43-24.52s8.4-7.1,14.61-9.26,5.17-4,18-5.1,2.43,1.35,23.51-2,13.25,1.16,32.59-7l2.36-1a4.05,4.05,0,0,1,2.67-6.1l16.45-3a64.6,64.6,0,0,1,9-3.66,92.36,92.36,0,0,0,12.9-5.46L226,204.55c-2.68,1.84-6.22,4.12-11.22,6.95-18.56,10.54-3.78.73-15.44.82s-4.6-.18-18.23.26c-10.51.35-10,1.42-17,3.66l-38.47,19.57-2.12-1.07c-1.62,2,.88,2.24-5,5.38-9.35,5-2,2.23-11.83,7.55s-15.94,15.27-23.73,14.65c-6.59-.53-28.76,10.36-35.48,13.75l1.6,5.49C58,281,80.74,278.38,90.48,266.27Zm-25,4.58,7.82-1.43c8.1-1.27-5.6,3.88-13.21,6.18S65.66,270.6,65.45,270.85Z"/><path d="M53.48,296.87l.84,2.88,63-40.55-.87.05C111.13,259.77,64.35,289.84,53.48,296.87Z"/><path d="M218.67,211.3a4.05,4.05,0,0,0-2.67,6.1c10.51-4.51,14.92-7.05,19.12-9.11Z"/><path d="M265.92,204.19c-16.43,3.23-12,2.49-21,8.75-1.35.94-2.6,1.74-3.84,2.45L284,207.53a4,4,0,0,0,3.22-4.68,3.93,3.93,0,0,0-.78-1.75A176.81,176.81,0,0,0,265.92,204.19Z"/><path d="M282.57,199.6l-47.45,8.69c-4.2,2.06-8.61,4.6-19.12,9.11a4,4,0,0,0,4.1,1.83l21-3.84c1.24-.71,2.49-1.51,3.84-2.45,9-6.26,4.59-5.52,21-8.75a176.81,176.81,0,0,1,20.51-3.09A4,4,0,0,0,282.57,199.6Z"/><path d="M73.27,269.42l-7.82,1.43c.21-.25-13,7-5.39,4.75S81.37,268.15,73.27,269.42Z"/><path d="M35.18,260.79c.45,2.49,7.63,30.84,10.35,40.58a2.49,2.49,0,0,0,3.75,1.43l4.56-2.93L41,256S34.64,257.79,35.18,260.79Z"/><path d="M116.88,261.7a2.53,2.53,0,0,0,1.36,2.88c3.15,1.49,9.82,4.07,15.47,2.45a2.51,2.51,0,0,0,1.76-2.6c0-.45-.05-1-.06-1.58l-18.3-2.08Z"/><path d="M163.59,216.33c-2.08.66-4.81,1.42-8.69,2.3-17,3.83-5.54.79-22.41,9.89-6.2,3.34-8.54,5.13-9.48,6.31l2.12,1.07Z"/><path d="M151.39,240.82c-6.93,2-10.9,5.85-13.16,10,3-3,6.71-5,14.72-8.08,12-4.6,21.64-4.33,41.93-10.09,15-4.26,11.57-4.59,17-6.19l-35.68,7.1S170.7,235.24,151.39,240.82Z"/><path d="M116.8,259.29h.65l.12-.49Z"/><path d="M82.4,262.41c7.79.62,13.94-9.34,23.74-14.66s2.47-2.56,11.83-7.54c5.91-3.14,3.42-3.35,5-5.38l-4.59-2.31-1.23.37C109.94,238.43,106,243.15,96.63,248c-10.68,5.54-.72,7.3-27.21,9.59-19.15,1.65-23.83,7.19-25,10.13l2.45,8.41C53.64,272.77,75.82,261.88,82.4,262.41Z"/><path d="M69.42,257.62C95.91,255.33,86,253.57,96.63,248c9.39-4.88,13.31-9.6,20.56-15.14L102,237.5a31.84,31.84,0,0,0-2.26,2.28c-2.1,2.43-7.86,7.07-21.52,12s.34-5.57-19.34,2.14c-10,3.91-14.6,5.31-16.74,5.74l2.36,8.08C45.59,264.81,50.27,259.27,69.42,257.62Z"/><path d="M180.63,212.67c13.63-.44,6.57-.18,18.23-.26s-3.11,9.72,15.45-.82c5-2.83,8.53-5.11,11.22-7l-44.73,7.75-.54-3-5.4,1-4.16,2.3-7.11,3.62C170.61,214.09,170.12,213,180.63,212.67Z"/><path d="M234.64,208.38l47.44-8.69a4,4,0,0,1,3.86,1.5c2.12-.16,4-.22,5.64-.21a6.41,6.41,0,0,1-1.18-3c.13-2.07-5.23-3.65-5.23-3.65l-28.6,4.95a91.06,91.06,0,0,1-12.89,5.45A65.23,65.23,0,0,0,234.64,208.38Z"/><path d="M78.19,251.79c13.66-4.94,19.42-9.58,21.52-12A31.84,31.84,0,0,1,102,237.5L41,256l1.09,3.72c2.14-.43,6.77-1.83,16.74-5.74C78.53,246.22,64.54,256.73,78.19,251.79Z"/><path d="M117.45,259.28l-.35,1.47,18.3,2.08a24.85,24.85,0,0,1,2.83-12.06A38.38,38.38,0,0,0,134,256C129.84,262,123.15,259.31,117.45,259.28Z"/><path d="M222.27,224c-5.38,1.12-8.43,1.84-10.37,2.41l63.59-12.64c-2.34,0-5.56.09-10.33.33C246,215,242.82,219.72,222.27,224Z"/><path d="M294.87,205.85c-.34-.14.17-.4,1.38-.78l-1.47.28a40,40,0,0,1-3.2-4.37c-1.68,0-3.52.05-5.64.21a4,4,0,0,1,.79,1.75,4,4,0,0,1-3.22,4.68l-42.93,7.86c-7,4.06-13.63,5.2-35.9,11.28-26.19,7.15-17.42,4.41-49.54,9.27s-10,3.88-26.63,10-3.89-1.85-26.86,17.21c-18.19,15.09-41.26,25.27-50.08,28.85L53,297c10.87-7,57.65-37.1,62.94-37.62l.87,0,.77-.5-.12.49c5.7,0,12.39,2.67,16.55-3.25a38.38,38.38,0,0,1,4.23-5.26c2.26-4.1,6.23-7.94,13.16-10,19.31-5.58,24.83-7.31,24.83-7.31l35.68-7.1c1.94-.57,5-1.29,10.37-2.41,20.55-4.28,23.77-9,42.89-9.9,4.77-.24,8-.32,10.33-.33l17.63-3.51S299.24,207.61,294.87,205.85Z"/><path d="M128.51,246c16.66-6.12-5.5-5.14,26.63-10s23.35-2.12,49.54-9.27c22.27-6.08,28.87-7.22,35.9-11.28l-21,3.84a4,4,0,0,1-4.09-1.83l-2.36,1c-19.35,8.15-11.53,3.64-32.6,7s-10.65.92-23.5,2-11.82,2.94-18,5.1-10.14,8.51-14.61,9.26S102.26,251.09,90,266.35c-9.74,12.12-32.5,14.73-41.47,15.29l3,10.45c8.82-3.58,31.89-13.76,50.08-28.85C124.62,244.18,111.84,252.15,128.51,246Z"/><path d="M90,266.35c12.27-15.26,30-23.77,34.43-24.51s8.4-7.1,14.61-9.26,5.17-4,18-5.1,2.43,1.35,23.5-2,13.25,1.16,32.6-7l2.36-1a3.83,3.83,0,0,1-.55-1.42,4,4,0,0,1,3.22-4.68l16.45-3a65.23,65.23,0,0,1,9-3.67,91.06,91.06,0,0,0,12.89-5.45l-31,5.38c-2.69,1.84-6.22,4.12-11.22,7-18.56,10.54-3.79.73-15.45.82s-4.6-.18-18.23.26c-10.51.35-10,1.42-17,3.66L125.13,235.9,123,234.83c-1.62,2,.87,2.24-5,5.38-9.36,5-2,2.23-11.83,7.54S90.19,263,82.4,262.41c-6.58-.53-28.76,10.36-35.48,13.75l1.6,5.48C57.49,281.08,80.25,278.47,90,266.35Zm-25,4.59,7.82-1.44c8.11-1.26-5.6,3.89-13.21,6.19S65.17,270.68,65,270.94Z"/><path d="M53,297l.84,2.88,63-40.55-.87,0C110.64,259.86,63.86,289.93,53,297Z"/><path d="M218.19,211.39a4,4,0,0,0-3.22,4.68,3.83,3.83,0,0,0,.55,1.42c10.5-4.51,14.92-7.05,19.12-9.11Z"/><path d="M265.43,204.28c-16.43,3.23-12,2.49-21,8.75-1.35.94-2.6,1.74-3.83,2.45l42.93-7.86a4,4,0,0,0,3.22-4.68,4,4,0,0,0-.79-1.75A177.13,177.13,0,0,0,265.43,204.28Z"/><path d="M282.08,199.69l-47.44,8.69c-4.2,2.06-8.62,4.6-19.12,9.11a4,4,0,0,0,4.09,1.83l21-3.84c1.23-.71,2.48-1.51,3.83-2.45,9-6.26,4.59-5.52,21-8.75a177.13,177.13,0,0,1,20.51-3.09A4,4,0,0,0,282.08,199.69Z"/><path d="M72.78,269.5,65,270.94c.21-.26-13,7.05-5.39,4.75S80.89,268.24,72.78,269.5Z"/><path d="M35.61,261.19c.45,2.49,7.62,30.84,10.35,40.58a2.49,2.49,0,0,0,3.75,1.43l4.56-2.93-12.81-43.9S35.07,258.19,35.61,261.19Z"/><path d="M117.31,262.1a2.52,2.52,0,0,0,1.36,2.88c3.15,1.49,9.82,4.07,15.46,2.45a2.51,2.51,0,0,0,1.77-2.6c0-.46-.05-1-.06-1.58l-18.31-2.08Z"/><path d="M164,216.72c-2.08.67-4.81,1.43-8.69,2.31-17,3.83-5.55.79-22.41,9.89-6.21,3.34-8.54,5.13-9.49,6.31l2.12,1.07Z"/><path d="M151.82,241.22c-6.93,2-10.91,5.85-13.16,9.95,3-3,6.71-5,14.72-8.08,12-4.6,21.64-4.33,41.93-10.09,15-4.26,11.57-4.59,17-6.19l-35.68,7.1S171.12,235.64,151.82,241.22Z"/><path d="M117.22,259.69h.66l.11-.49Z"/><path d="M82.83,262.81c7.79.62,13.94-9.34,23.73-14.66s2.48-2.56,11.83-7.54c5.92-3.15,3.42-3.35,5-5.38l-4.58-2.31-1.24.37c-7.24,5.54-11.16,10.26-20.55,15.13-10.68,5.54-.72,7.31-27.22,9.6-19.14,1.65-23.82,7.19-25,10.13l2.46,8.41C54.07,273.17,76.24,262.28,82.83,262.81Z"/><path d="M69.84,258c26.5-2.29,16.54-4.06,27.22-9.6,9.39-4.87,13.31-9.59,20.55-15.13L102.4,237.9a31.84,31.84,0,0,0-2.26,2.28c-2.1,2.43-7.86,7.07-21.52,12s.34-5.57-19.34,2.14c-10,3.91-14.6,5.31-16.75,5.73l2.36,8.09C46,265.21,50.7,259.67,69.84,258Z"/><path d="M181.06,213.07c13.63-.44,6.57-.18,18.23-.26s-3.12,9.72,15.44-.82c5-2.83,8.54-5.11,11.22-7l-44.72,7.75-.54-3-5.4,1-4.16,2.29L164,216.72C171,214.49,170.55,213.42,181.06,213.07Z"/><path d="M235.06,208.78l47.45-8.69a4,4,0,0,1,3.86,1.5c2.12-.16,4-.22,5.64-.21a6.41,6.41,0,0,1-1.18-3c.13-2.07-5.23-3.65-5.23-3.65L257,199.66a91.22,91.22,0,0,1-12.9,5.45A65.75,65.75,0,0,0,235.06,208.78Z"/><path d="M78.62,252.19c13.66-4.94,19.42-9.58,21.52-12a31.84,31.84,0,0,1,2.26-2.28L41.45,256.35l1.08,3.71c2.15-.42,6.78-1.82,16.75-5.73C79,246.62,65,257.13,78.62,252.19Z"/><path d="M117.88,259.68l-.36,1.47,18.31,2.08a24.85,24.85,0,0,1,2.83-12.06,37.64,37.64,0,0,0-4.23,5.26C130.27,262.35,123.58,259.71,117.88,259.68Z"/><path d="M222.7,224.4c-5.39,1.12-8.43,1.84-10.37,2.41l63.58-12.64c-2.33,0-5.55.09-10.32.32C246.47,215.44,243.25,220.12,222.7,224.4Z"/><path d="M295.29,206.25c-.33-.14.17-.4,1.38-.78l-1.47.28a40.62,40.62,0,0,1-3.19-4.37c-1.68,0-3.52.05-5.64.21a3.93,3.93,0,0,1,.78,1.75,4,4,0,0,1-3.22,4.68L241,215.88c-7,4.06-13.62,5.2-35.89,11.28-26.19,7.15-17.42,4.41-49.55,9.27s-10,3.87-26.63,10-3.88-1.85-26.85,17.21C83.89,278.73,60.81,288.91,52,292.49l1.42,4.87c10.87-7,57.65-37.1,62.93-37.62.29,0,.58,0,.87-.05l.77-.5-.11.49c5.7,0,12.39,2.67,16.55-3.25a37.64,37.64,0,0,1,4.23-5.26c2.25-4.1,6.23-7.94,13.16-9.95,19.3-5.58,24.83-7.31,24.83-7.31l35.68-7.1c1.94-.57,5-1.29,10.37-2.41,20.55-4.28,23.77-9,42.89-9.91,4.77-.23,8-.31,10.32-.32l17.64-3.51S299.67,208,295.29,206.25Z"/><path d="M128.93,246.43c16.67-6.13-5.49-5.14,26.63-10s23.36-2.12,49.55-9.27c22.27-6.08,28.87-7.22,35.89-11.28l-21,3.84a4,4,0,0,1-4.1-1.83l-2.36,1c-19.34,8.15-11.52,3.64-32.59,7s-10.66.92-23.51,2-11.81,2.94-18,5.1-10.15,8.51-14.61,9.26-22.17,9.25-34.43,24.51C80.68,278.87,57.92,281.48,49,282l3,10.45c8.81-3.58,31.89-13.76,50.08-28.85C125.05,244.58,112.27,252.55,128.93,246.43Z"/><path d="M90.42,266.75c12.26-15.26,30-23.77,34.43-24.51s8.4-7.1,14.61-9.26,5.17-4,18-5.1,2.43,1.35,23.51-2,13.25,1.16,32.59-7l2.36-1a4.05,4.05,0,0,1,2.67-6.1l16.45-3a65.75,65.75,0,0,1,9-3.67,91.22,91.22,0,0,0,12.9-5.45L226,205c-2.68,1.84-6.22,4.12-11.22,7-18.56,10.54-3.78.73-15.44.82s-4.6-.18-18.23.26c-10.51.35-10,1.42-17,3.65L125.55,236.3l-2.12-1.07c-1.62,2,.88,2.23-5,5.38-9.35,5-2,2.23-11.83,7.54s-15.94,15.28-23.73,14.66c-6.59-.53-28.76,10.36-35.48,13.75L49,282C57.92,281.48,80.68,278.87,90.42,266.75Zm-25,4.59,7.82-1.44c8.1-1.27-5.61,3.89-13.21,6.19S65.6,271.08,65.39,271.34Z"/><path d="M53.42,297.36l.84,2.88,63-40.55c-.29,0-.58,0-.87.05C111.07,260.26,64.29,290.33,53.42,297.36Z"/><path d="M218.61,211.79a4.05,4.05,0,0,0-2.67,6.1c10.51-4.51,14.92-7,19.12-9.11Z"/><path d="M265.86,204.68c-16.43,3.23-12,2.49-21,8.75-1.35.94-2.6,1.74-3.84,2.45L283.93,208a4,4,0,0,0,3.22-4.68,3.93,3.93,0,0,0-.78-1.75A176.81,176.81,0,0,0,265.86,204.68Z"/><path d="M282.51,200.09l-47.45,8.69c-4.2,2.06-8.61,4.6-19.12,9.11a4,4,0,0,0,4.1,1.83l21-3.84c1.24-.71,2.49-1.51,3.84-2.45,9-6.26,4.59-5.52,21-8.75a176.81,176.81,0,0,1,20.51-3.09A4,4,0,0,0,282.51,200.09Z"/><path d="M73.21,269.9l-7.82,1.44c.21-.26-13,7.05-5.39,4.75S81.31,268.63,73.21,269.9Z"/><path d="M167.65,233a14.26,14.26,0,0,0-9.62,6.16l-.29.26-3.85,1.22a1.58,1.58,0,0,0,.67.9,2.1,2.1,0,0,1,2.29,1.94c0,.05,0,.08,0,.12a.19.19,0,0,1,0,.08c.64,3.55,6.19,6,13.54,4.69s11.1-6.05,10.46-9.6S175,231.61,167.65,233Zm2.59,14.38C164,248.48,158.32,246,157.78,243s3.81-7.86,10.05-9,11.52,2,12.06,5S176.48,246.2,170.24,247.34Z"/><path d="M171.5,235.48l-10.84,3.2a15.37,15.37,0,0,0,.83,4.62,12.41,12.41,0,0,0,2.24,3.55c.56.71,1.63-.12,1.13-.88-.66-1-2.54-3.23-1.93-4,1-1.25,4.33-4.27,5.63-4.44S172.31,236.85,171.5,235.48Z"/><image width="432" height="75" transform="translate(436.19 125.66)" xlink:href="spil_igen_knap1.png"/><path class="cls-2" d="M484.84,134.84q5.24,0,9.32,7.07a18.92,18.92,0,0,1,.56,3.51q0,9.11-15.43,19.12v12.91c0,.21.1.32.29.32l-.29.58v.28l2,5.31c0,1.36-2.13,2.05-6.4,2.05q-9,0-9-2.37v-.29a7,7,0,0,1,2.35-4.7V137.49c0-1.38,1.35-2.08,4.05-2.08q2,0,10.2-.57Zm-3.8,9.4-1.46.28V154q4.31,0,6.11-7.64Q485.69,144.7,481,144.24Z"/><path class="cls-2" d="M522.81,135.05c.57.2.86.76.86,1.69V137q0,2.43-5.83,6.7l-2.24,2.52v15.13q0,2.22-.29,5.88c0,2.06.93,3.09,2.78,3.09h9.45q2.28,0,6.12-4.49l2.2-1.68a1.85,1.85,0,0,1,1.39,2v.54q-5.19,10.29-6.4,16c-.45,2.25-1,3.37-1.64,3.37h-.85q-.68,0-6.36-3.66a41,41,0,0,0-16.68-3.91h-1.1a26.56,26.56,0,0,0-3.88.58,9.21,9.21,0,0,1-1.95-3.09q0-.36,4.44-5.05V147.64q0-1.94-3.62-6.13v-.57c0-1.68,2-2.51,6.11-2.51h4.44c1.81,0,5.88-1.13,12.24-3.38Z"/><path class="cls-2" d="M569.36,135.16q2.63,0,4.9,8,10.82,26.28,15.58,33.68,3.4,3.15,3.41,6.13l-.75.36H583c-4.32,0-6.47-1.53-6.47-4.59q-3.7-11.88-4.91-11.88-8.18.4-11.41.4-1.14,2.79-4.91,16.46,0,1.26-18.59,1.9v.4a2.91,2.91,0,0,0-1.53-.4q0-5.06,9.1-7.64c2.28-1.65,3.41-4.32,3.41-8v-2.3H547a58.88,58.88,0,0,1-7.61,1.51v-.36Q541,162,547,162q4.93,0,4.94-5,2.63-8.72,2.63-14.17v-.75q0-3.27-4.16-6.13l.75-.4q10-.36,16.71-.36Zm-4.59,12.63q-3,12.15-3,13h7.61c.49,0,.74-.27.74-.79q-.75-1.22-4.19-12.23Z"/><path class="cls-2" d="M630.62,135.09l1.74-.36h13.26l2.42.36v1c-.52.93-2.73,2.11-6.61,3.52q-3.31,2.11-13.59,18.65c0,.45-1.39,2.56-4.19,6.31V171q0,6.24,5.94,9.11a25.33,25.33,0,0,1,6.25,5.27v.36l-2.09.36q-4,0-23-.72a5.08,5.08,0,0,1-2.42-1q2.77-4.12,2.78-18.62L598.9,140c-4-1.33-6.26-2.39-6.61-3.15v-1.4l1.74-.36q14.65,0,14.65,3.87,8.43,17,9.07,17.22Q618.95,155.57,630.62,135.09Z"/><path class="cls-2" d="M677.91,134.84q3.17,0,4.05,5.81a138,138,0,0,0,15,18.08h.57q-.28-1-.57-13.7-8.07-6.32-8.07-7c0-1,.67-2,2-2.9a60.72,60.72,0,0,0,6.65,1.18h.57a28.27,28.27,0,0,0,6.08-1.18q2,0,2.6,5-.28,15.6-.29,25v10.51q0,5.24-6.65,9.32H699q-1.82-6.56-5.51-9.61-2.81-3.79-11.8-11.94c-.41.05-.61.24-.61.57a65.39,65.39,0,0,1,.61,7.57v7q0,3.34-12.13,7.57l-1.17-.28v-.29q0-1.83,4.34-8.75.56-22.64.56-26.51l-5.19-10.76c.93-2.44,2.08-3.89,3.45-4.37a2.48,2.48,0,0,1,1.18-.29Z"/><path class="cls-2" d="M735.4,135q8,0,11.7,10.9,2.37,12.56,2.38,15.71,0,8.79-9.28,23.31l-1.53.61q-4.2-.31-7.18-.32a7.41,7.41,0,0,0-3.31.61q-11.08,0-15-19.65a17.39,17.39,0,0,1-.29-2.73q0-10.83,9-23Q730.53,134.94,735.4,135Zm-9,19q0,4.27-.6,13.31,0,1.14,4.48,4.55,5.69-4,5.69-8.78v-5.13c0-3.54-1.5-5.76-4.48-6.67h-.29A5.71,5.71,0,0,0,726.4,154Z"/><path class="cls-2" d="M790.51,134.59q3.74,0,5.76,3.87c-1.8,2.85-2.7,4.66-2.7,5.45q3.84,13.1,6.93,16.68h.78q5.37-15.63,5.37-17.47,0-.57-2.7-3.47v-.79q.78-3.88,3.84-3.88h10c3.32.19,5,.71,5,1.55v.78q-6.72,5.92-10,20.95-3,8.64-7.29,25.21-1.74,2.73-2.31,2.73H802l-15-29.88L772,186.2h-1.14q-2.42,0-8.07-24.46-6.46-20.37-8.85-21.34-.29,0-2.7-3.09v-.78q0-1.26,5-1.55h10q3.84.77,3.84,3.88v.79q-2.7,2.68-2.7,4.26,0,.87,5.4,16.68h.79q2.08-1.26,7.28-17.47-.68,0-3-4.66,2-3.87,5.76-3.87Z"/></g><g id="skud2-2" data-name="skud2"><path class="cls-3" d="M414.4,151.67,515.08,54.26c2.39-2.31,8.48-1.24,8.3,1.46L520.7,96.2c-.12,1.85,3,3.19,6,2.57L819.1,38.05c4.58-.95,8.1,2.46,4.53,4.39l-94.08,51c-2.62,1.42-1.47,4,2,4.47l257.16,35.77c4.47.62,4.63,4.31.22,5.06L856.47,161.34c-4.08.7-4.36,4-.42,4.95l133,31.36c4.29,1,3.46,4.7-1.13,5l-258,18.41,46.13,62.22c1.71,2.3-2.58,4.56-6.32,3.32L530.39,206.92c-3.34-1.11-7.37.6-6.6,2.8l14.53,41.56c.93,2.68-4.9,4.3-7.85,2.18L412.16,168.7Z"/><path class="cls-4" d="M407.69,153,638.8,94c4.79-1.22,8.66,2.53,4.59,4.45l-60.1,28.25c-3.2,1.5-1.54,4.53,2.56,4.65l192.56,6.06c5.27.16,5.79,4.6.6,5.19l-124.91,14c-4.46.5-5,4.12-.69,5L773,187.24c5.07,1.08,3.13,5.52-2.21,5L604.37,177.53c-4-.35-6.67,2.31-4.23,4.18l48.31,37c2.76,2.12-1,5-5.22,4L407.69,167.39Z"/></g><polygon class="cls-5" points="142.17 212.43 141.85 210.67 139.18 209 143.08 204.3 151.14 205.21 166.7 199.5 142.17 212.43"/><path class="cls-5" d="M277.43,182.6s5.36,1.58,5.23,3.66,4.37,7.39,4.37,7.39l1.47-.28,122.65-23.44,6.45-1.24a2.52,2.52,0,0,0,2-2.92l-2.14-11.86a2.49,2.49,0,0,0-2.91-2L172.47,197.41l.05.27.54,3Z"/><path d="M418.58,160.55l-138,25.26a.58.58,0,0,1-.67-.47l-.06-.34a.58.58,0,0,1,.47-.68l138-25.25a.58.58,0,0,1,.67.46l.06.35A.57.57,0,0,1,418.58,160.55Z"/><path class="cls-5" d="M27.83,248.48c.45,2.49,7.62,30.83,10.35,40.58a2.49,2.49,0,0,0,3.75,1.43l4.56-2.94L33.68,243.66S27.29,245.48,27.83,248.48Z"/><path class="cls-5" d="M109.53,249.39a2.53,2.53,0,0,0,1.36,2.88c3.15,1.49,9.82,4.07,15.46,2.45a2.51,2.51,0,0,0,1.77-2.6c0-.46-.05-1-.06-1.58l-18.31-2.08Z"/><path class="cls-6" d="M156.24,204c-2.08.66-4.81,1.43-8.69,2.3-17,3.84-5.55.8-22.41,9.89-6.21,3.35-8.54,5.14-9.49,6.32l2.12,1.07Z"/><path class="cls-6" d="M144,228.51c-6.93,2-10.91,5.85-13.16,10,3-3,6.71-5,14.72-8.08,12-4.61,21.64-4.33,41.93-10.1,15-4.25,11.57-4.58,17-6.18l-35.68,7.09S163.34,222.93,144,228.51Z"/><path class="cls-6" d="M109.44,247h.66l.11-.49Z"/><path class="cls-7" d="M75.05,250.1c7.79.62,13.94-9.34,23.73-14.66s2.48-2.57,11.83-7.54c5.92-3.15,3.42-3.36,5-5.38l-4.58-2.31-1.24.37c-7.24,5.54-11.16,10.26-20.55,15.13-10.68,5.54-.72,7.3-27.22,9.59-19.14,1.66-23.82,7.2-25,10.14l2.46,8.41C46.29,260.46,68.46,249.57,75.05,250.1Z"/><path class="cls-8" d="M62.06,245.3c26.5-2.29,16.54-4.05,27.22-9.59,9.39-4.87,13.31-9.59,20.55-15.13l-15.21,4.61a31.84,31.84,0,0,0-2.26,2.28c-2.1,2.43-7.86,7.07-21.52,12s.34-5.58-19.34,2.14c-10,3.91-14.6,5.31-16.75,5.73l2.36,8.09C38.24,252.5,42.92,247,62.06,245.3Z"/><path class="cls-7" d="M173.28,200.36c13.63-.45,6.57-.18,18.23-.26s-3.12,9.71,15.44-.82c5-2.84,8.54-5.11,11.22-6.95l-44.72,7.75-.54-3-5.4,1-4.16,2.29L156.24,204C163.26,201.78,162.77,200.7,173.28,200.36Z"/><path class="cls-7" d="M227.28,196.06l47.45-8.68a4,4,0,0,1,3.86,1.49c2.12-.16,4-.21,5.64-.2a6.41,6.41,0,0,1-1.18-3c.13-2.08-5.23-3.65-5.23-3.65L249.22,187a91.22,91.22,0,0,1-12.9,5.45A67.14,67.14,0,0,0,227.28,196.06Z"/><path class="cls-7" d="M70.84,239.48c13.66-4.94,19.42-9.58,21.52-12a31.84,31.84,0,0,1,2.26-2.28L33.67,243.63l1.08,3.72c2.15-.42,6.78-1.82,16.75-5.73C71.18,233.9,57.19,244.42,70.84,239.48Z"/><path class="cls-7" d="M110.1,247l-.36,1.47,18.31,2.08a24.8,24.8,0,0,1,2.83-12.06,37.51,37.51,0,0,0-4.23,5.25C122.49,249.63,115.8,247,110.1,247Z"/><path class="cls-7" d="M214.92,211.69c-5.39,1.12-8.43,1.84-10.37,2.41l63.58-12.64c-2.33,0-5.55.09-10.32.32C238.69,202.72,235.47,207.41,214.92,211.69Z"/><path class="cls-8" d="M287.51,193.54c-.33-.14.17-.4,1.38-.78l-1.47.28a41.82,41.82,0,0,1-3.19-4.37c-1.68,0-3.52,0-5.64.2a4,4,0,0,1,.78,1.75,4,4,0,0,1-3.22,4.69l-42.93,7.86c-7,4.06-13.62,5.19-35.89,11.28-26.19,7.15-17.42,4.41-49.55,9.27s-10,3.87-26.63,10-3.88-1.85-26.85,17.21C76.11,266,53,276.19,44.22,279.78l1.42,4.86c10.87-7,57.65-37.09,62.93-37.61.29,0,.58,0,.87-.05l.77-.5-.11.49c5.7,0,12.39,2.66,16.55-3.26a37.51,37.51,0,0,1,4.23-5.25c2.25-4.1,6.23-8,13.16-10,19.3-5.58,24.83-7.32,24.83-7.32l35.68-7.09c1.94-.57,5-1.29,10.37-2.41,20.55-4.28,23.77-9,42.89-9.91,4.77-.23,8-.31,10.32-.32L285.77,198S291.89,195.3,287.51,193.54Z"/><path class="cls-7" d="M121.15,233.72c16.67-6.13-5.49-5.14,26.63-10s23.36-2.12,49.55-9.27c22.27-6.09,28.87-7.22,35.89-11.28l-21,3.84a4,4,0,0,1-4.1-1.83l-2.36,1c-19.34,8.16-11.52,3.65-32.59,7s-10.66.92-23.51,2-11.81,3-18,5.11-10.15,8.51-14.61,9.26S94.9,238.78,82.64,254c-9.74,12.12-32.5,14.73-41.47,15.29l3,10.45C53,276.19,76.11,266,94.3,250.93,117.27,231.87,104.49,239.84,121.15,233.72Z"/><path class="cls-8" d="M82.64,254c12.26-15.26,30-23.77,34.43-24.51s8.4-7.1,14.61-9.26,5.17-4,18-5.11,2.43,1.36,23.51-2,13.25,1.16,32.59-7l2.36-1a4.05,4.05,0,0,1,2.67-6.1l16.45-3a67.14,67.14,0,0,1,9-3.66,91.22,91.22,0,0,0,12.9-5.45l-31.05,5.38c-2.68,1.84-6.22,4.11-11.22,6.95-18.56,10.53-3.78.73-15.44.82s-4.6-.19-18.23.26c-10.51.34-10,1.42-17,3.65l-38.47,19.58-2.12-1.07c-1.62,2,.88,2.23-5,5.38-9.35,5-2,2.23-11.83,7.54S82.84,250.72,75.05,250.1c-6.59-.53-28.76,10.36-35.48,13.75l1.6,5.48C50.14,268.77,72.9,266.16,82.64,254Zm-25,4.59,7.82-1.44c8.1-1.27-5.61,3.89-13.21,6.19S57.82,258.37,57.61,258.63Z"/><path class="cls-7" d="M45.64,284.64l.84,2.89,63-40.55c-.29,0-.58,0-.87.05C103.29,247.55,56.51,277.62,45.64,284.64Z"/><path class="cls-9" d="M210.83,199.08a4.05,4.05,0,0,0-2.67,6.1c10.51-4.51,14.92-7.06,19.12-9.12Z"/><path class="cls-9" d="M258.08,192c-16.43,3.23-12,2.49-21,8.75-1.35.93-2.6,1.74-3.84,2.45l42.93-7.86a4,4,0,0,0,3.22-4.69,4,4,0,0,0-.78-1.75A179.58,179.58,0,0,0,258.08,192Z"/><path class="cls-10" d="M274.73,187.38l-47.45,8.68c-4.2,2.06-8.61,4.61-19.12,9.12a4,4,0,0,0,4.1,1.83l21-3.84c1.24-.71,2.49-1.52,3.84-2.45,9-6.26,4.59-5.52,21-8.75a179.58,179.58,0,0,1,20.51-3.1A4,4,0,0,0,274.73,187.38Z"/><path class="cls-7" d="M65.43,257.19l-7.82,1.44c.21-.26-13,7.05-5.39,4.75S73.53,255.92,65.43,257.19Z"/><path class="cls-5" d="M27.34,248.57c.45,2.49,7.63,30.83,10.35,40.57a2.49,2.49,0,0,0,3.75,1.44L46,287.64,33.19,243.75S26.8,245.57,27.34,248.57Z"/><path class="cls-5" d="M109,249.48a2.52,2.52,0,0,0,1.36,2.87c3.15,1.5,9.82,4.08,15.47,2.46a2.51,2.51,0,0,0,1.76-2.6c0-.46,0-1-.06-1.58l-18.3-2.08Z"/><path class="cls-6" d="M155.75,204.1c-2.08.66-4.81,1.43-8.69,2.3-17,3.84-5.54.8-22.41,9.89-6.2,3.35-8.54,5.14-9.48,6.32l2.11,1.07Z"/><path class="cls-6" d="M143.55,228.6c-6.93,2-10.9,5.85-13.16,10,3-3,6.71-5,14.72-8.08,11.95-4.61,21.64-4.33,41.93-10.1,15-4.25,11.57-4.58,17-6.18l-35.68,7.09S162.86,223,143.55,228.6Z"/><path class="cls-6" d="M109,247.07h.65l.12-.49Z"/><path class="cls-7" d="M74.56,250.19c7.79.62,13.94-9.35,23.74-14.66s2.47-2.57,11.83-7.54c5.91-3.15,3.42-3.36,5-5.38l-4.59-2.31-1.24.37c-7.24,5.54-11.16,10.26-20.55,15.13-10.68,5.54-.72,7.3-27.21,9.59-19.15,1.66-23.83,7.2-24.95,10.14l2.45,8.41C45.8,260.55,68,249.66,74.56,250.19Z"/><path class="cls-8" d="M61.58,245.39c26.49-2.29,16.53-4,27.21-9.59,9.39-4.87,13.31-9.59,20.55-15.13l-15.21,4.61a29.9,29.9,0,0,0-2.26,2.28c-2.1,2.43-7.86,7.07-21.52,12S70.69,234,51,241.71c-10,3.91-14.6,5.31-16.74,5.73l2.36,8.09C37.75,252.59,42.43,247.05,61.58,245.39Z"/><path class="cls-7" d="M172.79,200.45c13.63-.45,6.57-.18,18.23-.27s-3.12,9.72,15.44-.81c5-2.84,8.54-5.11,11.23-7L173,200.17l-.54-3-5.4,1-4.16,2.29-7.11,3.62C162.77,201.87,162.28,200.79,172.79,200.45Z"/><path class="cls-7" d="M226.8,196.15l47.44-8.68A4,4,0,0,1,278.1,189c2.12-.16,4-.22,5.64-.21a6.35,6.35,0,0,1-1.18-3c.13-2.08-5.23-3.66-5.23-3.66l-28.6,5a92.24,92.24,0,0,1-12.89,5.45A66.6,66.6,0,0,0,226.8,196.15Z"/><path class="cls-7" d="M70.35,239.57c13.66-4.94,19.42-9.58,21.52-12a29.9,29.9,0,0,1,2.26-2.28L33.18,243.72l1.09,3.72C36.41,247,41,245.62,51,241.71,70.69,234,56.7,244.51,70.35,239.57Z"/><path class="cls-7" d="M109.61,247.06l-.35,1.47,18.3,2.07a24.79,24.79,0,0,1,2.83-12,38.24,38.24,0,0,0-4.23,5.25C122,249.72,115.31,247.09,109.61,247.06Z"/><path class="cls-7" d="M214.43,211.77c-5.38,1.12-8.43,1.85-10.37,2.42l63.59-12.64c-2.34,0-5.56.09-10.33.32C238.2,202.81,235,207.5,214.43,211.77Z"/><path class="cls-8" d="M287,193.63c-.33-.14.18-.41,1.39-.78l-1.47.28a40.67,40.67,0,0,1-3.2-4.38c-1.68,0-3.52.05-5.64.21a3.87,3.87,0,0,1,.78,1.75,4,4,0,0,1-3.21,4.69l-42.93,7.86c-7,4.06-13.63,5.19-35.9,11.28-26.19,7.15-17.42,4.41-49.54,9.27s-10,3.87-26.63,10S116.78,232,93.81,251c-18.19,15.1-41.26,25.27-50.08,28.86l1.42,4.86c10.87-7,57.65-37.09,62.94-37.61.28,0,.57,0,.87-.05l.77-.5-.12.49c5.7,0,12.39,2.66,16.55-3.26a38.24,38.24,0,0,1,4.23-5.25c2.26-4.1,6.23-8,13.16-10,19.31-5.58,24.83-7.32,24.83-7.32l35.68-7.09c1.94-.57,5-1.3,10.37-2.42,20.55-4.27,23.77-9,42.89-9.9,4.77-.23,8-.31,10.33-.32L285.28,198S291.4,195.38,287,193.63Z"/><path class="cls-7" d="M120.67,233.81c16.66-6.13-5.5-5.14,26.63-10s23.35-2.12,49.54-9.27c22.27-6.09,28.87-7.22,35.9-11.28l-21,3.84a4,4,0,0,1-4.09-1.83l-2.36,1c-19.35,8.15-11.53,3.65-32.6,7s-10.65.93-23.5,2-11.82,2.95-18,5.11-10.14,8.51-14.61,9.26-22.16,9.25-34.43,24.51c-9.74,12.12-32.5,14.73-41.47,15.29l3,10.45c8.82-3.59,31.89-13.76,50.08-28.86C116.78,232,104,239.93,120.67,233.81Z"/><path class="cls-8" d="M82.15,254.13c12.27-15.26,30-23.77,34.43-24.51s8.4-7.1,14.61-9.26,5.17-4,18-5.11,2.43,1.36,23.5-2,13.25,1.16,32.6-7l2.36-1a3.83,3.83,0,0,1-.55-1.42,4,4,0,0,1,3.22-4.68l16.45-3a66.6,66.6,0,0,1,9-3.66A92.24,92.24,0,0,0,248.73,187l-31,5.38c-2.69,1.84-6.22,4.11-11.23,7-18.56,10.53-3.78.73-15.44.81s-4.6-.18-18.23.27c-10.51.34-10,1.42-17,3.65l-38.47,19.58-2.11-1.07c-1.62,2,.87,2.23-5,5.38-9.36,5-2,2.23-11.83,7.54s-16,15.28-23.74,14.66c-6.58-.53-28.76,10.36-35.48,13.75l1.6,5.48C49.65,268.86,72.41,266.25,82.15,254.13Zm-25,4.59,7.82-1.44c8.11-1.27-5.6,3.89-13.21,6.19S57.33,258.46,57.12,258.72Z"/><path class="cls-7" d="M45.15,284.73l.84,2.89,63-40.55c-.3,0-.59,0-.87.05C102.8,247.64,56,277.7,45.15,284.73Z"/><path class="cls-9" d="M210.35,199.17a4,4,0,0,0-3.22,4.68,3.83,3.83,0,0,0,.55,1.42c10.5-4.52,14.92-7.06,19.12-9.12Z"/><path class="cls-9" d="M257.59,192.06c-16.43,3.23-12,2.49-21,8.75-1.35.93-2.6,1.74-3.83,2.45l42.93-7.86a4,4,0,0,0,3.21-4.69,3.87,3.87,0,0,0-.78-1.75A179.9,179.9,0,0,0,257.59,192.06Z"/><path class="cls-10" d="M274.24,187.47l-47.44,8.68c-4.2,2.06-8.62,4.6-19.12,9.12a4,4,0,0,0,4.09,1.83l21-3.84c1.23-.71,2.48-1.52,3.83-2.45,9-6.26,4.59-5.52,21-8.75A179.9,179.9,0,0,1,278.1,189,4,4,0,0,0,274.24,187.47Z"/><path class="cls-7" d="M64.94,257.28l-7.82,1.44c.21-.26-13,7-5.39,4.75S73.05,256,64.94,257.28Z"/><path class="cls-5" d="M27.77,249c.45,2.49,7.62,30.83,10.35,40.57A2.49,2.49,0,0,0,41.87,291L46.43,288,33.62,244.15S27.23,246,27.77,249Z"/><path class="cls-5" d="M109.47,249.88a2.51,2.51,0,0,0,1.36,2.87c3.15,1.5,9.82,4.08,15.46,2.45a2.49,2.49,0,0,0,1.77-2.59c0-.46-.05-1-.06-1.58L109.69,249Z"/><path class="cls-6" d="M156.18,204.5c-2.08.66-4.82,1.43-8.69,2.3-17,3.84-5.55.8-22.41,9.89-6.21,3.35-8.54,5.14-9.49,6.32l2.12,1.07Z"/><path class="cls-6" d="M144,229c-6.93,2-10.91,5.84-13.16,9.94,3-2.95,6.71-5,14.72-8.07,12-4.61,21.64-4.33,41.93-10.1,15-4.25,11.57-4.58,17-6.18l-35.68,7.09S163.28,223.42,144,229Z"/><path class="cls-6" d="M109.38,247.47H110l.11-.49Z"/><path class="cls-7" d="M75,250.59c7.79.62,13.94-9.35,23.73-14.66s2.48-2.57,11.83-7.54c5.92-3.15,3.42-3.36,5-5.38L111,220.7l-1.24.37c-7.24,5.54-11.16,10.26-20.55,15.13-10.68,5.54-.72,7.3-27.22,9.59-19.14,1.66-23.82,7.19-25,10.14l2.46,8.41C46.23,261,68.4,250.06,75,250.59Z"/><path class="cls-8" d="M62,245.79c26.5-2.29,16.54-4,27.22-9.59,9.39-4.87,13.31-9.59,20.55-15.13l-15.21,4.61A29.9,29.9,0,0,0,92.3,228c-2.1,2.43-7.87,7.07-21.52,12s.34-5.58-19.34,2.14c-10,3.91-14.6,5.3-16.75,5.73l2.36,8.09C38.18,253,42.86,247.45,62,245.79Z"/><path class="cls-7" d="M173.22,200.85c13.63-.45,6.57-.18,18.23-.27s-3.12,9.72,15.44-.81c5-2.84,8.54-5.11,11.22-7l-44.72,7.75-.54-3-5.4,1-4.16,2.3-7.11,3.62C163.2,202.27,162.71,201.19,173.22,200.85Z"/><path class="cls-7" d="M227.22,196.55l47.45-8.68a4,4,0,0,1,3.86,1.49c2.12-.16,4-.22,5.64-.21a6.35,6.35,0,0,1-1.18-3c.13-2.08-5.23-3.66-5.23-3.66l-28.6,5a92.41,92.41,0,0,1-12.9,5.45A67.14,67.14,0,0,0,227.22,196.55Z"/><path class="cls-7" d="M70.78,240C84.43,235,90.2,230.39,92.3,228a29.9,29.9,0,0,1,2.26-2.28L33.61,244.12l1.08,3.72c2.15-.43,6.78-1.82,16.75-5.73C71.12,234.39,57.13,244.91,70.78,240Z"/><path class="cls-7" d="M110,247.46l-.36,1.47L128,251a24.85,24.85,0,0,1,2.83-12.06,38.24,38.24,0,0,0-4.23,5.26C122.43,250.12,115.74,247.49,110,247.46Z"/><path class="cls-7" d="M214.86,212.17c-5.39,1.12-8.43,1.85-10.37,2.42L268.07,202c-2.33,0-5.55.09-10.32.32C238.63,203.21,235.41,207.9,214.86,212.17Z"/><path class="cls-8" d="M287.45,194c-.33-.14.17-.41,1.38-.78l-1.47.28a41.29,41.29,0,0,1-3.19-4.38c-1.68,0-3.52,0-5.64.21a4,4,0,0,1,.78,1.75,4,4,0,0,1-3.22,4.69l-42.93,7.86c-7,4.05-13.62,5.19-35.89,11.28-26.19,7.15-17.42,4.41-49.55,9.27s-10,3.87-26.63,10-3.88-1.85-26.85,17.2C76.05,266.51,53,276.68,44.16,280.27l1.42,4.86c10.87-7,57.65-37.09,62.93-37.61.29,0,.58,0,.87-.05l.77-.5-.11.49c5.7,0,12.39,2.66,16.55-3.26a38.24,38.24,0,0,1,4.23-5.26c2.25-4.1,6.23-7.94,13.16-9.94,19.3-5.58,24.83-7.32,24.83-7.32l35.68-7.09c1.94-.57,5-1.3,10.37-2.42,20.55-4.27,23.77-9,42.89-9.9,4.77-.23,8-.31,10.32-.32l17.64-3.51S291.83,195.78,287.45,194Z"/><path class="cls-7" d="M121.09,234.21c16.67-6.13-5.49-5.14,26.63-10s23.36-2.12,49.55-9.27c22.27-6.09,28.87-7.23,35.89-11.28l-21,3.84a4,4,0,0,1-4.1-1.83l-2.36,1c-19.34,8.15-11.52,3.65-32.59,7s-10.66.93-23.51,2-11.81,2.95-18,5.11S121.47,229.27,117,230s-22.17,9.25-34.43,24.51c-9.74,12.12-32.5,14.73-41.47,15.29l3,10.45c8.81-3.59,31.89-13.76,50.08-28.86C117.21,232.36,104.43,240.33,121.09,234.21Z"/><path class="cls-8" d="M82.58,254.53c12.26-15.26,30-23.77,34.43-24.51s8.4-7.1,14.61-9.26,5.17-4,18-5.11,2.43,1.36,23.51-2,13.25,1.16,32.59-7l2.36-1a4,4,0,0,1-.54-1.42,4,4,0,0,1,3.21-4.69l16.45-3a67.14,67.14,0,0,1,9-3.66,92.41,92.41,0,0,0,12.9-5.45l-31,5.38c-2.68,1.84-6.22,4.11-11.22,7-18.56,10.53-3.78.73-15.44.81s-4.6-.18-18.23.27c-10.51.34-10,1.42-17,3.65l-38.47,19.58L115.59,223c-1.62,2,.88,2.23-5,5.38-9.35,5-2,2.23-11.83,7.54S82.78,251.21,75,250.59c-6.59-.53-28.76,10.36-35.48,13.75l1.6,5.48C50.08,269.26,72.84,266.65,82.58,254.53Zm-25,4.59,7.82-1.44c8.1-1.27-5.61,3.89-13.21,6.19S57.76,258.86,57.55,259.12Z"/><path class="cls-7" d="M45.58,285.13l.84,2.89,63-40.55c-.29,0-.58,0-.87.05C103.23,248,56.45,278.1,45.58,285.13Z"/><path class="cls-9" d="M210.77,199.56a4,4,0,0,0-3.21,4.69,4,4,0,0,0,.54,1.42c10.51-4.52,14.92-7.06,19.12-9.12Z"/><path class="cls-9" d="M258,192.46c-16.43,3.23-12,2.49-21,8.75-1.35.93-2.6,1.74-3.84,2.45l42.93-7.86a4,4,0,0,0,3.22-4.69,4,4,0,0,0-.78-1.75A179.58,179.58,0,0,0,258,192.46Z"/><path class="cls-10" d="M274.67,187.87l-47.45,8.68c-4.2,2.06-8.61,4.6-19.12,9.12a4,4,0,0,0,4.1,1.83l21-3.84c1.24-.71,2.49-1.52,3.84-2.45,9-6.26,4.59-5.52,21-8.75a179.58,179.58,0,0,1,20.51-3.1A4,4,0,0,0,274.67,187.87Z"/><path class="cls-7" d="M65.37,257.68l-7.82,1.44c.21-.26-13,7.05-5.39,4.75S73.47,256.41,65.37,257.68Z"/><path class="cls-5" d="M159.81,220.74a14.26,14.26,0,0,0-9.62,6.16l-.29.26-3.85,1.21a1.55,1.55,0,0,0,.67.9,2.12,2.12,0,0,1,2.29,1.95s0,.08,0,.11a.28.28,0,0,1,0,.09c.64,3.54,6.19,6,13.54,4.69s11.09-6.05,10.46-9.6S167.17,219.39,159.81,220.74Zm2.59,14.38c-6.24,1.14-11.92-1.37-12.46-4.38s3.81-7.87,10.05-9,11.52,2,12.06,5S168.64,234,162.4,235.12Z"/><path class="cls-5" d="M163.66,223.25l-10.84,3.2a15.41,15.41,0,0,0,.83,4.63,12.41,12.41,0,0,0,2.24,3.55c.56.71,1.63-.13,1.13-.88-.66-1-2.54-3.23-1.93-4,1-1.25,4.33-4.27,5.63-4.44S164.47,224.63,163.66,223.25Z"/><path d="M456.44,134.84a2.72,2.72,0,0,1,1.42.36l2.49-.36q11.31.36,16.71.36a17.71,17.71,0,0,0,2.84-.36,12.54,12.54,0,0,0,3.2.36,22.92,22.92,0,0,0,4.27-.36,47.11,47.11,0,0,0,6.05.36h4.26q4.2,0,5,10.76v.36l-1.07,4.3h-.35q-4.38-5.73-13.51-5.74h-3.2l-1.78.36q0,3.73-.36,23.31,0,7.11,3.91,11.12c-.59,1.44-1.3,2.15-2.13,2.15a36.94,36.94,0,0,0-5-.71q-3.19,0-11,4.66c-1.07-.29-1.66-.77-1.78-1.43q.36-1.34,5.69-9a18.11,18.11,0,0,0,.36-2.87q0-8.25.35-12.91-.35-4.84-.35-13.63l-1.07-.72h-9.95q-2,0-7.83,5.74h-.35q-1.78-.54-1.78-4.66v-2.15q1-8.14,4.62-9.33Z"/><path d="M531,134.73q11.44,2.91,11.45,9.76,0,4.15-7.86,11.91,4.56,9.28,9,14.09,2.49,0,5.73,4.34a4.66,4.66,0,0,1,2.49,4.3v1.48a1.9,1.9,0,0,1-2.14,2.15H540q-4.31,0-15.39-25.29h-.36l-.35.72v13.38a28.43,28.43,0,0,1-.36,4c1.9,2.82,2.84,4.62,2.84,5.41a4.24,4.24,0,0,1-2.84,1.44h-9.67q-4.73,0-5.72-1.79a9.72,9.72,0,0,1,2.87-5.06V137.64q0-2.55,5.73-2.55Q527.87,134.73,531,134.73Zm-5,8.68-1.78.36v10.47a.32.32,0,0,1-.35.36,2.88,2.88,0,0,1,.35,1.08h.36q6.78-7.78,6.79-9.76v-.71Q531.39,143.85,526,143.41Z"/><path d="M589.59,135.09l1.74-.36H604.6l2.41.36v1c-.52.93-2.72,2.11-6.61,3.52q-3.3,2.11-13.58,18.65c0,.45-1.4,2.56-4.2,6.31V171q0,6.24,5.94,9.11a25.61,25.61,0,0,1,6.26,5.27v.36l-2.1.36q-4,0-23-.72a5,5,0,0,1-2.42-1q2.78-4.12,2.77-18.62L557.88,140c-4.06-1.33-6.26-2.39-6.62-3.15v-1.4l1.75-.36q14.64,0,14.64,3.87,8.43,17,9.07,17.22Q577.93,155.57,589.59,135.09Z"/><path d="M657,135.16q2.63,0,4.9,8,10.82,26.28,15.57,33.68Q680.9,180,680.9,183l-.75.36h-9.49c-4.32,0-6.47-1.53-6.47-4.59q-3.71-11.88-4.91-11.88c-5.45.27-9.26.4-11.41.4q-1.14,2.79-4.91,16.46,0,1.26-18.6,1.9v.4a2.88,2.88,0,0,0-1.52-.4q0-5.06,9.1-7.64c2.27-1.65,3.41-4.32,3.41-8v-2.3h-.75a58.89,58.89,0,0,1-7.6,1.51v-.36q1.63-6.89,7.6-6.89,4.95,0,4.95-5,2.63-8.72,2.63-14.17v-.75q0-3.27-4.16-6.13l.74-.4q10-.36,16.72-.36Zm-4.59,12.63q-3,12.15-3,13H657c.49,0,.74-.27.74-.79q-.75-1.22-4.19-12.23Z"/><path d="M707.24,134.73q16,1.8,16,9.08A8.57,8.57,0,0,1,726,147v2a17.61,17.61,0,0,1-4.7.78h-3.91a17.61,17.61,0,0,1-4.69-.78v-.4l.78-2.76a7.57,7.57,0,0,0-4.69-2q-9.1,0-10.56,7.1a46,46,0,0,0-2,12.23v2.76q2,11.44,8.22,11.44h2q6.93,0,10.17-5.13v-.39q0-.69-9.39-3.55a4.66,4.66,0,0,1-.78-2.37v-.79a2.43,2.43,0,0,1,2.74-2.76H728a2.08,2.08,0,0,1,2.35,2.37v13A2.08,2.08,0,0,1,728,180.1q-2.34,0-2.34-5.13h-1.18q-4.51,9.48-11.34,9.47-.29,1.08-8.21,1.58a24.56,24.56,0,0,1-13.3-4.34q-6.26-5-6.26-14.6-.78,0-1.17-8.28,1.85-14.6,4.69-14.6a23.25,23.25,0,0,1,13.69-8.68c.33,0,1.77-.26,4.3-.79Z"/><path d="M764.7,135.16q2.64,0,4.91,8,10.8,26.28,15.57,33.68c2.28,2.1,3.41,4.14,3.41,6.13l-.74.36h-9.5q-6.47,0-6.47-4.59-3.69-11.88-4.9-11.88c-5.46.27-9.26.4-11.42.4q-1.14,2.79-4.9,16.46,0,1.26-18.6,1.9v.4a2.91,2.91,0,0,0-1.53-.4q0-5.06,9.11-7.64c2.27-1.65,3.41-4.32,3.41-8v-2.3h-.75a58.54,58.54,0,0,1-7.61,1.51v-.36q1.63-6.89,7.61-6.89c3.3,0,4.94-1.66,4.94-5q2.64-8.72,2.64-14.17v-.75q0-3.27-4.16-6.13l.74-.4q10-.36,16.71-.36Zm-4.58,12.63q-3,12.15-3,13h7.61c.5,0,.75-.27.75-.79q-.75-1.22-4.2-12.23Z"/><path d="M792.75,135.31l1.82-.36h13.58a2.61,2.61,0,0,1,2.17,1.07q-2.88,9-2.88,31.06L810,182.25c0,.67-.6,1.28-1.81,1.83a22.71,22.71,0,0,0-5.37-1.07l-9.67,2.51c-1.42-.6-2.13-1.32-2.13-2.15l4.66-8.68v-22q0-14.1-2.89-15.93Z"/><path d="M826.92,134.84q3.17,0,4.06,5.81a138,138,0,0,0,15,18.08h.57q-.28-1-.57-13.7-8.07-6.32-8.07-7c0-1,.66-2,2-2.9a60.29,60.29,0,0,0,6.65,1.18h.57a28.38,28.38,0,0,0,6.08-1.18c1.3,0,2.17,1.65,2.59,5q-.28,15.6-.28,25v10.51q0,5.24-6.65,9.32H848q-1.82-6.56-5.51-9.61-2.82-3.79-11.81-11.94-.6.08-.6.57a65,65,0,0,1,.6,7.57v7q0,3.34-12.12,7.57l-1.18-.28v-.29q0-1.83,4.34-8.75.57-22.64.57-26.51l-5.19-10.76c.92-2.44,2.07-3.89,3.45-4.37a2.44,2.44,0,0,1,1.17-.29Z"/><path class="cls-2" d="M450,129.09a2.7,2.7,0,0,1,1.42.36l2.49-.36q11.31.36,16.71.36a17.8,17.8,0,0,0,2.85-.36,12.54,12.54,0,0,0,3.2.36,22.92,22.92,0,0,0,4.27-.36,47,47,0,0,0,6,.36h4.27q4.19,0,5,10.76v.36l-1.06,4.3h-.36q-4.36-5.75-13.51-5.74h-3.2l-1.78.36q0,3.73-.35,23.31,0,7.11,3.91,11.12c-.59,1.44-1.3,2.15-2.13,2.15a35.29,35.29,0,0,0-5-.71q-3.21,0-11,4.66c-1.07-.29-1.66-.77-1.78-1.44q.34-1.32,5.69-9a19,19,0,0,0,.35-2.87q0-8.25.36-12.91Q466,149,466,140.21l-1.06-.72H455q-2,0-7.82,5.74h-.36c-1.18-.36-1.78-1.91-1.78-4.66v-2.16q1-8.13,4.63-9.32Z"/><path class="cls-2" d="M524.62,129q11.45,2.91,11.45,9.76,0,4.15-7.86,11.9,4.54,9.3,9,14.1,2.49,0,5.72,4.34a4.66,4.66,0,0,1,2.49,4.3v1.47a1.9,1.9,0,0,1-2.13,2.16h-9.67q-4.3,0-15.4-25.29h-.35l-.36.72v13.37a29.89,29.89,0,0,1-.35,4Q520,174,520,175.21a4.26,4.26,0,0,1-2.84,1.44h-9.68q-4.72,0-5.72-1.8a9.82,9.82,0,0,1,2.88-5V131.89q0-2.55,5.72-2.55Q521.45,129,524.62,129Zm-5,8.68-1.77.36v10.47a.32.32,0,0,1-.36.36,2.76,2.76,0,0,1,.36,1.08h.35q6.8-7.78,6.79-9.76v-.72C525,138.54,523.18,138,519.6,137.66Z"/><path class="cls-2" d="M583.18,129.34l1.74-.36h13.26l2.42.36v1c-.52.93-2.73,2.1-6.61,3.51q-3.32,2.13-13.59,18.65c0,.46-1.39,2.56-4.19,6.32v6.35q0,6.24,5.94,9.11a25.52,25.52,0,0,1,6.25,5.27V180l-2.09.35q-4,0-23-.71a5.08,5.08,0,0,1-2.42-1q2.77-4.12,2.78-18.62l-12.2-25.68c-4.05-1.34-6.26-2.39-6.61-3.15v-1.4l1.74-.36q14.65,0,14.65,3.87,8.43,17,9.07,17.22Q571.51,149.82,583.18,129.34Z"/><path class="cls-2" d="M650.59,129.41q2.63,0,4.91,8,10.8,26.3,15.57,33.68c2.27,2.11,3.41,4.15,3.41,6.14l-.74.36h-9.5q-6.47,0-6.47-4.6-3.69-11.86-4.9-11.87c-5.46.27-9.26.4-11.42.4q-1.14,2.79-4.9,16.46,0,1.26-18.6,1.9v.39a3,3,0,0,0-1.53-.39q0-5.06,9.1-7.64,3.42-2.47,3.42-8v-2.3h-.75a58.54,58.54,0,0,1-7.61,1.51v-.36q1.63-6.89,7.61-6.89,4.93,0,4.94-5,2.64-8.72,2.63-14.17v-.75c0-2.18-1.38-4.22-4.16-6.14l.75-.39q10-.36,16.71-.36ZM646,142q-3,12.15-3,13h7.61c.5,0,.75-.27.75-.79q-.75-1.23-4.2-12.23Z"/><path class="cls-2" d="M700.83,129q16,1.8,16,9.07a8.43,8.43,0,0,1,2.74,3.16v2a17.21,17.21,0,0,1-4.69.79H711a17.28,17.28,0,0,1-4.7-.79v-.39l.79-2.76a7.62,7.62,0,0,0-4.7-2c-6.06,0-9.59,2.37-10.56,7.11a46.39,46.39,0,0,0-2,12.23v2.76q1.95,11.44,8.21,11.44h2q6.93,0,10.17-5.13v-.39q0-.69-9.39-3.55a4.69,4.69,0,0,1-.78-2.37v-.79a2.43,2.43,0,0,1,2.73-2.76h18.78A2.08,2.08,0,0,1,723.9,159v13a2.08,2.08,0,0,1-2.34,2.37q-2.35,0-2.35-5.13H718q-4.51,9.47-11.34,9.47c-.19.72-2.93,1.24-8.22,1.58a24.59,24.59,0,0,1-13.3-4.34q-6.25-5-6.25-14.6c-.52,0-.92-2.76-1.18-8.28q1.86-14.6,4.7-14.6a23.2,23.2,0,0,1,13.69-8.68c.33,0,1.76-.26,4.3-.79Z"/><path class="cls-2" d="M758.29,129.41q2.63,0,4.9,8,10.81,26.3,15.58,33.68c2.27,2.11,3.41,4.15,3.41,6.14l-.75.36h-9.49q-6.47,0-6.47-4.6-3.71-11.86-4.91-11.87-8.17.4-11.41.4Q748,164.34,744.24,178q0,1.26-18.59,1.9v.39a3,3,0,0,0-1.53-.39q0-5.06,9.1-7.64c2.28-1.65,3.41-4.33,3.41-8v-2.3h-.74a58.88,58.88,0,0,1-7.61,1.51v-.36q1.63-6.89,7.61-6.89,4.93,0,4.94-5,2.63-8.72,2.63-14.17v-.75c0-2.18-1.39-4.22-4.16-6.14l.75-.39q10-.36,16.71-.36ZM753.7,142q-3,12.15-3,13h7.61c.49,0,.74-.27.74-.79Q758.3,153,754.84,142Z"/><path class="cls-2" d="M786.34,129.55l1.81-.35h13.59a2.56,2.56,0,0,1,2.16,1.07q-2.88,9-2.88,31.06l2.53,15.17c0,.67-.61,1.28-1.81,1.83a22.71,22.71,0,0,0-5.37-1.07l-9.67,2.51c-1.43-.6-2.14-1.32-2.14-2.15l4.66-8.68v-22q0-14.08-2.88-15.92Z"/><path class="cls-2" d="M820.51,129.09c2.11,0,3.46,1.93,4,5.81a136.75,136.75,0,0,0,15,18.07h.57c-.2-.69-.38-5.26-.57-13.7-5.39-4.2-8.07-6.54-8.07-7,0-1,.66-2,2-2.9a62.67,62.67,0,0,0,6.65,1.18h.56a28.93,28.93,0,0,0,6.08-1.18c1.31,0,2.17,1.64,2.6,4.94q-.28,15.62-.29,25v10.51q0,5.24-6.64,9.32h-.86q-1.82-6.56-5.51-9.61-2.8-3.79-11.8-11.94c-.41.05-.61.24-.61.57a63.21,63.21,0,0,1,.61,7.57v7q0,3.34-12.13,7.57l-1.17-.29v-.28q0-1.83,4.34-8.75.57-22.64.57-26.51l-5.2-10.76q1.39-3.66,3.45-4.37a2.37,2.37,0,0,1,1.18-.29Z"/></g></g></svg>
