<svg xmlns="http://www.w3.org/2000/svg" viewBox="0 0 171.15 241.15"><defs><style>.cls-1{fill:#41803e;}.cls-2{fill:none;}</style></defs><g id="Assetlist_-_Artboard" data-name="Assetlist - Artboard"><g id="trae4"><path class="cls-1" d="M170.79,238.1c-5.85-8.28-12.1-29.73-12.1-29.73s10.92-4.86,4.86-4.86S124.73,121,124.73,121s10.92-1.22,6.07-4.86-20.62-36.42-19.41-34,10.36-7,10.36-7c-4.19-3.33-16.42-17.31-11.57-14.88s4.85,0,4.85,0c-3.64-1.22-12.13-36.42-12.13-36.42s6.06,2.43,2.43-1.21c-2.4-2.4-5.85-13.76-7.93-21.23a1.92,1.92,0,0,0-3.64-.17c-3.5,9.36-10.52,21.9-11.48,23.82-1.21,2.43,1.21-1.21,2.43,1.22S76.22,56.63,73.79,57.84s1.21,2.43,2.43,3.64-6.07,9.71-8.5,10.93-1.21,8.5,1.22,10.92,7.28-8.49,8.49-6.07S55.6,117.32,54.38,119.75s6.07,4.86,12.13,4.86,7.28-9.71,7.28-9.71c-3.64,25.49-48.52,77.69-53.37,82.54s4.85,4.86,2.43,8.5c-2,2.95-16.88,24.19-22.5,32.18a1.93,1.93,0,0,0,1.58,3h167.3A1.93,1.93,0,0,0,170.79,238.1Z"/><path class="cls-2" d="M107.62,136.94c-.19-1.37-.31-2.41-.31-2.41-.13.88-.26,1.64-.39,2.31A5.62,5.62,0,0,1,107.62,136.94Z"/><path class="cls-2" d="M111.28,138.73c-.2-2.3-.3-4.2-.3-4.2-.1,1.45-.21,2.67-.32,3.72C110.86,138.39,111.07,138.55,111.28,138.73Z"/><path class="cls-2" d="M103.89,137.17c-.25-1.39-.39-2.64-.39-2.64-.17,1.13-.34,2.12-.5,3A6.64,6.64,0,0,1,103.89,137.17Z"/><path d="M115,137.4c-2,16.44-3.19,7.46-3.72,1.33-.21-.18-.42-.34-.62-.48-1.09,10.4-2.44,2.95-3-1.31a5.62,5.62,0,0,0-.7-.1c-1.39,7.21-2.48,3.41-3,.33a6.64,6.64,0,0,0-.89.36c-2.2,12.07-3.18,2.89-3.48-1.25-.79-.93-1.56-1.68-1.56-1.68.48,10.26,1.93,10.33,3,10.39s1.9-.54,2.71-3.6a1.73,1.73,0,0,0,1.64,1,1.83,1.83,0,0,0,1.64-.89c.83,3.49,1.7,3.49,2.48,3.46a1.6,1.6,0,0,0,1.11-.4c.69,3.58,1.55,3.6,2.34,3.62H113c1.54,0,2.44-.89,3.77-13.52C116.76,134.69,115.9,135.94,115,137.4Z"/><path class="cls-2" d="M67.14,113.33c.4-.79.71-1.38.71-1.38-.38.41-.73.77-1,1.07Z"/><path class="cls-2" d="M68.41,115.62c.73-1.29,1.37-2.32,1.37-2.32-.58.72-1.08,1.32-1.53,1.84A4.49,4.49,0,0,1,68.41,115.62Z"/><path class="cls-2" d="M65.09,112.08c.38-.82.76-1.52.76-1.52-.5.53-.95,1-1.36,1.39A5.29,5.29,0,0,1,65.09,112.08Z"/><path d="M70.85,116.28c-7,7.93-4.41,2.76-2.44-.66a4.49,4.49,0,0,0-.16-.48c-4.37,5.07-2.36.65-1.11-1.81L66.8,113c-3.36,3.29-2.55.88-1.71-.94a5.29,5.29,0,0,0-.6-.13c-5.57,5.54-2.73.35-1.37-1.94-.08-.77-.21-1.45-.21-1.45-3.49,5.58-2.76,6.15-2.22,6.56s1.19.41,2.74-.9a1.09,1.09,0,0,0,.48,1.14,1.19,1.19,0,0,0,1.19.14c-.84,2.14-.38,2.45,0,2.73a1,1,0,0,0,.73.19c-.94,2.14-.5,2.46-.09,2.76l.06,0c.81.56,1.61.42,6.93-5.74C72.77,115.49,71.86,115.84,70.85,116.28Z"/><path class="cls-2" d="M121.88,115.48c-.37-.74-.67-1.29-.67-1.29l1,1Z"/><path class="cls-2" d="M120.7,117.61c-.69-1.19-1.29-2.16-1.29-2.16.54.67,1,1.24,1.43,1.72A2.53,2.53,0,0,0,120.7,117.61Z"/><path class="cls-2" d="M123.8,114.31c-.36-.77-.71-1.42-.71-1.42l1.27,1.3A4.23,4.23,0,0,0,123.8,114.31Z"/><path d="M118.41,118.23c6.58,7.42,4.12,2.58,2.29-.62a2.53,2.53,0,0,1,.14-.44c4.08,4.74,2.2.61,1-1.69l.31-.29c3.15,3.07,2.39.82,1.61-.88a4.23,4.23,0,0,1,.56-.12c5.2,5.18,2.55.33,1.28-1.81.07-.73.19-1.36.19-1.36,3.27,5.21,2.58,5.74,2.08,6.14s-1.12.38-2.56-.85a1,1,0,0,1-.46,1.07,1.07,1.07,0,0,1-1.1.12c.78,2,.35,2.3,0,2.55a.94.94,0,0,1-.68.19c.88,2,.46,2.3.09,2.58l-.07,0c-.75.53-1.5.4-6.47-5.36C116.62,117.5,117.47,117.82,118.41,118.23Z"/><path class="cls-2" d="M90.28,198.69c-.25-1.73-.39-3.05-.39-3.05-.17,1.11-.34,2.07-.5,2.92A7.08,7.08,0,0,1,90.28,198.69Z"/><path class="cls-2" d="M94.9,201c-.25-2.9-.37-5.31-.37-5.31-.14,1.83-.27,3.37-.41,4.71A8.15,8.15,0,0,1,94.9,201Z"/><path class="cls-2" d="M85.56,199c-.32-1.77-.49-3.34-.49-3.34-.22,1.43-.43,2.67-.64,3.79A9.48,9.48,0,0,1,85.56,199Z"/><path d="M99.61,199.26c-2.46,20.79-4,9.45-4.71,1.69a8.15,8.15,0,0,0-.78-.6c-1.37,13.15-3.09,3.72-3.84-1.66a7.08,7.08,0,0,0-.89-.13c-1.75,9.12-3.14,4.31-3.83.42a9.48,9.48,0,0,0-1.13.45c-2.77,15.26-4,3.65-4.4-1.58-1-1.17-2-2.12-2-2.12.61,13,2.45,13.06,3.79,13.14s2.4-.69,3.42-4.56a2.17,2.17,0,0,0,2.07,1.3,2.28,2.28,0,0,0,2.07-1.12c1.06,4.42,2.16,4.41,3.14,4.38a2,2,0,0,0,1.4-.51c.89,4.52,2,4.55,3,4.58h.16c2,0,3.08-1.13,4.76-17.11C101.83,195.83,100.75,197.42,99.61,199.26Z"/><path class="cls-2" d="M28.77,199.7c.49-.83.88-1.45.88-1.45-.46.42-.86.78-1.22,1.09A3.89,3.89,0,0,1,28.77,199.7Z"/><path class="cls-2" d="M30,202.28c.89-1.35,1.66-2.43,1.66-2.43-.68.75-1.27,1.37-1.79,1.9C29.92,201.91,30,202.09,30,202.28Z"/><path class="cls-2" d="M26.62,198.2c.47-.87.93-1.62.93-1.62-.58.55-1.1,1-1.58,1.43A5.54,5.54,0,0,1,26.62,198.2Z"/><path d="M34.65,201.1c-5,10.48-3.8,4.24-2.77.05a4.1,4.1,0,0,0-.31-.46c-3.06,6.67-2.28,1.41-1.72-1.55a4.78,4.78,0,0,0-.45-.23c-2.54,4.48-2.41,1.7-2.08-.46a3.94,3.94,0,0,0-.68,0c-4.17,7.52-2.75,1.2-2-1.62-.31-.8-.65-1.46-.65-1.46-2,6.92-1,7.29-.35,7.57s1.38.07,2.61-1.78a1.19,1.19,0,0,0,.86,1.05,1.25,1.25,0,0,0,1.28-.22c-.23,2.51.35,2.7.87,2.86a1.13,1.13,0,0,0,.83,0c-.34,2.53.22,2.74.74,2.93l.09,0c1,.35,1.81,0,5.54-8.13C36.43,199.7,35.57,200.33,34.65,201.1Z"/><path class="cls-2" d="M152.81,203.69c-.49-.84-.88-1.46-.88-1.46.45.42.85.78,1.22,1.1A2.9,2.9,0,0,0,152.81,203.69Z"/><path class="cls-2" d="M151.58,206.27c-.9-1.35-1.67-2.44-1.67-2.44.69.75,1.28,1.37,1.8,1.9A4.27,4.27,0,0,0,151.58,206.27Z"/><path class="cls-2" d="M155,202.18c-.47-.87-.94-1.61-.94-1.61.59.54,1.11,1,1.58,1.42A6,6,0,0,0,155,202.18Z"/><path d="M146.93,205.08c5,10.49,3.79,4.25,2.77,0,.1-.16.2-.32.3-.45,3.06,6.66,2.29,1.4,1.73-1.56a3.68,3.68,0,0,1,.44-.23c2.54,4.48,2.41,1.71,2.09-.46a5.22,5.22,0,0,1,.67,0c4.17,7.52,2.76,1.2,2-1.62.32-.79.66-1.46.66-1.46,2,6.92,1,7.3.34,7.57s-1.38.07-2.6-1.78a1.19,1.19,0,0,1-.86,1,1.27,1.27,0,0,1-1.29-.22c.23,2.51-.35,2.7-.87,2.86a1.11,1.11,0,0,1-.82,0c.34,2.53-.23,2.73-.74,2.93l-.09,0c-1,.34-1.82,0-5.54-8.14C145.15,203.68,146,204.32,146.93,205.08Z"/><path class="cls-2" d="M93.46,60.7C93.18,60,93,59.52,93,59.52c.05.46.08.86.11,1.22A2.2,2.2,0,0,1,93.46,60.7Z"/><path class="cls-2" d="M95.56,61.11C95.15,60,94.84,59,94.84,59c.14.74.25,1.37.34,1.92A3.89,3.89,0,0,1,95.56,61.11Z"/><path class="cls-2" d="M91.61,61.31c-.32-.67-.55-1.28-.55-1.28.06.59.11,1.11.14,1.59A3.68,3.68,0,0,1,91.61,61.31Z"/><path d="M97.26,59.94c1.22,8.58-.61,4.2-1.7,1.17a3.89,3.89,0,0,0-.38-.16c.84,5.41-.84,1.82-1.72-.25a2.2,2.2,0,0,0-.36,0c.26,3.83-.8,2.06-1.49.57a3.68,3.68,0,0,0-.41.31c.51,6.4-1.22,1.88-1.93-.17-.52-.36-1-.64-1-.64,1.62,5.12,2.37,5,2.91,4.85s.89-.53.89-2.18a.9.9,0,0,0,1,.3,1,1,0,0,0,.7-.67c.89,1.66,1.33,1.53,1.72,1.42a.81.81,0,0,0,.51-.35c.83,1.71,1.27,1.61,1.67,1.51h.07c.77-.21,1.11-.78.09-7.35C97.79,58.33,97.52,59.08,97.26,59.94Z"/><path class="cls-2" d="M77.44,58.44l.23-.55c-.13.17-.26.32-.37.44Z"/><path class="cls-2" d="M78,59.27c.24-.51.45-.93.45-.93l-.53.76S78,59.21,78,59.27Z"/><path class="cls-2" d="M76.61,58c.12-.33.24-.61.24-.61-.17.22-.33.41-.47.58Z"/><path d="M79,59.44c-2.43,3.29-1.6,1.21-1-.17,0-.06-.05-.12-.08-.17-1.5,2.09-.88.33-.49-.66l-.14-.11c-1.18,1.38-.94.43-.69-.3l-.23,0c-1.95,2.32-1,.23-.59-.69-.06-.3-.13-.55-.13-.55-1.15,2.25-.85,2.45-.63,2.59s.47.12,1-.44a.43.43,0,0,0,.22.42.45.45,0,0,0,.46,0c-.24.85-.06,1,.11,1a.42.42,0,0,0,.29,0c-.29.85-.11,1,.06,1.06l0,0c.33.18.64.1,2.47-2.44C79.68,59.08,79.34,59.24,79,59.44Z"/><path class="cls-2" d="M109.2,56.49c-.26-.23-.44-.41-.44-.41.11.19.21.35.29.5Z"/><path class="cls-2" d="M110.17,56.25l-.72-.75.53.75Z"/><path class="cls-2" d="M108.53,57.12c-.27-.22-.49-.44-.49-.44l.37.65C108.45,57.26,108.49,57.18,108.53,57.12Z"/><path d="M110.67,55.4c2.23,3.43.57,1.92-.5.85H110c1.44,2.15,0,1-.78.24l-.15.09c.88,1.58.07,1-.52.54,0,.06-.08.14-.12.21,1.49,2.63-.14,1.05-.85.31-.3,0-.56-.07-.56-.07,1.71,1.87,2,1.65,2.21,1.5s.27-.41-.06-1.11a.42.42,0,0,0,.47-.07.44.44,0,0,0,.17-.43c.71.53.88.4,1,.27a.44.44,0,0,0,.15-.25c.69.56.86.43,1,.31l0,0c.29-.24.32-.55-1.43-3.16C110.57,54.61,110.61,55,110.67,55.4Z"/><path class="cls-2" d="M101.67,21.71l-.48-.36.35.47Z"/><path class="cls-2" d="M102.62,21.36c-.44-.35-.8-.66-.8-.66l.61.69Z"/><path class="cls-2" d="M101.08,22.41c-.29-.19-.54-.38-.54-.38l.45.6A1,1,0,0,1,101.08,22.41Z"/><path d="M102,20.47c2.59,3.16.78,1.85-.4.89l-.19,0c1.67,2,.11.94-.75.32l-.14.11c1,1.48.18,1-.46.59l-.09.22c1.77,2.46,0,1.06-.82.41-.3,0-.56,0-.56,0,1.91,1.67,2.17,1.42,2.36,1.24s.23-.43-.18-1.09a.47.47,0,0,0,.59-.56c.76.45.91.29,1,.15a.45.45,0,0,0,.12-.27c.75.49.9.34,1,.2l0,0c.27-.27.26-.59-1.76-3C101.84,19.7,101.92,20.06,102,20.47Z"/><path class="cls-2" d="M87.16,23.63c.14-.31.26-.54.26-.54l-.39.42Z"/><path class="cls-2" d="M87.66,24.5c.28-.5.52-.91.52-.91-.22.29-.41.52-.58.73A.76.76,0,0,1,87.66,24.5Z"/><path class="cls-2" d="M86.36,23.17c.14-.32.28-.6.28-.6l-.52.55Z"/><path d="M88.61,24.73c-2.64,3.12-1.67,1.1-1-.23a.76.76,0,0,0-.06-.18c-1.64,2-.9.27-.44-.69L87,23.51c-1.27,1.3-1,.36-.67-.34l-.24-.05c-2.09,2.18-1,.16-.54-.73,0-.3-.09-.56-.09-.56-1.3,2.17-1,2.39-.8,2.54s.46.15,1-.37a.43.43,0,0,0,.19.44.47.47,0,0,0,.46,0c-.31.83-.13.95,0,1.05a.36.36,0,0,0,.28.07c-.34.83-.17.95,0,1.06l0,0c.32.21.63.15,2.62-2.27Z"/><path class="cls-2" d="M96,12.06c0-.25,0-.45,0-.45,0,.16-.1.29-.15.41Z"/><path class="cls-2" d="M96.6,12.52c.05-.43.1-.78.1-.78-.07.26-.13.48-.19.67Z"/><path class="cls-2" d="M95.32,12c0-.26,0-.49,0-.49l-.2.52Z"/><path d="M97.33,12.41c-.94,2.92-.85,1.24-.73.11l-.09-.11c-.57,1.85-.55.45-.51-.35l-.12,0c-.51,1.26-.57.53-.56,0l-.18,0c-.83,2.12-.68.41-.59-.35-.11-.2-.22-.36-.22-.36-.28,1.88,0,2,.17,2s.37,0,.63-.56c.07.2.18.23.26.24a.33.33,0,0,0,.33-.1c0,.67.18.7.32.72a.33.33,0,0,0,.22,0c0,.67.15.71.29.74h0c.28.06.47-.07,1.17-2.32C97.75,12,97.54,12.18,97.33,12.41Z"/><path class="cls-2" d="M111.4,74.09c-.55-.47-1-.84-1-.84.25.39.47.74.65,1A3.28,3.28,0,0,1,111.4,74.09Z"/><path class="cls-2" d="M113.46,73.52c-.88-.83-1.58-1.54-1.58-1.54.46.6.84,1.12,1.17,1.57C113.17,73.53,113.31,73.53,113.46,73.52Z"/><path class="cls-2" d="M110,75.47c-.58-.46-1.06-.9-1.06-.9.32.51.6,1,.84,1.36A4.91,4.91,0,0,1,110,75.47Z"/><path d="M114.45,71.71c4.93,7.13,1.34,4-1,1.81-.15,0-.29,0-.41,0,3.17,4.46.06,2-1.65.54a3.28,3.28,0,0,0-.31.2c2,3.31.2,2.2-1.08,1.18a4.91,4.91,0,0,0-.22.46c3.32,5.49-.25,2.23-1.8.71-.63-.09-1.19-.12-1.19-.12,3.74,3.86,4.34,3.39,4.77,3s.56-.87-.19-2.35a.91.91,0,0,0,1-.17,1,1,0,0,0,.33-.91c1.54,1.08,1.88.77,2.17.5a.82.82,0,0,0,.3-.55c1.51,1.16,1.85.88,2.17.61l0,0c.6-.54.65-1.2-3.21-6.62C114.2,70,114.3,70.82,114.45,71.71Z"/><path class="cls-2" d="M73.58,73.22c.5-.43.86-.76.86-.76l-.58.94A1.67,1.67,0,0,0,73.58,73.22Z"/><path class="cls-2" d="M71.72,72.7c.8-.75,1.42-1.39,1.42-1.39l-1,1.42A3.7,3.7,0,0,0,71.72,72.7Z"/><path class="cls-2" d="M74.83,74.47c.53-.42,1-.82,1-.82L75,74.87A2.49,2.49,0,0,0,74.83,74.47Z"/><path d="M70.83,71.07c-4.46,6.43-1.21,3.64.89,1.63a3.7,3.7,0,0,1,.37,0c-2.86,4,0,1.81,1.49.49a1.67,1.67,0,0,1,.28.18c-1.76,3-.18,2,1,1.07a2.49,2.49,0,0,1,.2.4c-3,5,.32,1.34,1.72,0a3.34,3.34,0,0,1,1,0c-3.38,3.48-3.92,3.63-4.31,3.32s-.51-.79.17-2.13a.81.81,0,0,1-.91-.15.84.84,0,0,1-.3-.82c-1.39,1-1.69.7-2,.44a.71.71,0,0,1-.27-.48c-1.37,1-1.67.78-2,.54l0,0c-.54-.48-.64-.44,2.84-5.33C71,70.19,71,70.27,70.83,71.07Z"/></g></g></svg>
